# Blender v2.80 (sub 75) OBJ File: ''
# www.blender.org
o WideWindow
v -9.589735 1.499995 10.499997
v -0.000004 -0.500005 10.500000
v -0.000004 1.499995 10.500001
v -9.589731 -0.500001 1.047020
v -9.589733 1.499999 3.833330
v -9.589731 1.499999 1.047021
v -9.589733 -0.500002 3.833329
v -9.589733 1.499996 7.166664
v -9.589733 -0.500004 7.166664
v -8.769195 -1.000001 1.047021
v -0.000000 -1.000000 0.249975
v -0.410267 -1.000000 1.047024
v -8.769197 -0.500002 3.833330
v -8.769195 -0.500001 1.047022
v -0.410267 0.500000 1.047024
v 0.410265 0.499998 3.833333
v -0.410269 0.499998 3.833333
v -8.769197 -0.500004 7.166664
v 0.410265 0.499997 7.166666
v -0.410269 0.499997 7.166666
v -8.769199 -0.500005 9.952972
v 0.410263 0.499995 9.952974
v -0.410271 0.499995 9.952974
v -9.589735 -0.500005 10.499996
v -9.589731 1.500001 -0.000003
v -0.000000 -0.500000 -0.000000
v -9.589731 -0.499999 -0.000004
v -9.589731 -1.000001 1.047020
v -9.589731 -0.999999 0.249971
v 0.410267 -0.500000 1.047024
v -0.410267 -0.500000 1.047024
v -0.410267 0.850015 1.047024
v -8.369209 0.871979 1.447007
v -8.769195 0.850014 1.047022
v -0.410271 0.850010 9.952974
v -8.369213 0.871976 9.552988
v -0.810256 0.871975 9.552990
v -8.769199 0.850010 9.952972
v -8.769197 0.850013 3.833331
v -8.369211 0.871979 3.525940
v -8.369211 0.871978 4.140722
v -8.769197 0.850011 7.166664
v -0.410269 0.850013 3.833333
v -0.810253 0.871980 1.447009
v -0.810255 0.871977 6.859275
v -0.810255 0.871978 4.140725
v -0.410269 0.850012 7.166667
v -0.810255 0.871977 7.474058
v -0.810255 0.871978 3.525942
v -8.369211 0.871977 6.859272
v -8.369211 0.871976 7.474055
v -8.369213 0.999996 9.552988
v -8.369211 0.999999 3.525940
v -8.369209 0.999999 1.447007
v -8.369211 0.999997 6.859272
v -8.369211 0.999998 4.140722
v -0.810253 1.000000 1.447009
v -0.810254 0.999998 3.525942
v -8.369211 0.999996 7.474055
v -0.810255 0.999998 4.140725
v -0.810255 0.999997 6.859275
v -0.810255 0.999997 7.474058
v -0.810256 0.999995 9.552990
v 0.410267 0.500000 1.047024
v -0.000004 -0.500005 9.952974
v 9.589727 1.499995 10.500005
v 9.589729 1.499998 3.833337
v 9.589731 -0.500001 1.047027
v 9.589731 1.499999 1.047028
v 9.589729 1.499996 7.166669
v 9.589729 -0.500002 3.833336
v 9.589729 -0.500004 7.166668
v 8.769196 -1.000001 1.047026
v 9.589731 -1.000001 0.249978
v 8.769194 -0.500002 3.833335
v 8.769196 -0.500001 1.047026
v 8.769194 -0.500004 7.166668
v 8.769192 -0.500005 9.952976
v 9.589731 1.499999 0.000004
v 9.589731 -0.500001 0.000003
v 9.589731 -1.000001 1.047027
v 0.410267 -1.000000 1.047024
v 8.369209 0.871979 1.447012
v 0.410267 0.850015 1.047024
v 8.769196 0.850014 1.047027
v 0.810250 0.871975 9.552990
v 8.769192 0.850010 9.952976
v 0.410263 0.850010 9.952974
v 8.769194 0.850013 3.833336
v 8.369207 0.871978 3.525946
v 8.769194 0.850011 7.166669
v 8.369207 0.871978 4.140728
v 0.810253 0.871979 1.447009
v 0.410265 0.850013 3.833333
v 8.369205 0.871975 9.552992
v 0.810251 0.871977 6.859275
v 0.810251 0.871978 4.140725
v 0.410265 0.850012 7.166667
v 0.810251 0.871976 7.474058
v 0.810251 0.871978 3.525943
v 8.369207 0.871976 6.859278
v 8.369207 0.871976 7.474061
v 8.369205 0.999995 9.552992
v 8.369207 0.999998 3.525946
v 8.369209 0.999999 1.447012
v 8.369207 0.999996 6.859278
v 8.369207 0.999998 4.140728
v 0.810253 0.999999 1.447009
v 0.810252 0.999998 3.525943
v 8.369207 0.999996 7.474061
v 0.810251 0.999998 4.140725
v 0.810251 0.999997 6.859275
v 0.810251 0.999996 7.474058
v 0.810250 0.999995 9.552990
v -0.977686 -0.164502 7.036474
v 10.070646 -1.109313 2.210329
v -0.219114 -0.265388 8.326586
v -0.171731 0.232239 8.337639
v 9.359457 -0.510801 0.931269
v -0.930303 0.333125 7.047526
v 9.312075 -1.008428 0.920215
v 10.118030 -0.611686 2.221381
v 9.829531 -1.485999 6.441076
v -1.739417 -1.182763 2.931446
v -1.129944 -1.210357 1.561124
v 9.220058 -1.458402 7.811400
v -1.725183 -0.682979 2.927711
v 9.843763 -0.986215 6.437342
v -1.115711 -0.710574 1.557389
v 9.234292 -0.958619 7.807664
v -0.838149 -0.019767 1.134019
v -8.258312 -1.065117 10.626040
v -9.315865 -1.065116 9.562281
v 0.219405 -0.019768 2.197777
v -8.289200 -0.567018 10.656748
v -0.869038 0.478332 1.164728
v -9.346754 -0.567017 9.592988
v 0.188516 0.478331 2.228485
v -9.766665 -1.131563 1.690928
v 1.942387 -0.588893 4.666422
v -9.947249 -1.234347 3.176467
v 1.911498 -0.090794 4.697133
v -9.978137 -0.736248 3.207176
v -9.797554 -0.633464 1.721637
v 2.092081 0.011992 3.211592
v 2.122970 -0.486107 3.180883
v 9.992909 -1.108071 5.453895
v -1.226948 -0.137623 9.861052
v -1.591539 -0.070623 8.407579
v 10.357502 -1.175072 6.907369
v -1.179565 0.360004 9.872105
v 10.404884 -0.677445 6.918421
v -1.544155 0.427004 8.418632
v 10.040293 -0.610445 5.464946
v 1.220233 -0.822922 8.071853
v -10.486296 -1.364815 5.086297
v -9.944237 -1.245287 3.692782
v 0.678171 -0.942449 9.465366
v -10.517185 -0.866716 5.117006
v 0.647282 -0.444351 9.496076
v -9.975125 -0.747188 3.723491
v 1.189344 -0.324823 8.102561
v 0.000000 1.500000 0.000000
v 9.589727 -0.500005 10.500004
vt 0.892874 0.263027
vt 0.879623 0.135952
vt 0.892874 0.135952
vt 0.690287 0.713847
vt 0.748269 0.734654
vt 0.690288 0.734657
vt 0.748268 0.713844
vt 0.817634 0.734650
vt 0.817633 0.713841
vt 0.886999 0.734646
vt 0.690286 0.686368
vt 0.673700 0.503886
vt 0.690286 0.512423
vt 0.791283 0.252154
vt 0.754361 0.263027
vt 0.754361 0.252154
vt 0.728784 0.508781
vt 0.786766 0.498990
vt 0.786766 0.508781
vt 0.835453 0.252154
vt 0.791283 0.263027
vt 0.856131 0.498990
vt 0.856130 0.508781
vt 0.872374 0.252154
vt 0.835453 0.263027
vt 0.914112 0.498990
vt 0.914112 0.508781
vt 0.879623 0.263027
vt 0.642486 0.703443
vt 0.663295 0.503886
vt 0.663295 0.703443
vt 0.668499 0.713848
vt 0.668500 0.734658
vt 0.690286 0.703443
vt 0.673700 0.703443
vt 0.700691 0.686368
vt 0.700691 0.703443
vt 0.700691 0.495348
vt 0.700691 0.512423
vt 0.728784 0.512423
vt 0.737107 0.678044
vt 0.728784 0.686368
vt 0.914112 0.512423
vt 0.905789 0.678044
vt 0.905788 0.520747
vt 0.721500 0.512423
vt 0.921396 0.512423
vt 0.914112 0.686367
vt 0.786765 0.686368
vt 0.780369 0.678044
vt 0.793162 0.678044
vt 0.856130 0.686368
vt 0.786765 0.512423
vt 0.737107 0.520747
vt 0.849734 0.520747
vt 0.793162 0.520747
vt 0.856130 0.512423
vt 0.862527 0.520747
vt 0.780369 0.520747
vt 0.849734 0.678044
vt 0.862527 0.678044
vt 0.962677 0.354083
vt 0.972725 0.014364
vt 0.972746 0.354083
vt 0.962677 0.354083
vt 0.972746 0.447515
vt 0.962700 0.447515
vt 0.972811 0.787233
vt 0.962677 0.354083
vt 0.972746 0.447515
vt 0.962700 0.447515
vt 0.962743 0.787234
vt 0.972801 0.880665
vt 0.962717 0.880664
vt 0.972746 0.447515
vt 0.962700 0.447515
vt 0.962743 0.787234
vt 0.972801 0.880665
vt 0.962717 0.880664
vt 0.962743 0.787234
vt 0.972801 0.880665
vt 0.962717 0.880664
vt 0.972811 0.787233
vt 0.972746 0.354083
vt 0.962677 0.014364
vt 0.972725 0.014364
vt 0.972725 0.014364
vt 0.972746 0.354083
vt 0.972811 0.787233
vt 0.774813 0.241451
vt 0.848501 0.036561
vt 0.848501 0.241452
vt 0.774813 0.241451
vt 0.848501 0.036561
vt 0.848501 0.241452
vt 0.848501 0.241451
vt 0.774813 0.036561
vt 0.848501 0.036562
vt 0.721500 0.495348
vt 0.942205 0.686369
vt 0.942205 0.503886
vt 0.942198 0.744351
vt 0.942190 0.813716
vt 0.914105 0.744348
vt 0.914097 0.813713
vt 0.942183 0.871697
vt 0.914090 0.871694
vt 0.892874 0.008878
vt 0.748268 0.273115
vt 0.690286 0.293924
vt 0.690286 0.273115
vt 0.817633 0.273115
vt 0.748268 0.293924
vt 0.886997 0.273115
vt 0.817633 0.293924
vt 0.690286 0.321403
vt 0.673700 0.304329
vt 0.754361 0.008878
vt 0.791283 0.019751
vt 0.754361 0.019751
vt 0.791283 0.008878
vt 0.835453 0.019751
vt 0.835453 0.008878
vt 0.872374 0.019751
vt 0.872374 0.135952
vt 0.642486 0.304329
vt 0.663295 0.304329
vt 0.668498 0.293924
vt 0.668498 0.273115
vt 0.690286 0.304329
vt 0.690286 0.495348
vt 0.700691 0.321403
vt 0.700691 0.304329
vt 0.737107 0.329727
vt 0.728784 0.495348
vt 0.728784 0.321404
vt 0.905789 0.487024
vt 0.914112 0.321404
vt 0.914112 0.495348
vt 0.921396 0.495348
vt 0.786765 0.321403
vt 0.780368 0.329727
vt 0.856130 0.321403
vt 0.793162 0.329727
vt 0.737108 0.487025
vt 0.786766 0.495348
vt 0.905788 0.329726
vt 0.849734 0.487024
vt 0.793162 0.487025
vt 0.856131 0.495348
vt 0.862527 0.487024
vt 0.780369 0.487025
vt 0.849733 0.329727
vt 0.862527 0.329727
vt 0.972746 0.354083
vt 0.962677 0.014364
vt 0.972725 0.014364
vt 0.972811 0.787233
vt 0.962717 0.880664
vt 0.962743 0.787234
vt 0.972746 0.447515
vt 0.972811 0.787233
vt 0.962717 0.880664
vt 0.962743 0.787234
vt 0.972746 0.354083
vt 0.962700 0.447515
vt 0.962677 0.354083
vt 0.972811 0.787233
vt 0.962717 0.880664
vt 0.962743 0.787234
vt 0.972746 0.354083
vt 0.962700 0.447515
vt 0.962677 0.354083
vt 0.962700 0.447515
vt 0.962677 0.354083
vt 0.972746 0.447515
vt 0.972725 0.014364
vt 0.962677 0.014364
vt 0.972725 0.014364
vt 0.972746 0.447515
vt 0.848501 0.241451
vt 0.774813 0.036561
vt 0.848501 0.036561
vt 0.848501 0.241451
vt 0.774813 0.036561
vt 0.848501 0.036561
vt 0.774813 0.241452
vt 0.848501 0.036561
vt 0.848501 0.241451
vt 0.942205 0.321402
vt 0.942195 0.263420
vt 0.914102 0.263424
vt 0.942184 0.194055
vt 0.942175 0.136073
vt 0.914091 0.194059
vt 0.914082 0.136077
vt 0.890349 0.870449
vt 0.585141 0.832297
vt 0.890349 0.832298
vt 0.890349 0.819581
vt 0.585141 0.781430
vt 0.890349 0.781430
vt 0.585141 0.883166
vt 0.890349 0.883166
vt 0.585141 0.870449
vt 0.572424 0.832298
vt 0.903065 0.832297
vt 0.903066 0.870448
vt 0.585141 0.870449
vt 0.890349 0.832298
vt 0.890349 0.870449
vt 0.585141 0.832298
vt 0.890349 0.819581
vt 0.585141 0.781430
vt 0.890349 0.781430
vt 0.585141 0.883166
vt 0.890349 0.883166
vt 0.572424 0.832298
vt 0.903065 0.832297
vt 0.903066 0.870448
vt 0.585141 0.870449
vt 0.890349 0.832298
vt 0.890349 0.870449
vt 0.585141 0.832298
vt 0.890349 0.819581
vt 0.585141 0.781430
vt 0.890349 0.781430
vt 0.890349 0.883166
vt 0.572424 0.832298
vt 0.903065 0.832297
vt 0.903067 0.870448
vt 0.890349 0.870449
vt 0.585141 0.832298
vt 0.890349 0.832298
vt 0.585141 0.819581
vt 0.890349 0.819581
vt 0.890349 0.781430
vt 0.585141 0.883166
vt 0.890349 0.883166
vt 0.572424 0.870449
vt 0.585141 0.870449
vt 0.903066 0.870448
vt 0.903065 0.832297
vt 0.585141 0.870449
vt 0.890349 0.832298
vt 0.890349 0.870449
vt 0.585141 0.832298
vt 0.890349 0.819581
vt 0.585141 0.819581
vt 0.890349 0.781430
vt 0.585141 0.883166
vt 0.890349 0.883166
vt 0.572424 0.832298
vt 0.903065 0.832297
vt 0.903066 0.870448
vt 0.585141 0.870449
vt 0.890349 0.832298
vt 0.890349 0.870449
vt 0.585141 0.832298
vt 0.890349 0.819581
vt 0.585141 0.819581
vt 0.890349 0.781430
vt 0.585141 0.883166
vt 0.890349 0.883166
vt 0.572424 0.870449
vt 0.903066 0.870448
vt 0.903065 0.832298
vt 0.886998 0.713837
vt 0.728784 0.498990
vt 0.642486 0.503886
vt 0.962677 0.014364
vt 0.962677 0.014364
vt 0.774813 0.036562
vt 0.774813 0.036561
vt 0.774813 0.241451
vt 0.879623 0.008878
vt 0.886997 0.293924
vt 0.972801 0.880665
vt 0.972801 0.880665
vt 0.972801 0.880665
vt 0.962677 0.014364
vt 0.774813 0.241452
vt 0.774813 0.241451
vt 0.774813 0.036561
vt 0.585141 0.819581
vt 0.572424 0.870449
vt 0.585141 0.819581
vt 0.572424 0.870449
vt 0.585141 0.819581
vt 0.585141 0.883166
vt 0.572424 0.870449
vt 0.585141 0.781430
vt 0.572424 0.832298
vt 0.585141 0.781430
vt 0.572424 0.870449
vt 0.585141 0.781430
vt 0.572424 0.832298
vn -0.0000 -0.0000 1.0000
vn -1.0000 0.0000 -0.0000
vn -0.0000 -1.0000 -0.0000
vn 0.0000 0.0000 -1.0000
vn 0.0000 -0.4472 -0.8944
vn -0.0129 -0.9990 0.0420
vn 0.0129 -0.9990 0.0420
vn -0.0129 -0.9990 -0.0420
vn 0.0129 -0.9990 -0.0420
vn 0.0548 -0.9985 -0.0000
vn 0.0139 -0.9863 -0.1641
vn 0.0975 -0.9814 0.1656
vn -0.0548 -0.9985 -0.0000
vn -0.0975 -0.9814 -0.1656
vn -0.0821 -0.9843 0.1565
vn -0.0139 -0.9864 0.1641
vn -0.0129 -0.9876 -0.1567
vn 0.0821 -0.9843 -0.1565
vn 0.0129 -0.9876 0.1567
vn 1.0000 0.0000 0.0000
vn -0.0139 -0.9863 -0.1641
vn -0.0975 -0.9814 0.1656
vn 0.0975 -0.9814 -0.1656
vn 0.0821 -0.9843 0.1565
vn 0.0139 -0.9864 0.1641
vn 0.0129 -0.9876 -0.1567
vn -0.0821 -0.9843 -0.1565
vn -0.0129 -0.9876 0.1567
vn -0.0948 -0.9953 -0.0221
vn 0.5057 -0.0673 0.8601
vn 0.0948 0.9953 0.0221
vn -0.5057 0.0673 -0.8601
vn 0.8575 -0.0703 -0.5097
vn -0.8575 0.0703 0.5097
vn -0.0285 -0.9996 0.0075
vn -0.4063 0.0184 0.9135
vn 0.0285 0.9996 -0.0075
vn 0.4063 -0.0184 -0.9135
vn 0.9133 -0.0230 0.4067
vn -0.9133 0.0230 -0.4067
vn 0.0618 -0.9962 -0.0614
vn 0.7050 -0.0000 0.7092
vn -0.0618 0.9962 0.0614
vn -0.7050 -0.0000 -0.7092
vn 0.7065 0.0871 -0.7024
vn -0.7065 -0.0871 0.7024
vn -0.1204 -0.0685 0.9904
vn 0.1204 0.0685 -0.9904
vn 0.9908 0.0538 0.1242
vn -0.9908 -0.0538 -0.1242
vn 0.2431 -0.0447 0.9690
vn -0.2431 0.0447 -0.9690
vn 0.9654 -0.0865 -0.2461
vn -0.9654 0.0865 0.2461
vn -0.3614 -0.0797 0.9290
vn 0.3614 0.0797 -0.9290
vn 0.9304 0.0352 0.3649
vn -0.9304 -0.0352 -0.3649
s 1
f 1/1/1 2/2/1 3/3/1
f 4/4/2 5/5/2 6/6/2
f 7/7/2 8/8/2 5/5/2
f 9/9/2 1/10/2 8/8/2
f 10/11/3 11/12/3 12/13/3
f 13/14/3 4/15/3 14/16/3
f 15/17/3 16/18/3 17/19/3
f 18/20/3 7/21/3 13/14/3
f 17/19/3 19/22/3 20/23/3
f 21/24/3 9/25/3 18/20/3
f 20/23/3 22/26/3 23/27/3
f 21/24/3 2/2/3 24/28/3
f 25/29/4 26/30/4 27/31/4
f 27/32/2 6/6/2 25/33/2
f 10/11/3 28/34/3 29/35/3
f 12/13/1 14/36/1 10/11/1
f 10/11/1 4/37/1 28/34/1
f 4/4/2 29/35/2 28/34/2
f 12/13/1 30/38/1 31/39/1
f 29/35/5 26/30/5 11/12/5
f 32/40/6 33/41/7 34/42/7
f 35/43/8 36/44/9 37/45/8
f 34/42/1 15/46/1 32/40/1
f 23/47/4 38/48/4 35/43/4
f 39/49/10 33/41/7 40/50/11
f 41/51/12 42/52/10 39/49/10
f 43/53/13 44/54/6 32/40/6
f 42/52/10 36/44/9 38/48/9
f 43/53/13 45/55/14 46/56/15
f 47/57/13 37/45/8 48/58/16
f 46/56/15 40/50/11 49/59/17
f 50/60/18 48/58/16 51/61/19
f 41/51/12 39/49/10 40/50/11
f 49/59/17 43/53/13 46/56/15
f 51/61/19 42/52/10 50/60/18
f 45/55/14 47/57/13 48/58/16
f 52/62/4 37/63/4 36/64/4
f 53/65/20 33/66/20 54/67/20
f 44/68/1 54/67/1 33/66/1
f 55/69/20 41/70/12 56/71/20
f 57/72/2 49/73/2 58/74/2
f 52/62/20 51/75/20 59/76/20
f 60/77/2 45/78/14 61/79/2
f 62/80/2 37/81/2 63/82/2
f 60/77/1 41/70/12 46/83/15
f 40/84/11 58/85/4 49/86/17
f 55/69/4 45/87/14 50/88/18
f 48/89/16 59/76/1 51/75/19
f 54/90/3 58/91/3 53/92/3
f 56/93/3 61/94/3 55/95/3
f 52/96/3 62/97/3 63/98/3
f 31/39/1 64/99/1 15/46/1
f 21/100/4 23/47/4 65/101/4
f 18/102/20 38/48/20 21/100/20
f 13/103/20 42/104/20 18/102/20
f 39/105/20 14/106/20 34/107/20
f 15/46/1 14/36/1 31/39/1
f 47/57/2 23/27/2 35/43/2
f 43/53/2 20/23/2 47/57/2
f 32/40/2 17/19/2 43/53/2
f 2/2/1 66/108/1 3/3/1
f 67/109/20 68/110/20 69/111/20
f 70/112/20 71/113/20 67/109/20
f 66/114/20 72/115/20 70/112/20
f 73/116/3 11/12/3 74/117/3
f 68/118/3 75/119/3 76/120/3
f 71/121/3 77/122/3 75/119/3
f 72/123/3 78/124/3 77/122/3
f 78/124/3 2/2/3 65/125/3
f 26/30/4 79/126/4 80/127/4
f 69/111/20 80/128/20 79/129/20
f 73/116/3 74/117/3 81/130/3
f 11/12/3 82/131/3 12/13/3
f 76/132/1 82/131/1 73/116/1
f 68/133/1 73/116/1 81/130/1
f 68/110/20 74/117/20 80/128/20
f 26/30/5 74/117/5 11/12/5
f 83/134/6 84/135/7 85/136/6
f 86/137/9 87/138/8 88/139/9
f 85/136/1 84/135/1 64/99/1
f 22/140/4 88/139/4 87/138/4
f 83/134/6 89/141/13 90/142/21
f 91/143/13 92/144/22 89/141/13
f 93/145/7 94/146/10 84/135/7
f 95/147/8 91/143/13 87/138/8
f 96/148/23 94/146/10 97/149/24
f 86/137/9 98/150/10 99/151/25
f 90/142/21 97/149/24 100/152/26
f 99/151/25 101/153/27 102/154/28
f 92/144/22 90/142/21 89/141/13
f 100/152/26 97/149/24 94/146/10
f 102/154/28 101/153/27 91/143/13
f 96/148/23 99/151/25 98/150/10
f 86/155/4 103/156/4 95/157/4
f 83/158/2 104/159/2 105/160/2
f 105/160/1 93/161/1 83/158/1
f 92/162/22 106/163/2 107/164/2
f 100/165/20 108/166/20 109/167/20
f 102/168/2 103/169/2 110/170/2
f 96/171/23 111/172/20 112/173/20
f 86/155/20 113/174/20 114/175/20
f 92/162/22 111/172/1 97/176/24
f 109/167/4 90/177/21 100/165/26
f 96/171/23 106/178/4 101/179/27
f 110/170/1 99/180/25 102/168/28
f 109/181/3 105/182/3 104/183/3
f 112/184/3 107/185/3 106/186/3
f 113/187/3 103/188/3 114/189/3
f 23/47/4 22/140/4 65/101/4
f 22/140/4 78/190/4 65/101/4
f 87/138/2 77/191/2 78/190/2
f 91/192/2 75/193/2 77/191/2
f 76/194/2 89/195/2 85/196/2
f 64/99/1 76/132/1 85/136/1
f 22/26/20 98/150/20 88/139/20
f 19/22/20 94/146/20 98/150/20
f 16/18/20 84/135/20 94/146/20
f 115/197/29 116/198/29 117/199/29
f 116/198/30 118/200/30 117/199/30
f 118/200/31 119/201/31 120/202/31
f 119/203/32 115/197/32 120/204/32
f 121/205/33 122/206/33 116/198/33
f 115/197/34 118/207/34 120/208/34
f 123/209/35 124/210/35 125/211/35
f 126/212/36 127/213/36 124/210/36
f 127/213/37 128/214/37 129/215/37
f 128/216/38 125/211/38 129/217/38
f 123/209/39 130/218/39 126/212/39
f 125/211/40 127/219/40 129/220/40
f 131/221/41 132/222/41 133/223/41
f 134/224/42 135/225/42 132/222/42
f 135/225/43 136/226/43 137/227/43
f 137/228/44 131/221/44 133/223/44
f 131/221/45 138/229/45 134/224/45
f 133/223/46 135/230/46 137/231/46
f 139/232/41 140/233/41 141/234/41
f 141/234/47 142/235/47 143/236/47
f 142/235/43 144/237/43 143/236/43
f 145/238/48 139/232/48 144/239/48
f 145/240/49 140/233/49 146/241/49
f 144/242/50 141/234/50 143/243/50
f 147/244/29 148/245/29 149/246/29
f 150/247/51 151/248/51 148/245/51
f 152/249/31 153/250/31 151/248/31
f 154/251/52 149/246/52 153/252/52
f 147/244/53 152/253/53 150/247/53
f 149/246/54 151/254/54 153/255/54
f 155/256/41 156/257/41 157/258/41
f 158/259/55 159/260/55 156/257/55
f 160/261/43 161/262/43 159/260/43
f 162/263/56 157/258/56 161/264/56
f 162/265/57 158/259/57 155/256/57
f 161/266/58 156/257/58 159/267/58
f 1/1/1 24/28/1 2/2/1
f 4/4/2 7/7/2 5/5/2
f 7/7/2 9/9/2 8/8/2
f 9/9/2 24/268/2 1/10/2
f 10/11/3 29/35/3 11/12/3
f 13/14/3 7/21/3 4/15/3
f 15/17/3 64/269/3 16/18/3
f 18/20/3 9/25/3 7/21/3
f 17/19/3 16/18/3 19/22/3
f 21/24/3 24/28/3 9/25/3
f 20/23/3 19/22/3 22/26/3
f 21/24/3 65/125/3 2/2/3
f 25/29/4 163/270/4 26/30/4
f 27/32/2 4/4/2 6/6/2
f 12/13/1 31/39/1 14/36/1
f 10/11/1 14/36/1 4/37/1
f 4/4/2 27/32/2 29/35/2
f 12/13/1 82/131/1 30/38/1
f 29/35/5 27/31/5 26/30/5
f 32/40/6 44/54/6 33/41/7
f 35/43/8 38/48/9 36/44/9
f 39/49/10 34/42/7 33/41/7
f 41/51/12 50/60/18 42/52/10
f 43/53/13 49/59/17 44/54/6
f 42/52/10 51/61/19 36/44/9
f 43/53/13 47/57/13 45/55/14
f 47/57/13 35/43/8 37/45/8
f 46/56/15 41/51/12 40/50/11
f 50/60/18 45/55/14 48/58/16
f 52/62/4 63/271/4 37/63/4
f 53/65/20 40/84/20 33/66/20
f 44/68/1 57/72/1 54/67/1
f 55/69/20 50/88/18 41/70/12
f 57/72/2 44/68/2 49/73/2
f 52/62/20 36/64/20 51/75/20
f 60/77/2 46/83/15 45/78/14
f 62/80/2 48/89/2 37/81/2
f 60/77/1 56/71/1 41/70/12
f 40/84/11 53/65/4 58/85/4
f 55/69/4 61/272/4 45/87/14
f 48/89/16 62/80/1 59/76/1
f 54/90/3 57/273/3 58/91/3
f 56/93/3 60/274/3 61/94/3
f 52/96/3 59/275/3 62/97/3
f 31/39/1 30/38/1 64/99/1
f 21/100/4 38/48/4 23/47/4
f 18/102/20 42/104/20 38/48/20
f 13/103/20 39/105/20 42/104/20
f 39/105/20 13/103/20 14/106/20
f 15/46/1 34/42/1 14/36/1
f 47/57/2 20/23/2 23/27/2
f 43/53/2 17/19/2 20/23/2
f 32/40/2 15/17/2 17/19/2
f 2/2/1 164/276/1 66/108/1
f 67/109/20 71/113/20 68/110/20
f 70/112/20 72/115/20 71/113/20
f 66/114/20 164/277/20 72/115/20
f 73/116/3 82/131/3 11/12/3
f 68/118/3 71/121/3 75/119/3
f 71/121/3 72/123/3 77/122/3
f 72/123/3 164/276/3 78/124/3
f 78/124/3 164/276/3 2/2/3
f 26/30/4 163/270/4 79/126/4
f 69/111/20 68/110/20 80/128/20
f 76/132/1 30/38/1 82/131/1
f 68/133/1 76/132/1 73/116/1
f 68/110/20 81/130/20 74/117/20
f 26/30/5 80/127/5 74/117/5
f 83/134/6 93/145/7 84/135/7
f 86/137/9 95/147/8 87/138/8
f 83/134/6 85/136/6 89/141/13
f 91/143/13 101/153/27 92/144/22
f 93/145/7 100/152/26 94/146/10
f 95/147/8 102/154/28 91/143/13
f 96/148/23 98/150/10 94/146/10
f 86/137/9 88/139/9 98/150/10
f 90/142/21 92/144/22 97/149/24
f 99/151/25 96/148/23 101/153/27
f 86/155/4 114/175/4 103/156/4
f 83/158/2 90/278/2 104/159/2
f 105/160/1 108/166/1 93/161/1
f 92/162/22 101/279/27 106/163/2
f 100/165/20 93/161/20 108/166/20
f 102/168/2 95/280/2 103/169/2
f 96/171/23 97/176/24 111/172/20
f 86/155/20 99/180/20 113/174/20
f 92/162/22 107/164/1 111/172/1
f 109/167/4 104/281/4 90/177/21
f 96/171/23 112/173/4 106/178/4
f 110/170/1 113/174/1 99/180/25
f 109/181/3 108/282/3 105/182/3
f 112/184/3 111/283/3 107/185/3
f 113/187/3 110/284/3 103/188/3
f 22/140/4 87/138/4 78/190/4
f 87/138/2 91/192/2 77/191/2
f 91/192/2 89/195/2 75/193/2
f 76/194/2 75/193/2 89/195/2
f 64/99/1 30/38/1 76/132/1
f 22/26/20 19/22/20 98/150/20
f 19/22/20 16/18/20 94/146/20
f 16/18/20 64/269/20 84/135/20
f 115/197/29 121/205/29 116/198/29
f 116/198/30 122/285/30 118/200/30
f 118/200/31 122/285/31 119/201/31
f 119/203/32 121/205/32 115/197/32
f 121/205/33 119/286/33 122/206/33
f 115/197/34 117/199/34 118/207/34
f 123/209/35 126/212/35 124/210/35
f 126/212/36 130/287/36 127/213/36
f 127/213/37 130/287/37 128/214/37
f 128/216/38 123/209/38 125/211/38
f 123/209/39 128/288/39 130/218/39
f 125/211/40 124/210/40 127/219/40
f 131/221/41 134/224/41 132/222/41
f 134/224/42 138/289/42 135/225/42
f 135/225/43 138/289/43 136/226/43
f 137/228/44 136/290/44 131/221/44
f 131/221/45 136/291/45 138/229/45
f 133/223/46 132/222/46 135/230/46
f 139/232/41 146/241/41 140/233/41
f 141/234/47 140/233/47 142/235/47
f 142/235/43 145/292/43 144/237/43
f 145/238/48 146/241/48 139/232/48
f 145/240/49 142/293/49 140/233/49
f 144/242/50 139/232/50 141/234/50
f 147/244/29 150/247/29 148/245/29
f 150/247/51 152/249/51 151/248/51
f 152/249/31 154/294/31 153/250/31
f 154/251/52 147/244/52 149/246/52
f 147/244/53 154/295/53 152/253/53
f 149/246/54 148/245/54 151/254/54
f 155/256/41 158/259/41 156/257/41
f 158/259/55 160/261/55 159/260/55
f 160/261/43 162/296/43 161/262/43
f 162/263/56 155/256/56 157/258/56
f 162/265/57 160/297/57 158/259/57
f 161/266/58 157/258/58 156/257/58
