# Wavefront Obj file
# 
# verts: 99 uv-s: 232
mtllib KitchenStairs.mtl

g Stairs
#pivot 0.000000 0.000000 0.000000

v 0.561614 10.999989 37.928486
v 7.306210 8.999990 37.928486
v 7.306210 10.999990 37.928486
v 0.561615 8.999989 37.928486
v 7.306210 8.999990 35.928486
v 0.561614 8.999989 35.928486
v 7.306211 6.999990 35.928486
v 0.561615 6.999989 35.928486
v 7.306210 6.999990 33.928486
v 0.561612 6.999989 33.928486
v 7.306211 4.999990 33.928486
v 0.561612 4.999989 33.928486
v 7.306210 4.999990 31.928488
v 0.561612 4.999989 31.928490
v 7.306211 3.000005 31.928488
v 0.561613 3.000004 31.928490
v 7.306211 3.000005 29.928488
v 0.561612 3.000004 29.928490
v 7.306211 1.000005 29.928488
v 0.561613 1.000004 29.928490
v 7.306211 1.000005 27.928488
v 0.561613 1.000004 27.928490
v 7.306211 -0.999995 27.928488
v 0.561614 -0.999996 27.928490
v 7.306211 -0.999995 25.928486
v 0.561613 -0.999996 25.928490
v 7.306211 -2.999994 25.928486
v 0.561614 -2.999997 25.928490
v 7.306211 -2.999994 23.928486
v 0.561614 -2.999997 23.928490
v 7.306211 -4.999995 23.928486
v 0.561614 -4.999997 23.928490
v 7.306211 -4.999995 21.928486
v 0.561614 -4.999997 21.928490
v 7.306211 -6.999995 21.928486
v 0.561615 -6.999997 21.928490
v 7.306211 -6.999995 19.928488
v 0.561614 -6.999997 19.928490
v 7.306213 -11.999992 19.928488
v -2.026442 -11.999996 19.928490
v 0.561616 -11.999994 19.928490
v -9.790599 -6.999998 19.928492
v -9.790596 -11.999996 19.928492
v -2.026444 -6.999997 19.928490
v -9.790599 -6.999998 17.928492
v -2.026445 -6.999997 17.928490
v -9.790599 -4.999999 17.928492
v -2.026446 -4.999997 17.928490
v -9.790603 -4.999999 15.928493
v -2.026446 -4.999997 15.928491
v -9.790603 -2.999999 15.928493
v -2.026447 -2.999997 15.928491
v -9.790604 -2.999999 13.928493
v -2.026450 -2.999997 13.928491
v -9.790604 -0.999998 13.928493
v -2.026451 -0.999996 13.928491
v -9.790605 -0.999998 11.928493
v -2.026452 -0.999996 11.928491
v -9.790606 1.000002 11.928493
v -2.026453 1.000004 11.928491
v -9.790607 1.000002 9.928493
v -2.026453 1.000004 9.928491
v -9.790607 3.000002 9.928493
v -2.026454 3.000003 9.928491
v -9.790607 3.000002 7.928493
v -2.026454 3.000003 7.928491
v -9.790609 5.000001 7.928493
v -2.026455 5.000003 7.928491
v -9.790609 5.000001 5.928493
v -2.026456 5.000003 5.928492
v -9.790610 7.000001 5.928493
v -2.026456 7.000003 5.928492
v -9.790611 7.000001 3.928492
v -2.026457 7.000003 3.928490
v -9.790613 9.000001 3.928492
v -2.026458 9.000002 3.928490
v -9.790614 9.000001 1.928492
v -2.026461 9.000002 1.928490
v -9.790615 11.000001 1.928492
v -2.026462 11.000002 1.928490
v -9.790615 11.000001 -0.071507
v -2.026460 11.000002 -0.071510
v 0.561604 -6.999997 -0.071510
v -2.026452 -6.999997 -0.071510
v 7.306213 -11.999992 17.928488
v 0.561616 -11.999994 17.928490
v -2.026443 -11.999996 17.928490
v 7.306211 -7.000025 17.928488
v 0.561614 -7.000027 17.928490
v 7.306200 22.284107 17.928488
v 0.561606 -11.999994 -0.071510
v -9.790596 -11.999996 17.928492
v -2.026450 -11.999996 -0.071510
v 0.561614 10.999989 39.928486
v 0.561601 22.284105 17.928490
v 7.306205 22.284107 39.928486
v 0.561610 22.284105 39.928486
v -9.790606 -11.999996 -0.071507
v 7.306210 10.999990 39.928486
# 99 positions

vt 0.126455 0.809603
vt 0.239294 0.776142
vt 0.239294 0.809603
vt 0.778070 0.653783
vt 0.811531 0.540944
vt 0.778070 0.540944
vt 0.768431 0.078946
vt 0.881270 0.045485
vt 0.881270 0.078946
vt 0.778070 0.775238
vt 0.811531 0.662399
vt 0.778070 0.662399
vt 0.729874 0.331495
vt 0.842713 0.298034
vt 0.842713 0.331495
vt 0.369365 0.802228
vt 0.402826 0.689389
vt 0.369365 0.689389
vt 0.729874 0.371979
vt 0.842713 0.338519
vt 0.842713 0.371979
vt 0.506243 0.838857
vt 0.539703 0.726018
vt 0.506243 0.726018
vt 0.729874 0.412465
vt 0.842713 0.379004
vt 0.842713 0.412465
vt 0.778070 0.532328
vt 0.811531 0.419489
vt 0.778070 0.419489
vt 0.126455 0.769118
vt 0.239294 0.735658
vt 0.239294 0.769118
vt 0.421417 0.769454
vt 0.454878 0.656615
vt 0.421417 0.656615
vt 0.247910 0.803820
vt 0.360749 0.770359
vt 0.360749 0.803820
vt 0.005000 0.752104
vt 0.038461 0.639265
vt 0.005000 0.639265
vt 0.005000 0.803819
vt 0.117839 0.770359
vt 0.117839 0.803820
vt 0.045485 0.752104
vt 0.078946 0.639265
vt 0.045485 0.639265
vt 0.646976 0.078946
vt 0.759815 0.045485
vt 0.759815 0.078946
vt 0.689389 0.410873
vt 0.722850 0.298034
vt 0.689389 0.298034
vt 0.259165 0.586038
vt 0.372005 0.502387
vt 0.372005 0.586038
vt 0.215867 0.502387
vt 0.259165 0.502387
vt 0.085970 0.586038
vt 0.085970 0.502387
vt 0.497690 0.855915
vt 0.464230 0.726018
vt 0.497690 0.726018
vt 0.632284 0.338519
vt 0.502387 0.371980
vt 0.502387 0.338519
vt 0.368124 0.134897
vt 0.334663 0.005000
vt 0.368124 0.005000
vt 0.215867 0.592996
vt 0.085970 0.626457
vt 0.085970 0.592996
vt 0.408608 0.134897
vt 0.375148 0.005000
vt 0.408608 0.005000
vt 0.639995 0.045485
vt 0.510098 0.078946
vt 0.510098 0.045485
vt 0.449093 0.134897
vt 0.415633 0.005000
vt 0.449093 0.005000
vt 0.632284 0.298034
vt 0.502387 0.331495
vt 0.502387 0.298034
vt 0.038460 0.632283
vt 0.005000 0.502387
vt 0.038460 0.502387
vt 0.639995 0.005000
vt 0.510098 0.038461
vt 0.510098 0.005000
vt 0.078945 0.632283
vt 0.045485 0.502387
vt 0.078945 0.502387
vt 0.776873 0.005000
vt 0.646976 0.038461
vt 0.646976 0.005000
vt 0.522352 0.719037
vt 0.488892 0.589140
vt 0.522352 0.589140
vt 0.352745 0.592996
vt 0.222848 0.626457
vt 0.222848 0.592996
vt 0.119430 0.763378
vt 0.085970 0.633481
vt 0.119430 0.633481
vt 0.256352 0.633481
vt 0.126455 0.666942
vt 0.126455 0.633481
vt 0.296793 0.763378
vt 0.263333 0.633481
vt 0.296793 0.633481
vt 0.256352 0.673966
vt 0.126455 0.707427
vt 0.126455 0.673966
vt 0.337278 0.763378
vt 0.303818 0.633481
vt 0.337278 0.633481
vt 0.414392 0.648617
vt 0.414392 0.682077
vt 0.380932 0.682077
vt 0.447853 0.615156
vt 0.447853 0.648617
vt 0.481313 0.581695
vt 0.481313 0.615156
vt 0.514775 0.548235
vt 0.514775 0.581695
vt 0.548235 0.514774
vt 0.548235 0.548235
vt 0.581696 0.481314
vt 0.581696 0.514774
vt 0.615156 0.447853
vt 0.615156 0.481314
vt 0.648616 0.414393
vt 0.648616 0.447853
vt 0.682077 0.380932
vt 0.682077 0.414393
vt 0.497690 0.899214
vt 0.464230 0.855915
vt 0.163084 0.899214
vt 0.163084 0.855915
vt 0.469613 0.117839
vt 0.503074 0.005000
vt 0.469613 0.005000
vt 0.469613 0.161138
vt 0.503074 0.117839
vt 0.469613 0.291035
vt 0.503074 0.161138
vt 0.769455 0.995000
vt 0.656615 0.911349
vt 0.656615 0.995000
vt 0.769455 0.911349
vt 0.656615 0.421417
vt 0.380932 0.380932
vt 0.804219 0.117839
vt 0.503074 0.291035
vt 0.804219 0.161138
vt 0.640019 0.822811
vt 0.556367 0.521665
vt 0.640019 0.521665
vt 0.846233 0.085970
vt 0.812772 0.198809
vt 0.846233 0.198809
vt 0.005000 0.380932
vt 0.373067 0.493771
vt 0.005000 0.493771
vt 0.494932 0.339606
vt 0.005000 0.373066
vt 0.494932 0.373066
vt 0.227247 0.038461
vt 0.193786 0.038461
vt 0.227247 0.071921
vt 0.005000 0.005000
vt 0.193786 0.005000
vt 0.260708 0.105382
vt 0.260708 0.071921
vt 0.294169 0.138842
vt 0.294169 0.105382
vt 0.327628 0.172303
vt 0.327628 0.138842
vt 0.361090 0.205763
vt 0.361090 0.172303
vt 0.394551 0.239224
vt 0.394551 0.205763
vt 0.428010 0.272685
vt 0.428010 0.239224
vt 0.461471 0.306145
vt 0.461471 0.272685
vt 0.494932 0.306145
vt 0.126455 0.776142
vt 0.811531 0.653783
vt 0.768431 0.045485
vt 0.811531 0.775238
vt 0.729874 0.298034
vt 0.402825 0.802228
vt 0.729874 0.338519
vt 0.539703 0.838857
vt 0.729874 0.379004
vt 0.811531 0.532328
vt 0.126455 0.735658
vt 0.454878 0.769454
vt 0.247910 0.770359
vt 0.038461 0.752104
vt 0.005000 0.770359
vt 0.078946 0.752104
vt 0.646976 0.045485
vt 0.722850 0.410873
vt 0.215867 0.586038
vt 0.632284 0.371980
vt 0.334663 0.134897
vt 0.215867 0.626457
vt 0.375148 0.134897
vt 0.639995 0.078946
vt 0.415633 0.134897
vt 0.632284 0.331495
vt 0.005000 0.632283
vt 0.639995 0.038461
vt 0.045485 0.632283
vt 0.776873 0.038461
vt 0.488892 0.719037
vt 0.352745 0.626457
vt 0.085970 0.763378
vt 0.256352 0.666942
vt 0.263333 0.763378
vt 0.256352 0.707427
vt 0.303818 0.763378
vt 0.464230 0.899214
vt 0.769455 0.421417
vt 0.804219 0.291035
vt 0.556367 0.822811
vt 0.812772 0.085970
vt 0.373067 0.380932
# 232 texture coordinates

vn 0.000000 0.000000 1.000000
vn 0.000000 -1.000000 -0.000000
vn 0.000001 1.000000 -0.000001
vn 1.000000 0.000000 -0.000000
vn -0.000000 -0.000000 -1.000000
vn -1.000000 -0.000000 0.000000
# 6 normals

usemtl default
f 1/1/1 2/2/1 3/3/1
f 4/4/2 5/5/2 2/6/2
f 6/7/1 7/8/1 5/9/1
f 8/10/2 9/11/2 7/12/2
f 10/13/1 11/14/1 9/15/1
f 12/16/2 13/17/2 11/18/2
f 14/19/1 15/20/1 13/21/1
f 16/22/2 17/23/2 15/24/2
f 18/25/1 19/26/1 17/27/1
f 20/28/2 21/29/2 19/30/2
f 22/31/1 23/32/1 21/33/1
f 24/34/2 25/35/2 23/36/2
f 26/37/1 27/38/1 25/39/1
f 28/40/2 29/41/2 27/42/2
f 30/43/1 31/44/1 29/45/1
f 32/46/2 33/47/2 31/48/2
f 34/49/1 35/50/1 33/51/1
f 36/52/2 37/53/2 35/54/2
f 38/55/1 39/56/1 37/57/1
f 38/55/1 40/58/1 41/59/1
f 40/58/1 42/60/1 43/61/1
f 44/62/3 45/63/3 42/64/3
f 46/65/1 47/66/1 45/67/1
f 48/68/3 49/69/3 47/70/3
f 50/71/1 51/72/1 49/73/1
f 52/74/3 53/75/3 51/76/3
f 54/77/1 55/78/1 53/79/1
f 56/80/3 57/81/3 55/82/3
f 58/83/1 59/84/1 57/85/1
f 60/86/3 61/87/3 59/88/3
f 62/89/1 63/90/1 61/91/1
f 64/92/3 65/93/3 63/94/3
f 66/95/1 67/96/1 65/97/1
f 68/98/3 69/99/3 67/100/3
f 70/101/1 71/102/1 69/103/1
f 72/104/3 73/105/3 71/106/3
f 74/107/1 75/108/1 73/109/1
f 76/110/3 77/111/3 75/112/3
f 78/113/1 79/114/1 77/115/1
f 80/116/3 81/117/3 79/118/3
f 50/119/4 48/120/4 46/121/4
f 54/122/4 52/123/4 50/119/4
f 58/124/4 56/125/4 54/122/4
f 62/126/4 60/127/4 58/124/4
f 66/128/4 64/129/4 62/126/4
f 70/130/4 68/131/4 66/128/4
f 74/132/4 72/133/4 70/130/4
f 78/134/4 76/135/4 74/132/4
f 82/136/4 80/137/4 78/134/4
f 38/138/3 46/139/3 44/62/3
f 46/139/3 83/140/3 84/141/3
f 41/142/2 85/143/2 39/144/2
f 40/145/2 86/146/2 41/142/2
f 43/147/2 87/148/2 40/145/2
f 86/149/5 88/150/5 85/151/5
f 89/152/5 90/153/5 88/150/5
f 50/119/4 46/121/4 84/154/4
f 54/122/4 50/119/4 84/154/4
f 58/124/4 54/122/4 84/154/4
f 62/126/4 58/124/4 84/154/4
f 66/128/4 62/126/4 84/154/4
f 70/130/4 66/128/4 84/154/4
f 74/132/4 70/130/4 84/154/4
f 78/134/4 74/132/4 84/154/4
f 82/136/4 78/134/4 84/154/4
f 87/148/2 91/155/2 86/146/2
f 92/156/2 93/157/2 87/148/2
f 89/158/4 91/159/4 83/160/4
f 3/161/2 94/162/2 1/163/2
f 95/164/3 96/165/3 90/166/3
f 38/167/6 95/168/6 89/169/6
f 4/170/6 1/171/6 6/172/6
f 97/173/6 1/171/6 94/174/6
f 6/172/6 10/175/6 8/176/6
f 10/175/6 14/177/6 12/178/6
f 14/177/6 18/179/6 16/180/6
f 18/179/6 22/181/6 20/182/6
f 22/181/6 26/183/6 24/184/6
f 26/183/6 30/185/6 28/186/6
f 30/185/6 34/187/6 32/188/6
f 34/187/6 38/167/6 36/189/6
f 34/187/6 95/168/6 38/167/6
f 6/172/6 1/171/6 95/168/6
f 6/172/6 95/168/6 10/175/6
f 10/175/6 95/168/6 14/177/6
f 14/177/6 95/168/6 18/179/6
f 18/179/6 95/168/6 22/181/6
f 22/181/6 95/168/6 26/183/6
f 26/183/6 95/168/6 30/185/6
f 30/185/6 95/168/6 34/187/6
f 1/1/1 4/190/1 2/2/1
f 4/4/2 6/191/2 5/5/2
f 6/7/1 8/192/1 7/8/1
f 8/10/2 10/193/2 9/11/2
f 10/13/1 12/194/1 11/14/1
f 12/16/2 14/195/2 13/17/2
f 14/19/1 16/196/1 15/20/1
f 16/22/2 18/197/2 17/23/2
f 18/25/1 20/198/1 19/26/1
f 20/28/2 22/199/2 21/29/2
f 22/31/1 24/200/1 23/32/1
f 24/34/2 26/201/2 25/35/2
f 26/37/1 28/202/1 27/38/1
f 28/40/2 30/203/2 29/41/2
f 30/43/1 32/204/1 31/44/1
f 32/46/2 34/205/2 33/47/2
f 34/49/1 36/206/1 35/50/1
f 36/52/2 38/207/2 37/53/2
f 38/55/1 41/59/1 39/56/1
f 38/55/1 44/208/1 40/58/1
f 40/58/1 44/208/1 42/60/1
f 44/62/3 46/139/3 45/63/3
f 46/65/1 48/209/1 47/66/1
f 48/68/3 50/210/3 49/69/3
f 50/71/1 52/211/1 51/72/1
f 52/74/3 54/212/3 53/75/3
f 54/77/1 56/213/1 55/78/1
f 56/80/3 58/214/3 57/81/3
f 58/83/1 60/215/1 59/84/1
f 60/86/3 62/216/3 61/87/3
f 62/89/1 64/217/1 63/90/1
f 64/92/3 66/218/3 65/93/3
f 66/95/1 68/219/1 67/96/1
f 68/98/3 70/220/3 69/99/3
f 70/101/1 72/221/1 71/102/1
f 72/104/3 74/222/3 73/105/3
f 74/107/1 76/223/1 75/108/1
f 76/110/3 78/224/3 77/111/3
f 78/113/1 80/225/1 79/114/1
f 80/116/3 82/226/3 81/117/3
f 38/138/3 89/227/3 46/139/3
f 46/139/3 89/227/3 83/140/3
f 41/142/2 86/146/2 85/143/2
f 40/145/2 87/148/2 86/146/2
f 43/147/2 92/156/2 87/148/2
f 86/149/5 89/152/5 88/150/5
f 89/152/5 95/228/5 90/153/5
f 87/148/2 93/157/2 91/155/2
f 92/156/2 98/229/2 93/157/2
f 89/158/4 86/230/4 91/159/4
f 3/161/2 99/231/2 94/162/2
f 95/164/3 97/232/3 96/165/3
f 97/173/6 95/168/6 1/171/6

# 143 faces
