# Blender v2.80 (sub 75) OBJ File: ''
# www.blender.org
o Bookshelf
v 9.566654 2.064187 20.638235
v 9.566654 2.064186 25.585625
v 9.566654 -2.064194 25.585625
v 9.566654 -2.064193 20.638235
v -9.424623 -2.064193 20.827465
v -9.424623 -2.064194 25.194605
v -9.566654 -2.064194 25.585625
v -9.566654 -2.064193 20.638235
v -9.566654 2.064186 25.585625
v -9.566654 2.064187 20.638239
v 9.424622 -2.064194 25.194605
v 9.424622 -2.064193 20.827465
v 9.424622 1.923807 20.827465
v 9.424622 1.923806 25.194605
v -9.424623 1.923806 25.194605
v -9.424623 1.923807 20.827465
v 9.566654 -2.064190 -0.000000
v 9.424622 -2.064190 0.391015
v -9.424623 -2.064190 0.391015
v -9.566654 -2.064190 -0.000000
v 9.424622 -2.064193 20.449005
v -9.424623 -2.064193 20.449005
v 9.566654 2.064187 16.017153
v 9.566654 -2.064193 16.017153
v -9.424623 -2.064193 16.213591
v -9.566654 -2.064193 16.017153
v -9.566654 2.064187 16.017159
v 9.424622 -2.064193 16.213591
v 9.424622 1.923807 16.213591
v 9.424622 1.923807 20.449005
v -9.424623 1.923807 20.449005
v -9.424623 1.923807 16.213591
v 9.424622 -2.064193 15.820715
v -9.424623 -2.064193 15.820715
v 9.566654 2.064188 11.041947
v 9.566654 -2.064192 11.041947
v -9.424623 -2.064192 11.220995
v -9.566654 -2.064192 11.041947
v -9.566654 2.064188 11.041952
v 9.424622 -2.064192 11.220995
v 9.424622 1.923808 11.220995
v 9.424622 1.923807 15.820715
v -9.424623 1.923807 15.820715
v -9.424623 1.923808 11.220995
v 9.424622 -2.064192 10.862900
v -9.424623 -2.064192 10.862900
v 9.566654 2.064189 5.691980
v 9.566654 -2.064191 5.691979
v -9.424623 -2.064191 5.867199
v -9.566654 -2.064191 5.691979
v -9.566654 2.064189 5.691982
v 9.424622 -2.064191 5.867199
v 9.424622 1.923809 5.867200
v 9.424622 1.923808 10.862900
v -9.424623 1.923808 10.862900
v -9.424623 1.923809 5.867200
v 9.424622 -2.064191 5.516759
v -9.424623 -2.064191 5.516759
v 9.566654 2.064190 0.000000
v -9.566654 2.064190 0.000000
v 9.424622 1.923810 0.391015
v 9.424622 1.923809 5.516760
v -9.424623 1.923809 5.516760
v -9.424623 1.923810 0.391015
vt 0.860842 0.949840
vt 0.960406 0.853219
vt 0.860842 0.853219
vt 0.025929 0.958238
vt 0.018785 0.863362
vt 0.025929 0.867303
vt 0.960406 0.949840
vt 0.860842 0.853219
vt 0.960406 0.853219
vt 0.981215 0.863362
vt 0.974071 0.958238
vt 0.974071 0.867303
vt 0.793898 0.450919
vt 0.743291 0.949579
vt 0.743291 0.450421
vt 0.981215 0.433620
vt 0.025929 0.441761
vt 0.018785 0.433619
vt 0.981215 0.966381
vt 0.793898 0.949081
vt 0.847221 0.451416
vt 0.847221 0.948584
vt 0.689969 0.450421
vt 0.685766 0.949578
vt 0.685766 0.450421
vt 0.974071 0.859422
vt 0.025929 0.859422
vt 0.960406 0.762970
vt 0.860842 0.762970
vt 0.025929 0.771230
vt 0.018785 0.767139
vt 0.860842 0.762970
vt 0.960406 0.762970
vt 0.974071 0.771230
vt 0.981215 0.767139
vt 0.632444 0.450421
vt 0.581836 0.949579
vt 0.581836 0.450421
vt 0.528514 0.450421
vt 0.524311 0.949579
vt 0.524311 0.450421
vt 0.974071 0.763049
vt 0.025929 0.763049
vt 0.960406 0.665806
vt 0.860842 0.665806
vt 0.018785 0.663542
vt 0.025929 0.667270
vt 0.860842 0.665806
vt 0.960406 0.665806
vt 0.981215 0.663542
vt 0.974071 0.667270
vt 0.470989 0.450422
vt 0.420381 0.949579
vt 0.420381 0.450422
vt 0.367059 0.450422
vt 0.362857 0.949579
vt 0.362857 0.450422
vt 0.974071 0.659814
vt 0.025929 0.659814
vt 0.960406 0.561323
vt 0.860842 0.561323
vt 0.018785 0.552142
vt 0.025929 0.555790
vt 0.860842 0.561323
vt 0.960406 0.561323
vt 0.981215 0.552142
vt 0.974071 0.555790
vt 0.309534 0.450422
vt 0.258927 0.949579
vt 0.258927 0.450422
vt 0.205604 0.450422
vt 0.201402 0.949579
vt 0.201402 0.450422
vt 0.974071 0.548493
vt 0.025929 0.548493
vt 0.960406 0.450160
vt 0.860842 0.450160
vt 0.860842 0.450160
vt 0.960406 0.450160
vt 0.974071 0.441761
vt 0.148079 0.450422
vt 0.097472 0.949579
vt 0.097472 0.450422
vt 0.046864 0.450422
vt 0.847221 0.948584
vt 0.793898 0.949081
vt 0.860842 0.450160
vt 0.960406 0.561323
vt 0.860842 0.561323
vt 0.860842 0.450160
vt 0.960406 0.561323
vt 0.860842 0.561323
vt 0.860842 0.949840
vt 0.960406 0.853219
vt 0.960406 0.949840
vt 0.860842 0.949840
vt 0.960406 0.853219
vt 0.960406 0.949840
vt 0.632444 0.949578
vt 0.860842 0.853219
vt 0.960406 0.762970
vt 0.960406 0.853219
vt 0.860842 0.853219
vt 0.960406 0.762970
vt 0.960406 0.853219
vt 0.470989 0.949579
vt 0.860842 0.762970
vt 0.960406 0.665806
vt 0.960406 0.762970
vt 0.860842 0.762970
vt 0.960406 0.665806
vt 0.960406 0.762970
vt 0.309534 0.949579
vt 0.860842 0.561323
vt 0.960406 0.665806
vt 0.860842 0.665806
vt 0.860842 0.561323
vt 0.960406 0.665806
vt 0.860842 0.665806
vt 0.148079 0.949579
vt 0.960406 0.949840
vt 0.018785 0.966380
vt 0.860842 0.949840
vt 0.793898 0.450919
vt 0.689969 0.949578
vt 0.528514 0.949579
vt 0.367059 0.949579
vt 0.205604 0.949579
vt 0.046865 0.949579
vt 0.847221 0.451416
vt 0.960406 0.450160
vt 0.960406 0.450160
vt 0.860842 0.853219
vt 0.860842 0.853219
vt 0.860842 0.762970
vt 0.860842 0.762970
vt 0.860842 0.665806
vt 0.860842 0.665806
vt 0.960406 0.561323
vt 0.960406 0.561323
vn 1.0000 0.0000 0.0000
vn -0.0000 -1.0000 -0.0000
vn -1.0000 -0.0000 0.0000
vn 0.0000 0.0000 1.0000
vn 0.0000 0.0000 -1.0000
s 1
f 2/1/1 4/2/1 1/3/1
f 6/4/2 8/5/2 5/6/2
f 7/7/3 10/8/3 8/9/3
f 4/10/2 11/11/2 12/12/2
f 14/13/2 16/14/2 13/15/2
f 17/16/2 19/17/2 20/18/2
f 3/19/2 6/4/2 11/11/2
f 2/20/4 7/21/4 3/22/4
f 12/23/2 22/24/2 21/25/2
f 4/10/2 12/12/2 21/26/2
f 22/27/2 5/6/2 8/5/2
f 1/3/1 24/28/1 23/29/1
f 25/30/2 8/5/2 26/31/2
f 8/9/3 27/32/3 26/33/3
f 4/10/2 28/34/2 24/35/2
f 30/36/2 32/37/2 29/38/2
f 28/39/2 34/40/2 33/41/2
f 24/35/2 28/34/2 33/42/2
f 34/43/2 25/30/2 26/31/2
f 23/29/1 36/44/1 35/45/1
f 34/43/2 38/46/2 37/47/2
f 26/33/3 39/48/3 38/49/3
f 36/50/2 33/42/2 40/51/2
f 42/52/2 44/53/2 41/54/2
f 40/55/2 46/56/2 45/57/2
f 36/50/2 40/51/2 45/58/2
f 46/59/2 37/47/2 38/46/2
f 35/45/1 48/60/1 47/61/1
f 46/59/2 50/62/2 49/63/2
f 38/49/3 51/64/3 50/65/3
f 48/66/2 45/58/2 52/67/2
f 54/68/2 56/69/2 53/70/2
f 52/71/2 58/72/2 57/73/2
f 48/66/2 52/67/2 57/74/2
f 58/75/2 49/63/2 50/62/2
f 47/61/1 17/76/1 59/77/1
f 19/17/2 50/62/2 20/18/2
f 50/65/3 60/78/3 20/79/3
f 48/66/2 18/80/2 17/16/2
f 62/81/2 64/82/2 61/83/2
f 64/82/4 18/84/4 61/83/4
f 14/13/5 6/85/5 15/86/5
f 61/87/3 57/88/3 62/89/3
f 63/90/1 19/91/1 64/92/1
f 13/93/3 11/94/3 14/95/3
f 15/96/1 5/97/1 16/98/1
f 16/14/4 12/23/4 13/15/4
f 30/36/5 22/24/5 31/99/5
f 29/100/3 21/101/3 30/102/3
f 31/103/1 25/104/1 32/105/1
f 32/37/4 28/39/4 29/38/4
f 42/52/5 34/40/5 43/106/5
f 41/107/3 33/108/3 42/109/3
f 43/110/1 37/111/1 44/112/1
f 44/53/4 40/55/4 41/54/4
f 54/68/5 46/56/5 55/113/5
f 53/114/3 45/115/3 54/116/3
f 55/117/1 49/118/1 56/119/1
f 56/69/4 52/71/4 53/70/4
f 62/81/5 58/72/5 63/120/5
f 2/1/1 3/121/1 4/2/1
f 6/4/2 7/122/2 8/5/2
f 7/7/3 9/123/3 10/8/3
f 4/10/2 3/19/2 11/11/2
f 14/13/2 15/86/2 16/14/2
f 17/16/2 18/80/2 19/17/2
f 3/19/2 7/122/2 6/4/2
f 2/20/4 9/124/4 7/21/4
f 12/23/2 5/125/2 22/24/2
f 1/3/1 4/2/1 24/28/1
f 25/30/2 22/27/2 8/5/2
f 8/9/3 10/8/3 27/32/3
f 4/10/2 21/26/2 28/34/2
f 30/36/2 31/99/2 32/37/2
f 28/39/2 25/126/2 34/40/2
f 23/29/1 24/28/1 36/44/1
f 34/43/2 26/31/2 38/46/2
f 26/33/3 27/32/3 39/48/3
f 36/50/2 24/35/2 33/42/2
f 42/52/2 43/106/2 44/53/2
f 40/55/2 37/127/2 46/56/2
f 35/45/1 36/44/1 48/60/1
f 46/59/2 38/46/2 50/62/2
f 38/49/3 39/48/3 51/64/3
f 48/66/2 36/50/2 45/58/2
f 54/68/2 55/113/2 56/69/2
f 52/71/2 49/128/2 58/72/2
f 47/61/1 48/60/1 17/76/1
f 19/17/2 58/75/2 50/62/2
f 50/65/3 51/64/3 60/78/3
f 48/66/2 57/74/2 18/80/2
f 62/81/2 63/120/2 64/82/2
f 64/82/4 19/129/4 18/84/4
f 14/13/5 11/130/5 6/85/5
f 61/87/3 18/131/3 57/88/3
f 63/90/1 58/132/1 19/91/1
f 13/93/3 12/133/3 11/94/3
f 15/96/1 6/134/1 5/97/1
f 16/14/4 5/125/4 12/23/4
f 30/36/5 21/25/5 22/24/5
f 29/100/3 28/135/3 21/101/3
f 31/103/1 22/136/1 25/104/1
f 32/37/4 25/126/4 28/39/4
f 42/52/5 33/41/5 34/40/5
f 41/107/3 40/137/3 33/108/3
f 43/110/1 34/138/1 37/111/1
f 44/53/4 37/127/4 40/55/4
f 54/68/5 45/57/5 46/56/5
f 53/114/3 52/139/3 45/115/3
f 55/117/1 46/140/1 49/118/1
f 56/69/4 49/128/4 52/71/4
f 62/81/5 57/73/5 58/72/5
