# Wavefront Obj file
# 
# verts: 8 uv-s: 24
mtllib Ceiling.mtl

g Cube_Cube.001
#pivot 0.000000 0.000000 0.000000

v -59.295040 -112.949600 36.436958
v -59.295040 -112.949600 31.903982
v -59.295040 112.949600 36.436958
v -59.295040 112.949600 31.903982
v 166.604156 -112.949600 36.436958
v 166.604156 -112.949600 31.903982
v 166.604156 112.949600 36.436958
v 166.604156 112.949600 31.903982
# 8 positions

vt 0.995000 0.530154
vt 0.995000 0.520301
vt 0.503971 0.520301
vt 0.520301 0.021330
vt 0.530154 0.021330
vt 0.530154 0.512359
vt 0.995000 0.005000
vt 0.995000 0.014853
vt 0.503971 0.014853
vt 0.513824 0.021330
vt 0.503971 0.021330
vt 0.503971 0.512359
vt 0.496029 0.496029
vt 0.005000 0.496029
vt 0.005000 0.005000
vt 0.496029 0.503971
vt 0.005000 0.503971
vt 0.005000 0.995000
vt 0.503971 0.530154
vt 0.520301 0.512359
vt 0.503971 0.005000
vt 0.513824 0.512359
vt 0.496029 0.005000
vt 0.496029 0.995000
# 24 texture coordinates

vn -1.000000 0.000000 0.000000
vn 0.000000 1.000000 0.000000
vn 1.000000 0.000000 0.000000
vn 0.000000 -1.000000 0.000000
vn 0.000000 0.000000 1.000000
vn 0.000000 0.000000 -1.000000
# 6 normals

usemtl default
f 2/1/1 1/2/1 3/3/1
f 4/4/2 3/5/2 7/6/2
f 8/7/3 7/8/3 5/9/3
f 6/10/4 5/11/4 1/12/4
f 7/13/5 3/14/5 1/15/5
f 4/16/6 8/17/6 6/18/6
f 2/1/1 3/3/1 4/19/1
f 4/4/2 7/6/2 8/20/2
f 8/7/3 5/9/3 6/21/3
f 6/10/4 1/12/4 2/22/4
f 7/13/5 1/15/5 5/23/5
f 4/16/6 6/18/6 2/24/6

# 12 faces
