# Blender v2.80 (sub 75) OBJ File: ''
# www.blender.org
o DoorOpen.001
v 0.595970 -8.289810 10.449997
v -0.652734 -8.289807 8.550003
v 0.595970 -8.289808 8.550003
v -0.652734 -7.424809 10.449997
v 0.595969 -7.424810 10.449997
v 0.595969 -7.424810 8.550003
v -0.652734 -7.424810 8.550003
v -0.595963 -8.675003 19.000002
v 0.539208 -8.675001 -0.000000
v 0.539208 -8.675003 19.000002
v 0.539206 -0.025000 19.000000
v -0.595965 -0.025001 19.000000
v -0.595965 -0.024999 0.000002
v 0.539206 -0.024999 0.000002
v -0.595963 -8.675001 -0.000000
v -0.652734 -8.289810 10.449997
v 0.916478 -7.656424 10.302261
v 0.865942 -7.614676 10.065827
v 0.865942 -7.721442 10.212770
v 0.916478 -7.509474 10.100006
v 0.865942 -7.614677 9.884187
v 0.916478 -7.656424 9.647751
v 0.865942 -7.721442 9.737244
v 0.865943 -7.894187 9.681122
v 0.916479 -7.894187 9.570496
v 0.865943 -8.066934 9.737244
v 0.916479 -8.131950 9.647751
v 0.865943 -8.173698 9.884187
v 0.916479 -8.278900 9.850006
v 0.865943 -8.173698 10.065827
v 0.916479 -8.131950 10.302261
v 0.865943 -8.066934 10.212770
v 0.916479 -7.894186 10.379517
v 0.865943 -7.894186 10.268890
v 1.050764 -7.418658 10.129517
v 1.050764 -7.418659 9.820496
v 0.916478 -7.509475 9.850006
v 1.050764 -7.600295 9.570496
v 1.050765 -7.894187 9.475006
v 1.050765 -8.188079 9.570496
v 1.050765 -8.369715 9.820496
v 1.050765 -8.369715 10.129517
v 0.916479 -8.278900 10.100006
v 1.050765 -8.188079 10.379517
v 1.050765 -7.894186 10.475006
v 1.050764 -7.600295 10.379517
v 1.185051 -7.656424 10.302261
v 1.185051 -7.509474 10.100006
v 1.185051 -7.509475 9.850006
v 1.185051 -7.656424 9.647751
v 1.185051 -7.894187 9.570496
v 1.185051 -8.131949 9.647751
v 1.185051 -8.278899 9.850006
v 1.185051 -8.278899 10.100006
v 1.185051 -8.131949 10.302261
v 1.185051 -7.894186 10.379517
v 1.268032 -7.803367 10.100006
v 1.268032 -7.747241 10.022751
v 1.268032 -7.747242 9.927261
v 1.268032 -7.803367 9.850006
v 1.268033 -7.894187 9.820496
v 1.268033 -7.985007 9.850006
v 1.268033 -8.041133 9.927261
v 1.268033 -8.041133 10.022751
v 1.268033 -7.985007 10.100006
v 1.268033 -7.894186 10.129517
v 1.279224 -7.894187 9.975006
v 0.584062 -7.614676 10.065827
v 0.584062 -7.614676 9.884187
v 0.584062 -7.721442 9.737244
v 0.584062 -7.894187 9.681122
v 0.584062 -8.066934 9.737244
v 0.584062 -8.173698 9.884187
v 0.584062 -8.173698 10.065827
v 0.584062 -8.066934 10.212770
v 0.584062 -7.894186 10.268890
v 0.584062 -7.721442 10.212770
v -0.922698 -7.614676 10.065827
v -0.973234 -7.656425 10.302261
v -0.922698 -7.721442 10.212770
v -0.922698 -7.614677 9.884187
v -0.973234 -7.509475 10.100006
v -0.973234 -7.656425 9.647751
v -0.973234 -7.509476 9.850006
v -0.922698 -7.894187 9.681122
v -0.922698 -7.721443 9.737244
v -0.922698 -8.066934 9.737244
v -0.973234 -7.894187 9.570496
v -0.922698 -8.173698 9.884187
v -0.973234 -8.131951 9.647751
v -0.922698 -8.173698 10.065827
v -0.973234 -8.278901 9.850006
v -0.973234 -8.131951 10.302261
v -0.973234 -8.278901 10.100006
v -0.922698 -8.066934 10.212770
v -0.973234 -7.894186 10.379517
v -0.922698 -7.894186 10.268890
v -1.107521 -7.418658 10.129517
v -1.107521 -7.418658 9.820496
v -1.107520 -7.894187 9.475006
v -1.107520 -8.369717 9.820496
v -1.107520 -8.369717 10.129517
v -1.107520 -7.894186 10.475006
v -1.241806 -7.656425 10.302261
v -1.107520 -7.600296 10.379517
v -1.241806 -7.509476 9.850006
v -1.241806 -7.656425 9.647751
v -1.107520 -7.600296 9.570496
v -1.241806 -8.131951 9.647751
v -1.107520 -8.188081 9.570496
v -1.241806 -8.278901 9.850006
v -1.241806 -8.131951 10.302261
v -1.107520 -8.188081 10.379517
v -1.241806 -7.509475 10.100006
v -1.324788 -7.803368 10.100006
v -1.324788 -7.747242 9.927261
v -1.324788 -7.803368 9.850006
v -1.324788 -7.894187 9.820496
v -1.241806 -7.894187 9.570496
v -1.324788 -7.985007 9.850006
v -1.324788 -8.041135 10.022751
v -1.241806 -8.278901 10.100006
v -1.324788 -7.985006 10.100006
v -1.324788 -7.894186 10.129517
v -1.241806 -7.894186 10.379517
v -1.324788 -7.747241 10.022751
v -1.335979 -7.894187 9.975006
v -1.324788 -8.041135 9.927261
v -0.640817 -7.614676 10.065827
v -0.640817 -7.614677 9.884187
v -0.640817 -7.721443 9.737244
v -0.640817 -7.894187 9.681122
v -0.640817 -8.066934 9.737244
v -0.640817 -8.173698 9.884187
v -0.640817 -8.173698 10.065827
v -0.640817 -8.066934 10.212770
v -0.640817 -7.894186 10.268890
v -0.640817 -7.721442 10.212770
vt 0.890667 0.450944
vt 0.810429 0.543852
vt 0.810429 0.450944
vt 0.889686 0.566980
vt 0.796778 0.603509
vt 0.796778 0.566980
vt 0.814979 0.673916
vt 0.895217 0.766824
vt 0.895217 0.673916
vt 0.853784 0.821805
vt 0.817255 0.902043
vt 0.853784 0.902043
vt 0.885637 0.005000
vt 0.849108 0.085238
vt 0.849108 0.005000
vt 0.910163 0.812830
vt 0.817255 0.776301
vt 0.817255 0.812830
vt 0.807381 0.901716
vt 0.005000 0.817255
vt 0.807381 0.817255
vt 0.840285 0.370295
vt 0.755824 0.005000
vt 0.840285 0.005000
vt 0.005000 0.995000
vt 0.807381 0.910539
vt 0.005000 0.910539
vt 0.005000 0.005000
vt 0.370295 0.807381
vt 0.370295 0.005000
vt 0.745706 0.005000
vt 0.380412 0.807381
vt 0.380412 0.005000
vt 0.890667 0.543852
vt 0.889686 0.603509
vt 0.814979 0.766824
vt 0.817255 0.821805
vt 0.885637 0.085238
vt 0.910163 0.776301
vt 0.005000 0.901716
vt 0.755824 0.370295
vt 0.807381 0.995000
vt 0.005000 0.807381
vt 0.745707 0.807381
vt 0.802984 0.438617
vt 0.801220 0.428633
vt 0.805729 0.434838
vt 0.796778 0.430076
vt 0.801220 0.420962
vt 0.802984 0.410977
vt 0.805729 0.414756
vt 0.813024 0.412386
vt 0.813024 0.407714
vt 0.820319 0.414756
vt 0.823065 0.410977
vt 0.824828 0.420962
vt 0.829271 0.419518
vt 0.824828 0.428633
vt 0.823065 0.438617
vt 0.820319 0.434838
vt 0.813024 0.441880
vt 0.813024 0.437208
vt 0.759086 0.698943
vt 0.766381 0.707611
vt 0.767627 0.698943
vt 0.779432 0.707611
vt 0.778185 0.698943
vt 0.786727 0.698943
vt 0.789989 0.707611
vt 0.755824 0.748698
vt 0.764491 0.738657
vt 0.755824 0.738657
vt 0.755824 0.728616
vt 0.764491 0.726246
vt 0.759086 0.777709
vt 0.766381 0.769042
vt 0.767627 0.777709
vt 0.779432 0.769042
vt 0.778185 0.777709
vt 0.786727 0.777709
vt 0.789989 0.769042
vt 0.800462 0.500699
vt 0.791794 0.490658
vt 0.800462 0.490658
vt 0.800462 0.480617
vt 0.791794 0.478246
vt 0.759086 0.716278
vt 0.767627 0.716278
vt 0.778185 0.716278
vt 0.786727 0.716278
vt 0.773159 0.748698
vt 0.773159 0.738657
vt 0.773159 0.728616
vt 0.759086 0.760374
vt 0.767627 0.760374
vt 0.778185 0.760374
vt 0.786727 0.760374
vt 0.783126 0.500699
vt 0.783126 0.490658
vt 0.783126 0.480617
vt 0.817895 0.644765
vt 0.805483 0.644765
vt 0.807854 0.648028
vt 0.807854 0.652061
vt 0.817895 0.655323
vt 0.805483 0.655323
vt 0.811689 0.663864
vt 0.801648 0.656569
vt 0.801648 0.667127
vt 0.791607 0.663864
vt 0.797813 0.655323
vt 0.785402 0.655323
vt 0.795443 0.652061
vt 0.795443 0.648028
vt 0.785402 0.644765
vt 0.797813 0.644765
vt 0.791607 0.636224
vt 0.801648 0.643519
vt 0.801648 0.632962
vt 0.811689 0.636224
vt 0.801648 0.650044
vt 0.789332 0.380412
vt 0.783126 0.398606
vt 0.789332 0.398606
vt 0.797003 0.380412
vt 0.797003 0.398606
vt 0.803208 0.380412
vt 0.803208 0.398606
vt 0.783126 0.551481
vt 0.801320 0.558776
vt 0.801320 0.551481
vt 0.783126 0.544186
vt 0.801320 0.544186
vt 0.789332 0.744440
vt 0.783126 0.726246
vt 0.789332 0.726246
vt 0.797003 0.744440
vt 0.797003 0.726246
vt 0.803208 0.744440
vt 0.803208 0.726246
vt 0.774018 0.392216
vt 0.755824 0.399511
vt 0.755824 0.392216
vt 0.774018 0.384921
vt 0.755824 0.384921
vt 0.783874 0.420962
vt 0.782111 0.410977
vt 0.779366 0.414756
vt 0.783874 0.428633
vt 0.788317 0.419518
vt 0.782111 0.438617
vt 0.788317 0.430076
vt 0.772071 0.437208
vt 0.779366 0.434838
vt 0.764776 0.434838
vt 0.772071 0.441880
vt 0.760266 0.428633
vt 0.762029 0.438617
vt 0.760266 0.420962
vt 0.755824 0.430076
vt 0.762029 0.410977
vt 0.755824 0.419518
vt 0.764776 0.414756
vt 0.772071 0.407714
vt 0.772071 0.412386
vt 0.766382 0.459611
vt 0.759087 0.468279
vt 0.767627 0.468279
vt 0.779431 0.459611
vt 0.778185 0.468279
vt 0.786726 0.468279
vt 0.764491 0.490658
vt 0.773159 0.500699
vt 0.773159 0.490658
vt 0.773159 0.480617
vt 0.766382 0.521042
vt 0.759087 0.512375
vt 0.767627 0.512375
vt 0.778185 0.512375
vt 0.786726 0.512375
vt 0.779431 0.521042
vt 0.764491 0.552089
vt 0.755824 0.562130
vt 0.755824 0.552089
vt 0.755824 0.542048
vt 0.759087 0.450944
vt 0.755824 0.459611
vt 0.778185 0.450944
vt 0.786726 0.450944
vt 0.789989 0.459611
vt 0.755824 0.500699
vt 0.764491 0.503069
vt 0.755824 0.480617
vt 0.764491 0.478246
vt 0.759087 0.529710
vt 0.755824 0.521042
vt 0.767627 0.529710
vt 0.786726 0.529710
vt 0.789989 0.521042
vt 0.773159 0.562130
vt 0.764491 0.564500
vt 0.773159 0.542048
vt 0.764491 0.539677
vt 0.755824 0.596167
vt 0.768235 0.596167
vt 0.762029 0.604709
vt 0.765864 0.588872
vt 0.755824 0.585610
vt 0.768235 0.585610
vt 0.762029 0.577068
vt 0.772071 0.584363
vt 0.772071 0.573806
vt 0.782111 0.577068
vt 0.788317 0.585610
vt 0.775906 0.585610
vt 0.778276 0.592905
vt 0.788317 0.596167
vt 0.775906 0.596167
vt 0.782111 0.604709
vt 0.772071 0.597414
vt 0.772071 0.607971
vt 0.765864 0.592905
vt 0.772071 0.590889
vt 0.778276 0.588872
vt 0.755824 0.617035
vt 0.762029 0.635229
vt 0.762029 0.617035
vt 0.769700 0.635229
vt 0.769700 0.617035
vt 0.775905 0.635229
vt 0.775905 0.617035
vt 0.755824 0.663437
vt 0.774018 0.656142
vt 0.755824 0.656142
vt 0.774018 0.648846
vt 0.755824 0.648846
vt 0.755824 0.689835
vt 0.762029 0.671640
vt 0.762029 0.689835
vt 0.769700 0.671640
vt 0.769700 0.689835
vt 0.775905 0.671640
vt 0.775905 0.689835
vt 0.805871 0.695290
vt 0.787677 0.687995
vt 0.805871 0.687995
vt 0.787677 0.680700
vt 0.805871 0.680700
vt 0.796778 0.419518
vt 0.829271 0.430076
vt 0.755824 0.707611
vt 0.764491 0.751068
vt 0.755824 0.769042
vt 0.791794 0.503069
vt 0.774018 0.380412
vt 0.805578 0.380412
vt 0.783126 0.539677
vt 0.805578 0.744440
vt 0.767627 0.450944
vt 0.755824 0.490658
vt 0.778185 0.529710
vt 0.773159 0.552089
vt 0.787677 0.676191
vt 0.778276 0.635229
vt 0.774018 0.644338
vt 0.778276 0.671640
vn -0.0000 -1.0000 -0.0000
vn 0.0000 0.0000 1.0000
vn 0.0000 1.0000 0.0000
vn 1.0000 0.0000 0.0000
vn -1.0000 -0.0000 -0.0000
vn -0.0000 0.0000 -1.0000
vn -0.7431 0.4152 0.5249
vn -0.9085 0.3746 0.1853
vn -0.9085 0.1941 0.3702
vn -0.7650 0.6329 0.1195
vn -0.9096 0.3952 -0.1284
vn -0.7685 0.3761 -0.5177
vn -0.9096 0.2442 -0.3362
vn -0.9085 0.0606 -0.4135
vn -0.8003 -0.0399 -0.5983
vn -0.9085 -0.1941 -0.3702
vn -0.7431 -0.4152 -0.5249
vn -0.9085 -0.3746 -0.1853
vn -0.7650 -0.6329 -0.1195
vn -0.9096 -0.3952 0.1284
vn -0.7434 -0.4150 0.5245
vn -0.9085 -0.1941 0.3701
vn -0.8218 0.0000 0.5698
vn -0.9096 0.0000 0.4155
vn -0.0185 0.9382 0.3456
vn 0.0171 0.9472 -0.3203
vn -0.7686 0.6080 -0.1990
vn -0.0000 0.5878 -0.8090
vn 0.0000 -0.5878 -0.8090
vn 0.0356 -0.9425 -0.3324
vn -0.0356 -0.9425 0.3324
vn -0.7686 -0.6081 0.1990
vn 0.0000 -0.5878 0.8090
vn -0.0000 0.5878 0.8090
vn 0.7733 0.3546 0.5256
vn 0.8310 0.5407 0.1305
vn 0.8420 0.5026 -0.1958
vn 0.7738 0.3542 -0.5252
vn 0.8039 0.0000 -0.5947
vn 0.7738 -0.3542 -0.5252
vn 0.8657 -0.4761 -0.1547
vn 0.8036 -0.5731 0.1606
vn 0.7738 -0.3542 0.5252
vn 0.8039 0.0000 0.5947
vn 0.9751 0.1528 0.1611
vn 0.9826 0.1766 0.0574
vn 0.9750 0.2184 -0.0406
vn 0.9750 0.1529 -0.1612
vn 0.9699 0.0000 -0.2433
vn 0.9750 -0.1529 -0.1612
vn 0.9826 -0.1766 -0.0574
vn 0.9750 -0.2184 0.0406
vn 0.9750 -0.1529 0.1613
vn 0.9699 0.0000 0.2433
vn -0.0179 0.9386 0.3444
vn -0.0179 0.9386 0.3445
vn 0.0166 0.9472 -0.3201
vn 0.0166 0.9473 -0.3200
vn 0.0345 -0.9428 -0.3317
vn -0.0345 -0.9428 0.3317
vn 0.9085 0.3746 0.1853
vn 0.7434 0.4150 0.5245
vn 0.9085 0.1941 0.3702
vn 0.9096 0.3952 -0.1284
vn 0.7659 0.6316 0.1198
vn 0.7684 0.3750 -0.5185
vn 0.7686 0.6084 -0.1977
vn 0.9085 0.0606 -0.4135
vn 0.9096 0.2442 -0.3362
vn 0.9085 -0.1941 -0.3701
vn 0.8008 -0.0383 -0.5977
vn 0.9085 -0.3746 -0.1853
vn 0.7434 -0.4150 -0.5245
vn 0.9096 -0.3952 0.1284
vn 0.8008 -0.5803 -0.1482
vn 0.7441 -0.4146 0.5238
vn 0.7321 -0.6637 0.1532
vn 0.9085 -0.1941 0.3702
vn 0.8217 0.0048 0.5699
vn 0.9096 0.0000 0.4155
vn -0.0258 0.9396 0.3414
vn 0.0191 0.9483 -0.3169
vn 0.0300 -0.9405 -0.3386
vn -0.7738 0.3542 0.5252
vn -0.8061 0.5672 -0.1689
vn -0.7710 0.3568 -0.5274
vn -0.7766 -0.3522 -0.5224
vn -0.8310 -0.5407 -0.1305
vn -0.7710 -0.3568 0.5274
vn -0.8657 0.4755 0.1565
vn -0.9750 0.1529 0.1612
vn -0.9753 0.2173 -0.0402
vn -0.9753 0.1522 -0.1601
vn -0.9700 0.0011 -0.2433
vn -0.8039 0.0000 -0.5947
vn -0.9750 -0.1529 -0.1613
vn -0.9753 -0.2173 0.0402
vn -0.8420 -0.5026 0.1958
vn -0.9753 -0.1522 0.1602
vn -0.9700 -0.0011 0.2433
vn -0.8039 0.0000 0.5947
vn -0.9826 0.1766 0.0574
vn -0.9826 -0.1766 -0.0574
s 1
f 1/1/1 2/2/1 3/3/1
f 4/4/2 1/5/2 5/6/2
f 4/7/3 6/8/3 7/9/3
f 5/10/4 3/11/4 6/12/4
f 2/13/5 4/14/5 7/15/5
f 6/16/6 2/17/6 7/18/6
f 8/19/1 9/20/1 10/21/1
f 8/22/2 11/23/2 12/24/2
f 11/25/3 13/26/3 12/27/3
f 10/28/4 14/29/4 11/30/4
f 15/31/5 12/32/5 13/33/5
f 1/1/1 16/34/1 2/2/1
f 4/4/2 16/35/2 1/5/2
f 4/7/3 5/36/3 6/8/3
f 5/10/4 1/37/4 3/11/4
f 2/13/5 16/38/5 4/14/5
f 6/16/6 3/39/6 2/17/6
f 8/19/1 15/40/1 9/20/1
f 8/22/2 10/41/2 11/23/2
f 11/25/3 14/42/3 13/26/3
f 10/28/4 9/43/4 14/29/4
f 15/31/5 8/44/5 12/32/5
f 17/45/7 18/46/8 19/47/9
f 20/48/10 21/49/11 18/46/8
f 21/49/11 22/50/12 23/51/13
f 22/50/12 24/52/14 23/51/13
f 25/53/15 26/54/16 24/52/14
f 27/55/17 28/56/18 26/54/16
f 29/57/19 30/58/20 28/56/18
f 30/58/20 31/59/21 32/60/22
f 32/60/22 33/61/23 34/62/24
f 33/61/23 19/47/9 34/62/24
f 17/63/7 35/64/25 20/65/10
f 20/65/10 36/66/26 37/67/27
f 22/68/12 36/66/26 38/69/28
f 22/70/12 39/71/6 25/72/15
f 27/73/17 39/71/6 40/74/29
f 27/75/17 41/76/30 29/77/19
f 29/77/19 42/78/31 43/79/32
f 31/80/21 42/78/31 44/81/33
f 31/82/21 45/83/2 33/84/23
f 17/85/7 45/83/2 46/86/34
f 35/64/25 47/87/35 48/88/36
f 36/66/26 48/88/36 49/89/37
f 36/66/26 50/90/38 38/69/28
f 39/71/6 50/91/38 51/92/39
f 39/71/6 52/93/40 40/74/29
f 41/76/30 52/94/40 53/95/41
f 41/76/30 54/96/42 42/78/31
f 42/78/31 55/97/43 44/81/33
f 45/83/2 55/98/43 56/99/44
f 45/83/2 47/100/35 46/86/34
f 48/101/36 57/102/45 58/103/46
f 48/101/36 59/104/47 49/105/37
f 49/105/37 60/106/48 50/107/38
f 50/107/38 61/108/49 51/109/39
f 52/110/40 61/108/49 62/111/50
f 53/112/41 62/111/50 63/113/51
f 53/112/41 64/114/52 54/115/42
f 54/115/42 65/116/53 55/117/43
f 55/117/43 66/118/54 56/119/44
f 47/120/35 66/118/54 57/102/45
f 57/102/45 67/121/4 58/103/46
f 58/103/46 67/121/4 59/104/47
f 59/104/47 67/121/4 60/106/48
f 60/106/48 67/121/4 61/108/49
f 61/108/49 67/121/4 62/111/50
f 62/111/50 67/121/4 63/113/51
f 63/113/51 67/121/4 64/114/52
f 64/114/52 67/121/4 65/116/53
f 65/116/53 67/121/4 66/118/54
f 66/118/54 67/121/4 57/102/45
f 68/122/55 19/123/34 18/124/56
f 69/125/57 18/124/56 21/126/58
f 70/127/28 21/126/58 23/128/28
f 71/129/6 23/130/28 24/131/6
f 72/132/29 24/131/6 26/133/29
f 73/134/59 26/135/29 28/136/59
f 74/137/60 28/136/59 30/138/60
f 75/139/33 30/138/60 32/140/33
f 76/141/2 32/142/33 34/143/2
f 77/144/34 34/143/2 19/145/34
f 78/146/61 79/147/62 80/148/63
f 81/149/64 82/150/65 78/146/61
f 81/149/64 83/151/66 84/152/67
f 85/153/68 83/151/66 86/154/69
f 87/155/70 88/156/71 85/153/68
f 89/157/72 90/158/73 87/155/70
f 91/159/74 92/160/75 89/157/72
f 91/159/74 93/161/76 94/162/77
f 95/163/78 96/164/79 93/161/76
f 80/148/63 96/164/79 97/165/80
f 98/166/81 79/167/62 82/168/65
f 99/169/82 82/168/65 84/170/67
f 83/171/66 99/169/82 84/170/67
f 100/172/6 83/173/66 88/174/71
f 90/175/73 100/172/6 88/174/71
f 101/176/83 90/177/73 92/178/75
f 94/179/77 101/176/83 92/178/75
f 93/180/76 102/181/31 94/179/77
f 103/182/2 93/183/76 96/184/79
f 79/185/62 103/182/2 96/184/79
f 98/166/81 104/186/84 105/187/34
f 106/188/85 98/166/81 99/169/82
f 107/189/86 99/169/82 108/190/28
f 100/172/6 107/191/86 108/192/28
f 109/193/87 100/172/6 110/194/29
f 101/176/83 109/195/87 110/196/29
f 102/181/31 111/197/88 101/176/83
f 112/198/89 102/181/31 113/199/33
f 103/182/2 112/200/89 113/201/33
f 104/202/84 103/182/2 105/203/34
f 114/204/90 115/205/91 104/206/84
f 116/207/92 114/204/90 106/208/85
f 117/209/93 106/208/85 107/210/86
f 118/211/94 107/210/86 119/212/95
f 109/213/87 118/211/94 119/212/95
f 111/214/88 120/215/96 109/213/87
f 121/216/97 111/214/88 122/217/98
f 123/218/99 122/217/98 112/219/89
f 124/220/100 112/219/89 125/221/101
f 104/206/84 124/220/100 125/221/101
f 115/205/91 126/222/102 127/223/5
f 126/222/102 116/207/92 127/223/5
f 116/207/92 117/209/93 127/223/5
f 117/209/93 118/211/94 127/223/5
f 118/211/94 120/215/96 127/223/5
f 120/215/96 128/224/103 127/223/5
f 128/224/103 121/216/97 127/223/5
f 121/216/97 123/218/99 127/223/5
f 123/218/99 124/220/100 127/223/5
f 124/220/100 115/205/91 127/223/5
f 80/225/34 129/226/56 78/227/55
f 78/227/55 130/228/58 81/229/57
f 81/229/57 131/230/28 86/231/28
f 86/232/28 132/233/6 85/234/6
f 85/234/6 133/235/29 87/236/29
f 87/237/29 134/238/59 89/239/59
f 89/239/59 135/240/60 91/241/60
f 91/241/60 136/242/33 95/243/33
f 95/244/33 137/245/2 97/246/2
f 97/246/2 138/247/34 80/248/34
f 17/45/7 20/48/10 18/46/8
f 20/48/10 37/249/27 21/49/11
f 21/49/11 37/249/27 22/50/12
f 22/50/12 25/53/15 24/52/14
f 25/53/15 27/55/17 26/54/16
f 27/55/17 29/57/19 28/56/18
f 29/57/19 43/250/32 30/58/20
f 30/58/20 43/250/32 31/59/21
f 32/60/22 31/59/21 33/61/23
f 33/61/23 17/45/7 19/47/9
f 17/63/7 46/251/34 35/64/25
f 20/65/10 35/64/25 36/66/26
f 22/68/12 37/67/27 36/66/26
f 22/70/12 38/252/28 39/71/6
f 27/73/17 25/72/15 39/71/6
f 27/75/17 40/253/29 41/76/30
f 29/77/19 41/76/30 42/78/31
f 31/80/21 43/79/32 42/78/31
f 31/82/21 44/254/33 45/83/2
f 17/85/7 33/84/23 45/83/2
f 35/64/25 46/251/34 47/87/35
f 36/66/26 35/64/25 48/88/36
f 36/66/26 49/89/37 50/90/38
f 39/71/6 38/252/28 50/91/38
f 39/71/6 51/92/39 52/93/40
f 41/76/30 40/253/29 52/94/40
f 41/76/30 53/95/41 54/96/42
f 42/78/31 54/96/42 55/97/43
f 45/83/2 44/254/33 55/98/43
f 45/83/2 56/99/44 47/100/35
f 48/101/36 47/120/35 57/102/45
f 48/101/36 58/103/46 59/104/47
f 49/105/37 59/104/47 60/106/48
f 50/107/38 60/106/48 61/108/49
f 52/110/40 51/109/39 61/108/49
f 53/112/41 52/110/40 62/111/50
f 53/112/41 63/113/51 64/114/52
f 54/115/42 64/114/52 65/116/53
f 55/117/43 65/116/53 66/118/54
f 47/120/35 56/119/44 66/118/54
f 68/255/55 77/144/34 19/145/34
f 69/125/57 68/122/55 18/124/56
f 70/127/28 69/125/57 21/126/58
f 71/256/6 70/127/28 23/128/28
f 72/132/29 71/129/6 24/131/6
f 73/257/59 72/132/29 26/133/29
f 74/137/60 73/134/59 28/136/59
f 75/139/33 74/137/60 30/138/60
f 76/258/2 75/139/33 32/140/33
f 77/144/34 76/141/2 34/143/2
f 78/146/61 82/150/65 79/147/62
f 81/149/64 84/152/67 82/150/65
f 81/149/64 86/154/69 83/151/66
f 85/153/68 88/156/71 83/151/66
f 87/155/70 90/158/73 88/156/71
f 89/157/72 92/160/75 90/158/73
f 91/159/74 94/162/77 92/160/75
f 91/159/74 95/163/78 93/161/76
f 95/163/78 97/165/80 96/164/79
f 80/148/63 79/147/62 96/164/79
f 98/166/81 105/187/34 79/167/62
f 99/169/82 98/166/81 82/168/65
f 83/171/66 108/190/28 99/169/82
f 100/172/6 108/192/28 83/173/66
f 90/175/73 110/194/29 100/172/6
f 101/176/83 110/196/29 90/177/73
f 94/179/77 102/181/31 101/176/83
f 93/180/76 113/199/33 102/181/31
f 103/182/2 113/201/33 93/183/76
f 79/185/62 105/203/34 103/182/2
f 98/166/81 114/259/90 104/186/84
f 106/188/85 114/259/90 98/166/81
f 107/189/86 106/188/85 99/169/82
f 100/172/6 119/260/95 107/191/86
f 109/193/87 119/260/95 100/172/6
f 101/176/83 111/197/88 109/195/87
f 102/181/31 122/261/98 111/197/88
f 112/198/89 122/261/98 102/181/31
f 103/182/2 125/262/101 112/200/89
f 104/202/84 125/262/101 103/182/2
f 114/204/90 126/222/102 115/205/91
f 116/207/92 126/222/102 114/204/90
f 117/209/93 116/207/92 106/208/85
f 118/211/94 117/209/93 107/210/86
f 109/213/87 120/215/96 118/211/94
f 111/214/88 128/224/103 120/215/96
f 121/216/97 128/224/103 111/214/88
f 123/218/99 121/216/97 122/217/98
f 124/220/100 123/218/99 112/219/89
f 104/206/84 115/205/91 124/220/100
f 80/248/34 138/247/34 129/263/56
f 78/227/55 129/226/56 130/228/58
f 81/229/57 130/228/58 131/230/28
f 86/231/28 131/230/28 132/264/6
f 85/234/6 132/233/6 133/235/29
f 87/236/29 133/235/29 134/265/59
f 89/239/59 134/238/59 135/240/60
f 91/241/60 135/240/60 136/242/33
f 95/243/33 136/242/33 137/266/2
f 97/246/2 137/245/2 138/247/34
