# Blender v2.80 (sub 75) OBJ File: ''
# www.blender.org
o 2ndFloor_(1).002
v 0.124859 -65.333328 0.000011
v 0.124854 41.559196 39.999992
v 0.124854 -65.333321 40.000011
v 0.124859 41.559189 -0.000007
v 0.624859 -65.333328 0.000011
v 0.624854 41.559196 39.999992
v 0.624854 -65.333321 40.000011
v 0.624859 41.559189 -0.000007
vt 0.000061 0.999939
vt 0.374223 0.999939
vt 0.374223 0.000061
vt 0.000061 0.000061
vt 0.000061 0.999939
vt 0.374223 0.000061
vt 0.374223 0.999939
vt 0.000061 0.000061
vn -1.0000 -0.0000 -0.0000
vn 1.0000 -0.0000 0.0000
vn 0.0000 -0.0000 -1.0000
vn 0.0000 1.0000 -0.0000
vn 0.0000 0.0000 1.0000
vn 0.0000 -1.0000 0.0000
s off
f 1/1/1 3/2/1 2/3/1
f 1/1/1 2/3/1 4/4/1
f 5/5/2 6/6/2 7/7/2
f 5/5/2 8/8/2 6/6/2
f 4/4/3 5/5/3 1/1/3
f 2/3/4 8/8/4 4/4/4
f 3/2/5 6/6/5 2/3/5
f 1/1/6 7/7/6 3/2/6
f 4/4/3 8/8/3 5/5/3
f 2/3/4 6/6/4 8/8/4
f 3/2/5 7/7/5 6/6/5
f 1/1/6 5/5/6 7/7/6
