# Blender v2.80 (sub 75) OBJ File: 'F_FlatWall.blend'
# www.blender.org
o 2ndFloor_(1).004
v -37.282082 -1.161530 0.000022
v -37.282066 -1.161526 40.000011
v 37.542694 -1.161522 39.999977
v 37.542679 -1.161526 -0.000009
v -37.282082 0.935654 0.000024
v 37.542694 0.935661 39.999981
v -37.282066 0.935658 40.000015
v 37.542679 0.935658 -0.000007
vt 0.000061 0.999939
vt 0.374223 0.000061
vt 0.374223 0.999939
vt 0.000061 0.000061
vt 0.000061 0.999939
vt 0.374223 0.999939
vt 0.374223 0.000061
vt 0.000061 0.000061
vn -0.5774 -0.5774 -0.5774
vn 0.5774 -0.5774 0.5773
vn -0.5774 -0.5774 0.5773
vn 0.5773 -0.5774 -0.5773
vn -0.5774 0.5774 -0.5773
vn -0.5773 0.5773 0.5774
vn 0.5774 0.5774 0.5773
vn 0.5774 0.5773 -0.5774
s 1
f 1/1/1 3/2/2 2/3/3
f 1/1/1 4/4/4 3/2/2
f 5/5/5 7/6/6 6/7/7
f 5/5/5 6/7/7 8/8/8
f 8/8/8 3/2/2 4/4/4
f 6/7/7 2/3/3 3/2/2
f 2/3/3 5/5/5 1/1/1
f 5/5/5 4/4/4 1/1/1
f 8/8/8 6/7/7 3/2/2
f 6/7/7 7/6/6 2/3/3
f 2/3/3 7/6/6 5/5/5
f 5/5/5 8/8/8 4/4/4
