# Blender v2.80 (sub 75) OBJ File: ''
# www.blender.org
o Key2
v 0.150000 0.000000 -0.475778
v 0.106066 -0.176516 -0.475778
v 0.083374 -0.173205 -0.652359
v 0.166748 0.000000 -0.652359
v 0.106066 0.176517 -0.475778
v 0.083374 0.173205 -0.652359
v -0.106066 0.176517 -0.475778
v -0.083374 0.173205 -0.652359
v -0.150000 0.000000 -0.475778
v -0.166748 0.000000 -0.652359
v -0.106066 -0.176516 -0.475778
v -0.083374 -0.173205 -0.652359
v 0.166748 0.000000 -2.122429
v 0.083374 -0.173205 -2.122429
v 0.000000 0.000000 -2.122429
v 0.083374 0.173205 -2.122429
v -0.083374 0.173205 -2.122429
v -0.166748 0.000000 -2.122429
v -0.083374 -0.173205 -2.122429
v 0.041683 -0.186604 -2.122429
v 0.083374 -0.173205 -1.636872
v 0.166748 0.000000 -1.636872
v 0.083374 0.173205 -1.636872
v -0.083374 0.173205 -1.636872
v -0.166748 0.000000 -1.636872
v -0.083374 -0.173205 -1.636872
v -0.041683 -0.186604 -2.122429
v -0.041683 -0.186604 -1.636872
v 0.041683 -0.186604 -1.636872
v -0.041683 -0.523376 -2.122429
v 0.041683 -0.523376 -2.122429
v 0.041683 -0.523376 -1.636872
v -0.041683 -0.523376 -1.636872
v 0.083374 -0.173205 -0.844440
v 0.166748 0.000000 -0.844440
v 0.083374 0.173205 -0.844440
v -0.083374 0.173205 -0.844440
v -0.166748 0.000000 -0.844440
v -0.083374 -0.173205 -0.844440
v 0.112448 -0.238260 -0.711494
v 0.225048 -0.004668 -0.711700
v 0.112621 0.229280 -0.711961
v -0.112621 0.229280 -0.711961
v -0.225048 -0.004668 -0.711700
v -0.112448 -0.238260 -0.711494
v -0.000000 -0.225000 0.281458
v -0.000000 -0.389711 0.162500
v -0.106066 -0.427759 0.178365
v -0.106066 -0.246967 0.308937
v -0.000000 0.000000 0.213055
v -0.106066 0.000000 0.233856
v -0.000000 0.225000 0.281458
v -0.106066 0.246967 0.308937
v -0.000000 0.389711 0.162500
v -0.106066 0.427760 0.178365
v 0.000000 0.450000 0.000000
v -0.106066 0.493934 -0.000000
v 0.000000 0.389711 -0.162500
v -0.106066 0.427760 -0.178365
v 0.000000 0.225000 -0.281458
v -0.106066 0.246967 -0.308938
v -0.106066 0.000000 -0.233856
v 0.000000 0.000000 -0.213056
v -0.106066 -0.246967 -0.308938
v 0.000000 -0.225000 -0.281458
v 0.000000 -0.389711 -0.162500
v -0.106066 -0.427759 -0.178365
v 0.000000 -0.450000 0.000000
v -0.106066 -0.493934 -0.000000
v -0.150000 -0.519615 0.216667
v -0.150000 -0.300000 0.375277
v -0.150000 0.000000 0.433333
v -0.150000 0.300000 0.375277
v -0.150000 0.519615 0.216667
v -0.150000 0.600000 -0.000000
v -0.150000 0.519615 -0.216667
v -0.150000 0.300000 -0.375278
v -0.150000 -0.300000 -0.375278
v -0.150000 -0.519615 -0.216667
v -0.150000 -0.600000 -0.000000
v -0.106066 -0.611471 0.254968
v -0.106066 -0.353033 0.441618
v -0.106066 0.000000 0.509936
v -0.106066 0.353033 0.441618
v -0.106066 0.611471 0.254968
v -0.106066 0.706066 -0.000000
v -0.106066 0.611471 -0.254969
v -0.106066 0.353033 -0.441618
v -0.106066 -0.353033 -0.441618
v -0.106066 -0.611471 -0.254969
v -0.106066 -0.706066 -0.000000
v 0.106066 -0.611471 0.254968
v 0.106066 -0.353033 0.441618
v 0.106066 0.000000 0.509936
v 0.106066 0.353033 0.441618
v 0.106066 0.611471 0.254968
v 0.106066 0.706066 0.000000
v 0.106066 0.611471 -0.254969
v 0.106066 0.353033 -0.441618
v 0.106066 -0.353033 -0.441618
v 0.106066 -0.611471 -0.254969
v 0.106066 -0.706066 0.000000
v 0.150000 -0.519615 0.216667
v 0.150000 -0.300000 0.375277
v 0.150000 0.000000 0.433333
v 0.150000 0.300000 0.375277
v 0.150000 0.519615 0.216667
v 0.150000 0.600000 0.000000
v 0.150000 0.519615 -0.216667
v 0.150000 0.300000 -0.375278
v 0.150000 -0.300000 -0.375278
v 0.150000 -0.519615 -0.216667
v 0.150000 -0.600000 0.000000
v 0.106066 -0.427759 0.178365
v 0.106066 -0.246967 0.308937
v 0.106066 0.000000 0.233856
v 0.106066 0.246967 0.308937
v 0.106066 0.427760 0.178365
v 0.106066 0.493934 0.000000
v 0.106066 0.427760 -0.178365
v 0.106066 0.246967 -0.308938
v 0.106066 -0.246967 -0.308938
v 0.106066 -0.427759 -0.178365
v 0.106066 -0.493934 0.000000
v 0.106066 0.000000 -0.233856
v 0.121346 -0.258191 -0.786351
v 0.124261 -0.264709 -0.746508
v -0.124261 -0.264709 -0.746508
v -0.121346 -0.258191 -0.786351
v 0.242090 -0.006053 -0.786985
v 0.249023 -0.006604 -0.747180
v 0.121126 0.245566 -0.787103
v 0.124546 0.252128 -0.747300
v -0.121130 0.245574 -0.787105
v -0.124550 0.252135 -0.747301
v -0.242091 -0.006053 -0.786985
v -0.249023 -0.006604 -0.747180
vt 0.863678 0.191706
vt 0.780950 0.091152
vt 0.872593 0.182791
vt 0.791457 0.967457
vt 0.986418 0.729680
vt 0.791457 0.729680
vt 0.705809 0.016015
vt 0.772035 0.100067
vt 0.696894 0.024930
vt 0.791457 0.729680
vt 0.986418 0.967457
vt 0.791457 0.967457
vt 0.336204 0.927183
vt 0.263402 0.914368
vt 0.336204 0.914368
vt 0.390805 0.927232
vt 0.026797 0.927232
vt 0.081399 0.914234
vt 0.081399 0.927284
vt 0.136000 0.927284
vt 0.136000 0.914234
vt 0.208801 0.927232
vt 0.263402 0.927183
vt 0.390805 0.914309
vt 0.336204 0.880521
vt 0.390805 0.880521
vt 0.026797 0.914309
vt 0.081399 0.880521
vt 0.136000 0.880521
vt 0.208801 0.914309
vt 0.208801 0.880521
vt 0.263402 0.880521
vt 0.677037 0.043475
vt 0.661054 0.086679
vt 0.647444 0.073068
vt 0.917692 0.343338
vt 0.933677 0.300133
vt 0.947286 0.313745
vt 0.906762 0.359743
vt 0.894264 0.381390
vt 0.865163 0.348596
vt 0.740368 0.359743
vt 0.781967 0.348596
vt 0.752866 0.381390
vt 0.894264 0.381390
vt 0.906762 0.359743
vt 0.865163 0.348596
vt 0.752866 0.381390
vt 0.781967 0.348596
vt 0.740368 0.359743
vt 0.986418 0.967457
vt 0.986418 0.729680
vt 0.026797 0.880521
vt 0.690648 0.057086
vt 0.904084 0.329726
vt 0.390805 0.988218
vt 0.336204 0.948341
vt 0.390805 0.948341
vt 0.026797 0.988218
vt 0.081399 0.948340
vt 0.081399 0.988218
vt 0.136000 0.948341
vt 0.136000 0.988218
vt 0.208801 0.988218
vt 0.208801 0.948341
vt 0.263402 0.948341
vt 0.263402 0.988218
vt 0.945398 0.300176
vt 0.935791 0.272737
vt 0.963230 0.282344
vt 0.972837 0.309783
vt 0.990669 0.291951
vt 0.981063 0.264512
vt 0.953624 0.254905
vt 0.938817 0.266846
vt 0.336204 0.624211
vt 0.391352 0.729495
vt 0.336204 0.729495
vt 0.027344 0.624211
vt 0.081399 0.729495
vt 0.027344 0.729495
vt 0.081399 0.624211
vt 0.136000 0.729495
vt 0.136000 0.624211
vt 0.208801 0.729495
vt 0.208801 0.624211
vt 0.263402 0.729495
vt 0.281603 0.624211
vt 0.263402 0.624211
vt 0.318003 0.624211
vt 0.318003 0.729495
vt 0.947732 0.257930
vt 0.390805 0.937060
vt 0.336204 0.937060
vt 0.026797 0.937060
vt 0.026797 0.948341
vt 0.136000 0.937060
vt 0.081399 0.937060
vt 0.208801 0.937060
vt 0.263402 0.937060
vt 0.281603 0.729495
vt 0.723000 0.119031
vt 0.680987 0.106603
vt 0.695778 0.091810
vt 0.661059 0.086675
vt 0.675851 0.071883
vt 0.662240 0.058271
vt 0.647444 0.073068
vt 0.918880 0.314929
vt 0.917697 0.343334
vt 0.904083 0.329726
vt 0.898955 0.295001
vt 0.884158 0.309797
vt 0.856938 0.282574
vt 0.871735 0.267777
vt 0.829723 0.255346
vt 0.844516 0.240553
vt 0.809798 0.235418
vt 0.797369 0.193403
vt 0.782577 0.208195
vt 0.770149 0.166180
vt 0.755352 0.180977
vt 0.750221 0.146253
vt 0.735429 0.161046
vt 0.708208 0.133824
vt 0.924372 0.562045
vt 0.894264 0.626298
vt 0.881766 0.604651
vt 0.823565 0.645242
vt 0.823565 0.620246
vt 0.765364 0.604651
vt 0.752866 0.626298
vt 0.722758 0.562045
vt 0.701111 0.574543
vt 0.707163 0.503844
vt 0.682167 0.503844
vt 0.701111 0.433145
vt 0.722758 0.445643
vt 0.765364 0.403037
vt 0.881766 0.403037
vt 0.924372 0.445643
vt 0.946019 0.433145
vt 0.939967 0.503844
vt 0.964963 0.503844
vt 0.946019 0.574543
vt 0.906762 0.647945
vt 0.823565 0.670238
vt 0.740368 0.647945
vt 0.679464 0.587041
vt 0.657171 0.503844
vt 0.679464 0.420647
vt 0.967667 0.420647
vt 0.989959 0.503844
vt 0.967666 0.587041
vt 0.859312 0.225757
vt 0.809793 0.235421
vt 0.839386 0.205828
vt 0.782573 0.208199
vt 0.812166 0.178606
vt 0.755352 0.180977
vt 0.784945 0.151384
vt 0.735425 0.161050
vt 0.765018 0.131456
vt 0.708203 0.133828
vt 0.737797 0.104235
vt 0.680982 0.106607
vt 0.710575 0.077014
vt 0.884158 0.309797
vt 0.913751 0.280204
vt 0.856938 0.282574
vt 0.886536 0.252976
vt 0.829719 0.255350
vt 0.906762 0.647945
vt 0.946019 0.574543
vt 0.894264 0.626298
vt 0.823565 0.670238
vt 0.823565 0.645242
vt 0.752866 0.626298
vt 0.740368 0.647945
vt 0.701111 0.574543
vt 0.679464 0.587041
vt 0.682167 0.503844
vt 0.657171 0.503844
vt 0.679464 0.420647
vt 0.701111 0.433145
vt 0.946019 0.433145
vt 0.967667 0.420647
vt 0.964963 0.503844
vt 0.989959 0.503844
vt 0.967666 0.587041
vt 0.924372 0.562045
vt 0.881766 0.604651
vt 0.823565 0.620246
vt 0.765364 0.604651
vt 0.722758 0.562045
vt 0.707163 0.503844
vt 0.722758 0.445643
vt 0.765364 0.403037
vt 0.924372 0.445643
vt 0.939967 0.503844
vt 0.710578 0.077008
vt 0.690651 0.057081
vt 0.677041 0.043470
vt 0.947291 0.313742
vt 0.933682 0.300129
vt 0.913756 0.280200
vt 0.886536 0.252976
vt 0.859317 0.225753
vt 0.839391 0.205824
vt 0.824590 0.220625
vt 0.812170 0.178601
vt 0.784949 0.151379
vt 0.765018 0.131456
vt 0.737800 0.104230
vt 0.881766 0.403037
vt 0.823565 0.387442
vt 0.823565 0.348596
vt 0.823565 0.348596
vt 0.823565 0.387442
vt 0.336204 0.988218
vt 0.391352 0.624211
vt 0.932489 0.328541
vn 0.0000 -1.0000 -0.0000
vn 1.0000 0.0000 0.0000
vn 0.0000 0.0000 1.0000
vn -1.0000 0.0000 -0.0000
vn 0.0000 -0.9869 -0.1614
vn 0.8919 -0.4315 -0.1358
vn 0.8913 0.4288 -0.1473
vn 0.0000 0.9867 -0.1627
vn -0.8913 0.4287 -0.1473
vn -0.8919 -0.4315 -0.1358
vn 0.5692 -0.2740 -0.7752
vn 0.5945 0.2855 -0.7517
vn 0.0000 0.6210 -0.7838
vn -0.5954 0.2866 -0.7506
vn -0.5698 -0.2748 -0.7745
vn 0.0000 -0.5643 -0.8256
vn 0.0000 0.1900 -0.9818
vn 0.0000 -0.1900 -0.9818
vn -0.8635 -0.0958 -0.4952
vn -0.8635 0.0958 -0.4952
vn 0.8635 -0.0958 -0.4952
vn 0.8635 0.0958 -0.4952
vn 0.8900 -0.4266 -0.1609
vn 0.8912 0.4284 -0.1493
vn 0.0000 0.9867 -0.1626
vn -0.8912 0.4283 -0.1493
vn -0.8900 -0.4266 -0.1609
vn 0.5698 -0.2748 -0.7745
vn 0.5954 0.2866 -0.7506
vn -0.5945 0.2854 -0.7517
vn -0.5692 -0.2740 -0.7752
vn 0.9977 0.0141 0.0666
vn 0.5258 -0.7818 0.3351
vn 0.9380 0.0045 0.3466
vn 0.5292 0.7946 0.2976
vn 0.8933 0.4494 -0.0027
vn -0.5284 0.7935 0.3020
vn -0.8942 0.4477 -0.0021
vn -0.9977 -0.0141 0.0666
vn -0.9380 0.0045 0.3466
vn -0.5255 -0.7808 0.3380
vn -0.8933 -0.4494 -0.0027
vn 0.0000 0.0000 -1.0000
vn 0.8282 -0.5605 0.0000
vn 0.8478 -0.5303 -0.0001
vn 0.5685 0.8227 0.0000
vn 0.5684 0.8228 0.0000
vn -0.5684 0.8227 0.0000
vn -0.5685 0.8227 -0.0000
vn -0.8486 -0.5291 0.0001
vn -0.3060 -0.9520 -0.0000
vn -0.8307 -0.5568 0.0001
vn 0.3060 -0.9520 0.0000
vn 0.6459 -0.7634 0.0076
vn 0.5681 0.8229 0.0000
vn -0.5681 0.8230 -0.0000
vn -0.6442 -0.7648 0.0076
vn 0.7704 -0.0025 0.6375
vn 0.4005 -0.5889 0.7019
vn -0.4249 0.6197 0.6599
vn 0.4247 0.6202 0.6596
vn -0.7704 -0.0025 0.6375
vn -0.4005 -0.5891 0.7018
vn -0.0444 -0.9989 0.0146
vn -0.0192 0.7796 -0.6260
vn -0.7651 0.1342 -0.6298
vn 0.0000 0.0900 -0.9959
vn -0.7269 0.0000 -0.6868
vn 0.0113 -0.0926 -0.9956
vn -0.7651 -0.1342 -0.6298
vn 0.0095 -0.7729 -0.6344
vn -0.7240 -0.5377 -0.4321
vn -0.7652 -0.6438 -0.0000
vn -0.7240 -0.5377 0.4321
vn -0.0000 -0.7715 0.6363
vn -0.8137 -0.2327 0.5326
vn -0.0000 -0.0900 0.9959
vn -0.6905 -0.0000 0.7233
vn 0.0113 0.0926 0.9956
vn -0.8137 0.2327 0.5326
vn 0.0095 0.7729 0.6344
vn -0.7240 0.5377 0.4321
vn 0.0000 1.0000 0.0000
vn -0.7652 0.6438 0.0000
vn -0.7268 0.5450 -0.4180
vn -0.9975 -0.0230 0.0668
vn -0.9946 0.0000 0.1033
vn -0.9975 0.0230 0.0668
vn -0.9924 0.0826 0.0916
vn -0.9928 0.1195 -0.0000
vn -0.9924 0.0826 -0.0916
vn -0.9856 -0.1597 0.0558
vn -0.9856 0.1597 0.0558
vn -0.9924 -0.0826 -0.0916
vn -0.9928 -0.1195 0.0000
vn -0.9932 -0.0479 0.1061
vn -0.2576 -0.3766 0.8899
vn -0.2480 0.0000 0.9688
vn -0.2575 0.3766 0.8899
vn -0.2832 0.7533 0.5936
vn -0.3002 0.9539 -0.0000
vn -0.2834 0.7533 -0.5935
vn -0.3085 0.5569 -0.7711
vn -0.3090 -0.5568 -0.7710
vn -0.2832 -0.7533 -0.5936
vn -0.3002 -0.9539 0.0000
vn -0.4217 -0.5702 0.7050
vn 0.2575 -0.3766 0.8899
vn 0.2480 -0.0000 0.9688
vn 0.2576 0.3766 0.8899
vn 0.2834 0.7532 0.5935
vn 0.3002 0.9539 0.0000
vn 0.2832 0.7533 -0.5936
vn 0.3090 0.5568 -0.7710
vn 0.2834 -0.7532 -0.5935
vn 0.3002 -0.9539 0.0000
vn 0.4967 -0.8105 0.3105
vn 0.9924 -0.0826 0.0916
vn 0.9975 -0.0229 0.0667
vn 0.9946 0.0000 0.1033
vn 0.9975 0.0229 0.0667
vn 0.9924 0.0826 0.0916
vn 0.9928 0.1195 0.0000
vn 0.9924 0.0826 -0.0916
vn 0.9856 -0.1597 0.0558
vn 0.3085 -0.5569 -0.7711
vn 0.9924 -0.0826 -0.0916
vn 0.9928 -0.1195 0.0000
vn 0.7240 0.5377 -0.4321
vn 0.7651 0.1343 -0.6297
vn 0.7269 0.0000 -0.6868
vn 0.7651 -0.1343 -0.6297
vn 0.7240 -0.5377 -0.4321
vn 0.7652 -0.6438 0.0000
vn 0.7240 -0.5377 0.4321
vn 0.8138 -0.2337 0.5321
vn 0.9856 0.1597 0.0558
vn 0.7240 0.5377 0.4321
vn 0.7652 0.6438 0.0000
vn 0.6905 -0.0000 0.7233
vn 0.8105 0.2193 0.5431
vn 0.0432 -0.9990 0.0146
vn 0.8942 -0.4477 -0.0021
vn 0.7615 -0.3666 0.5345
vn 0.7617 -0.3668 0.5341
vn 0.7777 0.3743 0.5050
vn 0.0000 0.8398 0.5430
vn -0.7777 0.3743 0.5050
vn -0.7779 0.3744 0.5047
vn -0.7615 -0.3666 0.5345
vn 0.0000 -0.7979 0.6027
vn 0.7779 0.3745 0.5046
vn 0.0000 0.8397 0.5430
vn -0.7617 -0.3668 0.5341
s off
f 31/1/1 33/2/1 30/3/1
f 29/4/2 31/5/2 20/6/2
f 28/7/3 32/8/3 29/9/3
f 27/10/4 33/11/4 28/12/4
f 127/13/5 129/14/5 126/15/5
f 126/15/6 131/16/6 127/13/6
f 131/17/7 132/18/7 133/19/7
f 132/18/8 135/20/8 133/19/8
f 134/21/9 137/22/9 135/20/9
f 137/22/10 129/14/10 128/23/10
f 130/24/11 34/25/11 35/26/11
f 130/27/12 36/28/12 132/18/12
f 132/18/13 37/29/13 134/21/13
f 136/30/14 37/29/14 38/31/14
f 136/30/15 39/32/15 129/14/15
f 39/32/16 126/15/16 129/14/16
f 7/33/17 99/34/17 5/35/17
f 2/36/18 89/37/18 11/38/18
f 89/39/19 78/40/19 11/41/19
f 88/42/20 7/43/20 77/44/20
f 111/45/21 100/46/21 2/47/21
f 110/48/22 5/49/22 99/50/22
f 31/1/1 32/8/1 33/2/1
f 29/4/2 32/51/2 31/5/2
f 28/7/3 33/2/3 32/8/3
f 27/10/4 30/52/4 33/11/4
f 127/13/5 128/23/5 129/14/5
f 126/15/23 130/24/23 131/16/23
f 131/17/24 130/27/24 132/18/24
f 132/18/25 134/21/25 135/20/25
f 134/21/26 136/30/26 137/22/26
f 137/22/27 136/30/27 129/14/27
f 130/24/28 126/15/28 34/25/28
f 130/27/29 35/53/29 36/28/29
f 132/18/13 36/28/13 37/29/13
f 136/30/30 134/21/30 37/29/30
f 136/30/31 38/31/31 39/32/31
f 39/32/16 34/25/16 126/15/16
f 7/33/17 88/54/17 99/34/17
f 2/36/18 100/55/18 89/37/18
s 1
f 1/56/32 3/57/33 4/58/34
f 1/59/32 6/60/35 5/61/36
f 5/61/36 8/62/37 7/63/38
f 9/64/39 8/62/37 10/65/40
f 9/64/39 12/66/41 11/67/42
f 13/68/43 14/69/43 15/70/43
f 16/71/43 13/68/43 15/70/43
f 17/72/43 16/71/43 15/70/43
f 18/73/43 17/72/43 15/70/43
f 19/74/43 18/73/43 15/70/43
f 14/69/43 20/75/43 15/70/43
f 14/76/44 22/77/2 21/78/45
f 13/79/2 23/80/46 22/81/2
f 16/82/47 24/83/48 23/80/46
f 17/84/49 25/85/4 24/83/48
f 18/86/4 26/87/50 25/85/4
f 27/88/51 26/87/50 19/89/52
f 20/90/53 21/78/45 29/91/53
f 15/70/43 27/92/43 19/74/43
f 15/70/43 20/75/43 27/92/43
f 20/75/43 30/3/43 27/92/43
f 21/78/45 35/26/2 34/25/54
f 22/81/2 36/28/55 35/53/2
f 23/80/46 37/29/56 36/28/55
f 24/83/48 38/31/4 37/29/56
f 25/85/4 39/32/57 38/31/4
f 41/93/58 3/57/33 40/94/59
f 41/95/58 6/60/35 4/96/34
f 43/97/60 6/60/35 42/98/61
f 44/99/62 8/62/37 43/97/60
f 44/99/62 12/66/41 10/65/40
f 45/100/63 3/57/33 12/66/41
f 3/57/33 11/67/42 12/66/41
f 39/32/57 26/87/50 28/101/64
f 47/102/65 49/103/66 46/104/67
f 46/104/67 51/105/68 50/106/43
f 52/107/69 51/105/68 53/108/70
f 54/109/71 53/110/70 55/111/72
f 56/112/1 55/111/72 57/113/73
f 56/112/1 59/114/74 58/115/75
f 58/115/75 61/116/76 60/117/77
f 62/118/78 60/117/77 61/116/76
f 65/119/79 62/118/78 64/120/80
f 66/121/81 64/120/80 67/122/82
f 68/123/83 67/122/82 69/124/84
f 68/123/83 48/125/85 47/102/65
f 48/126/85 71/127/86 49/128/66
f 49/128/66 72/129/87 51/130/68
f 53/131/70 72/129/87 73/132/88
f 55/133/72 73/132/88 74/134/89
f 57/135/73 74/134/89 75/136/90
f 57/135/73 76/137/91 59/138/74
f 59/138/74 77/44/92 61/139/76
f 7/43/38 61/139/76 77/44/92
f 64/140/80 11/41/42 78/40/93
f 67/141/82 78/40/93 79/142/94
f 69/143/84 79/142/94 80/144/95
f 69/143/84 70/145/96 48/126/85
f 70/145/96 82/146/97 71/127/86
f 71/127/86 83/147/98 72/129/87
f 73/132/88 83/147/98 84/148/99
f 74/134/89 84/148/99 85/149/100
f 75/136/90 85/149/100 86/150/101
f 75/136/90 87/151/102 76/137/91
f 76/137/91 88/42/103 77/44/92
f 79/142/94 89/39/104 90/152/105
f 80/144/95 90/152/105 91/153/106
f 80/144/95 81/154/107 70/145/96
f 81/155/107 93/156/108 82/157/97
f 82/157/97 94/158/109 83/159/98
f 83/159/98 95/160/110 84/161/99
f 84/161/99 96/162/111 85/163/100
f 85/163/100 97/164/112 86/165/101
f 86/165/101 98/166/113 87/167/102
f 87/167/102 99/34/114 88/54/103
f 89/37/104 101/168/115 90/169/105
f 90/169/105 102/170/116 91/171/106
f 91/171/106 92/172/117 81/155/107
f 93/173/108 103/174/118 104/175/119
f 94/176/109 104/175/119 105/177/120
f 94/176/109 106/178/121 95/179/110
f 95/179/110 107/180/122 96/181/111
f 96/181/111 108/182/123 97/183/112
f 98/184/113 108/182/123 109/185/124
f 99/50/114 109/185/124 110/48/125
f 100/46/126 112/186/127 101/187/115
f 101/187/115 113/188/128 102/189/116
f 92/190/117 113/188/128 103/174/118
f 104/175/119 114/191/129 115/192/130
f 105/177/120 115/192/130 116/193/131
f 105/177/120 117/194/132 106/178/121
f 106/178/121 118/195/133 107/180/122
f 107/180/122 119/196/134 108/182/123
f 109/185/124 119/196/134 120/197/135
f 110/48/125 120/197/135 121/198/136
f 111/45/137 123/199/138 112/186/127
f 112/186/127 124/200/139 113/188/128
f 103/174/118 124/200/139 114/191/129
f 115/201/130 47/102/65 46/104/67
f 116/202/131 46/104/67 50/106/43
f 116/202/131 52/107/69 117/203/132
f 117/204/132 54/109/71 118/205/133
f 118/205/133 56/112/1 119/206/134
f 120/207/135 56/112/1 58/115/75
f 121/208/136 58/115/75 60/117/77
f 60/117/77 125/209/140 121/208/136
f 65/119/79 125/209/140 63/210/3
f 122/211/141 66/121/81 123/212/138
f 123/212/138 68/123/83 124/213/139
f 114/214/129 68/123/83 47/102/65
f 28/101/64 34/25/54 39/32/57
f 34/25/54 29/91/142 21/78/45
f 2/47/143 122/215/141 111/45/137
f 5/49/36 121/198/136 125/216/140
f 131/16/144 40/94/59 127/13/145
f 131/17/146 42/98/61 41/95/58
f 133/19/147 43/97/60 42/98/61
f 137/22/148 43/97/60 135/20/149
f 137/22/150 45/100/63 44/99/62
f 128/23/151 40/94/59 45/100/63
f 125/216/140 2/47/143 1/217/32
f 1/217/32 5/49/36 125/216/140
f 9/218/39 62/219/78 7/43/38
f 11/41/42 62/219/78 9/218/39
f 1/56/32 2/220/143 3/57/33
f 1/59/32 4/96/34 6/60/35
f 5/61/36 6/60/35 8/62/37
f 9/64/39 7/63/38 8/62/37
f 9/64/39 10/65/40 12/66/41
f 14/76/44 13/221/2 22/77/2
f 13/79/2 16/82/47 23/80/46
f 16/82/47 17/84/49 24/83/48
f 17/84/49 18/86/4 25/85/4
f 18/86/4 19/89/52 26/87/50
f 27/88/51 28/101/51 26/87/50
f 20/90/53 14/76/44 21/78/45
f 20/75/43 31/1/43 30/3/43
f 21/78/45 22/77/2 35/26/2
f 22/81/2 23/80/46 36/28/55
f 23/80/46 24/83/48 37/29/56
f 24/83/48 25/85/4 38/31/4
f 25/85/4 26/87/50 39/32/57
f 41/93/58 4/58/34 3/57/33
f 41/95/58 42/98/61 6/60/35
f 43/97/60 8/62/37 6/60/35
f 44/99/62 10/65/40 8/62/37
f 44/99/62 45/100/63 12/66/41
f 45/100/63 40/94/59 3/57/33
f 3/57/33 2/220/143 11/67/42
f 47/102/65 48/125/85 49/103/66
f 46/104/67 49/103/66 51/105/68
f 52/107/69 50/106/43 51/105/68
f 54/109/71 52/222/69 53/110/70
f 56/112/1 54/109/71 55/111/72
f 56/112/1 57/113/73 59/114/74
f 58/115/75 59/114/74 61/116/76
f 62/118/78 63/210/3 60/117/77
f 65/119/79 63/210/3 62/118/78
f 66/121/81 65/119/79 64/120/80
f 68/123/83 66/121/81 67/122/82
f 68/123/83 69/124/84 48/125/85
f 48/126/85 70/145/96 71/127/86
f 49/128/66 71/127/86 72/129/87
f 53/131/70 51/130/68 72/129/87
f 55/133/72 53/131/70 73/132/88
f 57/135/73 55/133/72 74/134/89
f 57/135/73 75/136/90 76/137/91
f 59/138/74 76/137/91 77/44/92
f 7/43/38 62/219/78 61/139/76
f 64/140/80 62/219/78 11/41/42
f 67/141/82 64/140/80 78/40/93
f 69/143/84 67/141/82 79/142/94
f 69/143/84 80/144/95 70/145/96
f 70/145/96 81/154/107 82/146/97
f 71/127/86 82/146/97 83/147/98
f 73/132/88 72/129/87 83/147/98
f 74/134/89 73/132/88 84/148/99
f 75/136/90 74/134/89 85/149/100
f 75/136/90 86/150/101 87/151/102
f 76/137/91 87/151/102 88/42/103
f 79/142/94 78/40/93 89/39/104
f 80/144/95 79/142/94 90/152/105
f 80/144/95 91/153/106 81/154/107
f 81/155/107 92/172/117 93/156/108
f 82/157/97 93/156/108 94/158/109
f 83/159/98 94/158/109 95/160/110
f 84/161/99 95/160/110 96/162/111
f 85/163/100 96/162/111 97/164/112
f 86/165/101 97/164/112 98/166/113
f 87/167/102 98/166/113 99/34/114
f 89/37/104 100/55/126 101/168/115
f 90/169/105 101/168/115 102/170/116
f 91/171/106 102/170/116 92/172/117
f 93/173/108 92/190/117 103/174/118
f 94/176/109 93/173/108 104/175/119
f 94/176/109 105/177/120 106/178/121
f 95/179/110 106/178/121 107/180/122
f 96/181/111 107/180/122 108/182/123
f 98/184/113 97/183/112 108/182/123
f 99/50/114 98/184/113 109/185/124
f 100/46/126 111/45/137 112/186/127
f 101/187/115 112/186/127 113/188/128
f 92/190/117 102/189/116 113/188/128
f 104/175/119 103/174/118 114/191/129
f 105/177/120 104/175/119 115/192/130
f 105/177/120 116/193/131 117/194/132
f 106/178/121 117/194/132 118/195/133
f 107/180/122 118/195/133 119/196/134
f 109/185/124 108/182/123 119/196/134
f 110/48/125 109/185/124 120/197/135
f 111/45/137 122/215/141 123/199/138
f 112/186/127 123/199/138 124/200/139
f 103/174/118 113/188/128 124/200/139
f 115/201/130 114/214/129 47/102/65
f 116/202/131 115/201/130 46/104/67
f 116/202/131 50/106/43 52/107/69
f 117/204/132 52/222/69 54/109/71
f 118/205/133 54/109/71 56/112/1
f 120/207/135 119/206/134 56/112/1
f 121/208/136 120/207/135 58/115/75
f 60/117/77 63/210/3 125/209/140
f 65/119/79 122/211/141 125/209/140
f 122/211/141 65/119/79 66/121/81
f 123/212/138 66/121/81 68/123/83
f 114/214/129 124/213/139 68/123/83
f 28/101/64 29/91/142 34/25/54
f 2/47/143 125/216/140 122/215/141
f 5/49/36 110/48/125 121/198/136
f 131/16/144 41/93/58 40/94/59
f 131/17/146 133/19/152 42/98/61
f 133/19/147 135/20/153 43/97/60
f 137/22/148 44/99/62 43/97/60
f 137/22/150 128/23/154 45/100/63
f 128/23/151 127/13/151 40/94/59
