# Blender v2.80 (sub 75) OBJ File: ''
# www.blender.org
o Key1
v 0.723361 -5.986811 -0.746598
v 0.997380 -5.989237 -0.516898
v 0.763353 -5.915596 -0.763297
v 1.112679 -6.191422 -0.686835
v 0.878653 -6.117780 -0.933234
v 1.152671 -6.120206 -0.703534
v 0.957388 -6.060453 -0.500198
v 0.918644 -6.046565 -0.949933
v 2.315821 -6.529574 0.014813
v 2.345258 -6.804608 -0.028600
v 2.214059 -6.710788 0.057306
v 2.015327 -6.543183 0.296151
v 2.049557 -6.288183 0.406596
v 2.117089 -6.361969 0.253658
v 2.018396 -6.551560 0.487102
v 1.947795 -6.469398 0.449089
v 2.356151 -6.836416 0.081172
v 2.162310 -6.295284 0.427008
v 2.447020 -6.623394 -0.071092
v 2.500066 -6.580139 0.021079
v 2.093617 -6.664517 0.185529
v 1.927449 -6.493705 0.183416
v 1.984955 -6.647159 0.082934
v 2.122452 -6.658166 -0.050948
v 2.202443 -6.515721 -0.084349
v 2.237531 -6.408241 0.125435
v 2.144937 -6.362268 0.016131
v 2.007440 -6.351260 0.150014
v 0.923701 -6.313209 -1.034429
v 0.866196 -6.159756 -0.933948
v 1.003693 -6.170763 -1.067830
v 1.061199 -6.324217 -1.168312
v 1.141190 -6.181771 -1.201713
v 1.083684 -6.028318 -1.101232
v 0.946187 -6.017311 -0.967350
v 1.157728 -6.386851 -0.788029
v 1.100222 -6.233398 -0.687548
v 1.295225 -6.397859 -0.921912
v 1.375216 -6.255414 -0.955313
v 1.317711 -6.101960 -0.854832
v 1.180214 -6.090953 -0.720950
v 1.725946 -6.565655 -0.189768
v 1.668440 -6.412202 -0.089287
v 1.863443 -6.576663 -0.323650
v 1.943435 -6.434217 -0.357052
v 1.885929 -6.280765 -0.256571
v 1.748432 -6.269757 -0.122689
v 1.707024 -6.439530 0.110155
v 1.755239 -6.670714 -0.080072
v 1.795224 -6.675455 -0.044425
v 1.652533 -6.419908 0.026903
v 1.664300 -6.427435 0.079266
v 1.735859 -6.642070 -0.119027
v 1.934382 -6.657368 -0.312966
v 2.049957 -6.451624 -0.361212
v 1.967504 -6.229567 -0.215754
v 1.768492 -6.213414 -0.021518
v 2.006388 -6.692503 -0.250832
v 1.973068 -6.688200 -0.292691
v 2.129517 -6.473219 -0.302283
v 2.099976 -6.462218 -0.345690
v 2.008928 -6.218956 -0.186003
v 2.041246 -6.237351 -0.147155
v 1.829985 -6.220567 0.058811
v 1.791075 -6.201681 0.026330
v 1.795041 -6.461580 0.143806
v 1.838932 -6.658423 -0.023759
v 1.872204 -6.666792 0.009578
v 2.056173 -6.681464 -0.169130
v 2.024278 -6.673362 -0.204853
v 2.163052 -6.491140 -0.213758
v 2.054850 -6.273927 -0.113918
v 2.086074 -6.285942 -0.079726
v 1.902031 -6.271057 0.099131
v 1.761676 -6.451405 0.111957
v 2.132330 -6.480947 -0.249971
v 1.869562 -6.259287 0.066908
v 2.541011 -6.538534 1.045406
v 2.808712 -6.558638 1.071267
v 2.744589 -6.651616 1.050690
v 2.911824 -6.771205 0.941188
v 2.992275 -6.689902 0.951075
v 3.086761 -6.793137 0.737097
v 2.997906 -6.865256 0.746243
v 3.066853 -6.840679 0.486667
v 2.979768 -6.908570 0.518088
v 2.862271 -6.889540 0.317858
v 2.937884 -6.819791 0.266888
v 2.734413 -6.736069 0.136650
v 2.676898 -6.813264 0.199204
v 2.510959 -6.611947 0.130851
v 2.473320 -6.700183 0.193920
v 2.306085 -6.580594 0.303421
v 2.327397 -6.480682 0.251043
v 2.232911 -6.377448 0.465021
v 2.220003 -6.486542 0.498368
v 2.252820 -6.329905 0.715451
v 2.238141 -6.443228 0.726522
v 2.355638 -6.462258 0.926753
v 2.381787 -6.350793 0.935230
v 2.585259 -6.434515 1.065467
v 2.861758 -6.515383 1.163438
v 3.084739 -6.674835 1.017436
v 3.199514 -6.800237 0.757508
v 3.175330 -6.857989 0.453302
v 3.018668 -6.832615 0.186329
v 2.771503 -6.730915 0.028124
v 2.186494 -6.237532 0.731214
v 2.343156 -6.262906 0.998188
v 2.590321 -6.364606 1.156393
v 2.872652 -6.547191 1.273210
v 3.135050 -6.734830 1.101398
v 3.270114 -6.882401 0.795521
v 3.241656 -6.950362 0.437538
v 3.057299 -6.920503 0.123370
v 2.766442 -6.800824 -0.062801
v 2.078016 -6.220222 0.764580
v 2.262373 -6.250082 1.078748
v 2.553230 -6.369761 1.264919
v 2.770889 -6.728405 1.315702
v 3.033287 -6.916044 1.143891
v 3.168352 -7.063615 0.838014
v 3.139893 -7.131576 0.480031
v 2.955536 -7.101717 0.165863
v 2.664680 -6.982038 -0.020309
v 1.976254 -6.401437 0.807072
v 2.160611 -6.431296 1.121240
v 2.451468 -6.550974 1.307411
v 2.717844 -6.771659 1.223531
v 2.940825 -6.931111 1.077530
v 3.055599 -7.056514 0.817602
v 3.031416 -7.114265 0.513395
v 2.874753 -7.088892 0.246422
v 2.627589 -6.987191 0.088217
v 2.042580 -6.493809 0.791308
v 2.199242 -6.519182 1.058281
v 2.446406 -6.620883 1.216486
v 2.706950 -6.739852 1.113760
v 2.890513 -6.871117 0.993567
v 2.984998 -6.974351 0.779589
v 2.965090 -7.021894 0.529159
v 2.836122 -7.001005 0.309380
v 2.632650 -6.917283 0.179143
v 2.409197 -6.793160 0.173343
v 2.151057 -6.511119 0.757943
v 2.280025 -6.532007 0.977722
v 2.483497 -6.615730 1.107960
v 2.131148 -6.558661 0.507514
v 2.225634 -6.661896 0.293535
vt 0.863678 0.191706
vt 0.780950 0.091152
vt 0.872593 0.182791
vt 0.791457 0.967457
vt 0.986418 0.729680
vt 0.791457 0.729680
vt 0.705809 0.016014
vt 0.772035 0.100068
vt 0.696893 0.024930
vt 0.791457 0.729680
vt 0.986418 0.967457
vt 0.791457 0.967457
vt 0.917697 0.343334
vt 0.933682 0.300129
vt 0.947291 0.313742
vt 0.677041 0.043470
vt 0.661059 0.086675
vt 0.647448 0.073064
vt 0.894264 0.381390
vt 0.906762 0.359743
vt 0.865163 0.348596
vt 0.752866 0.381390
vt 0.781967 0.348596
vt 0.740368 0.359743
vt 0.906762 0.359743
vt 0.894264 0.381390
vt 0.865163 0.348596
vt 0.740368 0.359743
vt 0.781967 0.348596
vt 0.752866 0.381390
vt 0.986418 0.967457
vt 0.986418 0.729680
vt 0.904088 0.329722
vt 0.690651 0.057081
vt 0.390805 0.988218
vt 0.336204 0.948340
vt 0.390805 0.948340
vt 0.026797 0.988218
vt 0.081398 0.948340
vt 0.081399 0.988218
vt 0.136000 0.948340
vt 0.136000 0.988218
vt 0.208801 0.988218
vt 0.208801 0.948340
vt 0.263402 0.948340
vt 0.263402 0.988218
vt 0.945398 0.300176
vt 0.935791 0.272737
vt 0.963230 0.282344
vt 0.972837 0.309783
vt 0.990669 0.291951
vt 0.981063 0.264511
vt 0.953624 0.254905
vt 0.938817 0.266846
vt 0.336204 0.624211
vt 0.391352 0.729495
vt 0.336204 0.729495
vt 0.027344 0.624211
vt 0.081398 0.729495
vt 0.027344 0.729495
vt 0.081398 0.624211
vt 0.136000 0.729495
vt 0.136000 0.624211
vt 0.208801 0.729495
vt 0.208801 0.624211
vt 0.263402 0.729495
vt 0.281603 0.624211
vt 0.263402 0.624211
vt 0.318003 0.624211
vt 0.318003 0.729495
vt 0.947732 0.257931
vt 0.390805 0.880521
vt 0.336204 0.880521
vt 0.081398 0.880521
vt 0.026797 0.880521
vt 0.136000 0.880521
vt 0.208801 0.880521
vt 0.263402 0.880521
vt 0.336204 0.914368
vt 0.390805 0.900784
vt 0.390805 0.914309
vt 0.336204 0.892260
vt 0.336204 0.900822
vt 0.390805 0.892210
vt 0.026797 0.892210
vt 0.081399 0.892107
vt 0.136000 0.892111
vt 0.208801 0.892210
vt 0.263402 0.892260
vt 0.026797 0.900784
vt 0.081398 0.914234
vt 0.026797 0.914309
vt 0.081398 0.900689
vt 0.136000 0.914234
vt 0.136000 0.900683
vt 0.208801 0.900784
vt 0.208801 0.914309
vt 0.263402 0.914368
vt 0.263402 0.900822
vt 0.336204 0.937059
vt 0.390805 0.927232
vt 0.390805 0.937060
vt 0.026797 0.927232
vt 0.081398 0.937059
vt 0.026797 0.937059
vt 0.081398 0.927284
vt 0.136000 0.937060
vt 0.208801 0.927232
vt 0.208801 0.937060
vt 0.263402 0.937059
vt 0.336204 0.927182
vt 0.136000 0.927284
vt 0.263402 0.927182
vt 0.336204 0.988218
vt 0.281603 0.729495
vt 0.824590 0.220625
vt 0.782573 0.208199
vt 0.797369 0.193403
vt 0.770149 0.166180
vt 0.755352 0.180977
vt 0.735425 0.161050
vt 0.750222 0.146253
vt 0.708204 0.133828
vt 0.723000 0.119032
vt 0.695778 0.091810
vt 0.680982 0.106607
vt 0.661054 0.086679
vt 0.675851 0.071883
vt 0.647444 0.073068
vt 0.662240 0.058272
vt 0.918880 0.314929
vt 0.917692 0.343338
vt 0.904084 0.329726
vt 0.884158 0.309797
vt 0.898955 0.295001
vt 0.856938 0.282574
vt 0.871735 0.267777
vt 0.844515 0.240554
vt 0.829719 0.255350
vt 0.809793 0.235421
vt 0.924372 0.562045
vt 0.894264 0.626298
vt 0.881766 0.604651
vt 0.823565 0.620246
vt 0.823565 0.645242
vt 0.752866 0.626298
vt 0.765364 0.604651
vt 0.701111 0.574543
vt 0.722758 0.562045
vt 0.707163 0.503844
vt 0.682167 0.503844
vt 0.701111 0.433145
vt 0.722758 0.445643
vt 0.765364 0.403037
vt 0.881766 0.403037
vt 0.946019 0.433145
vt 0.924372 0.445643
vt 0.939967 0.503844
vt 0.964963 0.503844
vt 0.946019 0.574543
vt 0.906762 0.647945
vt 0.823565 0.670238
vt 0.740368 0.647945
vt 0.679464 0.587041
vt 0.657171 0.503844
vt 0.679464 0.420647
vt 0.967666 0.420647
vt 0.989959 0.503844
vt 0.967666 0.587041
vt 0.735430 0.161046
vt 0.784949 0.151379
vt 0.755357 0.180973
vt 0.812170 0.178602
vt 0.782577 0.208196
vt 0.839391 0.205824
vt 0.809798 0.235418
vt 0.859317 0.225753
vt 0.829723 0.255346
vt 0.886537 0.252976
vt 0.856943 0.282570
vt 0.913756 0.280200
vt 0.884162 0.309793
vt 0.710579 0.077008
vt 0.680987 0.106603
vt 0.737800 0.104230
vt 0.708208 0.133824
vt 0.765022 0.131451
vt 0.967666 0.587041
vt 0.894264 0.626298
vt 0.906762 0.647945
vt 0.823565 0.645242
vt 0.823565 0.670238
vt 0.740368 0.647945
vt 0.752866 0.626298
vt 0.701111 0.574543
vt 0.679464 0.587041
vt 0.682167 0.503844
vt 0.657171 0.503844
vt 0.679464 0.420647
vt 0.701111 0.433145
vt 0.946019 0.433145
vt 0.967666 0.420647
vt 0.964963 0.503844
vt 0.989959 0.503844
vt 0.946019 0.574543
vt 0.881766 0.604651
vt 0.823565 0.620246
vt 0.765364 0.604651
vt 0.722758 0.562045
vt 0.707163 0.503844
vt 0.722758 0.445643
vt 0.765364 0.403037
vt 0.924372 0.445643
vt 0.939967 0.503844
vt 0.924372 0.562045
vt 0.812166 0.178606
vt 0.784946 0.151384
vt 0.765018 0.131456
vt 0.737797 0.104235
vt 0.710575 0.077014
vt 0.690648 0.057086
vt 0.677037 0.043475
vt 0.947286 0.313745
vt 0.932489 0.328542
vt 0.913751 0.280204
vt 0.933677 0.300133
vt 0.886532 0.252981
vt 0.859312 0.225757
vt 0.839387 0.205828
vt 0.881766 0.403037
vt 0.823565 0.387442
vt 0.823565 0.348596
vt 0.823565 0.387442
vt 0.823565 0.348596
vt 0.026797 0.948340
vt 0.391352 0.624211
vn -0.5629 0.4748 0.6766
vn -0.4797 -0.8543 0.2003
vn 0.6730 -0.2118 0.7086
vn 0.4797 0.8543 -0.2003
vn -0.5044 0.0817 -0.8596
vn -0.7958 0.3274 -0.5094
vn -0.7545 -0.6561 -0.0167
vn -0.6397 -0.7529 -0.1547
vn 0.1272 0.9142 -0.3849
vn 0.2421 0.8173 -0.5229
vn -0.5629 0.4748 0.6765
vn -0.7958 0.3275 -0.5094
vn -0.3992 -0.8830 0.2469
vn -0.5381 -0.1417 0.8309
vn -0.2653 -0.8811 0.3916
vn 0.3447 -0.8973 -0.2758
vn -0.2378 -0.9675 -0.0861
vn 0.8685 0.0354 -0.4945
vn 0.6491 0.6085 -0.4565
vn 0.5248 0.8435 -0.1146
vn 0.6541 0.7563 0.0076
vn -0.0147 0.7904 0.6124
vn 0.2153 0.9744 0.0649
vn -0.6730 0.2118 -0.7086
vn -0.7125 -0.4428 0.5443
vn -0.7039 -0.4775 0.5258
vn 0.1903 -0.8763 -0.4426
vn 0.7358 0.0952 -0.6704
vn 0.7359 0.0954 -0.6704
vn 0.1147 0.9764 0.1829
vn -0.3891 0.7134 0.5828
vn 0.0852 0.9739 0.2104
vn -0.6827 0.1906 0.7054
vn -0.7348 -0.1903 0.6510
vn 0.1907 -0.8760 -0.4430
vn 0.7358 0.0945 -0.6706
vn -0.1172 0.9117 0.3939
vn -0.3531 -0.1553 0.9226
vn -0.3766 -0.8744 0.3059
vn -0.2152 -0.8722 0.4392
vn -0.9968 0.0673 0.0425
vn -0.7325 -0.6687 -0.1275
vn -0.9729 0.0496 0.2257
vn -0.7487 -0.6153 -0.2466
vn -0.9880 0.0842 -0.1297
vn -0.8118 -0.4499 -0.3723
vn -0.3783 -0.4403 -0.8143
vn -0.2654 -0.5547 -0.7886
vn 0.0003 0.2340 -0.9722
vn 0.1597 0.2027 -0.9661
vn -0.0229 0.8229 -0.5677
vn -0.1409 0.7446 -0.6525
vn -0.6271 0.7267 -0.2804
vn -0.5921 0.7958 -0.1274
vn 0.4235 -0.8921 -0.1574
vn -0.1441 -0.6636 -0.7341
vn 0.2952 -0.8977 -0.3272
vn 0.9295 0.0091 -0.3688
vn 0.3250 0.1712 -0.9301
vn 0.5723 0.8151 -0.0904
vn 0.6831 0.7275 0.0641
vn 0.1281 0.8640 -0.4868
vn 0.0876 0.7159 0.6926
vn -0.5221 0.8521 0.0373
vn -0.4901 -0.0050 0.8717
vn -0.1742 -0.8725 0.4565
vn -0.2561 -0.8755 0.4097
vn 0.4009 -0.8948 -0.1963
vn 0.4884 -0.8674 -0.0953
vn 0.9128 0.0159 -0.4082
vn 0.7088 0.6999 0.0878
vn 0.6581 0.7524 0.0280
vn 0.0490 0.7386 0.6723
vn -0.3488 -0.2011 0.9154
vn 0.9537 -0.0508 -0.2965
vn 0.1105 0.7192 0.6859
vn -0.0731 0.8216 0.5654
vn -0.6041 -0.1232 0.7873
vn -0.6698 -0.6031 0.4331
vn -0.5317 0.5094 0.6766
vn 0.1510 -0.3053 -0.9402
vn 0.1657 0.6108 -0.7742
vn -0.3014 -0.0540 -0.9520
vn -0.0777 0.7845 -0.6152
vn -0.2027 0.9214 -0.3317
vn -0.8643 0.4208 -0.2754
vn -0.1762 0.9844 -0.0000
vn -0.8240 0.5170 0.2316
vn -0.0057 0.9566 0.2913
vn 0.2640 0.8458 0.4636
vn -0.1510 0.3053 0.9402
vn 0.4912 0.7673 0.4123
vn 0.3014 0.0540 0.9520
vn 0.7655 0.6081 0.2102
vn 0.9076 0.4183 -0.0363
vn 0.8643 -0.4208 0.2754
vn 0.9019 0.3079 -0.3030
vn 0.8240 -0.5170 -0.2316
vn 0.5629 -0.4748 -0.6765
vn 0.7311 0.3352 -0.5942
vn 0.4780 0.4207 -0.7711
vn 0.5070 0.8554 -0.1057
vn 0.5433 0.8294 -0.1300
vn 0.5623 0.8088 -0.1723
vn 0.5585 0.7992 -0.2221
vn 0.5325 0.8037 -0.2656
vn 0.4922 0.8202 -0.2917
vn 0.4020 0.9107 -0.0944
vn 0.5620 0.7758 -0.2868
vn 0.3963 0.9010 -0.1766
vn 0.4223 0.8966 -0.1331
vn 0.4962 0.8595 -0.1223
vn 0.4386 0.3232 0.8386
vn 0.7905 0.0708 0.6083
vn 0.9721 -0.1271 0.1972
vn 0.9339 -0.2181 -0.2834
vn 0.6862 -0.1786 -0.7051
vn 0.2958 -0.0175 -0.9551
vn 0.0769 0.0920 -0.9928
vn -0.6283 0.7622 0.1558
vn -0.3813 0.7216 0.5778
vn 0.2875 0.5783 0.7635
vn 0.1330 -0.2208 0.9662
vn 0.4857 -0.4723 0.7356
vn 0.6665 -0.6710 0.3249
vn 0.6285 -0.7621 -0.1558
vn 0.3813 -0.7217 -0.5778
vn -0.0097 -0.5614 -0.8275
vn -0.2239 -0.4437 -0.8678
vn -0.6802 0.7282 -0.0842
vn -0.9339 0.2182 0.2833
vn -0.6862 0.1786 0.7051
vn -0.5642 -0.1119 0.8181
vn -0.4478 -0.8448 0.2928
vn -0.4115 -0.8709 0.2687
vn -0.3924 -0.8915 0.2264
vn -0.3965 -0.9009 0.1766
vn -0.4223 -0.8966 0.1331
vn -0.4625 -0.8801 0.1068
vn -0.5476 -0.7803 0.3020
vn -0.9805 0.1923 0.0414
vn -0.5583 -0.7994 0.2221
vn -0.5325 -0.8037 0.2656
vn -0.5161 -0.8217 0.2419
vn -0.5600 -0.6813 -0.4715
vn -0.8032 -0.5073 -0.3123
vn -0.9282 -0.3710 -0.0286
vn -0.9020 -0.3076 0.3030
vn -0.7311 -0.3352 0.5942
vn -0.4616 -0.4466 0.7664
vn -0.2849 -0.6133 0.7367
vn -0.3875 -0.9153 0.1097
vn 0.1765 -0.9843 -0.0001
vn 0.0057 -0.9566 -0.2913
vn -0.2722 -0.8255 -0.4944
vn 0.2198 -0.9349 0.2786
vn -0.0313 -0.8376 0.5454
vn -0.7347 -0.1904 0.6511
vn -0.5740 0.4343 0.6942
vn 0.8321 0.0576 -0.5517
vn -0.5739 0.4343 0.6943
s off
f 1/1/1 2/2/1 3/3/1
f 4/4/2 1/5/2 5/6/2
f 6/7/3 7/8/3 4/9/3
f 8/10/4 2/11/4 6/12/4
f 9/13/5 10/14/5 11/15/5
f 12/16/6 13/17/6 14/18/6
f 15/19/7 16/20/7 12/21/7
f 17/22/8 11/23/8 10/24/8
f 13/25/9 18/26/9 14/27/9
f 19/28/10 9/29/10 20/30/10
f 1/1/11 7/8/11 2/2/11
f 4/4/2 7/31/2 1/5/2
f 6/7/3 2/2/3 7/8/3
f 8/10/4 3/32/4 2/11/4
f 9/13/5 19/33/5 10/14/5
f 12/16/12 16/34/12 13/17/12
s 1
f 21/35/13 22/36/14 23/37/15
f 21/38/13 24/39/16 11/40/17
f 11/40/17 25/41/18 9/42/19
f 26/43/20 25/41/18 27/44/21
f 26/43/20 28/45/22 14/46/23
f 29/47/24 30/48/24 31/49/24
f 32/50/24 29/47/24 31/49/24
f 33/51/24 32/50/24 31/49/24
f 34/52/24 33/51/24 31/49/24
f 35/53/24 34/52/24 31/49/24
f 30/48/24 5/54/24 31/49/24
f 30/55/25 36/56/2 37/57/26
f 29/58/2 38/59/27 36/60/2
f 32/61/27 39/62/28 38/59/27
f 33/63/29 40/64/4 39/62/28
f 34/65/4 41/66/30 40/64/4
f 8/67/31 41/66/30 35/68/32
f 5/69/33 37/57/26 4/70/33
f 31/49/24 8/71/24 35/53/24
f 31/49/24 5/54/24 8/71/24
f 5/54/24 3/3/24 8/71/24
f 37/57/26 42/72/2 43/73/34
f 36/60/2 44/74/35 42/75/2
f 38/59/27 45/76/36 44/74/35
f 39/62/28 46/77/4 45/76/36
f 40/64/4 47/78/37 46/77/4
f 48/79/38 49/80/39 50/81/40
f 51/82/41 49/80/42 52/83/43
f 53/84/44 43/73/45 42/72/46
f 53/85/44 44/74/47 54/86/48
f 54/86/48 45/76/49 55/87/50
f 56/88/51 45/76/49 46/77/52
f 56/88/51 47/78/53 57/89/54
f 49/90/39 58/91/55 50/92/40
f 49/90/42 54/86/48 59/93/56
f 59/93/57 60/94/58 58/91/55
f 59/93/56 55/87/50 61/95/59
f 60/94/58 62/96/60 63/97/61
f 55/87/50 62/96/62 61/95/59
f 62/96/60 64/98/63 63/97/61
f 62/96/62 57/89/54 65/99/64
f 66/100/65 67/101/66 68/102/67
f 67/103/66 69/104/68 68/105/67
f 70/106/69 71/107/70 69/104/68
f 71/107/70 72/108/71 73/109/72
f 72/108/71 74/110/73 73/109/72
f 22/36/14 68/102/67 23/37/15
f 24/39/16 68/105/67 69/104/68
f 24/39/16 71/107/70 25/41/18
f 25/41/18 73/109/72 27/44/21
f 28/45/22 73/109/72 74/110/73
f 75/111/74 50/81/40 67/101/66
f 70/106/69 50/92/40 58/91/55
f 76/112/75 58/91/55 60/94/58
f 76/112/75 63/97/61 72/108/71
f 77/113/76 63/97/61 64/98/63
f 47/78/53 51/82/41 57/89/54
f 51/82/41 65/99/64 57/89/54
f 48/79/38 65/99/77 52/83/78
f 48/79/38 77/113/76 64/98/63
f 66/100/65 77/113/76 75/111/74
f 22/36/14 74/110/73 66/100/65
f 12/114/79 28/45/22 22/36/14
f 47/78/37 41/66/30 6/115/80
f 78/116/81 79/117/82 80/118/83
f 81/119/24 79/117/82 82/120/84
f 81/119/24 83/121/85 84/122/86
f 84/122/86 85/123/87 86/124/88
f 87/125/11 85/123/87 88/126/89
f 87/125/11 89/127/90 90/128/91
f 90/128/91 91/129/92 92/130/93
f 93/131/3 91/132/92 94/133/94
f 95/134/95 93/131/3 94/133/94
f 96/135/96 97/136/97 98/137/98
f 99/138/99 97/136/97 100/139/100
f 99/138/99 101/140/101 78/116/81
f 101/141/101 102/142/102 79/143/82
f 82/144/84 102/142/102 103/145/103
f 82/144/84 104/146/104 83/147/85
f 83/147/85 105/148/105 85/149/87
f 88/150/89 105/148/105 106/151/106
f 88/150/89 107/152/107 89/153/90
f 89/153/90 20/30/108 91/154/92
f 9/29/19 91/154/92 20/30/108
f 95/155/95 14/27/23 18/26/109
f 95/155/95 108/156/110 97/157/97
f 100/158/100 108/156/110 109/159/111
f 100/158/100 110/160/112 101/141/101
f 110/160/112 111/161/113 102/142/102
f 103/145/103 111/161/113 112/162/114
f 103/145/103 113/163/115 104/146/104
f 104/146/104 114/164/116 105/148/105
f 106/151/106 114/164/116 115/165/117
f 106/151/106 116/166/118 107/152/107
f 107/152/107 19/28/119 20/30/108
f 18/26/109 117/167/120 108/156/110
f 109/159/111 117/167/120 118/168/121
f 109/159/111 119/169/122 110/160/112
f 119/170/122 120/171/123 111/172/113
f 111/172/113 121/173/124 112/174/114
f 112/174/114 122/175/125 113/176/115
f 113/176/115 123/177/126 114/178/116
f 114/178/116 124/179/127 115/180/117
f 115/180/117 125/181/128 116/182/118
f 116/182/118 10/14/129 19/33/119
f 13/17/130 126/183/131 117/184/120
f 117/184/120 127/185/132 118/186/121
f 118/186/121 128/187/133 119/170/122
f 128/188/133 129/189/134 120/190/123
f 120/190/123 130/191/135 121/192/124
f 122/193/125 130/191/135 131/194/136
f 122/193/125 132/195/137 123/196/126
f 123/196/126 133/197/138 124/198/127
f 125/199/128 133/197/138 134/200/139
f 125/199/128 17/22/140 10/24/129
f 16/20/141 135/201/142 126/202/131
f 126/202/131 136/203/143 127/204/132
f 128/188/133 136/203/143 137/205/144
f 137/205/144 138/206/145 129/189/134
f 129/189/134 139/207/146 130/191/135
f 131/194/136 139/207/146 140/208/147
f 131/194/136 141/209/148 132/195/137
f 132/195/137 142/210/149 133/197/138
f 134/200/139 142/210/149 143/211/150
f 134/200/139 144/212/151 17/22/140
f 15/19/152 145/213/153 135/201/142
f 135/201/142 146/214/154 136/203/143
f 137/205/144 146/214/154 147/215/155
f 138/216/145 78/116/81 80/118/83
f 138/216/145 81/119/24 139/217/146
f 140/218/147 81/119/24 84/122/86
f 141/219/148 84/122/86 86/124/88
f 141/219/148 87/125/11 142/220/149
f 143/221/150 87/125/11 90/128/91
f 144/222/151 90/128/91 92/130/93
f 93/131/3 144/223/151 92/224/93
f 93/131/3 148/225/156 149/226/157
f 145/227/153 96/135/96 98/137/98
f 145/227/153 99/138/99 146/228/154
f 147/229/155 99/138/99 78/116/81
f 6/115/80 43/73/158 47/78/37
f 43/73/34 4/70/159 37/57/26
f 12/21/79 148/230/156 15/19/152
f 11/23/17 144/212/151 149/231/157
f 26/232/20 94/233/94 9/29/19
f 14/27/23 94/233/94 26/232/20
f 149/231/157 12/21/79 21/234/13
f 21/234/13 11/23/17 149/231/157
f 21/35/13 12/114/79 22/36/14
f 21/38/13 23/235/15 24/39/16
f 11/40/17 24/39/16 25/41/18
f 26/43/20 9/42/19 25/41/18
f 26/43/20 27/44/21 28/45/22
f 30/55/25 29/236/2 36/56/2
f 29/58/2 32/61/27 38/59/27
f 32/61/27 33/63/29 39/62/28
f 33/63/29 34/65/4 40/64/4
f 34/65/4 35/68/32 41/66/30
f 8/67/31 6/115/31 41/66/30
f 5/69/33 30/55/25 37/57/26
f 5/54/24 1/1/24 3/3/24
f 37/57/26 36/56/2 42/72/2
f 36/60/2 38/59/27 44/74/35
f 38/59/27 39/62/28 45/76/36
f 39/62/28 40/64/4 46/77/4
f 40/64/4 41/66/30 47/78/37
f 48/79/38 52/83/78 49/80/39
f 51/82/41 53/84/44 49/80/42
f 53/84/44 51/82/41 43/73/45
f 53/85/44 42/75/46 44/74/47
f 54/86/48 44/74/47 45/76/49
f 56/88/51 55/87/50 45/76/49
f 56/88/51 46/77/52 47/78/53
f 49/90/39 59/93/57 58/91/55
f 49/90/42 53/85/44 54/86/48
f 59/93/57 61/95/160 60/94/58
f 59/93/56 54/86/48 55/87/50
f 60/94/58 61/95/160 62/96/60
f 55/87/50 56/88/51 62/96/62
f 62/96/60 65/99/77 64/98/63
f 62/96/62 56/88/51 57/89/54
f 66/100/65 75/111/74 67/101/66
f 67/103/66 70/106/69 69/104/68
f 70/106/69 76/112/75 71/107/70
f 71/107/70 76/112/75 72/108/71
f 72/108/71 77/113/76 74/110/73
f 22/36/14 66/100/65 68/102/67
f 24/39/16 23/235/15 68/105/67
f 24/39/16 69/104/68 71/107/70
f 25/41/18 71/107/70 73/109/72
f 28/45/22 27/44/21 73/109/72
f 75/111/74 48/79/38 50/81/40
f 70/106/69 67/103/66 50/92/40
f 76/112/75 70/106/69 58/91/55
f 76/112/75 60/94/58 63/97/61
f 77/113/76 72/108/71 63/97/61
f 47/78/53 43/73/45 51/82/41
f 51/82/41 52/83/43 65/99/64
f 48/79/38 64/98/63 65/99/77
f 48/79/38 75/111/74 77/113/76
f 66/100/65 74/110/73 77/113/76
f 22/36/14 28/45/22 74/110/73
f 12/114/79 14/46/23 28/45/22
f 78/116/81 101/140/101 79/117/82
f 81/119/24 80/118/83 79/117/82
f 81/119/24 82/120/84 83/121/85
f 84/122/86 83/121/85 85/123/87
f 87/125/11 86/124/88 85/123/87
f 87/125/11 88/126/89 89/127/90
f 90/128/91 89/127/90 91/129/92
f 93/131/3 92/224/93 91/132/92
f 95/134/95 96/135/96 93/131/3
f 96/135/96 95/134/95 97/136/97
f 99/138/99 98/137/98 97/136/97
f 99/138/99 100/139/100 101/140/101
f 101/141/101 110/160/112 102/142/102
f 82/144/84 79/143/82 102/142/102
f 82/144/84 103/145/103 104/146/104
f 83/147/85 104/146/104 105/148/105
f 88/150/89 85/149/87 105/148/105
f 88/150/89 106/151/106 107/152/107
f 89/153/90 107/152/107 20/30/108
f 9/29/19 94/233/94 91/154/92
f 95/155/95 94/233/94 14/27/23
f 95/155/95 18/26/109 108/156/110
f 100/158/100 97/157/97 108/156/110
f 100/158/100 109/159/111 110/160/112
f 110/160/112 119/169/122 111/161/113
f 103/145/103 102/142/102 111/161/113
f 103/145/103 112/162/114 113/163/115
f 104/146/104 113/163/115 114/164/116
f 106/151/106 105/148/105 114/164/116
f 106/151/106 115/165/117 116/166/118
f 107/152/107 116/166/118 19/28/119
f 18/26/109 13/25/130 117/167/120
f 109/159/111 108/156/110 117/167/120
f 109/159/111 118/168/121 119/169/122
f 119/170/122 128/187/133 120/171/123
f 111/172/113 120/171/123 121/173/124
f 112/174/114 121/173/124 122/175/125
f 113/176/115 122/175/125 123/177/126
f 114/178/116 123/177/126 124/179/127
f 115/180/117 124/179/127 125/181/128
f 116/182/118 125/181/128 10/14/129
f 13/17/130 16/34/141 126/183/131
f 117/184/120 126/183/131 127/185/132
f 118/186/121 127/185/132 128/187/133
f 128/188/133 137/205/144 129/189/134
f 120/190/123 129/189/134 130/191/135
f 122/193/125 121/192/124 130/191/135
f 122/193/125 131/194/136 132/195/137
f 123/196/126 132/195/137 133/197/138
f 125/199/128 124/198/127 133/197/138
f 125/199/128 134/200/139 17/22/140
f 16/20/141 15/19/152 135/201/142
f 126/202/131 135/201/142 136/203/143
f 128/188/133 127/204/132 136/203/143
f 137/205/144 147/215/155 138/206/145
f 129/189/134 138/206/145 139/207/146
f 131/194/136 130/191/135 139/207/146
f 131/194/136 140/208/147 141/209/148
f 132/195/137 141/209/148 142/210/149
f 134/200/139 133/197/138 142/210/149
f 134/200/139 143/211/150 144/212/151
f 15/19/152 148/230/156 145/213/153
f 135/201/142 145/213/153 146/214/154
f 137/205/144 136/203/143 146/214/154
f 138/216/145 147/229/155 78/116/81
f 138/216/145 80/118/83 81/119/24
f 140/218/147 139/217/146 81/119/24
f 141/219/148 140/218/147 84/122/86
f 141/219/148 86/124/88 87/125/11
f 143/221/150 142/220/149 87/125/11
f 144/222/151 143/221/150 90/128/91
f 93/131/3 149/226/157 144/223/151
f 93/131/3 96/135/96 148/225/156
f 145/227/153 148/225/156 96/135/96
f 145/227/153 98/137/98 99/138/99
f 147/229/155 146/228/154 99/138/99
f 6/115/80 4/70/161 43/73/158
f 12/21/79 149/231/157 148/230/156
f 11/23/17 17/22/140 144/212/151
