# Blender v2.80 (sub 75) OBJ File: ''
# www.blender.org
o Portrait
v -0.125000 1.380840 -1.150700
v -0.125000 -1.380840 -1.150700
v -0.125000 -1.188806 -0.990672
v -0.125000 1.188806 -0.990672
v -0.125000 -1.380840 1.150700
v -0.125000 -1.188806 0.990672
v -0.125000 1.380840 1.150700
v -0.125000 1.188806 0.990672
v -0.175000 -1.500000 -1.250000
v -0.175000 1.500000 -1.250000
v 0.000000 1.500000 -1.250000
v 0.000000 -1.500000 -1.250000
v -0.000000 -1.500000 1.250000
v -0.175000 -1.500000 1.250000
v -0.000000 1.500000 1.250000
v -0.175000 1.500000 1.250000
v -0.160002 1.188806 -0.990672
v -0.175000 1.173807 -0.975673
v -0.175000 1.173807 0.975673
v -0.160002 1.188806 0.990672
v -0.160002 -1.188806 -0.990672
v -0.175000 -1.173807 -0.975673
v -0.160002 -1.188806 0.990672
v -0.175000 -1.173807 0.975673
v -0.160002 -1.380840 -1.150700
v -0.175000 -1.395838 -1.165699
v -0.175000 -1.395838 1.165699
v -0.160002 -1.380840 1.150700
v -0.160002 1.380840 -1.150700
v -0.175000 1.395838 -1.165699
v -0.160002 1.380840 1.150700
v -0.175000 1.395838 1.165699
v -0.122505 -1.006958 -0.839132
v -0.175000 -1.059453 -0.891626
v -0.175000 -1.059453 0.891626
v -0.122505 -1.006958 0.839132
v -0.122505 1.006958 -0.839132
v -0.175000 1.059453 -0.891626
v -0.122505 1.006958 0.839132
v -0.175000 1.059453 0.891626
v 0.000000 -1.006958 -0.839132
v 0.000000 1.006958 -0.839132
v -0.000000 -1.006958 0.839132
v -0.000000 1.006958 0.839132
vt 0.540713 0.952425
vt 0.558376 0.486627
vt 0.558376 0.930905
vt 0.946812 0.465107
vt 0.540713 0.465107
vt 0.929149 0.930905
vt 0.929149 0.486627
vt 0.946811 0.952425
vt 0.523191 0.973452
vt 0.507751 0.428641
vt 0.523191 0.444081
vt 0.964334 0.444080
vt 0.979774 0.428640
vt 0.979774 0.988891
vt 0.507751 0.988892
vt 0.964334 0.973451
vt 0.571598 0.915893
vt 0.922503 0.923255
vt 0.565022 0.923255
vt 0.571598 0.501639
vt 0.565022 0.494277
vt 0.915927 0.501639
vt 0.922503 0.494277
vt 0.915927 0.915892
vt 0.531844 0.455321
vt 0.951058 0.460632
vt 0.536467 0.460632
vt 0.531844 0.962211
vt 0.536467 0.956900
vt 0.955681 0.962211
vt 0.955681 0.455322
vt 0.951058 0.956900
vt 0.595692 0.531081
vt 0.901096 0.521818
vt 0.891833 0.531081
vt 0.586429 0.895714
vt 0.586429 0.521818
vt 0.595692 0.886451
vt 0.901096 0.895714
vt 0.891833 0.886451
vt 0.606500 0.875643
vt 0.606500 0.541890
vt 0.881024 0.541890
vt 0.881025 0.875642
vt 0.479792 0.435130
vt 0.023877 0.982227
vt 0.023877 0.435130
vt 0.479792 0.982227
vn -1.0000 -0.0000 -0.0000
vn 0.0000 0.0000 -1.0000
vn 0.0000 -1.0000 0.0000
vn 0.0000 0.0000 1.0000
vn 0.0000 1.0000 0.0000
vn -0.7071 0.7071 -0.0000
vn -0.7071 0.0000 -0.7071
vn -0.7071 -0.7071 -0.0000
vn -0.7071 0.0000 0.7071
s 1
f 1/1/1 3/2/1 4/3/1
f 5/4/1 3/2/1 2/5/1
f 5/4/1 8/6/1 6/7/1
f 1/1/1 8/6/1 7/8/1
f 10/9/2 12/10/2 9/11/2
f 14/12/3 12/10/3 13/13/3
f 15/14/4 14/12/4 13/13/4
f 11/15/5 16/16/5 15/14/5
f 18/17/6 20/18/6 17/19/6
f 17/19/7 22/20/7 18/17/7
f 21/21/8 24/22/8 22/20/8
f 23/23/9 19/24/9 24/22/9
f 26/25/6 28/26/6 25/27/6
f 25/27/9 30/28/9 26/25/9
f 29/29/8 32/30/8 30/28/8
f 27/31/7 31/32/7 28/26/7
f 9/11/1 30/28/1 10/9/1
f 14/12/1 26/25/1 9/11/1
f 16/16/1 27/31/1 14/12/1
f 10/9/1 32/30/1 16/16/1
f 3/2/2 17/19/2 4/3/2
f 6/7/3 21/21/3 3/2/3
f 8/6/4 23/23/4 6/7/4
f 4/3/5 20/18/5 8/6/5
f 1/1/4 25/27/4 2/5/4
f 2/5/5 28/26/5 5/4/5
f 5/4/2 31/32/2 7/8/2
f 7/8/3 29/29/3 1/1/3
f 33/33/6 35/34/6 36/35/6
f 33/33/9 38/36/9 34/37/9
f 37/38/8 40/39/8 38/36/8
f 35/34/7 39/40/7 36/35/7
f 42/41/4 33/33/4 41/42/4
f 41/42/5 36/35/5 43/43/5
f 43/43/2 39/40/2 44/44/2
f 44/44/3 37/38/3 42/41/3
f 22/20/1 38/36/1 18/17/1
f 24/22/1 34/37/1 22/20/1
f 19/24/1 35/34/1 24/22/1
f 18/17/1 40/39/1 19/24/1
f 43/45/1 42/46/1 41/47/1
f 1/1/1 2/5/1 3/2/1
f 5/4/1 6/7/1 3/2/1
f 5/4/1 7/8/1 8/6/1
f 1/1/1 4/3/1 8/6/1
f 10/9/2 11/15/2 12/10/2
f 14/12/3 9/11/3 12/10/3
f 15/14/4 16/16/4 14/12/4
f 11/15/5 10/9/5 16/16/5
f 18/17/6 19/24/6 20/18/6
f 17/19/7 21/21/7 22/20/7
f 21/21/8 23/23/8 24/22/8
f 23/23/9 20/18/9 19/24/9
f 26/25/6 27/31/6 28/26/6
f 25/27/9 29/29/9 30/28/9
f 29/29/8 31/32/8 32/30/8
f 27/31/7 32/30/7 31/32/7
f 9/11/1 26/25/1 30/28/1
f 14/12/1 27/31/1 26/25/1
f 16/16/1 32/30/1 27/31/1
f 10/9/1 30/28/1 32/30/1
f 3/2/2 21/21/2 17/19/2
f 6/7/3 23/23/3 21/21/3
f 8/6/4 20/18/4 23/23/4
f 4/3/5 17/19/5 20/18/5
f 1/1/4 29/29/4 25/27/4
f 2/5/5 25/27/5 28/26/5
f 5/4/2 28/26/2 31/32/2
f 7/8/3 31/32/3 29/29/3
f 33/33/6 34/37/6 35/34/6
f 33/33/9 37/38/9 38/36/9
f 37/38/8 39/40/8 40/39/8
f 35/34/7 40/39/7 39/40/7
f 42/41/4 37/38/4 33/33/4
f 41/42/5 33/33/5 36/35/5
f 43/43/2 36/35/2 39/40/2
f 44/44/3 39/40/3 37/38/3
f 22/20/1 34/37/1 38/36/1
f 24/22/1 35/34/1 34/37/1
f 19/24/1 40/39/1 35/34/1
f 18/17/1 38/36/1 40/39/1
f 43/45/1 44/48/1 42/46/1
