# Blender v2.80 (sub 75) OBJ File: ''
# www.blender.org
o SmallFrame
v 0.382895 -0.069812 0.488050
v 0.242638 -0.292165 0.185670
v 1.536914 0.835296 -1.243740
v 1.308323 0.812740 -0.185249
v 0.102382 -0.514518 -0.116709
v 0.813872 0.028871 -1.251238
v -0.599595 1.380840 -0.990061
v -0.599595 -1.380840 -0.990061
v -0.531964 -1.188806 -0.845026
v -0.531964 1.188806 -0.845026
v 0.373018 -1.380840 1.095716
v 0.305387 -1.188806 0.950681
v 0.373018 1.380840 1.095716
v 0.305387 1.188806 0.950681
v -0.563686 1.188806 -0.830234
v -0.570941 1.173807 -0.810302
v 0.253733 1.173807 0.958218
v 0.273665 1.188806 0.965473
v -0.563686 -1.188806 -0.830234
v -0.570941 -1.173807 -0.810302
v 0.273665 -1.188806 0.965473
v 0.253733 -1.173807 0.958218
v -0.631317 -1.380840 -0.975269
v -0.651249 -1.395838 -0.982524
v 0.334042 -1.395838 1.130440
v 0.341296 -1.380840 1.110508
v -0.631317 1.380840 -0.975269
v -0.651249 1.395838 -0.982524
v 0.341296 1.380840 1.110508
v 0.334042 1.395838 1.130440
v -0.686877 1.500000 -1.058927
v -0.686877 -1.500000 -1.058927
v 0.369669 -1.500000 1.206843
v 0.369669 1.500000 1.206843
v -0.465660 -1.006958 -0.708739
v -0.535421 -1.059453 -0.734130
v 0.218214 -1.059453 0.882046
v 0.243605 -1.006958 0.812284
v -0.465660 1.006958 -0.708739
v -0.535421 1.059453 -0.734130
v 0.243605 1.006958 0.812284
v 0.218214 1.059453 0.882046
v -0.354632 -1.006958 -0.760512
v -0.354632 1.006958 -0.760512
v 0.354632 -1.006958 0.760512
v 0.354632 1.006958 0.760512
v 0.628217 -1.500000 1.086280
v 0.628217 1.500000 1.086280
v -0.428329 -1.500000 -1.179489
v -0.428329 1.500000 -1.179489
v 0.346093 -0.036749 0.480807
v 0.205837 -0.259102 0.178427
v 1.500112 0.868359 -1.250983
v 1.271521 0.845803 -0.192492
v 0.065581 -0.481455 -0.123952
v 0.777071 0.061935 -1.258482
vt 0.571598 0.915893
vt 0.922503 0.923255
vt 0.565022 0.923255
vt 0.571598 0.501639
vt 0.565022 0.494277
vt 0.915927 0.501639
vt 0.922503 0.494277
vt 0.915927 0.915892
vt 0.536467 0.460632
vt 0.955681 0.455322
vt 0.951058 0.460632
vt 0.531844 0.962211
vt 0.531844 0.455321
vt 0.951058 0.956900
vt 0.955681 0.962211
vt 0.558376 0.486627
vt 0.558376 0.930905
vt 0.929149 0.930905
vt 0.929149 0.486627
vt 0.540713 0.952425
vt 0.540713 0.465107
vt 0.946812 0.465107
vt 0.946811 0.952425
vt 0.536467 0.956900
vt 0.595692 0.531081
vt 0.901096 0.521818
vt 0.891833 0.531081
vt 0.586429 0.895714
vt 0.586429 0.521818
vt 0.595692 0.886451
vt 0.901096 0.895714
vt 0.891833 0.886451
vt 0.606500 0.875643
vt 0.606500 0.541890
vt 0.881024 0.541890
vt 0.881025 0.875642
vt 0.479792 0.435130
vt 0.023877 0.982227
vt 0.023877 0.435130
vt 0.979774 0.428640
vt 0.964334 0.973451
vt 0.964334 0.444080
vt 0.507751 0.428640
vt 0.523191 0.444080
vt 0.507751 0.988892
vt 0.523191 0.973452
vt 0.979774 0.988891
vt 0.565044 0.103865
vt 0.966165 0.406813
vt 0.565045 0.406813
vt 0.487676 0.040930
vt 0.631313 0.024971
vt 0.631313 0.040930
vt 0.359999 0.024971
vt 0.487676 0.024971
vt 0.982426 0.040930
vt 0.774950 0.024971
vt 0.982426 0.024971
vt 0.774950 0.040930
vt 0.479792 0.982227
vt 0.966165 0.103865
vt 0.359999 0.040931
vt 0.531036 0.222107
vt 0.212713 0.045772
vt 0.531036 0.122068
vt 0.212713 0.398442
vt 0.027655 0.222107
vt 0.328080 0.024971
vt 0.328080 0.040931
vt 0.296160 0.024971
vt 0.531036 0.222107
vt 0.212713 0.398443
vt 0.531036 0.322146
vt 0.212713 0.045772
vt 0.027655 0.222107
vt 0.531036 0.322146
vt 0.296160 0.040930
vt 0.531036 0.122068
vn -0.6409 0.7071 0.2988
vn -0.9397 0.0000 -0.3420
vn -0.6409 -0.7071 0.2988
vn -0.3420 0.0000 0.9397
vn -0.4226 0.0000 -0.9063
vn 0.0000 -1.0000 0.0000
vn 0.4226 0.0000 0.9063
vn 0.0000 1.0000 0.0000
vn -0.9063 0.0000 0.4226
vn 0.9063 0.0000 -0.4226
vn 0.6432 0.7499 0.1549
vn 0.2196 0.4357 0.8729
vn -0.4646 -0.6491 -0.6023
vn 0.1124 -0.0916 -0.9894
vn -0.6408 0.7071 0.2988
vn -0.6408 -0.7071 0.2988
vn 0.7360 -0.6613 0.1449
vn -0.5794 -0.5048 0.6399
vn -0.5794 -0.5047 0.6399
vn -0.7360 0.6613 -0.1449
s off
f 16/1/1 18/2/1 15/3/1
f 15/3/2 20/4/2 16/1/2
f 19/5/3 22/6/3 20/4/3
f 21/7/4 17/8/4 22/6/4
f 23/9/1 25/10/1 26/11/1
f 23/9/4 28/12/4 24/13/4
f 28/12/3 29/14/3 30/15/3
f 25/10/2 29/14/2 26/11/2
f 9/16/5 15/3/5 10/17/5
f 9/16/6 21/7/6 19/5/6
f 14/18/7 21/7/7 12/19/7
f 14/18/8 15/3/8 18/2/8
f 7/20/7 23/9/7 8/21/7
f 11/22/8 23/9/8 26/11/8
f 11/22/5 29/14/5 13/23/5
f 13/23/6 27/24/6 7/20/6
f 35/25/1 37/26/1 38/27/1
f 35/25/4 40/28/4 36/29/4
f 39/30/3 42/31/3 40/28/3
f 37/26/2 41/32/2 38/27/2
f 44/33/7 35/25/7 43/34/7
f 43/34/8 38/27/8 45/35/8
f 45/35/5 41/32/5 46/36/5
f 44/33/6 41/32/6 39/30/6
f 45/37/9 44/38/9 43/39/9
f 47/40/7 34/41/7 33/42/7
f 49/43/6 33/42/6 32/44/6
f 50/45/5 32/44/5 31/46/5
f 48/47/8 31/46/8 34/41/8
f 49/48/10 48/49/10 47/50/10
f 54/51/11 3/52/11 53/53/11
f 54/51/12 1/54/12 4/55/12
f 55/56/13 6/57/13 5/58/13
f 53/53/14 6/57/14 56/59/14
f 16/1/1 17/8/1 18/2/1
f 15/3/2 19/5/2 20/4/2
f 19/5/3 21/7/3 22/6/3
f 21/7/4 18/2/4 17/8/4
f 23/9/15 24/13/15 25/10/15
f 23/9/4 27/24/4 28/12/4
f 28/12/16 27/24/16 29/14/16
f 25/10/2 30/15/2 29/14/2
f 9/16/5 19/5/5 15/3/5
f 9/16/6 12/19/6 21/7/6
f 14/18/7 18/2/7 21/7/7
f 14/18/8 10/17/8 15/3/8
f 7/20/7 27/24/7 23/9/7
f 11/22/8 8/21/8 23/9/8
f 11/22/5 26/11/5 29/14/5
f 13/23/6 29/14/6 27/24/6
f 35/25/1 36/29/1 37/26/1
f 35/25/4 39/30/4 40/28/4
f 39/30/3 41/32/3 42/31/3
f 37/26/2 42/31/2 41/32/2
f 44/33/7 39/30/7 35/25/7
f 43/34/8 35/25/8 38/27/8
f 45/35/5 38/27/5 41/32/5
f 44/33/6 46/36/6 41/32/6
f 45/37/9 46/60/9 44/38/9
f 47/40/7 48/47/7 34/41/7
f 49/43/6 47/40/6 33/42/6
f 50/45/5 49/43/5 32/44/5
f 48/47/8 50/45/8 31/46/8
f 49/48/10 50/61/10 48/49/10
f 54/51/11 4/55/11 3/52/11
f 54/51/12 51/62/12 1/54/12
f 55/56/13 56/59/13 6/57/13
f 53/53/14 3/52/14 6/57/14
s 1
f 2/63/17 4/64/17 1/65/17
f 2/63/17 6/66/17 3/67/17
f 7/20/9 9/16/9 10/17/9
f 11/22/9 9/16/9 8/21/9
f 11/22/9 14/18/9 12/19/9
f 7/20/9 14/18/9 13/23/9
f 32/44/9 28/12/9 31/46/9
f 33/42/9 24/13/9 32/44/9
f 34/41/9 25/10/9 33/42/9
f 34/41/9 28/12/9 30/15/9
f 20/4/9 40/28/9 16/1/9
f 22/6/9 36/29/9 20/4/9
f 17/8/9 37/26/9 22/6/9
f 17/8/9 40/28/9 42/31/9
f 51/62/18 2/68/19 1/54/18
f 52/69/19 5/70/19 2/68/19
f 52/71/20 56/72/20 55/73/20
f 52/71/20 54/74/20 53/75/20
f 2/63/17 3/67/17 4/64/17
f 2/63/17 5/76/17 6/66/17
f 7/20/9 8/21/9 9/16/9
f 11/22/9 12/19/9 9/16/9
f 11/22/9 13/23/9 14/18/9
f 7/20/9 10/17/9 14/18/9
f 32/44/9 24/13/9 28/12/9
f 33/42/9 25/10/9 24/13/9
f 34/41/9 30/15/9 25/10/9
f 34/41/9 31/46/9 28/12/9
f 20/4/9 36/29/9 40/28/9
f 22/6/9 37/26/9 36/29/9
f 17/8/9 42/31/9 37/26/9
f 17/8/9 16/1/9 40/28/9
f 51/62/18 52/69/19 2/68/19
f 52/69/19 55/77/19 5/70/19
f 52/71/20 53/75/20 56/72/20
f 52/71/20 51/78/20 54/74/20
