# Blender v2.80 (sub 75) OBJ File: ''
# www.blender.org
v 3.824961 4.007220 9.284544
v 3.845534 -3.910812 9.085823
v 3.845526 4.027785 9.085820
v 3.692024 3.874281 9.361297
v 3.824969 -3.910812 9.284547
v 3.692024 3.874279 5.002509
v 2.935740 3.874278 -0.000001
v 2.935740 3.874279 5.002509
v 3.692032 -3.910812 5.002511
v 3.692032 -3.152838 0.000001
v 3.692031 -3.152838 5.002511
v 2.935746 -3.152838 5.002511
v 2.935748 -3.910815 0.000001
v 2.935747 -3.910813 5.002511
v 2.935740 3.116304 5.002509
v 2.935741 3.116302 -0.000001
v 3.692026 3.116302 -0.000001
v 3.692025 3.116305 5.002509
v 2.935747 -3.152839 0.000001
v 3.495772 -3.910813 8.630738
v 3.431456 3.508543 8.680761
v 3.431463 -3.910813 8.680764
v 3.056355 3.439774 6.188169
v 2.981355 3.439775 8.128022
v 3.056355 3.439775 8.203023
v 3.056355 3.589776 8.203023
v 3.056355 3.589775 6.188169
v 3.218050 3.589187 8.353023
v 3.218051 3.589187 6.010779
v 3.218051 3.346775 8.353023
v 3.218051 3.346774 6.010779
v 3.310215 3.346774 5.918619
v 3.310215 3.346775 8.445186
v 3.310215 3.589187 8.445186
v 3.310215 3.589187 5.918619
v 3.495764 3.589187 8.630736
v 3.495765 3.589187 5.733068
v 3.692032 -3.910812 9.361300
v -3.692034 3.874274 9.361297
v -3.692026 -3.910819 9.361300
v -3.824971 4.007212 9.284544
v -3.845536 4.027777 9.085820
v -3.790062 3.958210 8.858279
v 3.638494 3.768164 8.729422
v 3.790052 3.958218 8.858279
v -3.638502 3.768157 8.729422
v -3.495774 3.589181 8.630736
v -3.431464 3.508537 8.680761
v -3.310224 3.589181 8.445186
v -3.310223 3.346769 8.445186
v -3.218059 3.346769 8.353023
v -3.218060 3.589181 8.353023
v -3.056364 3.589770 8.203023
v -3.056363 3.439769 8.203023
v 2.981355 3.439774 6.263165
v -3.056363 3.439769 6.188168
v -2.981363 3.439769 6.263165
v -3.056363 3.589769 6.188168
v -3.845528 -3.910819 9.085823
v -3.824963 -3.910819 9.284547
v -2.935748 3.874272 -0.000001
v -3.692034 3.874274 5.002508
v -2.935749 3.874274 5.002508
v -3.692026 -3.152846 0.000001
v -3.692026 -3.910820 5.002510
v -3.692027 -3.152843 5.002510
v -2.935740 -3.910821 0.000001
v -2.935742 -3.152843 5.002510
v -2.935741 -3.910819 5.002510
v -2.935748 3.116298 5.002508
v -2.935747 3.116296 -0.000001
v -3.692032 3.116295 -0.000001
v -3.692033 3.116297 5.002508
v -2.935741 -3.152845 0.000001
v -3.495766 -3.910819 8.630738
v -2.981363 3.439769 8.128022
v -3.218059 3.346769 6.010778
v -3.218059 3.589181 6.010778
v -3.310223 3.346769 5.918618
v -3.310223 3.589181 5.918618
v -3.495773 3.589181 5.733068
v -3.495766 -3.910819 5.733068
v 3.845534 -3.910812 5.277986
v 3.824961 4.007219 5.079257
v 3.845526 4.027784 5.277984
v 3.824969 -3.910812 5.079258
v 3.495772 -3.910813 5.733068
v 3.431456 3.508542 5.683043
v -3.824970 4.007211 5.079257
v -3.845536 4.027776 5.277983
v -3.790061 3.958210 5.505525
v 3.790052 3.958218 5.505526
v -3.638501 3.768157 5.634379
v 3.638494 3.768162 5.634380
v -3.431464 3.508537 5.683043
v -3.845528 -3.910820 5.277985
v -3.824963 -3.910820 5.079257
v -3.431457 -3.910819 5.683043
v 3.798674 -3.910812 5.505527
v 3.670653 -3.910812 5.634382
v 3.670653 -3.910812 8.729424
v 3.798674 -3.910812 8.858281
v -3.670647 -3.910820 8.729424
v -3.431457 -3.910819 8.680764
v -3.798668 -3.910820 8.858281
v -3.798668 -3.910820 5.505527
v -3.670647 -3.910820 5.634381
v 3.692025 3.874279 -0.000001
v 3.692033 -3.910815 0.000001
v -3.692033 3.874271 -0.000001
v -3.692025 -3.910822 0.000001
v 3.431463 -3.910813 5.683043
vt 0.994124 0.742306
vt 0.657162 0.750763
vt 0.994999 0.750763
vt 0.646515 0.353043
vt 0.640858 0.684347
vt 0.640858 0.347385
vt 0.226011 0.872315
vt 0.438899 0.840130
vt 0.226011 0.840130
vt 0.452456 0.046309
vt 0.484712 0.259197
vt 0.484712 0.046309
vt 0.456079 0.527665
vt 0.488335 0.314777
vt 0.488335 0.527665
vt 0.241963 0.580201
vt 0.209706 0.367312
vt 0.241963 0.367312
vt 0.267676 0.580201
vt 0.299933 0.367312
vt 0.267676 0.367312
vt 0.447021 0.875938
vt 0.659909 0.843753
vt 0.447021 0.843753
vt 0.880920 0.875938
vt 0.668032 0.843753
vt 0.880920 0.843753
vt 0.668032 0.324172
vt 0.670768 0.008432
vt 0.670768 0.324172
vt 0.527331 0.292308
vt 0.444778 0.289116
vt 0.441586 0.292308
vt 0.183482 0.367312
vt 0.177098 0.453057
vt 0.177098 0.367312
vt 0.533715 0.567300
vt 0.441586 0.574182
vt 0.541264 0.574182
vt 0.201907 0.466989
vt 0.191591 0.367312
vt 0.191591 0.466989
vt 0.134260 0.649054
vt 0.030661 0.645131
vt 0.026739 0.649054
vt 0.259877 0.367312
vt 0.249561 0.474834
vt 0.249561 0.367312
vt 0.794318 0.305507
vt 0.678901 0.313403
vt 0.802215 0.313403
vt 0.646515 0.684347
vt 0.960754 0.353043
vt 0.960754 0.684347
vt 0.966411 0.347385
vt 0.573830 0.358601
vt 0.582287 0.032173
vt 0.573830 0.033049
vt 0.582287 0.359476
vt 0.591971 0.034534
vt 0.321131 0.675986
vt 0.005000 0.684074
vt 0.327581 0.684074
vt 0.312321 0.664937
vt 0.011450 0.675986
vt 0.965566 0.005000
vt 0.962829 0.008432
vt 0.686797 0.305507
vt 0.678901 0.015869
vt 0.507752 0.822014
vt 0.226011 0.832330
vt 0.507752 0.832330
vt 0.026739 0.367312
vt 0.347385 0.635423
vt 0.621282 0.645740
vt 0.347385 0.645740
vt 0.447970 0.567300
vt 0.441586 0.300285
vt 0.928166 0.331081
vt 0.668032 0.337465
vt 0.928166 0.337465
vt 0.441586 0.032173
vt 0.524140 0.289116
vt 0.527331 0.032173
vt 0.524140 0.035365
vt 0.347385 0.627314
vt 0.607519 0.620931
vt 0.607519 0.627314
vt 0.993187 0.828124
vt 0.656226 0.836581
vt 0.655351 0.828124
vt 0.966411 0.684347
vt 0.870050 0.805287
vt 0.657162 0.773102
vt 0.657162 0.805287
vt 0.401732 0.032173
vt 0.433989 0.245062
vt 0.401732 0.245062
vt 0.401732 0.466072
vt 0.433989 0.253184
vt 0.401732 0.253184
vt 0.394134 0.245062
vt 0.361878 0.032173
vt 0.361878 0.245062
vt 0.361878 0.466072
vt 0.394134 0.253184
vt 0.394134 0.466072
vt 0.217888 0.854199
vt 0.005000 0.822014
vt 0.005000 0.854199
vt 0.347385 0.613261
vt 0.560273 0.581077
vt 0.560273 0.613261
vt 0.965566 0.324172
vt 0.444778 0.035365
vt 0.353768 0.442188
vt 0.347385 0.356443
vt 0.347385 0.442188
vt 0.533715 0.307166
vt 0.447970 0.307166
vt 0.151183 0.367312
vt 0.140867 0.466989
vt 0.140867 0.367312
vt 0.134260 0.367312
vt 0.030661 0.371235
vt 0.130338 0.371235
vt 0.169299 0.474834
vt 0.158983 0.367312
vt 0.158983 0.474834
vt 0.802215 0.015869
vt 0.686797 0.023766
vt 0.794318 0.023766
vt 0.650254 0.691582
vt 0.331081 0.814896
vt 0.331081 0.691582
vt 0.657162 0.726627
vt 0.994124 0.735084
vt 0.994999 0.726627
vt 0.330553 0.005000
vt 0.324896 0.304048
vt 0.330553 0.341962
vt 0.634050 0.347385
vt 0.631313 0.663125
vt 0.634050 0.666557
vt 0.042842 0.336305
vt 0.292711 0.336305
vt 0.558152 0.359476
vt 0.566609 0.033049
vt 0.558152 0.032173
vt 0.548469 0.034534
vt 0.548469 0.357116
vt 0.338694 0.005000
vt 0.654826 0.013088
vt 0.345144 0.013088
vt 0.353954 0.024136
vt 0.646015 0.024136
vt 0.336516 0.666557
vt 0.334704 0.673466
vt 0.616446 0.683782
vt 0.334704 0.683782
vt 0.130338 0.645131
vt 0.300635 0.349197
vt 0.026739 0.359513
vt 0.300635 0.359513
vt 0.658037 0.691582
vt 0.995000 0.700039
vt 0.657162 0.700039
vt 0.005000 0.005000
vt 0.010657 0.304048
vt 0.010657 0.037257
vt 0.336516 0.347385
vt 0.339252 0.663125
vt 0.339252 0.347385
vt 0.292711 0.037257
vt 0.324896 0.037257
vt 0.292711 0.005000
vt 0.042842 0.037257
vt 0.042842 0.304048
vt 0.292711 0.304048
vt 0.324896 0.336305
vt 0.005000 0.341962
vt 0.010657 0.336305
vt 0.010657 0.005000
vt 0.452456 0.043043
vt 0.541264 0.300285
vt 0.324172 0.691582
vt 0.005000 0.814896
vt 0.324172 0.814896
vt 0.992039 0.716944
vt 0.338327 0.339877
vt 0.343776 0.339877
vt 0.322500 0.349197
vt 0.312321 0.349197
vt 0.983951 0.765930
vt 0.657162 0.760446
vt 0.657162 0.765930
vt 0.992039 0.760446
vt 0.010082 0.349197
vt 0.020261 0.664937
vt 0.020261 0.349197
vt 0.993187 0.818440
vt 0.666399 0.812957
vt 0.993187 0.812957
vt 0.658311 0.818440
vt 0.660122 0.709722
vt 0.661642 0.339877
vt 0.661276 0.005000
vt 0.656194 0.339877
vt 0.657162 0.742306
vt 0.438899 0.872315
vt 0.452456 0.259197
vt 0.456079 0.314777
vt 0.209706 0.580201
vt 0.299933 0.580201
vt 0.659909 0.875938
vt 0.668032 0.875938
vt 0.668032 0.005000
vt 0.183482 0.453057
vt 0.201907 0.367312
vt 0.259877 0.474834
vt 0.591971 0.357116
vt 0.226011 0.822014
vt 0.621282 0.635423
vt 0.668032 0.331081
vt 0.347385 0.620931
vt 0.993187 0.836581
vt 0.870050 0.773102
vt 0.433989 0.032173
vt 0.433989 0.466072
vt 0.394134 0.032173
vt 0.361878 0.253184
vt 0.217888 0.822014
vt 0.347385 0.581077
vt 0.962829 0.324172
vt 0.353768 0.356443
vt 0.151183 0.466989
vt 0.169299 0.367312
vt 0.650254 0.814896
vt 0.657162 0.735084
vt 0.631313 0.347385
vt 0.566609 0.358601
vt 0.616446 0.673466
vt 0.026739 0.349197
vt 0.995000 0.691582
vt 0.042842 0.005000
vt 0.005000 0.691582
vt 0.657162 0.716944
vt 0.353954 0.339877
vt 0.995000 0.709722
vt 0.646015 0.339877
vn 0.9185 0.0000 0.3955
vn 0.9983 0.0003 -0.0590
vn 0.9977 0.0000 -0.0680
vn 0.5000 0.0000 0.8660
vn 0.7360 -0.0002 0.6770
vn -0.0000 1.0000 -0.0000
vn 1.0000 0.0000 0.0000
vn -1.0000 -0.0000 -0.0000
vn 0.0000 -1.0000 0.0000
vn 0.6140 0.0000 0.7893
vn 0.0019 1.0000 -0.0016
vn 0.0023 1.0000 0.0014
vn 0.0017 1.0000 -0.0018
vn 0.0000 0.0000 1.0000
vn -0.0000 0.5000 0.8660
vn -0.0000 0.8391 0.5440
vn -0.0000 0.9953 -0.0966
vn -0.0000 0.9953 -0.0967
vn -0.0000 0.8046 -0.5939
vn 0.0000 0.3807 -0.9247
vn -0.0000 0.1842 -0.9829
vn -0.0000 0.5271 0.8498
vn 0.0000 0.0000 -1.0000
vn 0.0014 1.0000 0.0024
vn -0.0019 1.0000 0.0019
vn -0.9983 0.0003 -0.0590
vn -0.9185 -0.0000 0.3955
vn -0.9977 -0.0000 -0.0680
vn -0.7360 -0.0000 0.6770
vn -0.5000 -0.0000 0.8660
vn -0.6140 -0.0000 0.7893
vn -0.0023 1.0000 -0.0012
vn -0.0018 1.0000 0.0020
vn 0.9983 0.0003 0.0590
vn 0.9947 0.0000 -0.1029
vn 0.9977 0.0000 0.0680
vn 0.5000 0.0000 -0.8660
vn 0.6140 0.0000 -0.7893
vn -0.0000 0.5000 -0.8660
vn -0.0000 0.9953 0.0966
vn -0.0000 0.9947 -0.1029
vn -0.0000 0.8046 0.5939
vn -0.0000 0.3807 0.9247
vn -0.0000 0.1842 0.9829
vn -0.0000 0.5271 -0.8498
vn -0.9947 -0.0000 -0.1029
vn -0.9983 0.0003 0.0590
vn -0.9977 -0.0000 0.0680
vn -0.5000 -0.0000 -0.8660
vn -0.6140 -0.0000 -0.7893
vn -0.0017 1.0000 -0.0018
vn 0.9077 0.0006 0.4196
vn 0.5444 0.0016 0.8388
vn 0.8137 0.0016 0.5813
vn 0.2136 0.0005 0.9769
vn 0.3931 0.0014 0.9195
vn 0.2135 0.0005 -0.9769
vn 0.3931 0.0016 -0.9195
vn 0.1994 -0.0000 -0.9799
vn 0.5444 0.0016 -0.8388
vn 0.8137 0.0022 -0.5813
vn 0.9077 0.0006 -0.4196
vn -0.3931 0.0014 -0.9195
vn -0.2135 0.0005 -0.9769
vn -0.1994 -0.0000 -0.9799
vn -0.8137 0.0017 -0.5813
vn -0.5444 0.0016 -0.8388
vn -0.9077 0.0006 -0.4196
vn -0.9077 0.0006 0.4196
vn -0.8137 0.0022 0.5813
vn -0.5444 0.0016 0.8388
vn -0.3931 0.0016 0.9195
vn -0.2136 0.0005 0.9769
vn 0.1994 0.0000 0.9799
vn -0.1994 -0.0000 0.9799
s 1
f 1/1/1 2/2/2 3/3/3
f 4/4/4 5/5/5 1/6/1
f 6/7/6 7/8/6 8/9/6
f 9/10/7 10/11/7 11/12/7
f 12/13/8 13/14/8 14/15/8
f 15/16/8 7/17/8 16/18/8
f 17/19/7 6/20/7 18/21/7
f 11/22/6 19/23/6 12/24/6
f 15/25/9 17/26/9 18/27/9
f 20/28/10 21/29/10 22/30/10
f 23/31/6 24/32/6 25/33/6
f 23/34/8 26/35/8 27/36/8
f 27/37/11 28/38/12 29/39/13
f 29/40/7 30/41/7 31/42/7
f 32/43/6 30/44/6 33/45/6
f 32/46/8 34/47/8 35/48/8
f 35/49/6 36/50/6 37/51/6
f 38/52/14 39/53/14 40/54/14
f 4/4/15 41/55/16 39/53/15
f 1/56/16 42/57/17 41/58/16
f 3/59/18 43/60/19 42/57/17
f 44/61/20 43/62/19 45/63/19
f 21/64/21 46/65/20 44/61/20
f 21/29/22 47/66/22 48/67/22
f 34/68/6 47/69/6 36/50/6
f 33/70/23 49/71/23 34/72/23
f 30/44/6 50/73/6 33/45/6
f 28/74/14 51/75/14 30/76/14
f 26/77/24 52/78/25 28/38/12
f 25/79/23 53/80/23 26/81/23
f 24/32/6 54/82/6 25/33/6
f 55/83/6 56/84/6 57/85/6
f 23/86/14 58/87/14 56/88/14
f 59/89/26 41/90/27 42/91/28
f 60/92/29 39/53/30 41/55/27
f 61/93/6 62/94/6 63/95/6
f 64/96/8 65/97/8 66/98/8
f 67/99/7 68/100/7 69/101/7
f 61/102/7 70/103/7 71/104/7
f 62/105/8 72/106/8 73/107/8
f 74/108/6 66/109/6 68/110/6
f 72/111/9 70/112/9 73/113/9
f 75/114/31 48/67/31 47/66/31
f 56/84/6 76/115/6 57/85/6
f 58/116/7 54/117/7 56/118/7
f 58/119/32 52/78/25 53/120/33
f 77/121/8 52/122/8 78/123/8
f 79/124/6 51/125/6 77/126/6
f 80/127/7 50/128/7 79/129/7
f 81/130/6 49/131/6 80/132/6
f 82/133/8 47/134/8 81/135/8
f 83/136/34 84/137/35 85/138/36
f 86/139/37 18/140/37 84/141/37
f 87/142/38 88/143/38 37/144/38
f 63/145/39 84/141/39 8/146/39
f 85/147/40 89/148/41 90/149/40
f 85/147/40 91/150/42 92/151/42
f 92/152/42 93/153/43 94/154/43
f 88/155/44 93/153/43 95/156/44
f 88/143/45 81/157/45 37/144/45
f 37/51/6 80/132/6 35/49/6
f 35/158/14 79/159/14 32/160/14
f 32/43/6 77/126/6 31/161/6
f 31/162/23 78/163/23 29/164/23
f 89/165/46 96/166/47 90/167/48
f 97/168/49 73/169/49 66/170/49
f 82/171/50 95/172/50 98/173/50
f 12/174/23 18/140/23 11/175/23
f 14/176/23 68/177/23 12/174/23
f 66/170/23 70/178/23 68/177/23
f 15/179/23 63/145/23 8/146/23
f 12/174/23 70/178/23 15/179/23
f 84/141/37 18/140/37 6/180/37
f 73/169/49 89/181/49 62/182/49
f 65/183/49 97/168/49 66/170/49
f 9/10/37 11/12/37 86/184/37
f 27/37/11 78/185/51 58/119/32
f 89/181/39 63/145/39 62/182/39
f 8/146/39 84/141/39 6/180/39
f 36/186/7 87/187/7 37/188/7
f 92/189/52 83/136/34 85/138/36
f 94/154/53 99/190/54 92/152/52
f 88/155/55 100/191/56 94/154/53
f 21/64/57 101/192/58 22/193/59
f 44/194/60 102/195/61 101/196/58
f 45/197/62 2/2/2 102/195/61
f 103/198/63 48/199/64 104/200/65
f 105/201/66 46/202/67 103/203/63
f 59/89/26 43/204/68 105/201/66
f 96/166/47 91/205/69 90/167/48
f 106/206/70 93/153/71 91/207/69
f 107/208/72 95/156/73 93/153/71
f 1/1/1 5/209/5 2/2/2
f 4/4/4 38/52/4 5/5/5
f 6/7/6 108/210/6 7/8/6
f 9/10/7 109/211/7 10/11/7
f 12/13/8 19/212/8 13/14/8
f 15/16/8 8/213/8 7/17/8
f 17/19/7 108/214/7 6/20/7
f 11/22/6 10/215/6 19/23/6
f 15/25/9 16/216/9 17/26/9
f 20/28/10 36/217/10 21/29/10
f 23/31/6 55/83/6 24/32/6
f 23/34/8 25/218/8 26/35/8
f 27/37/11 26/77/24 28/38/12
f 29/40/7 28/219/7 30/41/7
f 32/43/6 31/161/6 30/44/6
f 32/46/8 33/220/8 34/47/8
f 35/49/6 34/68/6 36/50/6
f 38/52/14 4/4/14 39/53/14
f 4/4/15 1/6/16 41/55/16
f 1/56/16 3/59/18 42/57/17
f 3/59/18 45/221/19 43/60/19
f 44/61/20 46/65/20 43/62/19
f 21/64/21 48/199/21 46/65/20
f 21/29/22 36/217/22 47/66/22
f 34/68/6 49/131/6 47/69/6
f 33/70/23 50/222/23 49/71/23
f 30/44/6 51/125/6 50/73/6
f 28/74/14 52/223/14 51/75/14
f 26/77/24 53/120/33 52/78/25
f 25/79/23 54/224/23 53/80/23
f 24/32/6 76/115/6 54/82/6
f 55/83/6 23/31/6 56/84/6
f 23/86/14 27/225/14 58/87/14
f 59/89/26 60/226/29 41/90/27
f 60/92/29 40/54/30 39/53/30
f 61/93/6 110/227/6 62/94/6
f 64/96/8 111/228/8 65/97/8
f 67/99/7 74/229/7 68/100/7
f 61/102/7 63/230/7 70/103/7
f 62/105/8 110/231/8 72/106/8
f 74/108/6 64/232/6 66/109/6
f 72/111/9 71/233/9 70/112/9
f 75/114/31 104/234/31 48/67/31
f 56/84/6 54/82/6 76/115/6
f 58/116/7 53/235/7 54/117/7
f 58/119/32 78/185/51 52/78/25
f 77/121/8 51/236/8 52/122/8
f 79/124/6 50/73/6 51/125/6
f 80/127/7 49/237/7 50/128/7
f 81/130/6 47/69/6 49/131/6
f 82/133/8 75/238/8 47/134/8
f 83/136/34 86/239/35 84/137/35
f 86/139/37 11/175/37 18/140/37
f 87/142/38 112/240/38 88/143/38
f 63/145/39 89/181/39 84/141/39
f 85/147/40 84/241/41 89/148/41
f 85/147/40 90/149/40 91/150/42
f 92/152/42 91/207/42 93/153/43
f 88/155/44 94/154/43 93/153/43
f 88/143/45 95/172/45 81/157/45
f 37/51/6 81/130/6 80/132/6
f 35/158/14 80/242/14 79/159/14
f 32/43/6 79/124/6 77/126/6
f 31/162/23 77/243/23 78/163/23
f 89/165/46 97/244/46 96/166/47
f 97/168/49 89/181/49 73/169/49
f 82/171/50 81/157/50 95/172/50
f 12/174/23 15/179/23 18/140/23
f 14/176/23 69/245/23 68/177/23
f 66/170/23 73/169/23 70/178/23
f 15/179/23 70/178/23 63/145/23
f 12/174/23 68/177/23 70/178/23
f 27/37/11 29/39/13 78/185/51
f 36/186/7 20/246/7 87/187/7
f 92/189/52 99/247/54 83/136/34
f 94/154/53 100/191/56 99/190/54
f 88/155/55 112/248/74 100/191/56
f 21/64/57 44/61/60 101/192/58
f 44/194/60 45/197/62 102/195/61
f 45/197/62 3/3/3 2/2/2
f 103/198/63 46/65/67 48/199/64
f 105/201/66 43/204/68 46/202/67
f 59/89/26 42/91/28 43/204/68
f 96/166/47 106/249/70 91/205/69
f 106/206/70 107/208/72 93/153/71
f 107/208/72 98/250/75 95/156/73
