# Wavefront Obj file
# 
# verts: 98 uv-s: 184
mtllib SmallWindow.mtl

g SmallWindow.001
#pivot 0.000000 0.000000 0.000000

v -0.999999 -6.000000 5.372485
v -1.000004 6.000000 6.872482
v -1.000004 6.000000 5.372483
v -1.000000 -6.000000 6.872483
v -0.500004 6.000001 6.872482
v -0.500000 -5.999999 6.872483
v -0.500004 6.000000 5.372483
v -0.499999 -6.000000 5.372485
v -1.000000 -5.882676 7.330489
v -1.000005 5.882677 10.128078
v -1.000004 6.045990 8.636995
v -1.000000 -6.045990 8.821572
v -0.500005 5.882678 10.128078
v -0.500000 -6.045989 8.821572
v -0.500004 6.045991 8.636995
v -0.500000 -5.882675 7.330489
v -1.500002 5.329874 1.330886
v -1.500000 -5.329874 7.042261
v -1.500003 5.868816 2.730722
v -1.000003 5.868816 2.730722
v -0.999999 -5.868816 5.642425
v -1.000002 5.329874 1.330886
v -1.499999 -5.868816 5.642425
v -0.999998 -6.000000 1.448820
v -1.000003 6.000000 2.948818
v -1.000002 6.000000 1.448818
v -0.999998 -6.000000 2.948820
v -0.500003 6.000000 2.948818
v -0.499998 -6.000000 2.948820
v -0.500002 6.000000 1.448818
v -0.499998 -6.000000 1.448820
v 1.499995 5.000001 10.499999
v -0.500001 -4.999999 10.500001
v 1.499999 -4.999999 10.500001
v 1.500002 -5.000000 1.047026
v -0.499999 -5.000000 3.833333
v -0.499998 -5.000000 1.047026
v 1.500001 -5.000000 3.833334
v -0.500000 -4.999999 7.166667
v 1.500000 -4.999999 7.166667
v -0.500002 5.000000 1.047024
v 1.499996 5.000000 3.833333
v 1.499998 5.000000 1.047024
v -0.500004 5.000000 3.833333
v 1.499996 5.000001 7.166667
v -0.500004 5.000001 7.166667
v -1.000002 5.000000 0.249974
v -0.999999 -4.179463 1.047025
v -1.000001 4.179462 1.047024
v -0.500003 4.179463 3.833333
v -0.500000 -4.179462 3.833333
v -0.499999 -4.179463 1.047025
v -0.500003 4.179464 7.166666
v -0.500001 -4.179462 7.166667
v -0.500004 4.179464 9.952972
v -0.500006 5.000001 10.499999
v -0.500002 -4.179462 9.952975
v 1.499998 5.000000 -0.000001
v -0.499998 -5.000000 0.000001
v -0.500002 5.000000 -0.000001
v -1.000002 5.000000 1.047024
v -0.999998 -5.000000 0.249976
v -0.999998 -5.000000 1.047026
v 1.500002 -5.000000 0.000001
v -0.500001 4.179463 1.047024
v 0.850016 -4.179462 1.047025
v 0.871979 3.779480 1.447010
v 0.850014 4.179463 1.047024
v 0.850011 4.179464 9.952972
v 0.871978 -3.779478 9.552990
v 0.850013 -4.179461 9.952975
v 0.850012 4.179464 3.833333
v 0.850012 4.179464 7.166666
v 0.850015 -4.179462 3.833333
v 0.850014 -4.179461 7.166667
v 0.871977 3.779480 3.525942
v 0.871977 3.779480 4.140724
v 0.871981 -3.779479 1.447011
v 0.871976 3.779480 9.552990
v 0.871979 -3.779478 6.859275
v 0.871980 -3.779478 4.140725
v 0.871979 -3.779478 7.474058
v 0.871980 -3.779478 3.525943
v 0.871977 3.779480 6.859274
v 0.871977 3.779480 7.474057
v 0.999996 3.779480 9.552990
v 0.999997 3.779480 3.525942
v 0.999999 3.779480 1.447010
v 0.999997 3.779480 6.859274
v 0.999997 3.779480 4.140724
v 1.000001 -3.779479 1.447011
v 1.000000 -3.779478 3.525943
v 0.999997 3.779480 7.474057
v 1.000000 -3.779478 4.140725
v 0.999999 -3.779478 6.859275
v 0.999999 -3.779478 7.474058
v 0.999998 -3.779478 9.552990
v -1.000000 -5.329874 7.042261
# 98 positions

vt 0.585141 0.870449
vt 0.890349 0.832298
vt 0.890349 0.870449
vt 0.585141 0.832298
vt 0.890349 0.819581
vt 0.585141 0.819581
vt 0.890349 0.781430
vt 0.585141 0.883166
vt 0.890349 0.883166
vt 0.572424 0.870449
vt 0.903066 0.832298
vt 0.903065 0.870449
vt 0.585141 0.832298
vt 0.890349 0.870449
vt 0.890349 0.832298
vt 0.585141 0.870449
vt 0.890349 0.883166
vt 0.585141 0.781430
vt 0.890349 0.819581
vt 0.890349 0.781430
vt 0.585141 0.819581
vt 0.572424 0.832298
vt 0.903066 0.870448
vt 0.903066 0.832298
vt 0.890349 0.870449
vt 0.585141 0.832298
vt 0.890349 0.832298
vt 0.890349 0.819581
vt 0.585141 0.781430
vt 0.890349 0.781430
vt 0.585141 0.883166
vt 0.890349 0.883166
vt 0.572424 0.870449
vt 0.585141 0.870449
vt 0.903066 0.832298
vt 0.903066 0.870448
vt 0.585141 0.870449
vt 0.890349 0.832298
vt 0.890349 0.870449
vt 0.585141 0.832298
vt 0.890349 0.819581
vt 0.585141 0.819581
vt 0.890349 0.781430
vt 0.585141 0.883166
vt 0.890349 0.883166
vt 0.572424 0.870449
vt 0.903065 0.832297
vt 0.903066 0.870448
vt 0.892874 0.263027
vt 0.879623 0.008878
vt 0.892874 0.008878
vt 0.690286 0.273114
vt 0.748268 0.293924
vt 0.690286 0.293924
vt 0.748268 0.273115
vt 0.817633 0.293924
vt 0.817633 0.273115
vt 0.886997 0.293924
vt 0.690287 0.713847
vt 0.748269 0.734654
vt 0.690288 0.734657
vt 0.748268 0.713844
vt 0.817634 0.734650
vt 0.817633 0.713841
vt 0.886999 0.734646
vt 0.673700 0.703443
vt 0.690286 0.321403
vt 0.690286 0.686368
vt 0.754361 0.263027
vt 0.791283 0.252154
vt 0.791283 0.263027
vt 0.754361 0.008878
vt 0.791283 0.019751
vt 0.754361 0.019751
vt 0.835453 0.252154
vt 0.835453 0.263027
vt 0.791283 0.008878
vt 0.835453 0.019751
vt 0.872374 0.252154
vt 0.879623 0.263027
vt 0.835453 0.008878
vt 0.872374 0.019751
vt 0.642486 0.703443
vt 0.663295 0.304329
vt 0.663295 0.703443
vt 0.668499 0.713848
vt 0.668500 0.734658
vt 0.690286 0.703443
vt 0.673700 0.304329
vt 0.690286 0.304329
vt 0.668498 0.273115
vt 0.668498 0.293924
vt 0.700691 0.686368
vt 0.700691 0.703443
vt 0.700691 0.321403
vt 0.700691 0.304329
vt 0.728784 0.321404
vt 0.737107 0.678044
vt 0.728784 0.686368
vt 0.914112 0.686367
vt 0.905788 0.329726
vt 0.914112 0.321404
vt 0.942190 0.813716
vt 0.914090 0.871694
vt 0.914097 0.813713
vt 0.942184 0.194054
vt 0.914082 0.136077
vt 0.942175 0.136073
vt 0.914105 0.744348
vt 0.942198 0.744351
vt 0.942195 0.263420
vt 0.914091 0.194059
vt 0.942205 0.686369
vt 0.942205 0.321402
vt 0.914102 0.263424
vt 0.786766 0.686368
vt 0.780369 0.678044
vt 0.793162 0.678044
vt 0.856130 0.686368
vt 0.786765 0.321403
vt 0.737107 0.329727
vt 0.905788 0.678044
vt 0.849733 0.329727
vt 0.793162 0.329727
vt 0.856130 0.321403
vt 0.862527 0.329727
vt 0.780369 0.329727
vt 0.849734 0.678044
vt 0.862527 0.678044
vt 0.972746 0.447515
vt 0.962743 0.787234
vt 0.962700 0.447515
vt 0.962677 0.354083
vt 0.972746 0.447515
vt 0.962700 0.447515
vt 0.972811 0.787233
vt 0.962700 0.447515
vt 0.972746 0.354083
vt 0.962677 0.354083
vt 0.962743 0.787234
vt 0.972801 0.880665
vt 0.962717 0.880664
vt 0.962676 0.354083
vt 0.972746 0.354083
vt 0.962717 0.880664
vt 0.972811 0.787233
vt 0.962743 0.787234
vt 0.972801 0.880665
vt 0.972811 0.787233
vt 0.962677 0.014364
vt 0.972725 0.014364
vt 0.972746 0.354083
vt 0.962677 0.014364
vt 0.972725 0.014364
vt 0.972746 0.447515
vt 0.962677 0.014364
vt 0.774813 0.241451
vt 0.848501 0.036561
vt 0.848501 0.241451
vt 0.774813 0.241451
vt 0.848501 0.036561
vt 0.848501 0.241451
vt 0.848501 0.241451
vt 0.774813 0.036561
vt 0.848501 0.036561
vt 0.585141 0.781430
vt 0.572424 0.832298
vt 0.585141 0.883166
vt 0.572424 0.870449
vt 0.585141 0.819581
vt 0.572424 0.832298
vt 0.585141 0.781430
vt 0.572424 0.832298
vt 0.886997 0.273115
vt 0.886998 0.713837
vt 0.754361 0.252154
vt 0.642486 0.304329
vt 0.942183 0.871697
vt 0.972801 0.880665
vt 0.962717 0.880664
vt 0.972725 0.014364
vt 0.774813 0.036561
vt 0.774813 0.036561
vt 0.774813 0.241451
# 184 texture coordinates

vn -1.000000 -0.000001 -0.000000
vn -0.000000 0.000000 1.000000
vn 1.000000 0.000000 0.000000
vn 0.000000 -0.000000 -1.000000
vn 0.000000 -1.000000 0.000000
vn -0.000000 1.000000 -0.000000
vn 0.000000 -0.108875 0.994055
vn -0.000000 0.108876 -0.994055
vn 0.000002 -0.994055 -0.108876
vn -0.000002 0.994055 0.108875
vn 0.000000 0.359295 0.933224
vn 0.000000 -0.359295 -0.933224
vn 0.000000 -0.933224 0.359295
vn 0.000000 0.933224 -0.359295
vn -0.447178 -0.000000 -0.894445
vn -0.999247 0.027437 0.027436
vn -0.999247 -0.027437 0.027436
vn -0.999247 -0.027437 -0.027437
vn -0.999247 0.027437 -0.027437
vn -0.998496 -0.054832 -0.000000
vn -0.894023 -0.024529 -0.447348
vn -0.804767 -0.435971 0.402838
vn -0.998496 0.054832 -0.000000
vn -0.804767 0.435971 -0.402838
vn -0.936722 0.260057 0.234357
vn -0.894023 0.024529 0.447348
vn -0.948017 0.034689 -0.316323
vn -0.936722 -0.260057 -0.234357
vn -0.948017 -0.034689 0.316323
# 29 normals

usemtl default
f 1/1/1 2/2/1 3/3/1
f 4/4/2 5/5/2 2/2/2
f 6/6/3 7/7/3 5/5/3
f 8/8/4 3/3/4 7/9/4
f 8/10/5 4/4/5 1/1/5
f 3/3/6 5/11/6 7/12/6
f 9/13/1 10/14/1 11/15/1
f 12/16/7 13/17/7 10/14/7
f 14/18/3 15/19/3 13/20/3
f 16/21/8 11/15/8 15/19/8
f 16/22/9 12/16/9 9/13/9
f 11/15/10 13/23/10 15/24/10
f 17/25/1 18/26/1 19/27/1
f 18/26/11 20/28/11 19/27/11
f 20/28/3 21/29/3 22/30/3
f 21/31/12 17/25/12 22/32/12
f 21/33/13 18/26/13 23/34/13
f 17/25/14 20/35/14 22/36/14
f 24/37/1 25/38/1 26/39/1
f 27/40/2 28/41/2 25/38/2
f 29/42/3 30/43/3 28/41/3
f 31/44/4 26/39/4 30/45/4
f 31/46/5 27/40/5 24/37/5
f 26/39/6 28/47/6 30/48/6
f 32/49/2 33/50/2 34/51/2
f 35/52/5 36/53/5 37/54/5
f 38/55/5 39/56/5 36/53/5
f 40/57/5 33/58/5 39/56/5
f 41/59/6 42/60/6 43/61/6
f 44/62/6 45/63/6 42/60/6
f 46/64/6 32/65/6 45/63/6
f 47/66/1 48/67/1 49/68/1
f 41/69/1 50/70/1 44/71/1
f 37/72/1 51/73/1 52/74/1
f 44/71/1 53/75/1 46/76/1
f 36/77/1 54/78/1 51/73/1
f 46/76/1 55/79/1 56/80/1
f 39/81/1 57/82/1 54/78/1
f 33/50/1 55/79/1 57/82/1
f 58/83/4 59/84/4 60/85/4
f 60/86/6 43/61/6 58/87/6
f 49/68/1 61/88/1 47/66/1
f 62/89/1 63/90/1 48/67/1
f 64/91/5 37/54/5 59/92/5
f 48/67/2 65/93/2 49/68/2
f 41/94/2 49/68/2 65/93/2
f 41/59/6 47/66/6 61/88/6
f 37/54/5 62/89/5 59/92/5
f 52/95/2 63/90/2 37/96/2
f 47/66/15 59/84/15 62/89/15
f 66/97/16 67/98/17 68/99/17
f 69/100/18 70/101/19 71/102/19
f 65/93/2 66/97/2 68/99/2
f 50/103/5 68/104/5 72/105/5
f 51/106/6 66/107/6 52/108/6
f 50/103/5 73/109/5 53/110/5
f 54/111/6 74/112/6 51/106/6
f 55/113/4 71/102/4 57/114/4
f 53/110/5 69/100/5 55/113/5
f 57/114/6 75/115/6 54/111/6
f 72/116/20 67/98/17 76/117/21
f 77/118/22 73/119/20 72/116/20
f 74/120/23 78/121/16 66/97/16
f 73/119/20 79/122/18 69/100/18
f 74/120/23 80/123/24 81/124/25
f 75/125/23 70/101/19 82/126/26
f 81/124/25 76/117/21 83/127/27
f 84/128/28 82/126/26 85/129/29
f 77/118/22 72/116/20 76/117/21
f 83/127/27 74/120/23 81/124/25
f 85/129/29 73/119/20 84/128/28
f 80/123/24 75/125/23 82/126/26
f 86/130/4 70/131/4 79/132/4
f 87/133/5 67/134/5 88/135/5
f 78/136/2 88/135/2 67/134/2
f 89/137/5 77/138/22 90/139/5
f 91/140/6 83/141/6 92/142/6
f 86/130/5 85/143/5 93/144/5
f 94/145/6 80/146/24 95/147/6
f 96/148/6 70/131/6 97/149/6
f 94/150/2 77/138/22 81/151/25
f 76/152/21 92/153/4 83/154/27
f 89/137/4 80/146/24 84/155/28
f 82/156/26 93/144/2 85/143/29
f 88/157/1 92/158/1 87/159/1
f 90/160/1 95/161/1 89/162/1
f 86/163/1 96/164/1 97/165/1
f 1/1/1 4/4/1 2/2/1
f 4/4/2 6/6/2 5/5/2
f 6/6/3 8/166/3 7/7/3
f 8/8/4 1/1/4 3/3/4
f 8/10/5 6/167/5 4/4/5
f 3/3/6 2/2/6 5/11/6
f 9/13/1 12/16/1 10/14/1
f 12/16/7 14/168/7 13/17/7
f 14/18/3 16/21/3 15/19/3
f 16/21/8 9/13/8 11/15/8
f 16/22/9 14/169/9 12/16/9
f 11/15/10 10/14/10 13/23/10
f 17/25/1 23/34/1 18/26/1
f 18/26/11 98/170/11 20/28/11
f 20/28/3 98/170/3 21/29/3
f 21/31/12 23/34/12 17/25/12
f 21/33/13 98/171/13 18/26/13
f 17/25/14 19/27/14 20/35/14
f 24/37/1 27/40/1 25/38/1
f 27/40/2 29/42/2 28/41/2
f 29/42/3 31/172/3 30/43/3
f 31/44/4 24/37/4 26/39/4
f 31/46/5 29/173/5 27/40/5
f 26/39/6 25/38/6 28/47/6
f 32/49/2 56/80/2 33/50/2
f 35/52/5 38/55/5 36/53/5
f 38/55/5 40/57/5 39/56/5
f 40/57/5 34/174/5 33/58/5
f 41/59/6 44/62/6 42/60/6
f 44/62/6 46/64/6 45/63/6
f 46/64/6 56/175/6 32/65/6
f 47/66/1 62/89/1 48/67/1
f 41/69/1 65/176/1 50/70/1
f 37/72/1 36/77/1 51/73/1
f 44/71/1 50/70/1 53/75/1
f 36/77/1 39/81/1 54/78/1
f 46/76/1 53/75/1 55/79/1
f 39/81/1 33/50/1 57/82/1
f 33/50/1 56/80/1 55/79/1
f 58/83/4 64/177/4 59/84/4
f 60/86/6 41/59/6 43/61/6
f 64/91/5 35/52/5 37/54/5
f 48/67/2 52/95/2 65/93/2
f 41/94/2 61/88/2 49/68/2
f 41/59/6 60/86/6 47/66/6
f 37/54/5 63/90/5 62/89/5
f 52/95/2 48/67/2 63/90/2
f 47/66/15 60/85/15 59/84/15
f 66/97/16 78/121/16 67/98/17
f 69/100/18 79/122/18 70/101/19
f 65/93/2 52/95/2 66/97/2
f 50/103/5 65/178/5 68/104/5
f 51/106/6 74/112/6 66/107/6
f 50/103/5 72/105/5 73/109/5
f 54/111/6 75/115/6 74/112/6
f 55/113/4 69/100/4 71/102/4
f 53/110/5 73/109/5 69/100/5
f 57/114/6 71/102/6 75/115/6
f 72/116/20 68/99/17 67/98/17
f 77/118/22 84/128/28 73/119/20
f 74/120/23 83/127/27 78/121/16
f 73/119/20 85/129/29 79/122/18
f 74/120/23 75/125/23 80/123/24
f 75/125/23 71/102/19 70/101/19
f 81/124/25 77/118/22 76/117/21
f 84/128/28 80/123/24 82/126/26
f 86/130/4 97/149/4 70/131/4
f 87/133/5 76/152/5 67/134/5
f 78/136/2 91/140/2 88/135/2
f 89/137/5 84/155/28 77/138/22
f 91/140/6 78/136/6 83/141/6
f 86/130/5 79/132/5 85/143/5
f 94/145/6 81/179/25 80/146/24
f 96/148/6 82/180/6 70/131/6
f 94/150/2 90/139/2 77/138/22
f 76/152/21 87/133/4 92/153/4
f 89/137/4 95/147/4 80/146/24
f 82/156/26 96/181/2 93/144/2
f 88/157/1 91/182/1 92/158/1
f 90/160/1 94/183/1 95/161/1
f 86/163/1 93/184/1 96/164/1

# 168 faces
