# Wavefront Obj file
# 
# verts: 138 uv-s: 266
mtllib DoorOpen.mtl

g Door.001
#pivot 0.000000 0.000000 0.000000

v 3.249994 8.289810 8.550001
v 3.249994 8.289812 10.449995
v 5.450021 8.289812 10.449995
v 5.450021 8.289809 8.550001
v 3.249994 7.424814 10.449995
v 5.450021 7.424813 10.449995
v 5.450021 7.424812 8.550001
v 3.249994 7.424812 8.550001
v 3.350000 8.675007 18.999998
v 5.350000 8.675007 18.999998
v 5.350000 8.675001 -0.000002
v 3.350000 8.675001 -0.000002
v 5.350000 0.025005 19.000000
v 3.350000 0.025005 19.000000
v 3.350000 0.024999 0.000002
v 5.350000 0.024999 0.000002
v 2.983102 7.721445 10.212768
v 2.905862 7.656427 10.302259
v 2.905862 7.509477 10.100004
v 2.983102 7.614679 10.065825
v 2.905862 7.509477 9.850004
v 2.983102 7.614679 9.884185
v 2.905862 7.656426 9.647749
v 2.983102 7.721444 9.737242
v 2.905862 7.894189 9.570494
v 2.983102 7.894189 9.681120
v 2.905862 8.131952 9.647749
v 2.983102 8.066936 9.737242
v 2.905862 8.278902 9.850004
v 2.983102 8.173700 9.884185
v 2.905862 8.278902 10.100004
v 2.983102 8.173700 10.065825
v 2.905862 8.131952 10.302259
v 2.983102 8.066936 10.212768
v 2.905862 7.894190 10.379515
v 2.983102 7.894190 10.268888
v 2.700616 7.600297 10.379515
v 2.700616 7.418661 10.129515
v 2.700616 7.418661 9.820494
v 2.700616 7.600297 9.570494
v 2.700616 7.894189 9.475004
v 2.700616 8.188082 9.570494
v 2.700616 8.369718 9.820494
v 2.700616 8.369718 10.129515
v 2.700616 8.188082 10.379515
v 2.700616 7.894190 10.475004
v 2.495370 7.656427 10.302259
v 2.495370 7.509477 10.100004
v 2.495370 7.509477 9.850004
v 2.495370 7.656426 9.647749
v 2.495370 7.894189 9.570494
v 2.495370 8.131952 9.647749
v 2.495370 8.278902 9.850004
v 2.495370 8.278902 10.100004
v 2.495370 8.131952 10.302259
v 2.495370 7.894190 10.379515
v 2.368539 7.803369 10.100004
v 2.368539 7.747244 10.022749
v 2.368539 7.747244 9.927259
v 2.368539 7.803369 9.850004
v 2.368539 7.894190 9.820494
v 2.368539 7.985010 9.850004
v 2.368539 8.041136 9.927259
v 2.368539 8.041136 10.022749
v 2.368539 7.985010 10.100004
v 2.368539 7.894190 10.129515
v 2.351434 7.894190 9.975004
v 3.413934 7.614679 10.065825
v 3.413934 7.721445 10.212768
v 3.413934 7.614678 9.884185
v 3.413934 7.721444 9.737242
v 3.413934 7.894189 9.681120
v 3.413934 8.066936 9.737242
v 3.413934 8.173700 9.884185
v 3.413934 8.173700 10.065825
v 3.413934 8.066936 10.212768
v 3.413934 7.894190 10.268888
v 5.716898 7.721444 10.212768
v 5.716898 7.614678 10.065825
v 5.794138 7.509477 10.100004
v 5.794138 7.656426 10.302259
v 5.716898 7.614678 9.884185
v 5.794138 7.509477 9.850004
v 5.716898 7.721444 9.737242
v 5.794138 7.656426 9.647749
v 5.716898 7.894189 9.681120
v 5.794138 7.894189 9.570494
v 5.716898 8.066936 9.737242
v 5.794138 8.131952 9.647749
v 5.716898 8.173700 9.884185
v 5.794138 8.278902 9.850004
v 5.716898 8.173700 10.065825
v 5.794138 8.278902 10.100004
v 5.716898 8.066936 10.212768
v 5.794138 8.131952 10.302259
v 5.716898 7.894189 10.268888
v 5.794138 7.894189 10.379515
v 5.999384 7.418660 10.129515
v 5.999384 7.600297 10.379515
v 5.999384 7.418660 9.820494
v 5.999384 7.600297 9.570494
v 5.999384 7.894189 9.475004
v 5.999384 8.188082 9.570494
v 5.999384 8.369718 9.820494
v 5.999384 8.369718 10.129515
v 5.999384 8.188082 10.379515
v 5.999384 7.894189 10.475004
v 6.204630 7.509477 10.100004
v 6.204630 7.656426 10.302259
v 6.204630 7.509477 9.850004
v 6.204630 7.656426 9.647749
v 6.204630 7.894189 9.570494
v 6.204630 8.131952 9.647749
v 6.204630 8.278902 9.850004
v 6.204630 8.278902 10.100004
v 6.204630 8.131952 10.302259
v 6.204630 7.894189 10.379515
v 6.331461 7.747243 10.022749
v 6.331461 7.803369 10.100004
v 6.331461 7.747243 9.927259
v 6.331461 7.803369 9.850004
v 6.331461 7.894189 9.820494
v 6.331461 7.985009 9.850004
v 6.331461 8.041136 9.927259
v 6.331461 8.041136 10.022749
v 6.331461 7.985009 10.100004
v 6.331461 7.894189 10.129515
v 6.348566 7.894189 9.975004
v 5.286066 7.721444 10.212768
v 5.286066 7.614678 10.065825
v 5.286066 7.614678 9.884185
v 5.286066 7.721444 9.737242
v 5.286066 7.894189 9.681120
v 5.286066 8.066936 9.737242
v 5.286066 8.173700 9.884185
v 5.286066 8.173700 10.065825
v 5.286066 8.066936 10.212768
v 5.286066 7.894189 10.268888
# 138 positions

vt 0.890667 0.450944
vt 0.810429 0.543852
vt 0.810429 0.450944
vt 0.889686 0.566980
vt 0.796778 0.603509
vt 0.796778 0.566980
vt 0.814979 0.673916
vt 0.895217 0.766824
vt 0.895217 0.673916
vt 0.853784 0.821805
vt 0.817255 0.902043
vt 0.853784 0.902043
vt 0.885637 0.005000
vt 0.849108 0.085238
vt 0.849108 0.005000
vt 0.910163 0.812830
vt 0.817255 0.776301
vt 0.817255 0.812830
vt 0.807381 0.901716
vt 0.005000 0.817255
vt 0.807381 0.817255
vt 0.840285 0.370295
vt 0.755824 0.005000
vt 0.840285 0.005000
vt 0.005000 0.995000
vt 0.807381 0.910539
vt 0.005000 0.910539
vt 0.005000 0.005000
vt 0.370295 0.807381
vt 0.370295 0.005000
vt 0.745706 0.005000
vt 0.380412 0.807381
vt 0.380412 0.005000
vt 0.890667 0.543852
vt 0.889686 0.603509
vt 0.814979 0.766824
vt 0.817255 0.821805
vt 0.885637 0.085238
vt 0.910163 0.776301
vt 0.005000 0.901716
vt 0.755824 0.370295
vt 0.807381 0.995000
vt 0.005000 0.807381
vt 0.745707 0.807381
vt 0.802984 0.438617
vt 0.801220 0.428633
vt 0.805729 0.434838
vt 0.796778 0.430076
vt 0.801220 0.420962
vt 0.802984 0.410977
vt 0.805729 0.414756
vt 0.813024 0.412386
vt 0.813024 0.407714
vt 0.820319 0.414756
vt 0.823065 0.410977
vt 0.824828 0.420962
vt 0.829271 0.419518
vt 0.824828 0.428633
vt 0.823065 0.438617
vt 0.820319 0.434838
vt 0.813024 0.441880
vt 0.813024 0.437208
vt 0.759086 0.698943
vt 0.766381 0.707611
vt 0.767627 0.698943
vt 0.779432 0.707611
vt 0.778185 0.698943
vt 0.786727 0.698943
vt 0.789989 0.707611
vt 0.755824 0.748698
vt 0.764491 0.738657
vt 0.755824 0.738657
vt 0.755824 0.728616
vt 0.764491 0.726246
vt 0.759086 0.777709
vt 0.766381 0.769042
vt 0.767627 0.777709
vt 0.779432 0.769042
vt 0.778185 0.777709
vt 0.786727 0.777709
vt 0.789989 0.769042
vt 0.800462 0.500699
vt 0.791794 0.490658
vt 0.800462 0.490658
vt 0.800462 0.480617
vt 0.791794 0.478246
vt 0.759086 0.716278
vt 0.767627 0.716278
vt 0.778185 0.716278
vt 0.786727 0.716278
vt 0.773159 0.748698
vt 0.773159 0.738657
vt 0.773159 0.728616
vt 0.759086 0.760374
vt 0.767627 0.760374
vt 0.778185 0.760374
vt 0.786727 0.760374
vt 0.783126 0.500699
vt 0.783126 0.490658
vt 0.783126 0.480617
vt 0.817895 0.644765
vt 0.805483 0.644765
vt 0.807854 0.648028
vt 0.807854 0.652061
vt 0.817895 0.655323
vt 0.805483 0.655323
vt 0.811689 0.663864
vt 0.801648 0.656569
vt 0.801648 0.667127
vt 0.791607 0.663864
vt 0.797813 0.655323
vt 0.785402 0.655323
vt 0.795443 0.652061
vt 0.795443 0.648028
vt 0.785402 0.644765
vt 0.797813 0.644765
vt 0.791607 0.636224
vt 0.801648 0.643519
vt 0.801648 0.632962
vt 0.811689 0.636224
vt 0.801648 0.650044
vt 0.789332 0.380412
vt 0.783126 0.398606
vt 0.789332 0.398606
vt 0.797003 0.380412
vt 0.797003 0.398606
vt 0.803208 0.380412
vt 0.803208 0.398606
vt 0.783126 0.551481
vt 0.801320 0.558776
vt 0.801320 0.551481
vt 0.783126 0.544186
vt 0.801320 0.544186
vt 0.789332 0.744440
vt 0.783126 0.726246
vt 0.789332 0.726246
vt 0.797003 0.744440
vt 0.797003 0.726246
vt 0.803208 0.744440
vt 0.803208 0.726246
vt 0.774018 0.392216
vt 0.755824 0.399511
vt 0.755824 0.392216
vt 0.774018 0.384921
vt 0.755824 0.384921
vt 0.783874 0.420962
vt 0.782111 0.410977
vt 0.779366 0.414756
vt 0.783874 0.428633
vt 0.788317 0.419518
vt 0.782111 0.438617
vt 0.788317 0.430076
vt 0.772071 0.437208
vt 0.779366 0.434838
vt 0.764776 0.434838
vt 0.772071 0.441880
vt 0.760266 0.428633
vt 0.762029 0.438617
vt 0.760266 0.420962
vt 0.755824 0.430076
vt 0.762029 0.410977
vt 0.755824 0.419518
vt 0.764776 0.414756
vt 0.772071 0.407714
vt 0.772071 0.412386
vt 0.766382 0.459611
vt 0.759087 0.468279
vt 0.767627 0.468279
vt 0.779431 0.459611
vt 0.778185 0.468279
vt 0.786726 0.468279
vt 0.764491 0.490658
vt 0.773159 0.500699
vt 0.773159 0.490658
vt 0.773159 0.480617
vt 0.766382 0.521042
vt 0.759087 0.512375
vt 0.767627 0.512375
vt 0.778185 0.512375
vt 0.786726 0.512375
vt 0.779431 0.521042
vt 0.764491 0.552089
vt 0.755824 0.562130
vt 0.755824 0.552089
vt 0.755824 0.542048
vt 0.759087 0.450944
vt 0.755824 0.459611
vt 0.778185 0.450944
vt 0.786726 0.450944
vt 0.789989 0.459611
vt 0.755824 0.500699
vt 0.764491 0.503069
vt 0.755824 0.480617
vt 0.764491 0.478246
vt 0.759087 0.529710
vt 0.755824 0.521042
vt 0.767627 0.529710
vt 0.786726 0.529710
vt 0.789989 0.521042
vt 0.773159 0.562130
vt 0.764491 0.564500
vt 0.773159 0.542048
vt 0.764491 0.539677
vt 0.755824 0.596167
vt 0.768235 0.596167
vt 0.762029 0.604709
vt 0.765864 0.588872
vt 0.755824 0.585610
vt 0.768235 0.585610
vt 0.762029 0.577068
vt 0.772071 0.584363
vt 0.772071 0.573806
vt 0.782111 0.577068
vt 0.788317 0.585610
vt 0.775906 0.585610
vt 0.778276 0.592905
vt 0.788317 0.596167
vt 0.775906 0.596167
vt 0.782111 0.604709
vt 0.772071 0.597414
vt 0.772071 0.607971
vt 0.765864 0.592905
vt 0.772071 0.590889
vt 0.778276 0.588872
vt 0.755824 0.617035
vt 0.762029 0.635229
vt 0.762029 0.617035
vt 0.769700 0.635229
vt 0.769700 0.617035
vt 0.775905 0.635229
vt 0.775905 0.617035
vt 0.755824 0.663437
vt 0.774018 0.656142
vt 0.755824 0.656142
vt 0.774018 0.648846
vt 0.755824 0.648846
vt 0.755824 0.689835
vt 0.762029 0.671640
vt 0.762029 0.689835
vt 0.769700 0.671640
vt 0.769700 0.689835
vt 0.775905 0.671640
vt 0.775905 0.689835
vt 0.805871 0.695290
vt 0.787677 0.687995
vt 0.805871 0.687995
vt 0.787677 0.680700
vt 0.805871 0.680700
vt 0.796778 0.419518
vt 0.829271 0.430076
vt 0.755824 0.707611
vt 0.764491 0.751068
vt 0.755824 0.769042
vt 0.791794 0.503069
vt 0.774018 0.380412
vt 0.805578 0.380412
vt 0.783126 0.539677
vt 0.805578 0.744440
vt 0.767627 0.450944
vt 0.755824 0.490658
vt 0.778185 0.529710
vt 0.773159 0.552089
vt 0.787677 0.676191
vt 0.778276 0.635229
vt 0.774018 0.644338
vt 0.778276 0.671640
# 266 texture coordinates

vn 0.000000 1.000000 -0.000001
vn 0.000000 -0.000000 1.000000
vn -0.000000 -1.000000 0.000001
vn -1.000000 0.000000 -0.000000
vn 1.000000 -0.000000 0.000000
vn 0.000000 -0.000001 -1.000000
vn 0.615377 -0.485573 0.620911
vn 0.818325 -0.524320 0.235443
vn 0.818337 -0.285784 0.498650
vn 0.643285 -0.749395 0.156814
vn 0.819897 -0.544489 -0.176919
vn 0.645491 -0.448929 -0.617904
vn 0.819901 -0.336497 -0.463176
vn 0.818342 -0.061889 -0.571390
vn 0.684989 0.038808 -0.727520
vn 0.818338 0.285786 -0.498649
vn 0.615377 0.485574 -0.620910
vn 0.818325 0.524320 -0.235441
vn 0.643285 0.749396 -0.156813
vn 0.819896 0.544490 0.176921
vn 0.615376 0.485575 0.620911
vn 0.818336 0.285786 0.498650
vn 0.710870 -0.000000 0.703323
vn 0.819922 -0.000000 0.572475
vn 0.017795 -0.938720 0.344220
vn -0.016541 -0.947292 -0.319946
vn 0.645483 -0.726392 -0.236022
vn -0.000000 -0.587770 -0.809028
vn 0.000000 0.587770 -0.809028
vn -0.034277 0.942826 -0.331519
vn 0.034277 0.942825 0.331520
vn 0.645482 0.726393 0.236023
vn 0.000000 0.587768 0.809029
vn 0.000000 -0.587767 0.809030
vn -0.662415 -0.421858 0.619066
vn -0.732461 -0.659642 0.168446
vn -0.745958 -0.622993 -0.235426
vn -0.662415 -0.421859 -0.619065
vn -0.698807 -0.000000 -0.715310
vn -0.662415 0.421858 -0.619066
vn -0.775690 0.600226 -0.195025
vn -0.698593 0.687759 0.197372
vn -0.662415 0.421858 0.619065
vn -0.698807 0.000000 0.715310
vn -0.947138 -0.211821 0.240960
vn -0.958541 -0.271010 0.088050
vn -0.947138 -0.312999 -0.070436
vn -0.947138 -0.211821 -0.240960
vn -0.939540 0.000000 -0.342440
vn -0.947138 0.211821 -0.240961
vn -0.958541 0.271010 -0.088051
vn -0.947138 0.312999 0.070437
vn -0.947138 0.211821 0.240961
vn -0.939540 0.000000 0.342440
vn -0.818323 -0.524322 0.235442
vn -0.615376 -0.485574 0.620910
vn -0.818337 -0.285784 0.498650
vn -0.819896 -0.544491 -0.176920
vn -0.643285 -0.749396 0.156813
vn -0.645490 -0.448929 -0.617904
vn -0.645483 -0.726392 -0.236022
vn -0.818342 -0.061889 -0.571390
vn -0.819901 -0.336496 -0.463176
vn -0.818338 0.285786 -0.498649
vn -0.684988 0.038808 -0.727520
vn -0.818325 0.524320 -0.235441
vn -0.615377 0.485574 -0.620910
vn -0.819896 0.544490 0.176921
vn -0.684973 0.703919 -0.187909
vn -0.615376 0.485575 0.620911
vn -0.602298 0.775648 0.188700
vn -0.818336 0.285785 0.498651
vn -0.710870 -0.000000 0.703323
vn -0.819922 -0.000001 0.572475
vn 0.662415 -0.421858 0.619065
vn 0.698595 -0.687757 -0.197372
vn 0.662415 -0.421858 -0.619065
vn 0.662415 0.421858 -0.619065
vn 0.732460 0.659642 -0.168447
vn 0.662415 0.421858 0.619065
vn 0.775690 -0.600225 0.195024
vn 0.947138 -0.211821 0.240961
vn 0.947138 -0.313000 -0.070437
vn 0.947138 -0.211821 -0.240961
vn 0.939539 -0.000000 -0.342441
vn 0.698807 -0.000000 -0.715310
vn 0.947138 0.211820 -0.240962
vn 0.947138 0.312999 0.070438
vn 0.745958 0.622993 0.235429
vn 0.947138 0.211820 0.240962
vn 0.939539 -0.000000 0.342441
vn 0.698807 -0.000000 0.715310
vn 0.958541 -0.271010 0.088052
vn 0.958541 0.271009 -0.088053
# 94 normals

usemtl default
f 2/1/1 4/2/1 1/3/1
f 6/4/2 2/5/2 5/6/2
f 6/7/3 8/8/3 7/9/3
f 5/10/4 1/11/4 8/12/4
f 4/13/5 6/14/5 7/15/5
f 8/16/6 4/17/6 7/18/6
f 10/19/1 12/20/1 9/21/1
f 10/22/2 14/23/2 13/24/2
f 14/25/3 16/26/3 13/27/3
f 9/28/4 15/29/4 14/30/4
f 11/31/5 13/32/5 16/33/5
f 2/1/1 3/34/1 4/2/1
f 6/4/2 3/35/2 2/5/2
f 6/7/3 5/36/3 8/8/3
f 5/10/4 2/37/4 1/11/4
f 4/13/5 3/38/5 6/14/5
f 8/16/6 1/39/6 4/17/6
f 10/19/1 11/40/1 12/20/1
f 10/22/2 9/41/2 14/23/2
f 14/25/3 15/42/3 16/26/3
f 9/28/4 12/43/4 15/29/4
f 11/31/5 10/44/5 13/32/5
f 18/45/7 20/46/8 17/47/9
f 19/48/10 22/49/11 20/46/8
f 22/49/11 23/50/12 24/51/13
f 23/50/12 26/52/14 24/51/13
f 25/53/15 28/54/16 26/52/14
f 27/55/17 30/56/18 28/54/16
f 29/57/19 32/58/20 30/56/18
f 32/58/20 33/59/21 34/60/22
f 34/60/22 35/61/23 36/62/24
f 35/61/23 17/47/9 36/62/24
f 18/63/7 38/64/25 19/65/10
f 19/65/10 39/66/26 21/67/27
f 23/68/12 39/66/26 40/69/28
f 23/70/12 41/71/6 25/72/15
f 27/73/17 41/71/6 42/74/29
f 27/75/17 43/76/30 29/77/19
f 29/77/19 44/78/31 31/79/32
f 33/80/21 44/78/31 45/81/33
f 33/82/21 46/83/2 35/84/23
f 18/85/7 46/83/2 37/86/34
f 38/64/25 47/87/35 48/88/36
f 39/66/26 48/88/36 49/89/37
f 39/66/26 50/90/38 40/69/28
f 41/71/6 50/91/38 51/92/39
f 41/71/6 52/93/40 42/74/29
f 43/76/30 52/94/40 53/95/41
f 43/76/30 54/96/42 44/78/31
f 44/78/31 55/97/43 45/81/33
f 46/83/2 55/98/43 56/99/44
f 46/83/2 47/100/35 37/86/34
f 48/101/36 57/102/45 58/103/46
f 48/101/36 59/104/47 49/105/37
f 49/105/37 60/106/48 50/107/38
f 50/107/38 61/108/49 51/109/39
f 52/110/40 61/108/49 62/111/50
f 53/112/41 62/111/50 63/113/51
f 53/112/41 64/114/52 54/115/42
f 54/115/42 65/116/53 55/117/43
f 55/117/43 66/118/54 56/119/44
f 47/120/35 66/118/54 57/102/45
f 57/102/45 67/121/4 58/103/46
f 58/103/46 67/121/4 59/104/47
f 59/104/47 67/121/4 60/106/48
f 60/106/48 67/121/4 61/108/49
f 61/108/49 67/121/4 62/111/50
f 62/111/50 67/121/4 63/113/51
f 63/113/51 67/121/4 64/114/52
f 64/114/52 67/121/4 65/116/53
f 65/116/53 67/121/4 66/118/54
f 66/118/54 67/121/4 57/102/45
f 68/122/25 17/123/34 20/124/25
f 70/125/26 20/124/25 22/126/26
f 71/127/28 22/126/26 24/128/28
f 72/129/6 24/130/28 26/131/6
f 73/132/29 26/131/6 28/133/29
f 74/134/30 28/135/29 30/136/30
f 75/137/31 30/136/30 32/138/31
f 76/139/33 32/138/31 34/140/33
f 77/141/2 34/142/33 36/143/2
f 69/144/34 36/143/2 17/145/34
f 79/146/55 81/147/56 78/148/57
f 82/149/58 80/150/59 79/146/55
f 82/149/58 85/151/60 83/152/61
f 86/153/62 85/151/60 84/154/63
f 88/155/64 87/156/65 86/153/62
f 90/157/66 89/158/67 88/155/64
f 92/159/68 91/160/69 90/157/66
f 92/159/68 95/161/70 93/162/71
f 94/163/72 97/164/73 95/161/70
f 78/148/57 97/164/73 96/165/74
f 98/166/25 81/167/56 80/168/59
f 100/169/26 80/168/59 83/170/61
f 85/171/60 100/169/26 83/170/61
f 102/172/6 85/173/60 87/174/65
f 89/175/67 102/172/6 87/174/65
f 104/176/30 89/177/67 91/178/69
f 93/179/71 104/176/30 91/178/69
f 95/180/70 105/181/31 93/179/71
f 107/182/2 95/183/70 97/184/73
f 81/185/56 107/182/2 97/184/73
f 98/166/25 109/186/75 99/187/34
f 110/188/76 98/166/25 100/169/26
f 111/189/77 100/169/26 101/190/28
f 102/172/6 111/191/77 101/192/28
f 113/193/78 102/172/6 103/194/29
f 104/176/30 113/195/78 103/196/29
f 105/181/31 114/197/79 104/176/30
f 116/198/80 105/181/31 106/199/33
f 107/182/2 116/200/80 106/201/33
f 109/202/75 107/182/2 99/203/34
f 108/204/81 119/205/82 109/206/75
f 120/207/83 108/204/81 110/208/76
f 121/209/84 110/208/76 111/210/77
f 122/211/85 111/210/77 112/212/86
f 113/213/78 122/211/85 112/212/86
f 114/214/79 123/215/87 113/213/78
f 125/216/88 114/214/79 115/217/89
f 126/218/90 115/217/89 116/219/80
f 127/220/91 116/219/80 117/221/92
f 109/206/75 127/220/91 117/221/92
f 119/205/82 118/222/93 128/223/5
f 118/222/93 120/207/83 128/223/5
f 120/207/83 121/209/84 128/223/5
f 121/209/84 122/211/85 128/223/5
f 122/211/85 123/215/87 128/223/5
f 123/215/87 124/224/94 128/223/5
f 124/224/94 125/216/88 128/223/5
f 125/216/88 126/218/90 128/223/5
f 126/218/90 127/220/91 128/223/5
f 127/220/91 119/205/82 128/223/5
f 78/225/34 130/226/25 79/227/25
f 79/227/25 131/228/26 82/229/26
f 82/229/26 132/230/28 84/231/28
f 84/232/28 133/233/6 86/234/6
f 86/234/6 134/235/29 88/236/29
f 88/237/29 135/238/30 90/239/30
f 90/239/30 136/240/31 92/241/31
f 92/241/31 137/242/33 94/243/33
f 94/244/33 138/245/2 96/246/2
f 96/246/2 129/247/34 78/248/34
f 18/45/7 19/48/10 20/46/8
f 19/48/10 21/249/27 22/49/11
f 22/49/11 21/249/27 23/50/12
f 23/50/12 25/53/15 26/52/14
f 25/53/15 27/55/17 28/54/16
f 27/55/17 29/57/19 30/56/18
f 29/57/19 31/250/32 32/58/20
f 32/58/20 31/250/32 33/59/21
f 34/60/22 33/59/21 35/61/23
f 35/61/23 18/45/7 17/47/9
f 18/63/7 37/251/34 38/64/25
f 19/65/10 38/64/25 39/66/26
f 23/68/12 21/67/27 39/66/26
f 23/70/12 40/252/28 41/71/6
f 27/73/17 25/72/15 41/71/6
f 27/75/17 42/253/29 43/76/30
f 29/77/19 43/76/30 44/78/31
f 33/80/21 31/79/32 44/78/31
f 33/82/21 45/254/33 46/83/2
f 18/85/7 35/84/23 46/83/2
f 38/64/25 37/251/34 47/87/35
f 39/66/26 38/64/25 48/88/36
f 39/66/26 49/89/37 50/90/38
f 41/71/6 40/252/28 50/91/38
f 41/71/6 51/92/39 52/93/40
f 43/76/30 42/253/29 52/94/40
f 43/76/30 53/95/41 54/96/42
f 44/78/31 54/96/42 55/97/43
f 46/83/2 45/254/33 55/98/43
f 46/83/2 56/99/44 47/100/35
f 48/101/36 47/120/35 57/102/45
f 48/101/36 58/103/46 59/104/47
f 49/105/37 59/104/47 60/106/48
f 50/107/38 60/106/48 61/108/49
f 52/110/40 51/109/39 61/108/49
f 53/112/41 52/110/40 62/111/50
f 53/112/41 63/113/51 64/114/52
f 54/115/42 64/114/52 65/116/53
f 55/117/43 65/116/53 66/118/54
f 47/120/35 56/119/44 66/118/54
f 68/255/25 69/144/34 17/145/34
f 70/125/26 68/122/25 20/124/25
f 71/127/28 70/125/26 22/126/26
f 72/256/6 71/127/28 24/128/28
f 73/132/29 72/129/6 26/131/6
f 74/257/30 73/132/29 28/133/29
f 75/137/31 74/134/30 30/136/30
f 76/139/33 75/137/31 32/138/31
f 77/258/2 76/139/33 34/140/33
f 69/144/34 77/141/2 36/143/2
f 79/146/55 80/150/59 81/147/56
f 82/149/58 83/152/61 80/150/59
f 82/149/58 84/154/63 85/151/60
f 86/153/62 87/156/65 85/151/60
f 88/155/64 89/158/67 87/156/65
f 90/157/66 91/160/69 89/158/67
f 92/159/68 93/162/71 91/160/69
f 92/159/68 94/163/72 95/161/70
f 94/163/72 96/165/74 97/164/73
f 78/148/57 81/147/56 97/164/73
f 98/166/25 99/187/34 81/167/56
f 100/169/26 98/166/25 80/168/59
f 85/171/60 101/190/28 100/169/26
f 102/172/6 101/192/28 85/173/60
f 89/175/67 103/194/29 102/172/6
f 104/176/30 103/196/29 89/177/67
f 93/179/71 105/181/31 104/176/30
f 95/180/70 106/199/33 105/181/31
f 107/182/2 106/201/33 95/183/70
f 81/185/56 99/203/34 107/182/2
f 98/166/25 108/259/81 109/186/75
f 110/188/76 108/259/81 98/166/25
f 111/189/77 110/188/76 100/169/26
f 102/172/6 112/260/86 111/191/77
f 113/193/78 112/260/86 102/172/6
f 104/176/30 114/197/79 113/195/78
f 105/181/31 115/261/89 114/197/79
f 116/198/80 115/261/89 105/181/31
f 107/182/2 117/262/92 116/200/80
f 109/202/75 117/262/92 107/182/2
f 108/204/81 118/222/93 119/205/82
f 120/207/83 118/222/93 108/204/81
f 121/209/84 120/207/83 110/208/76
f 122/211/85 121/209/84 111/210/77
f 113/213/78 123/215/87 122/211/85
f 114/214/79 124/224/94 123/215/87
f 125/216/88 124/224/94 114/214/79
f 126/218/90 125/216/88 115/217/89
f 127/220/91 126/218/90 116/219/80
f 109/206/75 119/205/82 127/220/91
f 78/248/34 129/247/34 130/263/25
f 79/227/25 130/226/25 131/228/26
f 82/229/26 131/228/26 132/230/28
f 84/231/28 132/230/28 133/264/6
f 86/234/6 133/233/6 134/235/29
f 88/236/29 134/235/29 135/265/30
f 90/239/30 135/238/30 136/240/31
f 92/241/31 136/240/31 137/242/33
f 94/243/33 137/242/33 138/266/2
f 96/246/2 138/245/2 129/247/34

# 242 faces
