# Wavefront Obj file
# 
# verts: 138 uv-s: 266
mtllib Door.mtl

g Door
#pivot 0.000000 0.000000 0.000000

v -3.371441 -1.366900 10.212769
v -3.306423 -1.444140 10.302261
v -3.159473 -1.444140 10.100006
v -3.264675 -1.366900 10.065825
v -3.159473 -1.444140 9.850006
v -3.264675 -1.366900 9.884186
v -3.306423 -1.444140 9.647751
v -3.371441 -1.366899 9.737244
v -3.544186 -1.444140 9.570497
v -3.544186 -1.366899 9.681122
v -3.781948 -1.444140 9.647751
v -3.716930 -1.366899 9.737244
v -3.928898 -1.444140 9.850006
v -3.823696 -1.366900 9.884186
v -3.928898 -1.444140 10.100006
v -3.823696 -1.366900 10.065825
v -3.781948 -1.444140 10.302261
v -3.716930 -1.366900 10.212769
v -3.544186 -1.444140 10.379518
v -3.544186 -1.366900 10.268889
v -3.250294 -1.649386 10.379518
v -3.068657 -1.649386 10.129518
v -3.068657 -1.649386 9.820497
v -3.250294 -1.649386 9.570497
v -3.544186 -1.649386 9.475006
v -3.838078 -1.649386 9.570497
v -4.019714 -1.649386 9.820497
v -4.019714 -1.649386 10.129518
v -3.838078 -1.649386 10.379518
v -3.544186 -1.649386 10.475006
v -3.306423 -1.854632 10.302261
v -3.159473 -1.854632 10.100006
v -3.159473 -1.854632 9.850006
v -3.306423 -1.854632 9.647751
v -3.544186 -1.854632 9.570497
v -3.781948 -1.854632 9.647751
v -3.928898 -1.854632 9.850006
v -3.928898 -1.854632 10.100006
v -3.781948 -1.854632 10.302261
v -3.544186 -1.854632 10.379518
v -3.453365 -1.981463 10.100006
v -3.397240 -1.981463 10.022751
v -3.397240 -1.981463 9.927261
v -3.453365 -1.981463 9.850006
v -3.544186 -1.981463 9.820497
v -3.635006 -1.981463 9.850006
v -3.691132 -1.981463 9.927261
v -3.691132 -1.981463 10.022751
v -3.635006 -1.981463 10.100006
v -3.544186 -1.981463 10.129518
v -3.544186 -1.998568 9.975006
v -3.264675 -0.936068 10.065825
v -3.371441 -0.936068 10.212769
v -3.264675 -0.936068 9.884186
v -3.371441 -0.936068 9.737244
v -3.544186 -0.936068 9.681122
v -3.716930 -0.936068 9.737244
v -3.823696 -0.936068 9.884186
v -3.823696 -0.936068 10.065825
v -3.716930 -0.936068 10.212769
v -3.544186 -0.936068 10.268889
v -3.939808 -1.100007 8.550003
v -3.939808 -1.100008 10.449997
v -3.939808 1.100019 10.449997
v -3.939808 1.100020 8.550003
v -3.074810 -1.100008 10.449997
v -3.074810 1.100019 10.449997
v -3.074810 1.100020 8.550003
v -3.074810 -1.100007 8.550003
v -3.371441 1.366896 10.212769
v -3.264675 1.366896 10.065825
v -3.159473 1.444136 10.100006
v -3.306423 1.444136 10.302261
v -3.264675 1.366896 9.884186
v -3.159473 1.444137 9.850006
v -3.371441 1.366896 9.737244
v -3.306423 1.444137 9.647751
v -3.544186 1.366896 9.681122
v -3.544186 1.444137 9.570497
v -3.716930 1.366896 9.737244
v -3.781948 1.444137 9.647751
v -3.823696 1.366896 9.884186
v -3.928898 1.444137 9.850006
v -3.823696 1.366896 10.065825
v -3.928898 1.444136 10.100006
v -3.716930 1.366896 10.212769
v -3.781948 1.444136 10.302261
v -3.544186 1.366896 10.268889
v -3.544186 1.444136 10.379518
v -3.068657 1.649382 10.129518
v -3.250294 1.649382 10.379518
v -3.068657 1.649382 9.820497
v -3.250294 1.649382 9.570497
v -3.544186 1.649382 9.475006
v -3.838078 1.649382 9.570497
v -4.019714 1.649382 9.820497
v -4.019714 1.649382 10.129518
v -3.838078 1.649382 10.379518
v -3.544186 1.649382 10.475006
v -3.159473 1.854628 10.100006
v -3.306423 1.854628 10.302261
v -3.159473 1.854628 9.850006
v -3.306423 1.854628 9.647751
v -3.544186 1.854628 9.570497
v -3.781948 1.854628 9.647751
v -3.928898 1.854628 9.850006
v -3.928898 1.854628 10.100006
v -3.781948 1.854628 10.302261
v -3.544186 1.854628 10.379518
v -3.397240 1.981459 10.022751
v -3.453365 1.981459 10.100006
v -3.397240 1.981459 9.927261
v -3.453365 1.981459 9.850006
v -3.544186 1.981459 9.820497
v -3.635006 1.981459 9.850006
v -3.691132 1.981459 9.927261
v -3.691132 1.981459 10.022751
v -3.635006 1.981459 10.100006
v -3.544186 1.981459 10.129518
v -3.544186 1.998564 9.975006
v -3.371441 0.936064 10.212769
v -3.264675 0.936064 10.065825
v -3.264675 0.936064 9.884186
v -3.371441 0.936064 9.737244
v -3.544186 0.936064 9.681122
v -3.716930 0.936064 9.737244
v -3.823696 0.936064 9.884186
v -3.823696 0.936064 10.065825
v -3.716930 0.936064 10.212769
v -3.544186 0.936064 10.268889
v -4.325001 -1.000003 19.000000
v -4.325001 0.999997 19.000000
v -4.325001 1.000000 0.000000
v -4.325001 -1.000000 0.000000
v 4.325001 0.999997 19.000000
v 4.325001 -1.000003 19.000000
v 4.325001 -1.000000 0.000000
v 4.325001 1.000000 0.000000
# 138 positions

vt 0.222471 0.875395
vt 0.212486 0.877158
vt 0.218692 0.872649
vt 0.213930 0.881601
vt 0.204815 0.877158
vt 0.194831 0.875395
vt 0.198610 0.872649
vt 0.196240 0.865354
vt 0.191568 0.865354
vt 0.198610 0.858059
vt 0.194831 0.855313
vt 0.204815 0.853550
vt 0.203372 0.849107
vt 0.212486 0.853550
vt 0.222471 0.855313
vt 0.218692 0.858059
vt 0.225734 0.865354
vt 0.221062 0.865354
vt 0.397747 0.845882
vt 0.389079 0.838587
vt 0.397747 0.837341
vt 0.389079 0.825537
vt 0.397747 0.826783
vt 0.397747 0.818242
vt 0.389079 0.814979
vt 0.410085 0.824080
vt 0.420126 0.832748
vt 0.420126 0.824080
vt 0.430166 0.824080
vt 0.432537 0.832748
vt 0.849107 0.848157
vt 0.857775 0.840862
vt 0.849107 0.839616
vt 0.857775 0.827812
vt 0.849107 0.829058
vt 0.849107 0.820517
vt 0.857775 0.817254
vt 0.007370 0.866443
vt 0.017411 0.857775
vt 0.017411 0.866443
vt 0.027452 0.866443
vt 0.029822 0.857775
vt 0.380412 0.845882
vt 0.380412 0.837341
vt 0.380412 0.826783
vt 0.380412 0.818242
vt 0.410085 0.841415
vt 0.420126 0.841415
vt 0.430166 0.841415
vt 0.866443 0.848157
vt 0.866443 0.839616
vt 0.866443 0.829058
vt 0.866443 0.820517
vt 0.007370 0.849107
vt 0.017411 0.849107
vt 0.027452 0.849107
vt 0.050932 0.849107
vt 0.050932 0.861519
vt 0.054195 0.859148
vt 0.058227 0.859148
vt 0.061490 0.849107
vt 0.061490 0.861519
vt 0.070031 0.855313
vt 0.062736 0.865354
vt 0.073294 0.865354
vt 0.070031 0.875395
vt 0.061490 0.869190
vt 0.061490 0.881601
vt 0.058227 0.871560
vt 0.054195 0.871560
vt 0.050932 0.881601
vt 0.050932 0.869190
vt 0.042391 0.875395
vt 0.049686 0.865354
vt 0.039128 0.865354
vt 0.042391 0.855313
vt 0.056211 0.865354
vt 0.100552 0.865354
vt 0.082358 0.871559
vt 0.082358 0.865354
vt 0.100552 0.857683
vt 0.082358 0.857683
vt 0.100552 0.851478
vt 0.082358 0.851478
vt 0.116955 0.849107
vt 0.109660 0.867302
vt 0.116955 0.867302
vt 0.124250 0.849107
vt 0.124250 0.867302
vt 0.136963 0.865354
vt 0.155157 0.871559
vt 0.155157 0.865354
vt 0.136963 0.857683
vt 0.155157 0.857683
vt 0.136963 0.851477
vt 0.155157 0.851477
vt 0.171561 0.867302
vt 0.164266 0.849107
vt 0.171561 0.849107
vt 0.178856 0.867302
vt 0.178856 0.849107
vt 0.750897 0.755823
vt 0.657989 0.836061
vt 0.750897 0.836061
vt 0.498849 0.848732
vt 0.462320 0.755823
vt 0.498849 0.755823
vt 0.646237 0.877015
vt 0.553329 0.796777
vt 0.646237 0.796777
vt 0.655714 0.881086
vt 0.735951 0.844557
vt 0.655714 0.844557
vt 0.840612 0.817254
vt 0.760374 0.853784
vt 0.760374 0.817254
vt 0.507824 0.848732
vt 0.544354 0.755823
vt 0.507824 0.755823
vt 0.432338 0.787569
vt 0.422353 0.789332
vt 0.426133 0.792078
vt 0.440008 0.787569
vt 0.430894 0.783126
vt 0.449993 0.789332
vt 0.441452 0.783126
vt 0.448584 0.799373
vt 0.446214 0.792078
vt 0.446214 0.806668
vt 0.453256 0.799373
vt 0.440008 0.811177
vt 0.449993 0.809413
vt 0.432338 0.811177
vt 0.441452 0.815619
vt 0.422353 0.809413
vt 0.430894 0.815619
vt 0.426133 0.806668
vt 0.419090 0.799373
vt 0.423763 0.799373
vt 0.796344 0.779431
vt 0.787676 0.786726
vt 0.787676 0.778185
vt 0.796344 0.766381
vt 0.787676 0.767627
vt 0.787676 0.759086
vt 0.392823 0.796344
vt 0.382782 0.805012
vt 0.392823 0.805012
vt 0.402864 0.805012
vt 0.769042 0.779431
vt 0.777709 0.786726
vt 0.777709 0.778185
vt 0.777709 0.767627
vt 0.777709 0.759086
vt 0.769042 0.766381
vt 0.565740 0.764491
vt 0.555698 0.755823
vt 0.565740 0.755823
vt 0.578151 0.764491
vt 0.575781 0.755823
vt 0.805012 0.786726
vt 0.796344 0.789989
vt 0.805012 0.767627
vt 0.805012 0.759086
vt 0.796344 0.755823
vt 0.382782 0.787676
vt 0.380412 0.796344
vt 0.402864 0.787676
vt 0.405234 0.796344
vt 0.760374 0.786726
vt 0.769042 0.789989
vt 0.760374 0.778185
vt 0.760374 0.759086
vt 0.769042 0.755823
vt 0.555698 0.773159
vt 0.553329 0.764491
vt 0.575781 0.773159
vt 0.609819 0.788317
vt 0.609819 0.775905
vt 0.618359 0.782111
vt 0.602524 0.778276
vt 0.599261 0.788317
vt 0.599261 0.775905
vt 0.590720 0.782111
vt 0.598015 0.772070
vt 0.587457 0.772070
vt 0.590720 0.762029
vt 0.599261 0.755823
vt 0.599261 0.768235
vt 0.606556 0.765864
vt 0.609819 0.755823
vt 0.609819 0.768235
vt 0.618359 0.762029
vt 0.611064 0.772070
vt 0.621622 0.772070
vt 0.606556 0.778276
vt 0.604540 0.772070
vt 0.602524 0.765864
vt 0.648880 0.778275
vt 0.630686 0.772070
vt 0.648880 0.772070
vt 0.630686 0.764399
vt 0.648880 0.764399
vt 0.630686 0.758193
vt 0.648880 0.758193
vt 0.380412 0.755823
vt 0.387707 0.774018
vt 0.387707 0.755823
vt 0.395002 0.774018
vt 0.395002 0.755823
vt 0.407714 0.778275
vt 0.425909 0.772070
vt 0.407714 0.772070
vt 0.425909 0.764399
vt 0.407714 0.764399
vt 0.425909 0.758193
vt 0.407714 0.758193
vt 0.435017 0.774018
vt 0.442312 0.755823
vt 0.442312 0.774018
vt 0.449607 0.755823
vt 0.449607 0.774018
vt 0.817254 0.005000
vt 0.901716 0.807381
vt 0.901716 0.005000
vt 0.005000 0.840284
vt 0.370295 0.755823
vt 0.370295 0.840284
vt 0.910538 0.807381
vt 0.995000 0.005000
vt 0.995000 0.807381
vt 0.005000 0.370295
vt 0.807381 0.005000
vt 0.005000 0.005000
vt 0.807381 0.380412
vt 0.005000 0.745706
vt 0.005000 0.380412
vt 0.203372 0.881601
vt 0.213930 0.849107
vt 0.389079 0.849145
vt 0.407714 0.832748
vt 0.857775 0.851420
vt 0.005000 0.857775
vt 0.183365 0.867302
vt 0.100552 0.849107
vt 0.128759 0.849107
vt 0.136963 0.849107
vt 0.657989 0.755823
vt 0.462320 0.848732
vt 0.553329 0.877015
vt 0.735951 0.881086
vt 0.840612 0.853784
vt 0.544354 0.848732
vt 0.805012 0.778185
vt 0.392823 0.787676
vt 0.760374 0.767627
vt 0.565740 0.773159
vt 0.454116 0.755823
vt 0.630686 0.755823
vt 0.399510 0.774018
vt 0.425909 0.755823
vt 0.817254 0.807381
vt 0.005000 0.755823
vt 0.910538 0.005000
vt 0.807381 0.370295
vt 0.807381 0.745706
# 266 texture coordinates

vn 0.485573 0.615378 0.620910
vn 0.524318 0.818327 0.235441
vn 0.285783 0.818340 0.498645
vn 0.749395 0.643286 0.156813
vn 0.544489 0.819897 -0.176920
vn 0.448929 0.645488 -0.617906
vn 0.336499 0.819899 -0.463179
vn 0.061888 0.818337 -0.571396
vn -0.038810 0.684986 -0.727522
vn -0.285787 0.818334 -0.498653
vn -0.485574 0.615376 -0.620911
vn -0.524320 0.818325 -0.235441
vn -0.749396 0.643285 -0.156813
vn -0.544487 0.819898 0.176920
vn -0.485573 0.615378 0.620909
vn -0.285784 0.818340 0.498645
vn -0.000000 0.710873 0.703321
vn -0.000000 0.819927 0.572469
vn 0.938721 0.017795 0.344220
vn 0.947291 -0.016541 -0.319948
vn 0.726392 0.645482 -0.236023
vn 0.587769 -0.000000 -0.809029
vn -0.000000 -0.000000 -1.000000
vn -0.587770 -0.000000 -0.809028
vn -0.942825 -0.034278 -0.331521
vn -0.942825 0.034277 0.331521
vn -0.726391 0.645483 0.236023
vn -0.587768 -0.000000 0.809029
vn -0.007751 0.011098 0.999908
vn 0.575696 -0.021024 0.817393
vn 0.421858 -0.662415 0.619065
vn 0.659641 -0.732461 0.168446
vn 0.622993 -0.745958 -0.235428
vn 0.421857 -0.662414 -0.619067
vn -0.000000 -0.698808 -0.715309
vn -0.421858 -0.662415 -0.619066
vn -0.600226 -0.775689 -0.195026
vn -0.687758 -0.698594 0.197373
vn -0.421859 -0.662416 0.619064
vn -0.000000 -0.698806 0.715311
vn 0.211821 -0.947138 0.240959
vn 0.271009 -0.958541 0.088050
vn 0.312999 -0.947138 -0.070436
vn 0.211819 -0.947138 -0.240961
vn -0.000000 -0.939539 -0.342441
vn -0.211819 -0.947138 -0.240962
vn -0.271009 -0.958541 -0.088052
vn -0.312999 -0.947138 0.070437
vn -0.211821 -0.947138 0.240960
vn -0.000000 -0.939540 0.342439
vn 0.000000 -1.000000 -0.000000
vn -1.000000 0.000000 0.000000
vn 1.000000 0.000000 0.000000
vn 0.000000 1.000000 0.000000
vn 0.524318 -0.818327 0.235441
vn 0.514097 -0.643292 0.567344
vn 0.285783 -0.818340 0.498645
vn 0.544490 -0.819896 -0.176922
vn 0.749395 -0.643286 0.156812
vn 0.448929 -0.645488 -0.617907
vn 0.726393 -0.645481 -0.236025
vn 0.061888 -0.818337 -0.571396
vn 0.336497 -0.819899 -0.463180
vn -0.285786 -0.818334 -0.498654
vn -0.038809 -0.684986 -0.727522
vn -0.524322 -0.818323 -0.235443
vn -0.485574 -0.615376 -0.620911
vn -0.544489 -0.819897 0.176919
vn -0.703920 -0.684971 -0.187911
vn -0.485573 -0.615378 0.620909
vn -0.775647 -0.602300 0.188699
vn -0.285784 -0.818340 0.498645
vn 0.042893 -0.673685 0.737773
vn -0.000000 -0.819927 0.572469
vn 0.421858 0.662415 0.619065
vn 0.687758 0.698594 -0.197372
vn 0.421857 0.662414 -0.619067
vn -0.421858 0.662415 -0.619066
vn -0.659642 0.732460 -0.168447
vn -0.421859 0.662416 0.619064
vn 0.600225 0.775690 0.195024
vn 0.211821 0.947138 0.240959
vn 0.312999 0.947138 -0.070436
vn 0.211819 0.947138 -0.240961
vn -0.000000 0.939539 -0.342441
vn -0.000000 0.698808 -0.715309
vn -0.211819 0.947138 -0.240962
vn -0.312999 0.947138 0.070437
vn -0.622993 0.745958 0.235429
vn -0.211821 0.947138 0.240960
vn -0.000000 0.939540 0.342439
vn -0.000000 0.698806 0.715311
vn 0.271009 0.958541 0.088050
vn -0.271009 0.958541 -0.088052
# 94 normals

usemtl default
f 2/1/1 4/2/2 1/3/3
f 3/4/4 6/5/5 4/2/2
f 6/5/5 7/6/6 8/7/7
f 7/6/6 10/8/8 8/7/7
f 9/9/9 12/10/10 10/8/8
f 11/11/11 14/12/12 12/10/10
f 13/13/13 16/14/14 14/12/12
f 16/14/14 17/15/15 18/16/16
f 18/16/16 19/17/17 20/18/18
f 19/17/17 1/3/3 20/18/18
f 2/19/1 22/20/19 3/21/4
f 3/21/4 23/22/20 5/23/21
f 7/24/6 23/22/20 24/25/22
f 7/26/6 25/27/23 9/28/9
f 11/29/11 25/27/23 26/30/24
f 11/31/11 27/32/25 13/33/13
f 13/33/13 28/34/26 15/35/27
f 17/36/15 28/34/26 29/37/28
f 17/38/15 30/39/29 19/40/17
f 2/41/1 30/39/29 21/42/30
f 22/20/19 31/43/31 32/44/32
f 23/22/20 32/44/32 33/45/33
f 23/22/20 34/46/34 24/25/22
f 25/27/23 34/47/34 35/48/35
f 25/27/23 36/49/36 26/30/24
f 27/32/25 36/50/36 37/51/37
f 27/32/25 38/52/38 28/34/26
f 28/34/26 39/53/39 29/37/28
f 30/39/29 39/54/39 40/55/40
f 30/39/29 31/56/31 21/42/30
f 32/57/32 41/58/41 42/59/42
f 32/57/32 43/60/43 33/61/33
f 33/61/33 44/62/44 34/63/34
f 34/63/34 45/64/45 35/65/35
f 36/66/36 45/64/45 46/67/46
f 37/68/37 46/67/46 47/69/47
f 37/68/37 48/70/48 38/71/38
f 38/71/38 49/72/49 39/73/39
f 39/73/39 50/74/50 40/75/40
f 31/76/31 50/74/50 41/58/41
f 41/58/41 51/77/51 42/59/42
f 42/59/42 51/77/51 43/60/43
f 43/60/43 51/77/51 44/62/44
f 44/62/44 51/77/51 45/64/45
f 45/64/45 51/77/51 46/67/46
f 46/67/46 51/77/51 47/69/47
f 47/69/47 51/77/51 48/70/48
f 48/70/48 51/77/51 49/72/49
f 49/72/49 51/77/51 50/74/50
f 50/74/50 51/77/51 41/58/41
f 52/78/19 1/79/30 4/80/19
f 54/81/20 4/80/19 6/82/20
f 55/83/22 6/82/20 8/84/22
f 56/85/23 8/86/22 10/87/23
f 57/88/24 10/87/23 12/89/24
f 58/90/25 12/91/24 14/92/25
f 59/93/26 14/92/25 16/94/26
f 60/95/28 16/94/26 18/96/28
f 61/97/29 18/98/28 20/99/29
f 53/100/30 20/99/29 1/101/30
f 63/102/52 65/103/52 62/104/52
f 67/105/29 63/106/29 66/107/29
f 67/108/53 69/109/53 68/110/53
f 63/111/51 69/112/51 66/113/51
f 64/114/54 68/115/54 65/116/54
f 69/117/23 65/118/23 68/119/23
f 71/120/55 73/121/56 70/122/57
f 74/123/58 72/124/59 71/120/55
f 74/123/58 77/125/60 75/126/61
f 78/127/62 77/125/60 76/128/63
f 80/129/64 79/130/65 78/127/62
f 82/131/66 81/132/67 80/129/64
f 84/133/68 83/134/69 82/131/66
f 84/133/68 87/135/70 85/136/71
f 86/137/72 89/138/73 87/135/70
f 70/122/57 89/138/73 88/139/74
f 90/140/19 73/141/56 72/142/59
f 92/143/20 72/142/59 75/144/61
f 77/145/60 92/143/20 75/144/61
f 94/146/23 77/147/60 79/148/65
f 81/149/67 94/146/23 79/148/65
f 96/150/25 81/151/67 83/152/69
f 85/153/71 96/150/25 83/152/69
f 87/154/70 97/155/26 85/153/71
f 99/156/29 87/157/70 89/158/73
f 91/159/30 89/158/73 73/160/56
f 90/140/19 101/161/75 91/162/30
f 102/163/76 90/140/19 92/143/20
f 103/164/77 92/143/20 93/165/22
f 94/146/23 103/166/77 93/167/22
f 105/168/78 94/146/23 95/169/24
f 96/150/25 105/170/78 95/171/24
f 97/155/26 106/172/79 96/150/25
f 108/173/80 97/155/26 98/174/28
f 99/156/29 108/175/80 98/176/28
f 101/177/75 99/156/29 91/159/30
f 100/178/81 111/179/82 101/180/75
f 112/181/83 100/178/81 102/182/76
f 113/183/84 102/182/76 103/184/77
f 114/185/85 103/184/77 104/186/86
f 105/187/78 114/185/85 104/186/86
f 106/188/79 115/189/87 105/187/78
f 117/190/88 106/188/79 107/191/89
f 118/192/90 107/191/89 108/193/80
f 119/194/91 108/193/80 109/195/92
f 101/180/75 119/194/91 109/195/92
f 111/179/82 110/196/93 120/197/54
f 110/196/93 112/181/83 120/197/54
f 112/181/83 113/183/84 120/197/54
f 113/183/84 114/185/85 120/197/54
f 114/185/85 115/189/87 120/197/54
f 115/189/87 116/198/94 120/197/54
f 116/198/94 117/190/88 120/197/54
f 117/190/88 118/192/90 120/197/54
f 118/192/90 119/194/91 120/197/54
f 119/194/91 111/179/82 120/197/54
f 70/199/30 122/200/19 71/201/19
f 71/201/19 123/202/20 74/203/20
f 74/203/20 124/204/22 76/205/22
f 76/206/22 125/207/23 78/208/23
f 78/208/23 126/209/24 80/210/24
f 80/211/24 127/212/25 82/213/25
f 82/213/25 128/214/26 84/215/26
f 84/215/26 129/216/28 86/217/28
f 86/218/28 130/219/29 88/220/29
f 88/220/29 121/221/30 70/222/30
f 132/223/52 134/224/52 131/225/52
f 132/226/29 136/227/29 135/228/29
f 136/229/53 138/230/53 135/231/53
f 131/232/51 137/233/51 136/234/51
f 132/235/54 138/236/54 133/237/54
f 2/1/1 3/4/4 4/2/2
f 3/4/4 5/238/21 6/5/5
f 6/5/5 5/238/21 7/6/6
f 7/6/6 9/9/9 10/8/8
f 9/9/9 11/11/11 12/10/10
f 11/11/11 13/13/13 14/12/12
f 13/13/13 15/239/27 16/14/14
f 16/14/14 15/239/27 17/15/15
f 18/16/16 17/15/15 19/17/17
f 19/17/17 2/1/1 1/3/3
f 2/19/1 21/240/30 22/20/19
f 3/21/4 22/20/19 23/22/20
f 7/24/6 5/23/21 23/22/20
f 7/26/6 24/241/22 25/27/23
f 11/29/11 9/28/9 25/27/23
f 11/31/11 26/242/24 27/32/25
f 13/33/13 27/32/25 28/34/26
f 17/36/15 15/35/27 28/34/26
f 17/38/15 29/243/28 30/39/29
f 2/41/1 19/40/17 30/39/29
f 22/20/19 21/240/30 31/43/31
f 23/22/20 22/20/19 32/44/32
f 23/22/20 33/45/33 34/46/34
f 25/27/23 24/241/22 34/47/34
f 25/27/23 35/48/35 36/49/36
f 27/32/25 26/242/24 36/50/36
f 27/32/25 37/51/37 38/52/38
f 28/34/26 38/52/38 39/53/39
f 30/39/29 29/243/28 39/54/39
f 30/39/29 40/55/40 31/56/31
f 32/57/32 31/76/31 41/58/41
f 32/57/32 42/59/42 43/60/43
f 33/61/33 43/60/43 44/62/44
f 34/63/34 44/62/44 45/64/45
f 36/66/36 35/65/35 45/64/45
f 37/68/37 36/66/36 46/67/46
f 37/68/37 47/69/47 48/70/48
f 38/71/38 48/70/48 49/72/49
f 39/73/39 49/72/49 50/74/50
f 31/76/31 40/75/40 50/74/50
f 52/244/19 53/100/30 1/101/30
f 54/81/20 52/78/19 4/80/19
f 55/83/22 54/81/20 6/82/20
f 56/245/23 55/83/22 8/84/22
f 57/88/24 56/85/23 10/87/23
f 58/246/25 57/88/24 12/89/24
f 59/93/26 58/90/25 14/92/25
f 60/95/28 59/93/26 16/94/26
f 61/247/29 60/95/28 18/96/28
f 53/100/30 61/97/29 20/99/29
f 63/102/52 64/248/52 65/103/52
f 67/105/29 64/249/29 63/106/29
f 67/108/53 66/250/53 69/109/53
f 63/111/51 62/251/51 69/112/51
f 64/114/54 67/252/54 68/115/54
f 69/117/23 62/253/23 65/118/23
f 71/120/55 72/124/59 73/121/56
f 74/123/58 75/126/61 72/124/59
f 74/123/58 76/128/63 77/125/60
f 78/127/62 79/130/65 77/125/60
f 80/129/64 81/132/67 79/130/65
f 82/131/66 83/134/69 81/132/67
f 84/133/68 85/136/71 83/134/69
f 84/133/68 86/137/72 87/135/70
f 86/137/72 88/139/74 89/138/73
f 70/122/57 73/121/56 89/138/73
f 90/140/19 91/162/30 73/141/56
f 92/143/20 90/140/19 72/142/59
f 77/145/60 93/165/22 92/143/20
f 94/146/23 93/167/22 77/147/60
f 81/149/67 95/169/24 94/146/23
f 96/150/25 95/171/24 81/151/67
f 85/153/71 97/155/26 96/150/25
f 87/154/70 98/174/28 97/155/26
f 99/156/29 98/176/28 87/157/70
f 91/159/30 99/156/29 89/158/73
f 90/140/19 100/254/81 101/161/75
f 102/163/76 100/254/81 90/140/19
f 103/164/77 102/163/76 92/143/20
f 94/146/23 104/255/86 103/166/77
f 105/168/78 104/255/86 94/146/23
f 96/150/25 106/172/79 105/170/78
f 97/155/26 107/256/89 106/172/79
f 108/173/80 107/256/89 97/155/26
f 99/156/29 109/257/92 108/175/80
f 101/177/75 109/257/92 99/156/29
f 100/178/81 110/196/93 111/179/82
f 112/181/83 110/196/93 100/178/81
f 113/183/84 112/181/83 102/182/76
f 114/185/85 113/183/84 103/184/77
f 105/187/78 115/189/87 114/185/85
f 106/188/79 116/198/94 115/189/87
f 117/190/88 116/198/94 106/188/79
f 118/192/90 117/190/88 107/191/89
f 119/194/91 118/192/90 108/193/80
f 101/180/75 111/179/82 119/194/91
f 70/222/30 121/221/30 122/258/19
f 71/201/19 122/200/19 123/202/20
f 74/203/20 123/202/20 124/204/22
f 76/205/22 124/204/22 125/259/23
f 78/208/23 125/207/23 126/209/24
f 80/210/24 126/209/24 127/260/25
f 82/213/25 127/212/25 128/214/26
f 84/215/26 128/214/26 129/216/28
f 86/217/28 129/216/28 130/261/29
f 88/220/29 130/219/29 121/221/30
f 132/223/52 133/262/52 134/224/52
f 132/226/29 131/263/29 136/227/29
f 136/229/53 137/264/53 138/230/53
f 131/232/51 134/265/51 137/233/51
f 132/235/54 135/266/54 138/236/54

# 242 faces
