# Blender v2.80 (sub 75) OBJ File: ''
# www.blender.org
o Door.004
v 2.133102 6.871443 10.212769
v 2.055862 6.806425 10.302261
v 2.055862 6.659475 10.100006
v 2.133102 6.764677 10.065826
v 2.055862 6.659474 9.850006
v 2.133102 6.764677 9.884186
v 2.055862 6.806425 9.647751
v 2.133102 6.871442 9.737244
v 2.055862 7.044188 9.570496
v 2.133102 7.044188 9.681122
v 2.055862 7.281950 9.647751
v 2.133102 7.216931 9.737244
v 2.055862 7.428899 9.850006
v 2.133102 7.323698 9.884186
v 2.055862 7.428900 10.100006
v 2.133102 7.323698 10.065826
v 2.055862 7.281950 10.302261
v 2.133102 7.216932 10.212769
v 2.055862 7.044188 10.379517
v 2.133102 7.044188 10.268890
v 1.850616 6.750296 10.379517
v 1.850616 6.568659 10.129517
v 1.850616 6.568659 9.820496
v 1.850616 6.750295 9.570496
v 1.850616 7.044188 9.475006
v 1.850616 7.338079 9.570496
v 1.850616 7.519716 9.820496
v 1.850616 7.519716 10.129517
v 1.850616 7.338080 10.379517
v 1.850616 7.044188 10.475006
v 1.645370 6.806425 10.302261
v 1.645370 6.659475 10.100006
v 1.645370 6.659475 9.850006
v 1.645370 6.806425 9.647751
v 1.645370 7.044188 9.570496
v 1.645370 7.281950 9.647751
v 1.645370 7.428900 9.850006
v 1.645370 7.428900 10.100006
v 1.645370 7.281950 10.302261
v 1.645370 7.044188 10.379517
v 1.518539 6.953367 10.100006
v 1.518539 6.897242 10.022751
v 1.518539 6.897242 9.927261
v 1.518539 6.953367 9.850006
v 1.518539 7.044188 9.820496
v 1.518539 7.135008 9.850006
v 1.518539 7.191134 9.927261
v 1.518539 7.191134 10.022751
v 1.518539 7.135008 10.100006
v 1.518539 7.044188 10.129517
v 1.501434 7.044188 9.975006
v 2.563934 6.764677 10.065826
v 2.563934 6.871443 10.212769
v 2.563934 6.764677 9.884186
v 2.563934 6.871442 9.737244
v 2.563934 7.044188 9.681122
v 2.563934 7.216931 9.737244
v 2.563934 7.323698 9.884186
v 2.563934 7.323698 10.065826
v 2.563934 7.216932 10.212769
v 2.563934 7.044188 10.268890
v 2.399994 7.439809 8.550003
v 2.399994 7.439810 10.449997
v 4.600021 7.439809 10.449997
v 4.600021 7.439809 8.550003
v 2.399994 6.574812 10.449997
v 4.600021 6.574811 10.449997
v 4.600021 6.574811 8.550003
v 2.399994 6.574811 8.550003
v 4.866899 6.871442 10.212769
v 4.866898 6.764677 10.065826
v 4.944139 6.659474 10.100006
v 4.944139 6.806425 10.302261
v 4.866898 6.764677 9.884186
v 4.944139 6.659474 9.850006
v 4.866899 6.871442 9.737244
v 4.944139 6.806425 9.647751
v 4.866899 7.044188 9.681122
v 4.944139 7.044188 9.570496
v 4.866899 7.216931 9.737244
v 4.944139 7.281950 9.647751
v 4.866899 7.323698 9.884186
v 4.944139 7.428899 9.850006
v 4.866899 7.323698 10.065826
v 4.944139 7.428899 10.100006
v 4.866899 7.216931 10.212769
v 4.944139 7.281950 10.302261
v 4.866899 7.044188 10.268890
v 4.944139 7.044188 10.379517
v 5.149384 6.568658 10.129517
v 5.149384 6.750295 10.379517
v 5.149384 6.568658 9.820496
v 5.149384 6.750295 9.570496
v 5.149384 7.044188 9.475006
v 5.149384 7.338079 9.570496
v 5.149384 7.519715 9.820496
v 5.149384 7.519715 10.129517
v 5.149384 7.338079 10.379517
v 5.149384 7.044188 10.475006
v 5.354630 6.659474 10.100006
v 5.354630 6.806425 10.302261
v 5.354630 6.659474 9.850006
v 5.354630 6.806425 9.647751
v 5.354630 7.044188 9.570496
v 5.354630 7.281950 9.647751
v 5.354630 7.428899 9.850006
v 5.354630 7.428899 10.100006
v 5.354630 7.281950 10.302261
v 5.354630 7.044188 10.379517
v 5.481462 6.897241 10.022751
v 5.481462 6.953367 10.100006
v 5.481462 6.897241 9.927261
v 5.481462 6.953367 9.850006
v 5.481462 7.044188 9.820496
v 5.481462 7.135007 9.850006
v 5.481462 7.191133 9.927261
v 5.481462 7.191133 10.022751
v 5.481462 7.135007 10.100006
v 5.481462 7.044188 10.129517
v 5.498567 7.044188 9.975006
v 4.436066 6.871442 10.212769
v 4.436066 6.764677 10.065826
v 4.436066 6.764677 9.884186
v 4.436066 6.871442 9.737244
v 4.436066 7.044188 9.681122
v 4.436066 7.216931 9.737244
v 4.436066 7.323698 9.884186
v 4.436066 7.323698 10.065826
v 4.436066 7.216931 10.212769
v 4.436066 7.044188 10.268890
v 2.500000 7.825004 18.999998
v 4.500000 7.825004 18.999998
v 4.500000 7.825001 -0.000001
v 2.500000 7.825001 -0.000001
v 4.500000 -0.824998 19.000000
v 2.500000 -0.824998 19.000000
v 2.500000 -0.825001 0.000001
v 4.500000 -0.825001 0.000001
vt 0.564229 0.406099
vt 0.568910 0.379581
vt 0.556936 0.396062
vt 0.580710 0.383415
vt 0.568910 0.359208
vt 0.564229 0.332690
vt 0.556936 0.342728
vt 0.537562 0.336433
vt 0.537562 0.324025
vt 0.518187 0.342728
vt 0.510894 0.332690
vt 0.506212 0.359208
vt 0.494413 0.355375
vt 0.506212 0.379581
vt 0.510894 0.406099
vt 0.518187 0.396062
vt 0.537562 0.402357
vt 0.537562 0.414764
vt 0.590896 0.386725
vt 0.590896 0.352065
vt 0.580710 0.355375
vt 0.570524 0.324025
vt 0.537562 0.313316
vt 0.504599 0.324025
vt 0.484227 0.352065
vt 0.494413 0.383415
vt 0.484227 0.386725
vt 0.504599 0.414764
vt 0.537562 0.425474
vt 0.570524 0.414764
vt 0.564229 0.406099
vt 0.580710 0.383415
vt 0.580710 0.355375
vt 0.564229 0.332690
vt 0.537562 0.324025
vt 0.510894 0.332690
vt 0.494413 0.355375
vt 0.494413 0.383415
vt 0.510894 0.406099
vt 0.537562 0.414764
vt 0.547748 0.383415
vt 0.554043 0.374750
vt 0.554043 0.364040
vt 0.547748 0.355375
vt 0.537562 0.352065
vt 0.527375 0.355375
vt 0.521080 0.364040
vt 0.521080 0.374750
vt 0.527375 0.383415
vt 0.537562 0.386725
vt 0.537562 0.369395
vt 0.515261 0.893093
vt 0.506552 0.857894
vt 0.515275 0.857897
vt 0.409086 0.893072
vt 0.394259 0.857868
vt 0.409094 0.857875
vt 0.417812 0.893072
vt 0.417812 0.857875
vt 0.431924 0.893072
vt 0.431924 0.857875
vt 0.446036 0.893072
vt 0.446036 0.857875
vt 0.454756 0.893072
vt 0.454762 0.857875
vt 0.469593 0.893076
vt 0.469605 0.857880
vt 0.478314 0.893079
vt 0.478327 0.857883
vt 0.492427 0.893085
vt 0.492440 0.857888
vt 0.506539 0.893090
vt 0.301279 0.837357
vt 0.267205 0.876812
vt 0.267205 0.837357
vt 0.316792 0.876812
vt 0.316792 0.837357
vt 0.350867 0.837358
vt 0.350866 0.876813
vt 0.316793 0.821845
vt 0.316791 0.892325
vt 0.350866 0.892326
vt 0.366378 0.876813
vt 0.568910 0.379581
vt 0.564229 0.406099
vt 0.556936 0.396062
vt 0.568910 0.359208
vt 0.580710 0.383415
vt 0.564229 0.332690
vt 0.580710 0.355375
vt 0.537562 0.336433
vt 0.556936 0.342728
vt 0.518187 0.342728
vt 0.537562 0.324025
vt 0.506212 0.359208
vt 0.510894 0.332690
vt 0.506212 0.379581
vt 0.494413 0.355375
vt 0.510894 0.406099
vt 0.494413 0.383415
vt 0.537562 0.402357
vt 0.518187 0.396062
vt 0.537562 0.414764
vt 0.590896 0.386725
vt 0.590896 0.352065
vt 0.537562 0.313316
vt 0.484227 0.352065
vt 0.484227 0.386725
vt 0.537562 0.425474
vt 0.564229 0.406099
vt 0.570524 0.414764
vt 0.580710 0.355375
vt 0.564229 0.332690
vt 0.570524 0.324025
vt 0.510894 0.332690
vt 0.504599 0.324025
vt 0.494413 0.383415
vt 0.510894 0.406099
vt 0.504599 0.414764
vt 0.580710 0.383415
vt 0.547748 0.383415
vt 0.554043 0.364040
vt 0.547748 0.355375
vt 0.537562 0.352065
vt 0.537562 0.324025
vt 0.494413 0.355375
vt 0.527375 0.355375
vt 0.521080 0.374750
vt 0.527375 0.383415
vt 0.537562 0.386725
vt 0.537562 0.414764
vt 0.554043 0.374750
vt 0.537562 0.369395
vt 0.521080 0.364040
vt 0.446036 0.893068
vt 0.454761 0.857871
vt 0.454755 0.893068
vt 0.469603 0.857877
vt 0.469589 0.893073
vt 0.478326 0.857881
vt 0.478311 0.893078
vt 0.492438 0.857887
vt 0.492423 0.893084
vt 0.506551 0.857893
vt 0.506535 0.893090
vt 0.515273 0.857897
vt 0.515258 0.893094
vt 0.394245 0.893065
vt 0.409091 0.857871
vt 0.409087 0.893068
vt 0.417811 0.857871
vt 0.417811 0.893068
vt 0.431923 0.857871
vt 0.431923 0.893068
vt 0.446036 0.857871
vt 0.534874 0.817198
vt 0.571970 0.464787
vt 0.571970 0.817198
vt 0.374434 0.854294
vt 0.374434 0.817198
vt 0.337338 0.817198
vt 0.374434 0.464787
vt 0.176898 0.817198
vt 0.337338 0.464787
vt 0.534874 0.464787
vt 0.394244 0.893066
vt 0.301279 0.876812
vt 0.350867 0.821845
vt 0.366380 0.837358
vt 0.394253 0.857868
vt 0.534874 0.854295
vt 0.176898 0.464787
vn 0.5505 -0.5320 0.6434
vn 0.8199 -0.5445 0.1769
vn 0.8199 -0.3365 0.4632
vn 0.5630 -0.7612 0.3217
vn 0.8199 -0.5445 -0.1769
vn 0.5384 -0.4953 -0.6817
vn 0.8199 -0.3365 -0.4632
vn 0.8199 -0.0000 -0.5725
vn 0.5635 -0.0702 -0.8231
vn 0.8199 0.3365 -0.4632
vn 0.5627 0.4265 -0.7081
vn 0.8199 0.5445 -0.1769
vn 0.5635 0.7612 -0.3211
vn 0.8199 0.5445 0.1769
vn 0.5384 0.4953 0.6817
vn 0.8199 0.3365 0.4632
vn 0.8199 0.0000 0.5725
vn 0.5635 0.0702 0.8231
vn 0.0000 -0.9511 0.3090
vn -0.0000 -0.9511 -0.3090
vn 0.6010 -0.7258 -0.3347
vn -0.0000 -0.5878 -0.8090
vn 0.0000 -0.0000 -1.0000
vn 0.0000 0.5878 -0.8090
vn 0.0000 0.9511 -0.3090
vn 0.6525 0.6899 0.3136
vn -0.0000 0.9511 0.3090
vn -0.0000 0.5878 0.8090
vn 0.0000 0.0000 1.0000
vn 0.0000 -0.5878 0.8090
vn -0.6255 -0.4586 0.6312
vn -0.6254 -0.7421 0.2411
vn -0.6260 -0.7417 -0.2410
vn -0.6255 -0.4586 -0.6312
vn -0.6264 0.0000 -0.7795
vn -0.6255 0.4586 -0.6312
vn -0.6256 0.7419 -0.2411
vn -0.6257 0.7419 0.2411
vn -0.6255 0.4586 0.6312
vn -0.6264 0.0000 0.7795
vn -0.9060 -0.2488 0.3424
vn -0.9064 -0.4018 0.1305
vn -0.9060 -0.4025 -0.1308
vn -0.9060 -0.2488 -0.3424
vn -0.9058 0.0000 -0.4237
vn -0.9060 0.2488 -0.3424
vn -0.9064 0.4018 -0.1305
vn -0.9060 0.4025 0.1308
vn -0.9060 0.2488 0.3424
vn -0.9058 0.0000 0.4237
vn -1.0000 0.0000 0.0000
vn 0.0000 1.0000 -0.0000
vn -0.0000 -1.0000 0.0000
vn 1.0000 0.0000 0.0000
vn -0.8199 -0.5445 0.1769
vn -0.5387 -0.4952 0.6816
vn -0.8199 -0.3365 0.4632
vn -0.8199 -0.5445 -0.1769
vn -0.6007 -0.7254 0.3362
vn -0.5384 -0.4953 -0.6817
vn -0.6010 -0.7839 -0.1559
vn -0.8199 -0.0000 -0.5725
vn -0.8199 -0.3365 -0.4632
vn -0.8199 0.3365 -0.4632
vn -0.6008 -0.0948 -0.7937
vn -0.8199 0.5445 -0.1769
vn -0.6005 0.3888 -0.6987
vn -0.8199 0.5445 0.1769
vn -0.6007 0.7254 -0.3362
vn -0.5384 0.4953 0.6817
vn -0.6010 0.7839 0.1559
vn -0.8199 0.0000 0.5725
vn -0.8199 0.3365 0.4632
vn -0.6008 0.0948 0.7937
vn 0.6255 -0.4586 0.6312
vn 0.6344 -0.7246 -0.2693
vn 0.6342 -0.4279 -0.6440
vn 0.6342 0.4802 -0.6060
vn 0.6344 0.7246 0.2693
vn 0.6342 0.4279 0.6440
vn 0.6444 -0.7126 0.2773
vn 0.9060 -0.2488 0.3424
vn 0.9228 -0.3253 -0.2064
vn 0.9228 -0.1418 -0.3582
vn 0.9227 0.0962 -0.3734
vn 0.6555 -0.0482 -0.7536
vn 0.6444 0.7126 -0.2773
vn 0.9526 0.2546 -0.1664
vn 0.9228 0.3253 0.2064
vn 0.9228 0.1418 0.3582
vn 0.9227 -0.0962 0.3734
vn 0.6555 0.0482 0.7536
vn 0.9316 -0.2971 0.2094
vn 0.9316 0.2971 -0.2094
s 1
f 2/1/1 4/2/2 1/3/3
f 3/4/4 6/5/5 4/2/2
f 6/5/5 7/6/6 8/7/7
f 7/6/6 10/8/8 8/7/7
f 9/9/9 12/10/10 10/8/8
f 11/11/11 14/12/12 12/10/10
f 13/13/13 16/14/14 14/12/12
f 16/14/14 17/15/15 18/16/16
f 17/15/15 20/17/17 18/16/16
f 19/18/18 1/3/3 20/17/17
f 2/1/1 22/19/19 3/4/4
f 3/4/4 23/20/20 5/21/21
f 7/6/6 23/20/20 24/22/22
f 7/6/6 25/23/23 9/9/9
f 11/11/11 25/23/23 26/24/24
f 11/11/11 27/25/25 13/13/13
f 15/26/26 27/25/25 28/27/27
f 17/15/15 28/27/27 29/28/28
f 17/15/15 30/29/29 19/18/18
f 2/1/1 30/29/29 21/30/30
f 22/19/19 31/31/31 32/32/32
f 23/20/20 32/32/32 33/33/33
f 23/20/20 34/34/34 24/22/22
f 25/23/23 34/34/34 35/35/35
f 25/23/23 36/36/36 26/24/24
f 27/25/25 36/36/36 37/37/37
f 27/25/25 38/38/38 28/27/27
f 28/27/27 39/39/39 29/28/28
f 30/29/29 39/39/39 40/40/40
f 30/29/29 31/31/31 21/30/30
f 32/32/32 41/41/41 42/42/42
f 32/32/32 43/43/43 33/33/33
f 33/33/33 44/44/44 34/34/34
f 34/34/34 45/45/45 35/35/35
f 36/36/36 45/45/45 46/46/46
f 37/37/37 46/46/46 47/47/47
f 37/37/37 48/48/48 38/38/38
f 38/38/38 49/49/49 39/39/39
f 39/39/39 50/50/50 40/40/40
f 31/31/31 50/50/50 41/41/41
f 41/41/41 51/51/51 42/42/42
f 42/42/42 51/51/51 43/43/43
f 43/43/43 51/51/51 44/44/44
f 44/44/44 51/51/51 45/45/45
f 45/45/45 51/51/51 46/46/46
f 46/46/46 51/51/51 47/47/47
f 47/47/47 51/51/51 48/48/48
f 48/48/48 51/51/51 49/49/49
f 49/49/49 51/51/51 50/50/50
f 50/50/50 51/51/51 41/41/41
f 52/52/19 1/53/30 4/54/19
f 54/55/20 4/56/19 6/57/20
f 55/58/22 6/57/20 8/59/22
f 56/60/23 8/59/22 10/61/23
f 57/62/24 10/61/23 12/63/24
f 58/64/25 12/63/24 14/65/25
f 59/66/27 14/65/25 16/67/27
f 60/68/28 16/67/27 18/69/28
f 61/70/29 18/69/28 20/71/29
f 53/72/30 20/71/29 1/53/30
f 63/73/52 65/74/52 62/75/52
f 67/76/29 63/73/29 66/77/29
f 67/76/53 69/78/53 68/79/53
f 63/80/51 69/78/51 66/77/51
f 64/81/54 68/79/54 65/82/54
f 69/78/23 65/83/23 68/79/23
f 71/84/55 73/85/56 70/86/57
f 74/87/58 72/88/59 71/84/55
f 74/87/58 77/89/60 75/90/61
f 78/91/62 77/89/60 76/92/63
f 80/93/64 79/94/65 78/91/62
f 82/95/66 81/96/67 80/93/64
f 84/97/68 83/98/69 82/95/66
f 84/97/68 87/99/70 85/100/71
f 88/101/72 87/99/70 86/102/73
f 70/86/57 89/103/74 88/101/72
f 90/104/19 73/85/56 72/88/59
f 92/105/20 72/88/59 75/90/61
f 77/89/60 92/105/20 75/90/61
f 94/106/23 77/89/60 79/94/65
f 81/96/67 94/106/23 79/94/65
f 96/107/25 81/96/67 83/98/69
f 97/108/27 83/98/69 85/100/71
f 87/99/70 97/108/27 85/100/71
f 99/109/29 87/99/70 89/103/74
f 73/85/56 99/109/29 89/103/74
f 90/104/19 101/110/75 91/111/30
f 102/112/76 90/104/19 92/105/20
f 103/113/77 92/105/20 93/114/22
f 94/106/23 103/113/77 93/114/22
f 105/115/78 94/106/23 95/116/24
f 96/107/25 105/115/78 95/116/24
f 107/117/79 96/107/25 97/108/27
f 108/118/80 97/108/27 98/119/28
f 99/109/29 108/118/80 98/119/28
f 101/110/75 99/109/29 91/111/30
f 100/120/81 111/121/82 101/110/75
f 112/122/83 100/120/81 102/112/76
f 113/123/84 102/112/76 103/113/77
f 114/124/85 103/113/77 104/125/86
f 105/115/78 114/124/85 104/125/86
f 106/126/87 115/127/88 105/115/78
f 117/128/89 106/126/87 107/117/79
f 118/129/90 107/117/79 108/118/80
f 119/130/91 108/118/80 109/131/92
f 101/110/75 119/130/91 109/131/92
f 111/121/82 110/132/93 120/133/54
f 110/132/93 112/122/83 120/133/54
f 112/122/83 113/123/84 120/133/54
f 113/123/84 114/124/85 120/133/54
f 114/124/85 115/127/88 120/133/54
f 115/127/88 116/134/94 120/133/54
f 116/134/94 117/128/89 120/133/54
f 117/128/89 118/129/90 120/133/54
f 118/129/90 119/130/91 120/133/54
f 119/130/91 111/121/82 120/133/54
f 70/135/30 122/136/19 71/137/19
f 71/137/19 123/138/20 74/139/20
f 74/139/20 124/140/22 76/141/22
f 76/141/22 125/142/23 78/143/23
f 78/143/23 126/144/24 80/145/24
f 80/145/24 127/146/25 82/147/25
f 82/148/25 128/149/27 84/150/27
f 84/150/27 129/151/28 86/152/28
f 86/152/28 130/153/29 88/154/29
f 88/154/29 121/155/30 70/135/30
f 132/156/52 134/157/52 131/158/52
f 132/156/29 136/159/29 135/160/29
f 136/161/53 138/162/53 135/160/53
f 131/163/51 137/164/51 136/161/51
f 132/156/54 138/162/54 133/165/54
f 2/1/1 3/4/4 4/2/2
f 3/4/4 5/21/21 6/5/5
f 6/5/5 5/21/21 7/6/6
f 7/6/6 9/9/9 10/8/8
f 9/9/9 11/11/11 12/10/10
f 11/11/11 13/13/13 14/12/12
f 13/13/13 15/26/26 16/14/14
f 16/14/14 15/26/26 17/15/15
f 17/15/15 19/18/18 20/17/17
f 19/18/18 2/1/1 1/3/3
f 2/1/1 21/30/30 22/19/19
f 3/4/4 22/19/19 23/20/20
f 7/6/6 5/21/21 23/20/20
f 7/6/6 24/22/22 25/23/23
f 11/11/11 9/9/9 25/23/23
f 11/11/11 26/24/24 27/25/25
f 15/26/26 13/13/13 27/25/25
f 17/15/15 15/26/26 28/27/27
f 17/15/15 29/28/28 30/29/29
f 2/1/1 19/18/18 30/29/29
f 22/19/19 21/30/30 31/31/31
f 23/20/20 22/19/19 32/32/32
f 23/20/20 33/33/33 34/34/34
f 25/23/23 24/22/22 34/34/34
f 25/23/23 35/35/35 36/36/36
f 27/25/25 26/24/24 36/36/36
f 27/25/25 37/37/37 38/38/38
f 28/27/27 38/38/38 39/39/39
f 30/29/29 29/28/28 39/39/39
f 30/29/29 40/40/40 31/31/31
f 32/32/32 31/31/31 41/41/41
f 32/32/32 42/42/42 43/43/43
f 33/33/33 43/43/43 44/44/44
f 34/34/34 44/44/44 45/45/45
f 36/36/36 35/35/35 45/45/45
f 37/37/37 36/36/36 46/46/46
f 37/37/37 47/47/47 48/48/48
f 38/38/38 48/48/48 49/49/49
f 39/39/39 49/49/49 50/50/50
f 31/31/31 40/40/40 50/50/50
f 52/52/19 53/72/30 1/53/30
f 54/55/20 52/166/19 4/56/19
f 55/58/22 54/55/20 6/57/20
f 56/60/23 55/58/22 8/59/22
f 57/62/24 56/60/23 10/61/23
f 58/64/25 57/62/24 12/63/24
f 59/66/27 58/64/25 14/65/25
f 60/68/28 59/66/27 16/67/27
f 61/70/29 60/68/28 18/69/28
f 53/72/30 61/70/29 20/71/29
f 63/73/52 64/167/52 65/74/52
f 67/76/29 64/167/29 63/73/29
f 67/76/53 66/77/53 69/78/53
f 63/80/51 62/168/51 69/78/51
f 64/81/54 67/76/54 68/79/54
f 69/78/23 62/169/23 65/83/23
f 71/84/55 72/88/59 73/85/56
f 74/87/58 75/90/61 72/88/59
f 74/87/58 76/92/63 77/89/60
f 78/91/62 79/94/65 77/89/60
f 80/93/64 81/96/67 79/94/65
f 82/95/66 83/98/69 81/96/67
f 84/97/68 85/100/71 83/98/69
f 84/97/68 86/102/73 87/99/70
f 88/101/72 89/103/74 87/99/70
f 70/86/57 73/85/56 89/103/74
f 90/104/19 91/111/30 73/85/56
f 92/105/20 90/104/19 72/88/59
f 77/89/60 93/114/22 92/105/20
f 94/106/23 93/114/22 77/89/60
f 81/96/67 95/116/24 94/106/23
f 96/107/25 95/116/24 81/96/67
f 97/108/27 96/107/25 83/98/69
f 87/99/70 98/119/28 97/108/27
f 99/109/29 98/119/28 87/99/70
f 73/85/56 91/111/30 99/109/29
f 90/104/19 100/120/81 101/110/75
f 102/112/76 100/120/81 90/104/19
f 103/113/77 102/112/76 92/105/20
f 94/106/23 104/125/86 103/113/77
f 105/115/78 104/125/86 94/106/23
f 96/107/25 106/126/87 105/115/78
f 107/117/79 106/126/87 96/107/25
f 108/118/80 107/117/79 97/108/27
f 99/109/29 109/131/92 108/118/80
f 101/110/75 109/131/92 99/109/29
f 100/120/81 110/132/93 111/121/82
f 112/122/83 110/132/93 100/120/81
f 113/123/84 112/122/83 102/112/76
f 114/124/85 113/123/84 103/113/77
f 105/115/78 115/127/88 114/124/85
f 106/126/87 116/134/94 115/127/88
f 117/128/89 116/134/94 106/126/87
f 118/129/90 117/128/89 107/117/79
f 119/130/91 118/129/90 108/118/80
f 101/110/75 111/121/82 119/130/91
f 70/135/30 121/155/30 122/136/19
f 71/137/19 122/136/19 123/138/20
f 74/139/20 123/138/20 124/140/22
f 76/141/22 124/140/22 125/142/23
f 78/143/23 125/142/23 126/144/24
f 80/145/24 126/144/24 127/146/25
f 82/148/25 127/170/25 128/149/27
f 84/150/27 128/149/27 129/151/28
f 86/152/28 129/151/28 130/153/29
f 88/154/29 130/153/29 121/155/30
f 132/156/52 133/165/52 134/157/52
f 132/156/29 131/171/29 136/159/29
f 136/161/53 137/164/53 138/162/53
f 131/163/51 134/172/51 137/164/51
f 132/156/54 135/160/54 138/162/54
