# Blender v2.80 (sub 75) OBJ File: ''
# www.blender.org
o Door.001
v -3.939811 -1.100006 8.550001
v -3.939812 -1.100006 10.449995
v -3.939812 1.100021 10.449995
v -3.939811 1.100021 8.550001
v -3.074814 -1.100006 10.449995
v -3.074814 1.100021 10.449995
v -3.074812 1.100021 8.550001
v -3.074812 -1.100006 8.550001
v -4.325007 -1.000000 19.000000
v -4.325007 1.000000 19.000000
v -4.325001 1.000000 -0.000002
v -4.325001 -1.000000 -0.000002
v 4.324995 1.000000 19.000000
v 4.324995 -1.000000 19.000000
v 4.325001 -1.000000 0.000002
v 4.325001 1.000000 0.000002
v -3.371445 -1.366898 10.212767
v -3.306427 -1.444138 10.302259
v -3.159477 -1.444138 10.100004
v -3.264679 -1.366898 10.065825
v -3.159477 -1.444138 9.850004
v -3.264679 -1.366898 9.884184
v -3.306427 -1.444138 9.647749
v -3.371445 -1.366898 9.737242
v -3.544190 -1.444138 9.570494
v -3.544190 -1.366898 9.681120
v -3.781952 -1.444138 9.647749
v -3.716934 -1.366898 9.737242
v -3.928902 -1.444138 9.850004
v -3.823700 -1.366898 9.884184
v -3.928902 -1.444138 10.100004
v -3.823700 -1.366898 10.065825
v -3.781952 -1.444138 10.302259
v -3.716934 -1.366898 10.212767
v -3.544190 -1.444138 10.379515
v -3.544190 -1.366898 10.268888
v -3.250298 -1.649384 10.379515
v -3.068661 -1.649384 10.129515
v -3.068661 -1.649384 9.820494
v -3.250298 -1.649384 9.570494
v -3.544189 -1.649384 9.475004
v -3.838082 -1.649384 9.570494
v -4.019716 -1.649384 9.820494
v -4.019716 -1.649384 10.129515
v -3.838082 -1.649384 10.379515
v -3.544190 -1.649384 10.475004
v -3.306427 -1.854630 10.302259
v -3.159477 -1.854630 10.100004
v -3.159477 -1.854630 9.850004
v -3.306427 -1.854630 9.647749
v -3.544190 -1.854630 9.570494
v -3.781952 -1.854630 9.647749
v -3.928902 -1.854630 9.850004
v -3.928902 -1.854630 10.100004
v -3.781952 -1.854630 10.302259
v -3.544190 -1.854630 10.379515
v -3.453369 -1.981461 10.100004
v -3.397244 -1.981461 10.022749
v -3.397244 -1.981461 9.927259
v -3.453369 -1.981461 9.850004
v -3.544190 -1.981461 9.820494
v -3.635010 -1.981461 9.850004
v -3.691136 -1.981461 9.927259
v -3.691136 -1.981461 10.022749
v -3.635010 -1.981461 10.100004
v -3.544190 -1.981461 10.129515
v -3.544190 -1.998566 9.975004
v -3.264679 -0.936066 10.065825
v -3.371445 -0.936066 10.212767
v -3.264679 -0.936066 9.884184
v -3.371445 -0.936066 9.737242
v -3.544190 -0.936066 9.681120
v -3.716934 -0.936066 9.737242
v -3.823700 -0.936066 9.884184
v -3.823700 -0.936066 10.065825
v -3.716934 -0.936066 10.212767
v -3.544190 -0.936066 10.268888
v -3.371445 1.366898 10.212767
v -3.264679 1.366898 10.065825
v -3.159477 1.444138 10.100004
v -3.306427 1.444138 10.302259
v -3.264679 1.366898 9.884184
v -3.159477 1.444138 9.850004
v -3.371445 1.366898 9.737242
v -3.306427 1.444138 9.647749
v -3.544190 1.366898 9.681120
v -3.544190 1.444138 9.570494
v -3.716934 1.366898 9.737242
v -3.781952 1.444138 9.647749
v -3.823700 1.366898 9.884184
v -3.928902 1.444138 9.850004
v -3.823700 1.366898 10.065825
v -3.928902 1.444138 10.100004
v -3.716934 1.366898 10.212767
v -3.781952 1.444138 10.302259
v -3.544190 1.366898 10.268888
v -3.544190 1.444138 10.379515
v -3.068661 1.649384 10.129515
v -3.250298 1.649384 10.379515
v -3.068661 1.649384 9.820494
v -3.250298 1.649384 9.570494
v -3.544189 1.649384 9.475004
v -3.838082 1.649384 9.570494
v -4.019716 1.649384 9.820494
v -4.019716 1.649384 10.129515
v -3.838082 1.649384 10.379515
v -3.544190 1.649384 10.475004
v -3.159477 1.854630 10.100004
v -3.306427 1.854630 10.302259
v -3.159477 1.854630 9.850004
v -3.306427 1.854630 9.647749
v -3.544190 1.854630 9.570494
v -3.781952 1.854630 9.647749
v -3.928902 1.854630 9.850004
v -3.928902 1.854630 10.100004
v -3.781952 1.854630 10.302259
v -3.544190 1.854630 10.379515
v -3.397244 1.981461 10.022749
v -3.453369 1.981461 10.100004
v -3.397244 1.981461 9.927259
v -3.453369 1.981461 9.850004
v -3.544190 1.981461 9.820494
v -3.635010 1.981461 9.850004
v -3.691136 1.981461 9.927259
v -3.691136 1.981461 10.022749
v -3.635010 1.981461 10.100004
v -3.544190 1.981461 10.129515
v -3.544190 1.998566 9.975004
v -3.371445 0.936066 10.212767
v -3.264679 0.936066 10.065825
v -3.264679 0.936066 9.884184
v -3.371445 0.936066 9.737242
v -3.544190 0.936066 9.681120
v -3.716934 0.936066 9.737242
v -3.823700 0.936066 9.884184
v -3.823700 0.936066 10.065825
v -3.716934 0.936066 10.212767
v -3.544190 0.936066 10.268888
vt 0.993416 0.413262
vt 0.664913 0.129560
vt 0.993416 0.129560
vt 0.664913 0.542422
vt 0.993416 0.542422
vt 0.993416 0.826125
vt 0.664913 0.826125
vt 0.240831 0.888707
vt 0.000775 0.997996
vt 0.000775 0.888707
vt 0.245316 0.888786
vt 0.485372 0.998075
vt 0.245316 0.998075
vt 0.993416 0.000400
vt 0.664913 0.000400
vt 0.654731 0.367001
vt 0.000030 0.298085
vt 0.654731 0.298085
vt 0.000033 0.885636
vt 0.655767 0.734021
vt 0.655767 0.885636
vt 0.654731 0.733978
vt 0.000030 0.665062
vt 0.654731 0.665062
vt 0.000030 0.000024
vt 0.654731 0.000024
vt 0.000030 0.367001
vt 0.664913 0.413262
vt 0.240831 0.997996
vt 0.485372 0.888786
vt 0.000033 0.734021
vt 0.000030 0.733978
vt 0.763978 0.902562
vt 0.769781 0.887765
vt 0.771511 0.901554
vt 0.761191 0.890418
vt 0.766322 0.873267
vt 0.749718 0.861513
vt 0.760071 0.857966
vt 0.742216 0.840897
vt 0.756285 0.840523
vt 0.753167 0.986447
vt 0.747700 0.966278
vt 0.757406 0.969981
vt 0.763836 0.955263
vt 0.754706 0.951941
vt 0.769155 0.941577
vt 0.763496 0.926763
vt 0.771046 0.928032
vt 0.764382 0.914692
vt 0.773260 0.914830
vt 0.751124 0.893660
vt 0.745780 0.882020
vt 0.756348 0.877139
vt 0.736808 0.869565
vt 0.719335 0.849008
vt 0.718089 0.977103
vt 0.735373 0.957955
vt 0.744231 0.946246
vt 0.750663 0.935268
vt 0.760008 0.938778
vt 0.753870 0.924800
vt 0.755101 0.914547
vt 0.754164 0.904246
vt 0.746481 0.905775
vt 0.743300 0.897182
vt 0.737463 0.888415
vt 0.726951 0.879252
vt 0.708023 0.870393
vt 0.726333 0.948441
vt 0.736544 0.939932
vt 0.742768 0.931663
vt 0.746211 0.923079
vt 0.747385 0.914431
vt 0.733970 0.909559
vt 0.731651 0.904930
vt 0.726945 0.901256
vt 0.720020 0.899233
vt 0.710467 0.900802
vt 0.711497 0.927637
vt 0.720525 0.929152
vt 0.727279 0.927275
vt 0.731540 0.923437
vt 0.733917 0.918969
vt 0.734577 0.914282
vt 0.721890 0.914466
vt 0.807583 0.882044
vt 0.804912 0.865159
vt 0.801322 0.848351
vt 0.797679 0.831731
vt 0.796528 0.979928
vt 0.800712 0.964326
vt 0.804689 0.948477
vt 0.807584 0.932211
vt 0.809167 0.915668
vt 0.809087 0.898846
vt 0.906438 0.887592
vt 0.912241 0.902389
vt 0.904708 0.901381
vt 0.909897 0.873094
vt 0.915028 0.890245
vt 0.926501 0.861340
vt 0.919871 0.876966
vt 0.916147 0.857794
vt 0.934003 0.840723
vt 0.923052 0.986274
vt 0.928519 0.966105
vt 0.936448 0.985500
vt 0.912383 0.955090
vt 0.918813 0.969809
vt 0.907064 0.941404
vt 0.921513 0.951768
vt 0.912723 0.926591
vt 0.916211 0.938605
vt 0.905172 0.927859
vt 0.911837 0.914519
vt 0.902959 0.914657
vt 0.925095 0.893487
vt 0.930439 0.881847
vt 0.956883 0.848835
vt 0.958130 0.976930
vt 0.931988 0.946073
vt 0.925556 0.935095
vt 0.921118 0.914374
vt 0.929738 0.905602
vt 0.922055 0.904073
vt 0.938756 0.888242
vt 0.949268 0.879079
vt 0.939411 0.869392
vt 0.949886 0.948268
vt 0.940845 0.957782
vt 0.939675 0.939759
vt 0.930008 0.922906
vt 0.922349 0.924627
vt 0.932919 0.897009
vt 0.942249 0.909387
vt 0.949274 0.901084
vt 0.956199 0.899060
vt 0.965752 0.900629
vt 0.968196 0.870220
vt 0.964722 0.927464
vt 0.968196 0.956074
vt 0.955694 0.928980
vt 0.944679 0.923265
vt 0.933451 0.931490
vt 0.942302 0.918796
vt 0.941642 0.914109
vt 0.928834 0.914258
vt 0.944568 0.904757
vt 0.954329 0.914293
vt 0.948940 0.927102
vt 0.868635 0.881871
vt 0.871307 0.864986
vt 0.874897 0.848178
vt 0.878539 0.831558
vt 0.919934 0.840350
vt 0.879691 0.979756
vt 0.875507 0.964153
vt 0.871530 0.948304
vt 0.868635 0.932037
vt 0.867051 0.915495
vt 0.867132 0.898673
vt 0.739771 0.985673
vt 0.708023 0.956247
vt 0.792318 0.996434
vt 0.883901 0.996261
vn -1.0000 0.0000 -0.0000
vn 0.0000 0.0000 1.0000
vn 1.0000 0.0000 0.0000
vn 0.0000 -1.0000 0.0000
vn 0.0000 1.0000 -0.0000
vn 0.0000 0.0000 -1.0000
vn 0.5319 0.5505 0.6434
vn 0.5445 0.8199 0.1769
vn 0.3365 0.8199 0.4632
vn 0.7612 0.5631 0.3218
vn 0.5445 0.8199 -0.1769
vn 0.4952 0.5387 -0.6816
vn 0.3365 0.8199 -0.4632
vn -0.0000 0.5399 -0.8417
vn -0.0000 0.8199 -0.5725
vn -0.4953 0.5385 -0.6817
vn -0.3365 0.8199 -0.4632
vn -0.5445 0.8199 -0.1769
vn -0.7612 0.5630 -0.3217
vn -0.5445 0.8199 0.1769
vn -0.4952 0.5387 0.6816
vn -0.3365 0.8199 0.4632
vn 0.0000 0.5394 0.8421
vn -0.0000 0.8199 0.5725
vn 0.9511 0.0000 0.3090
vn 0.9511 0.0000 -0.3090
vn 0.7258 0.6010 -0.3347
vn 0.5878 0.0000 -0.8090
vn -0.5878 0.0000 -0.8090
vn -0.9511 0.0000 -0.3090
vn -0.9511 -0.0000 0.3090
vn -0.7258 0.6010 0.3347
vn -0.5878 0.0000 0.8090
vn 0.5878 0.0000 0.8090
vn 0.4587 -0.6254 0.6313
vn 0.7421 -0.6254 0.2411
vn 0.7417 -0.6260 -0.2410
vn 0.4586 -0.6254 -0.6313
vn -0.0000 -0.6264 -0.7795
vn -0.4586 -0.6254 -0.6313
vn -0.7419 -0.6256 -0.2411
vn -0.7419 -0.6257 0.2411
vn -0.4586 -0.6254 0.6313
vn -0.0000 -0.6264 0.7795
vn 0.2488 -0.9060 0.3425
vn 0.4018 -0.9064 0.1305
vn 0.4025 -0.9060 -0.1308
vn 0.2488 -0.9060 -0.3424
vn -0.0000 -0.9058 -0.4237
vn -0.2488 -0.9060 -0.3424
vn -0.4018 -0.9064 -0.1305
vn -0.4025 -0.9060 0.1308
vn -0.2488 -0.9060 0.3424
vn -0.0000 -0.9058 0.4237
vn 0.5445 -0.8199 0.1769
vn 0.4952 -0.5387 0.6816
vn 0.3365 -0.8199 0.4632
vn 0.5445 -0.8199 -0.1769
vn 0.7254 -0.6007 0.3362
vn 0.4952 -0.5387 -0.6816
vn 0.7839 -0.6010 -0.1559
vn 0.3365 -0.8199 -0.4632
vn 0.0000 -0.5399 -0.8417
vn -0.0000 -0.8199 -0.5725
vn -0.4953 -0.5385 -0.6817
vn -0.5445 -0.8199 -0.1769
vn -0.3365 -0.8199 -0.4632
vn -0.5445 -0.8199 0.1769
vn -0.7256 -0.6008 -0.3355
vn -0.4952 -0.5387 0.6816
vn -0.7843 -0.6007 0.1549
vn -0.3365 -0.8199 0.4632
vn -0.0000 -0.5394 0.8421
vn -0.0000 -0.8199 0.5725
vn 0.4586 0.6254 0.6313
vn 0.7246 0.6344 -0.2693
vn 0.4279 0.6341 -0.6440
vn -0.4803 0.6342 -0.6059
vn -0.7187 0.6712 -0.1815
vn -0.4279 0.6341 0.6440
vn 0.7126 0.6444 0.2774
vn 0.2488 0.9060 0.3424
vn 0.3253 0.9228 -0.2064
vn 0.1418 0.9228 -0.3582
vn -0.0962 0.9227 -0.3734
vn 0.0483 0.6555 -0.7536
vn -0.2547 0.9526 -0.1663
vn -0.3253 0.9228 0.2064
vn -0.7319 0.6554 0.1865
vn -0.1418 0.9228 0.3582
vn 0.0962 0.9227 0.3734
vn -0.0483 0.6555 0.7536
vn 0.2971 0.9316 0.2094
vn -0.2971 0.9316 -0.2094
s off
f 2/1/1 4/2/1 1/3/1
f 6/4/2 2/1/2 5/5/2
f 6/4/3 8/6/3 7/7/3
f 5/8/4 1/9/4 8/10/4
f 4/11/5 6/12/5 7/13/5
f 8/14/6 4/2/6 7/15/6
f 10/16/1 12/17/1 9/18/1
f 10/19/2 14/20/2 13/21/2
f 14/22/3 16/23/3 13/24/3
f 9/18/4 15/25/4 14/26/4
f 11/27/5 13/24/5 16/23/5
f 2/1/1 3/28/1 4/2/1
f 6/4/2 3/28/2 2/1/2
f 6/4/3 5/5/3 8/6/3
f 5/8/4 2/29/4 1/9/4
f 4/11/5 3/30/5 6/12/5
f 8/14/6 1/3/6 4/2/6
f 10/16/1 11/27/1 12/17/1
f 10/19/2 9/31/2 14/20/2
f 14/22/3 15/32/3 16/23/3
f 9/18/4 12/17/4 15/25/4
f 11/27/5 10/16/5 13/24/5
s 1
f 18/33/7 20/34/8 17/35/9
f 19/36/10 22/37/11 20/34/8
f 22/37/11 23/38/12 24/39/13
f 24/39/13 25/40/14 26/41/15
f 26/42/15 27/43/16 28/44/17
f 27/43/16 30/45/18 28/44/17
f 29/46/19 32/47/20 30/45/18
f 32/47/20 33/48/21 34/49/22
f 34/49/22 35/50/23 36/51/24
f 35/50/23 17/35/9 36/51/24
f 18/33/7 38/52/25 19/36/10
f 19/36/10 39/53/26 21/54/27
f 23/38/12 39/53/26 40/55/28
f 23/38/12 41/56/6 25/40/14
f 27/43/16 41/57/6 42/58/29
f 27/43/16 43/59/30 29/46/19
f 29/46/19 44/60/31 31/61/32
f 33/48/21 44/60/31 45/62/33
f 33/48/21 46/63/2 35/50/23
f 18/33/7 46/63/2 37/64/34
f 38/52/25 47/65/35 48/66/36
f 39/53/26 48/66/36 49/67/37
f 39/53/26 50/68/38 40/55/28
f 41/56/6 50/68/38 51/69/39
f 41/57/6 52/70/40 42/58/29
f 43/59/30 52/70/40 53/71/41
f 43/59/30 54/72/42 44/60/31
f 44/60/31 55/73/43 45/62/33
f 46/63/2 55/73/43 56/74/44
f 46/63/2 47/65/35 37/64/34
f 48/66/36 57/75/45 58/76/46
f 48/66/36 59/77/47 49/67/37
f 49/67/37 60/78/48 50/68/38
f 50/68/38 61/79/49 51/69/39
f 52/70/40 61/80/49 62/81/50
f 53/71/41 62/81/50 63/82/51
f 53/71/41 64/83/52 54/72/42
f 54/72/42 65/84/53 55/73/43
f 55/73/43 66/85/54 56/74/44
f 47/65/35 66/85/54 57/75/45
f 57/75/45 67/86/4 58/76/46
f 58/76/46 67/86/4 59/77/47
f 59/77/47 67/86/4 60/78/48
f 60/78/48 67/86/4 61/79/49
f 61/80/49 67/86/4 62/81/50
f 62/81/50 67/86/4 63/82/51
f 63/82/51 67/86/4 64/83/52
f 64/83/52 67/86/4 65/84/53
f 65/84/53 67/86/4 66/85/54
f 66/85/54 67/86/4 57/75/45
f 68/87/25 17/35/34 20/34/25
f 70/88/26 20/34/25 22/37/26
f 71/89/28 22/37/26 24/39/28
f 72/90/6 24/39/28 26/41/6
f 73/91/29 26/42/6 28/44/29
f 74/92/30 28/44/29 30/45/30
f 75/93/31 30/45/30 32/47/31
f 76/94/33 32/47/31 34/49/33
f 77/95/2 34/49/33 36/51/2
f 69/96/34 36/51/2 17/35/34
f 79/97/55 81/98/56 78/99/57
f 82/100/58 80/101/59 79/97/55
f 82/100/58 85/102/60 83/103/61
f 84/104/62 87/105/63 85/102/60
f 86/106/64 89/107/65 87/108/63
f 90/109/66 89/107/65 88/110/67
f 92/111/68 91/112/69 90/109/66
f 92/111/68 95/113/70 93/114/71
f 94/115/72 97/116/73 95/113/70
f 78/99/57 97/116/73 96/117/74
f 98/118/25 81/98/56 80/101/59
f 100/119/26 80/101/59 83/103/61
f 85/102/60 100/119/26 83/103/61
f 102/120/6 85/102/60 87/105/63
f 89/107/65 102/121/6 87/108/63
f 104/122/30 89/107/65 91/112/69
f 93/114/71 104/122/30 91/112/69
f 95/113/70 105/123/31 93/114/71
f 107/124/2 95/113/70 97/116/73
f 81/98/56 107/124/2 97/116/73
f 98/118/25 109/125/75 99/126/34
f 110/127/76 98/118/25 100/119/26
f 111/128/77 100/119/26 101/129/28
f 102/120/6 111/128/77 101/129/28
f 113/130/78 102/121/6 103/131/29
f 104/122/30 113/130/78 103/131/29
f 105/123/31 114/132/79 104/122/30
f 116/133/80 105/123/31 106/134/33
f 107/124/2 116/133/80 106/134/33
f 109/125/75 107/124/2 99/126/34
f 108/135/81 119/136/82 109/125/75
f 120/137/83 108/135/81 110/127/76
f 121/138/84 110/127/76 111/128/77
f 122/139/85 111/128/77 112/140/86
f 113/130/78 122/141/85 112/142/86
f 114/132/79 123/143/87 113/130/78
f 125/144/88 114/132/79 115/145/89
f 126/146/90 115/145/89 116/133/80
f 127/147/91 116/133/80 117/148/92
f 109/125/75 127/147/91 117/148/92
f 119/136/82 118/149/93 128/150/5
f 118/149/93 120/137/83 128/150/5
f 120/137/83 121/138/84 128/150/5
f 121/138/84 122/139/85 128/150/5
f 122/141/85 123/143/87 128/150/5
f 123/143/87 124/151/94 128/150/5
f 124/151/94 125/144/88 128/150/5
f 125/144/88 126/146/90 128/150/5
f 126/146/90 127/147/91 128/150/5
f 127/147/91 119/136/82 128/150/5
f 78/99/34 130/152/25 79/97/25
f 79/97/25 131/153/26 82/100/26
f 82/100/26 132/154/28 84/104/28
f 84/104/28 133/155/6 86/156/6
f 86/106/6 134/157/29 88/110/29
f 88/110/29 135/158/30 90/109/30
f 90/109/30 136/159/31 92/111/31
f 92/111/31 137/160/33 94/115/33
f 94/115/33 138/161/2 96/117/2
f 96/117/2 129/162/34 78/99/34
f 18/33/7 19/36/10 20/34/8
f 19/36/10 21/54/27 22/37/11
f 22/37/11 21/54/27 23/38/12
f 24/39/13 23/38/12 25/40/14
f 26/42/15 25/163/14 27/43/16
f 27/43/16 29/46/19 30/45/18
f 29/46/19 31/61/32 32/47/20
f 32/47/20 31/61/32 33/48/21
f 34/49/22 33/48/21 35/50/23
f 35/50/23 18/33/7 17/35/9
f 18/33/7 37/64/34 38/52/25
f 19/36/10 38/52/25 39/53/26
f 23/38/12 21/54/27 39/53/26
f 23/38/12 40/55/28 41/56/6
f 27/43/16 25/163/14 41/57/6
f 27/43/16 42/58/29 43/59/30
f 29/46/19 43/59/30 44/60/31
f 33/48/21 31/61/32 44/60/31
f 33/48/21 45/62/33 46/63/2
f 18/33/7 35/50/23 46/63/2
f 38/52/25 37/64/34 47/65/35
f 39/53/26 38/52/25 48/66/36
f 39/53/26 49/67/37 50/68/38
f 41/56/6 40/55/28 50/68/38
f 41/57/6 51/164/39 52/70/40
f 43/59/30 42/58/29 52/70/40
f 43/59/30 53/71/41 54/72/42
f 44/60/31 54/72/42 55/73/43
f 46/63/2 45/62/33 55/73/43
f 46/63/2 56/74/44 47/65/35
f 48/66/36 47/65/35 57/75/45
f 48/66/36 58/76/46 59/77/47
f 49/67/37 59/77/47 60/78/48
f 50/68/38 60/78/48 61/79/49
f 52/70/40 51/164/39 61/80/49
f 53/71/41 52/70/40 62/81/50
f 53/71/41 63/82/51 64/83/52
f 54/72/42 64/83/52 65/84/53
f 55/73/43 65/84/53 66/85/54
f 47/65/35 56/74/44 66/85/54
f 68/87/25 69/96/34 17/35/34
f 70/88/26 68/87/25 20/34/25
f 71/89/28 70/88/26 22/37/26
f 72/90/6 71/89/28 24/39/28
f 73/91/29 72/165/6 26/42/6
f 74/92/30 73/91/29 28/44/29
f 75/93/31 74/92/30 30/45/30
f 76/94/33 75/93/31 32/47/31
f 77/95/2 76/94/33 34/49/33
f 69/96/34 77/95/2 36/51/2
f 79/97/55 80/101/59 81/98/56
f 82/100/58 83/103/61 80/101/59
f 82/100/58 84/104/62 85/102/60
f 84/104/62 86/156/64 87/105/63
f 86/106/64 88/110/67 89/107/65
f 90/109/66 91/112/69 89/107/65
f 92/111/68 93/114/71 91/112/69
f 92/111/68 94/115/72 95/113/70
f 94/115/72 96/117/74 97/116/73
f 78/99/57 81/98/56 97/116/73
f 98/118/25 99/126/34 81/98/56
f 100/119/26 98/118/25 80/101/59
f 85/102/60 101/129/28 100/119/26
f 102/120/6 101/129/28 85/102/60
f 89/107/65 103/131/29 102/121/6
f 104/122/30 103/131/29 89/107/65
f 93/114/71 105/123/31 104/122/30
f 95/113/70 106/134/33 105/123/31
f 107/124/2 106/134/33 95/113/70
f 81/98/56 99/126/34 107/124/2
f 98/118/25 108/135/81 109/125/75
f 110/127/76 108/135/81 98/118/25
f 111/128/77 110/127/76 100/119/26
f 102/120/6 112/140/86 111/128/77
f 113/130/78 112/142/86 102/121/6
f 104/122/30 114/132/79 113/130/78
f 105/123/31 115/145/89 114/132/79
f 116/133/80 115/145/89 105/123/31
f 107/124/2 117/148/92 116/133/80
f 109/125/75 117/148/92 107/124/2
f 108/135/81 118/149/93 119/136/82
f 120/137/83 118/149/93 108/135/81
f 121/138/84 120/137/83 110/127/76
f 122/139/85 121/138/84 111/128/77
f 113/130/78 123/143/87 122/141/85
f 114/132/79 124/151/94 123/143/87
f 125/144/88 124/151/94 114/132/79
f 126/146/90 125/144/88 115/145/89
f 127/147/91 126/146/90 116/133/80
f 109/125/75 119/136/82 127/147/91
f 78/99/34 129/162/34 130/152/25
f 79/97/25 130/152/25 131/153/26
f 82/100/26 131/153/26 132/154/28
f 84/104/28 132/154/28 133/155/6
f 86/106/6 133/166/6 134/157/29
f 88/110/29 134/157/29 135/158/30
f 90/109/30 135/158/30 136/159/31
f 92/111/31 136/159/31 137/160/33
f 94/115/33 137/160/33 138/161/2
f 96/117/2 138/161/2 129/162/34
