# Blender v2.80 (sub 75) OBJ File: ''
# www.blender.org
o Door.001
v -0.747538 6.629183 8.550001
v -0.747539 6.629185 10.449995
v 1.157741 7.729198 10.449995
v 1.157742 7.729197 8.550001
v -0.315040 5.880075 10.449995
v 1.590240 6.980088 10.449995
v 1.590240 6.980087 8.550001
v -0.315039 5.880074 8.550001
v -0.853528 7.012777 18.999998
v 0.878522 8.012776 18.999998
v 0.878525 8.012772 -0.000002
v -0.853526 7.012772 -0.000002
v 5.203523 0.521655 19.000000
v 3.471472 -0.478345 19.000000
v 3.471475 -0.478350 0.000002
v 5.203526 0.521650 0.000002
v -0.694490 6.003519 10.212767
v -0.728874 5.908592 10.302259
v -0.655399 5.781329 10.100004
v -0.641108 5.911057 10.065825
v -0.655399 5.781329 9.850004
v -0.641108 5.911057 9.884184
v -0.728874 5.908591 9.647749
v -0.694490 6.003519 9.737242
v -0.847755 6.114500 9.570494
v -0.780863 6.153120 9.681120
v -0.966636 6.320409 9.647749
v -0.867235 6.302722 9.737242
v -1.040111 6.447671 9.850004
v -0.920618 6.395184 9.884184
v -1.040111 6.447671 10.100004
v -0.920618 6.395184 10.065825
v -0.966636 6.320409 10.302259
v -0.867235 6.302722 10.212767
v -0.847755 6.114500 10.379515
v -0.780863 6.153120 10.268888
v -0.878557 5.757360 10.379515
v -0.787738 5.600057 10.129515
v -0.787738 5.600057 9.820494
v -0.878557 5.757360 9.570494
v -1.025503 6.011877 9.475004
v -1.172449 6.266395 9.570494
v -1.263266 6.423696 9.820494
v -1.263266 6.423696 10.129515
v -1.172449 6.266395 10.379515
v -1.025503 6.011877 10.475004
v -1.084370 5.703346 10.302259
v -1.010895 5.576083 10.100004
v -1.010895 5.576083 9.850004
v -1.084370 5.703345 9.647749
v -1.203251 5.909254 9.570494
v -1.322133 6.115163 9.647749
v -1.395607 6.242425 9.850004
v -1.395607 6.242425 10.100004
v -1.322133 6.115163 10.302259
v -1.203251 5.909254 10.379515
v -1.267680 5.767186 10.100004
v -1.239617 5.718580 10.022749
v -1.239617 5.718579 9.927259
v -1.267680 5.767185 9.850004
v -1.313090 5.845839 9.820494
v -1.358500 5.924491 9.850004
v -1.386563 5.973098 9.927259
v -1.386563 5.973098 10.022749
v -1.358500 5.924491 10.100004
v -1.313090 5.845839 10.129515
v -1.327904 5.837286 9.975004
v -0.267996 6.126472 10.065825
v -0.321379 6.218935 10.212767
v -0.267996 6.126472 9.884184
v -0.321379 6.218935 9.737242
v -0.407752 6.368536 9.681120
v -0.494124 6.518137 9.737242
v -0.547507 6.610600 9.884184
v -0.547507 6.610600 10.065825
v -0.494124 6.518137 10.212767
v -0.407752 6.368536 10.268888
v 1.673046 7.370416 10.212767
v 1.726429 7.277954 10.065825
v 1.845922 7.225467 10.100004
v 1.772447 7.352729 10.302259
v 1.726429 7.277954 9.884184
v 1.845922 7.225467 9.850004
v 1.673046 7.370416 9.737242
v 1.772447 7.352729 9.647749
v 1.586674 7.520018 9.681120
v 1.653566 7.558638 9.570494
v 1.500302 7.669619 9.737242
v 1.534685 7.764546 9.647749
v 1.446919 7.762081 9.884184
v 1.461210 7.891809 9.850004
v 1.446919 7.762081 10.065825
v 1.461210 7.891809 10.100004
v 1.500302 7.669619 10.212767
v 1.534685 7.764546 10.302259
v 1.586674 7.520018 10.268888
v 1.653566 7.558638 10.379515
v 2.069078 7.249441 10.129515
v 1.978260 7.406743 10.379515
v 2.069078 7.249441 9.820494
v 1.978260 7.406743 9.570494
v 1.831314 7.661261 9.475004
v 1.684368 7.915779 9.570494
v 1.593551 8.073079 9.820494
v 1.593551 8.073079 10.129515
v 1.684368 7.915779 10.379515
v 1.831314 7.661261 10.475004
v 2.201418 7.430713 10.100004
v 2.127944 7.557975 10.302259
v 2.201418 7.430713 9.850004
v 2.127944 7.557975 9.647749
v 2.009062 7.763884 9.570494
v 1.890181 7.969792 9.647749
v 1.816706 8.097054 9.850004
v 1.816706 8.097054 10.100004
v 1.890181 7.969792 10.302259
v 2.009062 7.763884 10.379515
v 2.192374 7.700040 10.022749
v 2.164311 7.748646 10.100004
v 2.192374 7.700040 9.927259
v 2.164311 7.748646 9.850004
v 2.118901 7.827299 9.820494
v 2.073491 7.905951 9.850004
v 2.045428 7.954558 9.927259
v 2.045428 7.954558 10.022749
v 2.073491 7.905951 10.100004
v 2.118901 7.827299 10.129515
v 2.133714 7.835852 9.975004
v 1.299935 7.155000 10.212767
v 1.353318 7.062538 10.065825
v 1.353318 7.062538 9.884184
v 1.299935 7.155000 9.737242
v 1.213562 7.304602 9.681120
v 1.127190 7.454203 9.737242
v 1.073807 7.546665 9.884184
v 1.073807 7.546665 10.065825
v 1.127190 7.454203 10.212767
v 1.213562 7.304602 10.268888
vt 0.993416 0.413262
vt 0.664913 0.129560
vt 0.993416 0.129560
vt 0.664913 0.542422
vt 0.993416 0.542422
vt 0.993416 0.826125
vt 0.664913 0.826125
vt 0.240831 0.888707
vt 0.000775 0.997996
vt 0.000775 0.888707
vt 0.245316 0.888786
vt 0.485372 0.998075
vt 0.245316 0.998075
vt 0.993416 0.000400
vt 0.664913 0.000400
vt 0.654731 0.367001
vt 0.000030 0.298085
vt 0.654731 0.298085
vt 0.000033 0.885636
vt 0.655767 0.734021
vt 0.655767 0.885636
vt 0.654731 0.733978
vt 0.000030 0.665062
vt 0.654731 0.665062
vt 0.000030 0.000024
vt 0.654731 0.000024
vt 0.000030 0.367001
vt 0.664913 0.413262
vt 0.240831 0.997996
vt 0.485372 0.888786
vt 0.000033 0.734021
vt 0.000030 0.733978
vt 0.763978 0.902562
vt 0.769781 0.887765
vt 0.771511 0.901554
vt 0.761191 0.890418
vt 0.766322 0.873267
vt 0.749718 0.861513
vt 0.760071 0.857966
vt 0.756285 0.840523
vt 0.739771 0.985673
vt 0.757406 0.969981
vt 0.753167 0.986447
vt 0.747700 0.966278
vt 0.763836 0.955263
vt 0.754706 0.951941
vt 0.769155 0.941577
vt 0.763496 0.926763
vt 0.771046 0.928032
vt 0.764382 0.914692
vt 0.773260 0.914830
vt 0.751124 0.893660
vt 0.745780 0.882020
vt 0.756348 0.877139
vt 0.736808 0.869565
vt 0.719335 0.849008
vt 0.742216 0.840897
vt 0.718089 0.977103
vt 0.735373 0.957955
vt 0.744231 0.946246
vt 0.750663 0.935268
vt 0.760008 0.938778
vt 0.753870 0.924800
vt 0.755101 0.914547
vt 0.754164 0.904246
vt 0.746481 0.905775
vt 0.743300 0.897182
vt 0.737463 0.888415
vt 0.726951 0.879252
vt 0.708023 0.870393
vt 0.726333 0.948441
vt 0.736544 0.939932
vt 0.742768 0.931663
vt 0.746211 0.923079
vt 0.747385 0.914431
vt 0.733970 0.909559
vt 0.731651 0.904930
vt 0.726945 0.901256
vt 0.720020 0.899233
vt 0.710467 0.900802
vt 0.711497 0.927637
vt 0.720525 0.929152
vt 0.727279 0.927275
vt 0.731540 0.923437
vt 0.733917 0.918969
vt 0.734577 0.914282
vt 0.721890 0.914466
vt 0.807583 0.882044
vt 0.804912 0.865159
vt 0.801322 0.848351
vt 0.797679 0.831731
vt 0.796528 0.979928
vt 0.800712 0.964326
vt 0.804689 0.948477
vt 0.807584 0.932211
vt 0.809167 0.915668
vt 0.809087 0.898846
vt 0.906438 0.887592
vt 0.912241 0.902389
vt 0.904708 0.901381
vt 0.909897 0.873094
vt 0.915028 0.890245
vt 0.926501 0.861340
vt 0.919871 0.876966
vt 0.919934 0.840350
vt 0.916147 0.857794
vt 0.918813 0.969809
vt 0.936448 0.985500
vt 0.923052 0.986274
vt 0.912383 0.955090
vt 0.928519 0.966105
vt 0.907064 0.941404
vt 0.921513 0.951768
vt 0.912723 0.926591
vt 0.916211 0.938605
vt 0.905172 0.927859
vt 0.911837 0.914519
vt 0.902959 0.914657
vt 0.925095 0.893487
vt 0.930439 0.881847
vt 0.956883 0.848835
vt 0.934003 0.840723
vt 0.958130 0.976930
vt 0.931988 0.946073
vt 0.925556 0.935095
vt 0.921118 0.914374
vt 0.929738 0.905602
vt 0.922055 0.904073
vt 0.938756 0.888242
vt 0.949268 0.879079
vt 0.939411 0.869392
vt 0.949886 0.948268
vt 0.940845 0.957782
vt 0.939675 0.939759
vt 0.930008 0.922906
vt 0.922349 0.924627
vt 0.932919 0.897009
vt 0.942249 0.909387
vt 0.949274 0.901084
vt 0.956199 0.899060
vt 0.965752 0.900629
vt 0.968196 0.870220
vt 0.964722 0.927464
vt 0.968196 0.956074
vt 0.955694 0.928980
vt 0.944679 0.923265
vt 0.933451 0.931490
vt 0.942302 0.918796
vt 0.941642 0.914109
vt 0.928834 0.914258
vt 0.944568 0.904757
vt 0.954329 0.914293
vt 0.948940 0.927102
vt 0.868635 0.881871
vt 0.871307 0.864986
vt 0.874897 0.848178
vt 0.878539 0.831558
vt 0.879691 0.979756
vt 0.875507 0.964153
vt 0.871530 0.948304
vt 0.868635 0.932037
vt 0.867051 0.915495
vt 0.867132 0.898673
vt 0.708023 0.956247
vt 0.792318 0.996434
vt 0.883901 0.996261
vn -0.5000 0.8660 -0.0000
vn -0.0000 0.0000 1.0000
vn 0.5000 -0.8660 0.0000
vn -0.8660 -0.5000 0.0000
vn 0.8660 0.5000 0.0000
vn -0.0000 0.0000 -1.0000
vn 0.7427 -0.1854 0.6434
vn 0.9823 -0.0616 0.1769
vn 0.8783 0.1185 0.4632
vn 0.8682 -0.3777 0.3218
vn 0.9823 -0.0616 -0.1769
vn 0.7140 -0.1597 -0.6817
vn 0.8783 0.1185 -0.4632
vn 0.7101 0.4099 -0.5725
vn 0.5231 0.2210 -0.8231
vn 0.5418 0.7014 -0.4632
vn 0.2740 0.6508 -0.7081
vn 0.4378 0.8815 -0.1769
vn 0.1070 0.9408 -0.3217
vn 0.4378 0.8815 0.1769
vn 0.2189 0.6982 0.6816
vn 0.5418 0.7014 0.4632
vn 0.4671 0.2697 0.8421
vn 0.7101 0.4100 0.5725
vn 0.4755 -0.8236 0.3090
vn 0.4755 -0.8236 -0.3090
vn 0.8834 -0.3280 -0.3347
vn 0.2939 -0.5090 -0.8090
vn -0.2939 0.5090 -0.8090
vn -0.4755 0.8236 -0.3090
vn -0.4755 0.8236 0.3090
vn 0.1576 0.9291 0.3347
vn -0.2939 0.5090 0.8090
vn 0.2939 -0.5090 0.8090
vn -0.3123 -0.7099 0.6312
vn -0.1706 -0.9554 0.2411
vn -0.1712 -0.9553 -0.2410
vn -0.3123 -0.7099 -0.6313
vn -0.5425 -0.3132 -0.7795
vn -0.7709 0.0845 -0.6313
vn -0.9128 0.3297 -0.2411
vn -0.9128 0.3297 0.2411
vn -0.7709 0.0845 0.6313
vn -0.5425 -0.3132 0.7795
vn -0.6602 -0.6684 0.3425
vn -0.5841 -0.8011 0.1305
vn -0.5834 -0.8016 -0.1308
vn -0.6602 -0.6685 -0.3424
vn -0.7844 -0.4529 -0.4237
vn -0.9090 -0.2375 -0.3424
vn -0.9858 -0.1053 -0.1305
vn -0.9859 -0.1044 0.1308
vn -0.9090 -0.2375 0.3424
vn -0.7844 -0.4529 0.4237
vn -0.4378 -0.8815 0.1769
vn -0.2189 -0.6982 0.6816
vn -0.5418 -0.7014 0.4632
vn -0.4378 -0.8815 -0.1769
vn -0.1575 -0.9285 0.3362
vn -0.2187 -0.6982 -0.6817
vn -0.1285 -0.9794 -0.1559
vn -0.7101 -0.4100 -0.5725
vn -0.5418 -0.7014 -0.4632
vn -0.8783 -0.1185 -0.4632
vn -0.4730 -0.3825 -0.7937
vn -0.9823 0.0616 -0.1769
vn -0.7145 0.0365 -0.6987
vn -0.9823 0.0616 0.1769
vn -0.8831 0.3279 -0.3355
vn -0.7141 0.1595 0.6816
vn -0.9124 0.3788 0.1549
vn -0.8783 -0.1185 0.4632
vn -0.4671 -0.2697 0.8421
vn -0.7101 -0.4100 0.5725
vn 0.7709 -0.0845 0.6313
vn 0.9117 -0.3103 -0.2693
vn 0.7631 -0.0535 -0.6440
vn 0.3091 0.7330 -0.6059
vn 0.2219 0.9580 -0.1815
vn 0.3352 0.6877 0.6440
vn 0.9144 -0.2949 0.2774
vn 0.9090 0.2375 0.3424
vn 0.9618 0.1797 -0.2064
vn 0.8701 0.3386 -0.3582
vn 0.7509 0.5447 -0.3734
vn 0.5918 0.2860 -0.7536
vn 0.6976 0.6969 -0.1663
vn 0.6365 0.7431 0.2064
vn 0.2016 0.9615 0.1865
vn 0.7283 0.5842 0.3582
vn 0.8472 0.3780 0.3734
vn 0.5436 0.3696 0.7536
vn 0.9553 0.2085 0.2094
vn 0.6582 0.7231 -0.2094
s off
f 2/1/1 4/2/1 1/3/1
f 6/4/2 2/1/2 5/5/2
f 6/4/3 8/6/3 7/7/3
f 5/8/4 1/9/4 8/10/4
f 4/11/5 6/12/5 7/13/5
f 8/14/6 4/2/6 7/15/6
f 10/16/1 12/17/1 9/18/1
f 10/19/2 14/20/2 13/21/2
f 14/22/3 16/23/3 13/24/3
f 9/18/4 15/25/4 14/26/4
f 11/27/5 13/24/5 16/23/5
f 2/1/1 3/28/1 4/2/1
f 6/4/2 3/28/2 2/1/2
f 6/4/3 5/5/3 8/6/3
f 5/8/4 2/29/4 1/9/4
f 4/11/5 3/30/5 6/12/5
f 8/14/6 1/3/6 4/2/6
f 10/16/1 11/27/1 12/17/1
f 10/19/2 9/31/2 14/20/2
f 14/22/3 15/32/3 16/23/3
f 9/18/4 12/17/4 15/25/4
f 11/27/5 10/16/5 13/24/5
s 1
f 18/33/7 20/34/8 17/35/9
f 19/36/10 22/37/11 20/34/8
f 22/37/11 23/38/12 24/39/13
f 23/38/12 26/40/14 24/39/13
f 25/41/15 28/42/16 26/43/14
f 27/44/17 30/45/18 28/42/16
f 29/46/19 32/47/20 30/45/18
f 32/47/20 33/48/21 34/49/22
f 34/49/22 35/50/23 36/51/24
f 35/50/23 17/35/9 36/51/24
f 18/33/7 38/52/25 19/36/10
f 19/36/10 39/53/26 21/54/27
f 23/38/12 39/53/26 40/55/28
f 23/38/12 41/56/6 25/57/15
f 27/44/17 41/58/6 42/59/29
f 27/44/17 43/60/30 29/46/19
f 29/46/19 44/61/31 31/62/32
f 33/48/21 44/61/31 45/63/33
f 33/48/21 46/64/2 35/50/23
f 18/33/7 46/64/2 37/65/34
f 38/52/25 47/66/35 48/67/36
f 39/53/26 48/67/36 49/68/37
f 39/53/26 50/69/38 40/55/28
f 41/56/6 50/69/38 51/70/39
f 41/58/6 52/71/40 42/59/29
f 43/60/30 52/71/40 53/72/41
f 43/60/30 54/73/42 44/61/31
f 44/61/31 55/74/43 45/63/33
f 46/64/2 55/74/43 56/75/44
f 46/64/2 47/66/35 37/65/34
f 48/67/36 57/76/45 58/77/46
f 48/67/36 59/78/47 49/68/37
f 49/68/37 60/79/48 50/69/38
f 50/69/38 61/80/49 51/70/39
f 52/71/40 61/81/49 62/82/50
f 53/72/41 62/82/50 63/83/51
f 53/72/41 64/84/52 54/73/42
f 54/73/42 65/85/53 55/74/43
f 55/74/43 66/86/54 56/75/44
f 47/66/35 66/86/54 57/76/45
f 57/76/45 67/87/4 58/77/46
f 58/77/46 67/87/4 59/78/47
f 59/78/47 67/87/4 60/79/48
f 60/79/48 67/87/4 61/80/49
f 61/81/49 67/87/4 62/82/50
f 62/82/50 67/87/4 63/83/51
f 63/83/51 67/87/4 64/84/52
f 64/84/52 67/87/4 65/85/53
f 65/85/53 67/87/4 66/86/54
f 66/86/54 67/87/4 57/76/45
f 68/88/25 17/35/34 20/34/25
f 70/89/26 20/34/25 22/37/26
f 71/90/28 22/37/26 24/39/28
f 72/91/6 24/39/28 26/40/6
f 73/92/29 26/43/6 28/42/29
f 74/93/30 28/42/29 30/45/30
f 75/94/31 30/45/30 32/47/31
f 76/95/33 32/47/31 34/49/33
f 77/96/2 34/49/33 36/51/2
f 69/97/34 36/51/2 17/35/34
f 79/98/55 81/99/56 78/100/57
f 82/101/58 80/102/59 79/98/55
f 82/101/58 85/103/60 83/104/61
f 86/105/62 85/103/60 84/106/63
f 88/107/64 87/108/65 86/109/62
f 90/110/66 89/111/67 88/107/64
f 92/112/68 91/113/69 90/110/66
f 92/112/68 95/114/70 93/115/71
f 94/116/72 97/117/73 95/114/70
f 78/100/57 97/117/73 96/118/74
f 98/119/25 81/99/56 80/102/59
f 100/120/26 80/102/59 83/104/61
f 85/103/60 100/120/26 83/104/61
f 102/121/6 85/103/60 87/122/65
f 89/111/67 102/123/6 87/108/65
f 104/124/30 89/111/67 91/113/69
f 93/115/71 104/124/30 91/113/69
f 95/114/70 105/125/31 93/115/71
f 107/126/2 95/114/70 97/117/73
f 81/99/56 107/126/2 97/117/73
f 98/119/25 109/127/75 99/128/34
f 110/129/76 98/119/25 100/120/26
f 111/130/77 100/120/26 101/131/28
f 102/121/6 111/130/77 101/131/28
f 113/132/78 102/123/6 103/133/29
f 104/124/30 113/132/78 103/133/29
f 105/125/31 114/134/79 104/124/30
f 116/135/80 105/125/31 106/136/33
f 107/126/2 116/135/80 106/136/33
f 109/127/75 107/126/2 99/128/34
f 108/137/81 119/138/82 109/127/75
f 120/139/83 108/137/81 110/129/76
f 121/140/84 110/129/76 111/130/77
f 122/141/85 111/130/77 112/142/86
f 113/132/78 122/143/85 112/144/86
f 114/134/79 123/145/87 113/132/78
f 125/146/88 114/134/79 115/147/89
f 126/148/90 115/147/89 116/135/80
f 127/149/91 116/135/80 117/150/92
f 109/127/75 127/149/91 117/150/92
f 119/138/82 118/151/93 128/152/5
f 118/151/93 120/139/83 128/152/5
f 120/139/83 121/140/84 128/152/5
f 121/140/84 122/141/85 128/152/5
f 122/143/85 123/145/87 128/152/5
f 123/145/87 124/153/94 128/152/5
f 124/153/94 125/146/88 128/152/5
f 125/146/88 126/148/90 128/152/5
f 126/148/90 127/149/91 128/152/5
f 127/149/91 119/138/82 128/152/5
f 78/100/34 130/154/25 79/98/25
f 79/98/25 131/155/26 82/101/26
f 82/101/26 132/156/28 84/106/28
f 84/106/28 133/157/6 86/105/6
f 86/109/6 134/158/29 88/107/29
f 88/107/29 135/159/30 90/110/30
f 90/110/30 136/160/31 92/112/31
f 92/112/31 137/161/33 94/116/33
f 94/116/33 138/162/2 96/118/2
f 96/118/2 129/163/34 78/100/34
f 18/33/7 19/36/10 20/34/8
f 19/36/10 21/54/27 22/37/11
f 22/37/11 21/54/27 23/38/12
f 23/38/12 25/57/15 26/40/14
f 25/41/15 27/44/17 28/42/16
f 27/44/17 29/46/19 30/45/18
f 29/46/19 31/62/32 32/47/20
f 32/47/20 31/62/32 33/48/21
f 34/49/22 33/48/21 35/50/23
f 35/50/23 18/33/7 17/35/9
f 18/33/7 37/65/34 38/52/25
f 19/36/10 38/52/25 39/53/26
f 23/38/12 21/54/27 39/53/26
f 23/38/12 40/55/28 41/56/6
f 27/44/17 25/41/15 41/58/6
f 27/44/17 42/59/29 43/60/30
f 29/46/19 43/60/30 44/61/31
f 33/48/21 31/62/32 44/61/31
f 33/48/21 45/63/33 46/64/2
f 18/33/7 35/50/23 46/64/2
f 38/52/25 37/65/34 47/66/35
f 39/53/26 38/52/25 48/67/36
f 39/53/26 49/68/37 50/69/38
f 41/56/6 40/55/28 50/69/38
f 41/58/6 51/164/39 52/71/40
f 43/60/30 42/59/29 52/71/40
f 43/60/30 53/72/41 54/73/42
f 44/61/31 54/73/42 55/74/43
f 46/64/2 45/63/33 55/74/43
f 46/64/2 56/75/44 47/66/35
f 48/67/36 47/66/35 57/76/45
f 48/67/36 58/77/46 59/78/47
f 49/68/37 59/78/47 60/79/48
f 50/69/38 60/79/48 61/80/49
f 52/71/40 51/164/39 61/81/49
f 53/72/41 52/71/40 62/82/50
f 53/72/41 63/83/51 64/84/52
f 54/73/42 64/84/52 65/85/53
f 55/74/43 65/85/53 66/86/54
f 47/66/35 56/75/44 66/86/54
f 68/88/25 69/97/34 17/35/34
f 70/89/26 68/88/25 20/34/25
f 71/90/28 70/89/26 22/37/26
f 72/91/6 71/90/28 24/39/28
f 73/92/29 72/165/6 26/43/6
f 74/93/30 73/92/29 28/42/29
f 75/94/31 74/93/30 30/45/30
f 76/95/33 75/94/31 32/47/31
f 77/96/2 76/95/33 34/49/33
f 69/97/34 77/96/2 36/51/2
f 79/98/55 80/102/59 81/99/56
f 82/101/58 83/104/61 80/102/59
f 82/101/58 84/106/63 85/103/60
f 86/105/62 87/122/65 85/103/60
f 88/107/64 89/111/67 87/108/65
f 90/110/66 91/113/69 89/111/67
f 92/112/68 93/115/71 91/113/69
f 92/112/68 94/116/72 95/114/70
f 94/116/72 96/118/74 97/117/73
f 78/100/57 81/99/56 97/117/73
f 98/119/25 99/128/34 81/99/56
f 100/120/26 98/119/25 80/102/59
f 85/103/60 101/131/28 100/120/26
f 102/121/6 101/131/28 85/103/60
f 89/111/67 103/133/29 102/123/6
f 104/124/30 103/133/29 89/111/67
f 93/115/71 105/125/31 104/124/30
f 95/114/70 106/136/33 105/125/31
f 107/126/2 106/136/33 95/114/70
f 81/99/56 99/128/34 107/126/2
f 98/119/25 108/137/81 109/127/75
f 110/129/76 108/137/81 98/119/25
f 111/130/77 110/129/76 100/120/26
f 102/121/6 112/142/86 111/130/77
f 113/132/78 112/144/86 102/123/6
f 104/124/30 114/134/79 113/132/78
f 105/125/31 115/147/89 114/134/79
f 116/135/80 115/147/89 105/125/31
f 107/126/2 117/150/92 116/135/80
f 109/127/75 117/150/92 107/126/2
f 108/137/81 118/151/93 119/138/82
f 120/139/83 118/151/93 108/137/81
f 121/140/84 120/139/83 110/129/76
f 122/141/85 121/140/84 111/130/77
f 113/132/78 123/145/87 122/143/85
f 114/134/79 124/153/94 123/145/87
f 125/146/88 124/153/94 114/134/79
f 126/148/90 125/146/88 115/147/89
f 127/149/91 126/148/90 116/135/80
f 109/127/75 119/138/82 127/149/91
f 78/100/34 129/163/34 130/154/25
f 79/98/25 130/154/25 131/155/26
f 82/101/26 131/155/26 132/156/28
f 84/106/28 132/156/28 133/157/6
f 86/109/6 133/166/6 134/158/29
f 88/107/29 134/158/29 135/159/30
f 90/110/30 135/159/30 136/160/31
f 92/112/31 136/160/31 137/161/33
f 94/116/33 137/161/33 138/162/2
f 96/118/2 138/162/2 129/163/34
