# Blender v2.80 (sub 75) OBJ File: ''
# www.blender.org
o 3rdFloor_(1)
v -53.275181 -156.859177 120.249992
v -53.275173 -156.859177 80.249886
v -53.275173 -125.862549 80.249893
v -53.275181 -125.862549 120.249992
v -1.000012 -156.859177 80.249893
v -1.000019 -156.859177 120.250000
v -1.000012 -125.862549 80.249901
v -1.000019 -125.862549 120.250000
v -64.267982 -156.859177 120.249992
v -64.267975 -156.859177 80.249886
v -64.267975 -125.862549 80.249893
v -64.267982 -125.862549 120.249992
v -55.275177 -125.862549 80.249893
v -55.275185 -125.862549 120.249992
v -55.275185 -156.859177 120.249992
v -55.275177 -156.859177 80.249886
v -65.982300 -158.859177 120.249992
v -65.982300 -123.862534 120.249992
v -65.982292 -123.862534 80.249992
v -65.982292 -158.859177 80.249992
v 0.999979 -123.862534 120.250000
v 0.999986 -123.862534 80.250000
v 0.999979 -158.859177 120.250000
v 0.999986 -158.859177 80.250000
v -8.983974 15.289276 80.249893
v 37.813248 15.289276 80.249901
v 37.813240 15.289276 120.250008
v -8.983980 15.289276 120.250000
v 21.085768 -19.380203 80.249908
v 30.244308 -19.380203 80.249916
v 30.244303 -19.380203 120.250008
v 21.085762 -19.380203 120.250000
v -6.983980 -51.985641 120.250000
v -6.983973 -51.985641 80.249901
v 21.085768 -51.985641 80.249901
v 21.085762 -51.985641 120.250000
v -16.365337 6.005157 120.250000
v -16.365332 6.005157 80.249901
v -16.365332 57.124863 80.249886
v -16.365337 57.124893 120.250008
v 30.244308 6.005157 80.249908
v 30.244303 6.005157 120.250008
v -6.983980 -63.600281 120.250000
v -6.983973 -63.600281 80.249886
v 37.813240 -63.600281 120.250008
v 37.813248 -63.600281 80.249893
v -8.983974 57.124863 80.249886
v -8.983980 57.124893 120.250008
v -6.983976 17.289276 120.250000
v -6.983970 17.289276 80.249901
v -6.983970 57.124863 80.249886
v -6.983976 57.124893 120.250008
v 37.813248 57.124863 80.249893
v 37.813248 17.289276 80.249908
v 37.813240 17.289276 120.250008
v 37.813240 57.124893 120.250015
v 37.813240 -73.061966 120.250008
v 37.813248 -73.061966 80.250008
v 70.022163 -73.061966 80.250008
v 70.022156 -73.061966 120.250008
v 37.813240 -65.600296 120.250008
v -8.983982 -65.600296 120.250000
v -8.983975 -65.600296 80.250000
v 37.813248 -65.600296 80.250008
v 39.813240 59.124863 120.250015
v 39.813240 -39.768875 120.250008
v 39.813248 -39.768860 80.250008
v 39.813248 59.124863 80.250008
v 70.022163 -39.768860 80.250008
v 70.022156 -39.768875 120.250008
v -75.559204 4.005157 120.249985
v -75.559204 59.124863 120.249992
v -75.559196 59.124863 80.249985
v -75.559196 4.005157 80.249985
v -8.983980 4.005157 120.250000
v -8.983974 4.005157 80.250000
v -45.465866 15.289276 100.249893
v -45.465862 15.289276 80.249893
v -45.465862 14.289276 80.249893
v -45.465866 14.289276 100.249893
v -35.465866 15.289276 100.249893
v -35.465866 14.289276 100.249893
v -35.465862 14.289276 80.249893
v -35.465862 15.289276 80.249893
v -36.132530 14.289276 80.249893
v -36.132534 14.289276 99.249893
v -44.799198 14.289276 80.249893
v -44.799202 14.289276 99.249893
v -36.132534 18.289276 99.249893
v -35.465866 18.289276 100.249893
v -35.465862 18.289276 80.249893
v -36.132530 18.289276 80.249893
v -45.465862 18.289291 80.249893
v -45.465866 18.289276 100.249893
v -44.799202 18.289276 99.249893
v -44.799198 18.289276 80.249893
v -35.465866 17.289276 100.249893
v -35.465862 17.289276 80.249893
v -45.465866 17.289276 100.249893
v -45.465862 17.289276 80.249893
v -73.559196 15.289276 120.249985
v -73.559189 15.289276 80.249878
v -73.559189 57.124863 80.249870
v -73.559196 57.124893 120.249992
v -60.161320 17.289276 120.249992
v -60.161312 17.289276 80.249893
v -60.161312 57.124863 80.249878
v -60.161320 57.124893 120.250000
v -18.365341 6.005157 120.250000
v -18.365335 6.005157 80.249901
v -73.559189 6.005157 80.249886
v -73.559196 6.005157 120.249985
v -18.365335 57.124863 80.249886
v -18.365341 57.124893 120.250008
v -18.365335 17.289276 80.249901
v -18.365341 17.289276 120.250000
v -62.161335 57.124863 80.249878
v -62.161343 57.124893 120.250000
v -62.161335 15.289276 80.249886
v -62.161343 15.289276 120.249992
v -18.365341 15.289276 120.250000
v -18.365335 15.289276 80.249893
v 39.813248 -71.061966 80.249901
v 39.813240 -71.061966 120.250008
v 68.022156 -71.061966 120.250008
v 68.022163 -71.061966 80.249901
v 68.022156 -41.768860 120.250008
v 68.022163 -41.768860 80.249908
v 39.813240 -41.768860 120.250008
v 39.813248 -41.768860 80.249908
v -6.983970 4.005157 80.249893
v -6.983976 4.005157 120.250000
v -6.983976 -49.985626 120.250000
v -6.983970 -49.985626 80.249908
v 28.244307 4.005157 80.249901
v 28.244301 4.005157 120.250008
v 19.085760 -49.985626 120.250000
v 19.085766 -49.985626 80.249908
v 28.244307 -17.380203 80.249924
v 28.244301 -17.380203 120.250008
v 19.085760 -17.380203 120.250000
v 19.085766 -17.380203 80.249916
vt 0.578586 0.060734
vt 0.617481 0.013908
vt 0.578586 0.013908
vt 0.498033 0.013908
vt 0.498033 0.060734
vt 0.711699 0.060733
vt 0.617482 0.060734
vt 0.764259 0.013908
vt 0.764259 0.060733
vt 0.500172 0.072906
vt 0.765959 0.230505
vt 0.500172 0.230505
vt 0.617482 0.060734
vt 0.711699 0.013908
vt 0.617481 0.013908
vt 0.764259 0.060733
vt 0.711699 0.060733
vt 0.578586 0.060734
vt 0.578586 0.013908
vt 0.498033 0.060734
vt 0.776530 0.242457
vt 0.760091 0.299118
vt 0.760091 0.242457
vt 0.764259 0.013908
vt 0.711699 0.060734
vt 0.711699 0.013908
vt 0.498033 0.013908
vt 0.578586 0.060734
vt 0.498033 0.060734
vt 0.578586 0.013908
vt 0.617482 0.060734
vt 0.617481 0.013908
vt 0.229953 0.365719
vt 0.262389 0.392719
vt 0.229951 0.392717
vt 0.229953 0.122764
vt 0.262390 0.132536
vt 0.229953 0.132536
vt 0.229953 0.261024
vt 0.262390 0.167463
vt 0.262390 0.261024
vt 0.262385 0.462840
vt 0.229949 0.424888
vt 0.262387 0.424890
vt 0.229952 0.068775
vt 0.262390 0.122764
vt 0.229952 0.167463
vt 0.262391 0.273417
vt 0.229953 0.341222
vt 0.262390 0.341222
vt 0.229949 0.418837
vt 0.262388 0.418839
vt 0.262390 0.365720
vt 0.978401 0.346345
vt 0.946886 0.201990
vt 0.978401 0.017869
vt 0.908752 0.066229
vt 0.791876 0.017869
vt 0.946886 0.307688
vt 0.783549 0.346345
vt 0.752815 0.307688
vt 0.752815 0.520538
vt 0.229952 0.012329
vt 0.262390 0.068775
vt 0.464903 0.156701
vt 0.350666 0.270468
vt 0.350666 0.156701
vt 0.464903 0.398405
vt 0.350666 0.512171
vt 0.350666 0.398404
vt 0.464902 0.028764
vt 0.464903 0.270468
vt 0.957613 0.364049
vt 0.807568 0.519861
vt 0.807568 0.364049
vt 0.229949 0.418837
vt 0.262389 0.392719
vt 0.262388 0.418839
vt 0.262385 0.462840
vt 0.229949 0.424888
vt 0.262387 0.424890
vt 0.262390 0.341222
vt 0.229952 0.261024
vt 0.262390 0.261024
vt 0.262390 0.365720
vt 0.229951 0.392717
vt 0.229953 0.365719
vt 0.262390 0.167463
vt 0.229953 0.122764
vt 0.262390 0.122764
vt 0.229952 0.167463
vt 0.229953 0.341222
vt 0.262390 0.012329
vt 0.229952 0.068775
vt 0.229952 0.012329
vt 0.262390 0.068775
vt 0.037009 0.015310
vt 0.060841 0.491940
vt 0.037009 0.491940
vt 0.060841 0.515770
vt 0.299155 0.491940
vt 0.299155 0.515771
vt 0.322987 0.015310
vt 0.299155 0.015310
vt 0.283268 0.468108
vt 0.283268 0.015310
vt 0.060841 0.015310
vt 0.076729 0.468108
vt 0.076729 0.468107
vt 0.060841 0.015309
vt 0.076729 0.015309
vt 0.299156 0.015309
vt 0.283268 0.468107
vt 0.283268 0.015309
vt 0.299155 0.491937
vt 0.098507 0.017024
vt 0.135885 0.194569
vt 0.098507 0.194569
vt 0.135885 0.275554
vt 0.098507 0.275554
vt 0.135885 0.453099
vt 0.098507 0.453099
vt 0.037009 0.015309
vt 0.060841 0.491940
vt 0.037009 0.491938
vt 0.060841 0.515772
vt 0.322987 0.491938
vt 0.209953 0.715561
vt 0.023149 0.536951
vt 0.023148 0.715560
vt 0.750319 0.745187
vt 0.976688 0.972491
vt 0.750319 0.972491
vt 0.497861 0.536953
vt 0.251408 0.715561
vt 0.497860 0.715562
vt 0.272775 0.972491
vt 0.021599 0.745188
vt 0.272775 0.745188
vt 0.499144 0.972491
vt 0.499143 0.745187
vt 0.932419 0.536953
vt 0.972573 0.715562
vt 0.972574 0.536953
vt 0.745613 0.715562
vt 0.745613 0.536953
vt 0.615674 0.626257
vt 0.660326 0.626257
vt 0.596319 0.858839
vt 0.539316 0.536953
vt 0.539316 0.715562
vt 0.653145 0.858839
vt 0.687384 0.299326
vt 0.682386 0.384789
vt 0.488300 0.299326
vt 0.702377 0.434765
vt 0.697379 0.520228
vt 0.697379 0.434765
vt 0.682387 0.388120
vt 0.682387 0.434765
vt 0.687384 0.520228
vt 0.488300 0.520228
vt 0.682387 0.431433
vt 0.702377 0.431433
vt 0.743778 0.520228
vt 0.702377 0.388120
vt 0.743778 0.244388
vt 0.702377 0.384789
vt 0.697379 0.289331
vt 0.251409 0.536952
vt 0.697379 0.244388
vt 0.350666 0.270468
vt 0.464903 0.156701
vt 0.464903 0.270468
vt 0.464902 0.028764
vt 0.350666 0.156701
vt 0.350666 0.028764
vt 0.464903 0.398405
vt 0.350666 0.512171
vt 0.350666 0.398404
vt 0.957613 0.364049
vt 0.807568 0.519861
vt 0.807568 0.364049
vt 0.220689 0.025267
vt 0.144900 0.155645
vt 0.144900 0.025267
vt 0.144900 0.371093
vt 0.220689 0.456163
vt 0.144900 0.456163
vt 0.220689 0.218599
vt 0.220689 0.155645
vt 0.144900 0.319451
vt 0.220689 0.371093
vt 0.144900 0.297335
vt 0.220689 0.297335
vt 0.220689 0.319451
vt 0.898385 0.211408
vt 0.935432 0.297914
vt 0.792931 0.297914
vt 0.792931 0.079517
vt 0.488300 0.520228
vt 0.687384 0.299326
vt 0.687384 0.520228
vt 0.807568 0.364049
vt 0.957613 0.519861
vt 0.807568 0.519861
vt 0.957613 0.519861
vt 0.807568 0.364049
vt 0.957613 0.364049
vt 0.500172 0.230505
vt 0.765959 0.072906
vt 0.765959 0.230505
vt 0.760091 0.242457
vt 0.776530 0.299118
vt 0.760091 0.299118
vt 0.711699 0.013908
vt 0.765959 0.072906
vt 0.764259 0.013908
vt 0.498033 0.013908
vt 0.776530 0.299118
vt 0.764259 0.060733
vt 0.229947 0.462838
vt 0.229953 0.273417
vt 0.791876 0.066229
vt 0.908752 0.201990
vt 0.783549 0.520538
vt 0.262390 0.012329
vt 0.464902 0.512172
vt 0.350666 0.028764
vt 0.957613 0.519861
vt 0.229947 0.462838
vt 0.322987 0.491940
vt 0.076729 0.015310
vt 0.135885 0.017024
vt 0.299156 0.515768
vt 0.322987 0.015309
vt 0.209953 0.536952
vt 0.976688 0.745187
vt 0.021599 0.972492
vt 0.932419 0.715562
vt 0.660326 0.536953
vt 0.615674 0.536953
vt 0.596319 0.745187
vt 0.653145 0.745187
vt 0.687384 0.384789
vt 0.687384 0.434765
vt 0.697379 0.384789
vt 0.464902 0.512172
vt 0.957613 0.519861
vt 0.144900 0.218599
vt 0.935432 0.211408
vt 0.898385 0.079517
vt 0.488300 0.299326
vt 0.957613 0.364049
vt 0.807568 0.519861
vt 0.500172 0.072906
vt 0.776530 0.242457
vt 0.783549 0.346345
vt 0.752815 0.520538
vt 0.783549 0.520538
vt 0.898385 0.211408
vt 0.792931 0.079517
vt 0.792931 0.297914
vt 0.487210 0.244486
vt 0.697379 0.289331
vt 0.697379 0.244388
vt 0.743778 0.244388
vt 0.743778 0.520228
vt 0.946886 0.307688
vt 0.978401 0.346345
vt 0.908752 0.066229
vt 0.791876 0.017869
vt 0.791876 0.066229
vt 0.935432 0.297914
vt 0.946886 0.201990
vt 0.908752 0.201990
vt 0.752815 0.307688
vt 0.898385 0.079517
vt 0.487210 0.289592
vt 0.697379 0.520228
vt 0.978401 0.017869
vt 0.935432 0.211408
vn 1.0000 0.0000 0.0000
vn 0.0000 1.0000 0.0000
vn 0.0000 -1.0000 -0.0000
vn -1.0000 -0.0000 -0.0000
vn 0.0000 -0.0000 1.0000
vn 0.0000 0.0000 -1.0000
s off
f 2/1/1 4/2/1 1/3/1
f 2/1/2 6/4/2 5/5/2
f 7/6/3 4/2/3 3/7/3
f 6/8/4 7/6/4 5/9/4
f 2/10/5 7/11/5 3/12/5
f 10/13/1 12/14/1 9/15/1
f 13/16/3 12/14/3 11/17/3
f 16/18/2 9/15/2 15/19/2
f 15/19/4 13/20/4 16/18/4
f 11/21/5 16/22/5 13/23/5
f 18/24/4 20/25/4 17/26/4
f 18/27/2 22/28/2 19/29/2
f 21/30/1 24/31/1 22/28/1
f 20/25/3 23/32/3 17/26/3
f 26/33/3 28/34/3 25/35/3
f 30/36/3 32/37/3 29/38/3
f 34/39/3 36/40/3 33/41/3
f 37/42/1 39/43/1 40/44/1
f 41/45/1 31/46/1 30/36/1
f 29/38/1 36/40/1 35/47/1
f 43/48/1 34/39/1 33/41/1
f 46/49/2 43/48/2 45/50/2
f 47/51/3 40/44/3 39/43/3
f 47/51/4 28/34/4 48/52/4
f 46/49/4 27/53/4 26/33/4
f 26/54/5 30/55/5 46/56/5
f 35/57/5 44/58/5 46/56/5
f 30/55/5 35/57/5 46/56/5
f 41/59/5 25/60/5 38/61/5
f 25/60/5 39/62/5 38/61/5
f 38/63/2 42/64/2 41/45/2
f 50/65/1 52/66/1 49/67/1
f 53/68/4 55/69/4 56/70/4
f 49/67/2 54/71/2 50/65/2
f 53/68/3 52/66/3 51/72/3
f 50/73/5 53/74/5 51/75/5
f 58/76/3 60/77/3 57/78/3
f 62/79/3 64/80/3 61/81/3
f 66/82/1 68/83/1 65/84/1
f 70/85/1 59/86/1 69/87/1
f 72/88/4 74/89/4 71/90/4
f 65/84/2 73/91/2 72/88/2
f 66/82/2 69/87/2 67/92/2
f 57/78/4 64/80/4 58/76/4
f 62/93/4 76/94/4 63/95/4
f 71/90/3 76/94/3 75/96/3
f 78/97/4 80/98/4 77/99/4
f 77/100/5 82/101/5 81/102/5
f 84/103/1 82/101/1 83/104/1
f 83/104/3 86/105/3 85/106/3
f 79/107/3 88/108/3 80/98/3
f 80/98/3 86/105/3 82/101/3
f 89/109/2 91/110/2 92/111/2
f 93/112/2 95/113/2 96/114/2
f 94/115/2 89/109/2 95/113/2
f 92/116/4 86/117/4 89/118/4
f 89/118/6 88/119/6 95/120/6
f 95/120/1 87/121/1 96/122/1
f 98/123/1 90/124/1 97/125/1
f 94/115/5 97/126/5 90/124/5
f 93/112/4 99/127/4 94/115/4
f 101/128/1 103/129/1 104/130/1
f 106/131/1 108/132/1 105/133/1
f 110/134/2 112/135/2 109/136/2
f 114/137/3 107/138/3 113/139/3
f 116/140/4 113/139/4 115/141/4
f 117/142/3 104/143/3 103/144/3
f 120/145/4 117/142/4 119/146/4
f 81/147/3 120/145/3 77/148/3
f 97/149/2 105/133/2 116/140/2
f 109/136/4 122/150/4 110/134/4
f 119/146/3 77/148/3 120/145/3
f 81/147/3 122/150/3 121/151/3
f 115/141/2 97/149/2 116/140/2
f 99/152/2 106/131/2 105/133/2
f 106/153/5 93/154/5 107/155/5
f 83/156/5 122/157/5 84/158/5
f 107/155/5 93/154/5 96/159/5
f 91/160/5 115/161/5 113/162/5
f 113/162/5 92/163/5 91/160/5
f 107/155/5 92/163/5 113/162/5
f 85/164/5 110/165/5 83/156/5
f 110/165/5 87/166/5 111/167/5
f 79/168/5 119/169/5 111/167/5
f 111/167/5 87/166/5 79/168/5
f 111/170/1 101/128/1 112/135/1
f 119/169/5 102/171/5 111/167/5
f 87/166/5 92/163/5 96/159/5
f 124/172/2 126/173/2 123/174/2
f 128/175/4 125/176/4 127/177/4
f 130/178/3 127/179/3 129/180/3
f 130/178/1 124/172/1 123/174/1
f 126/181/5 130/182/5 123/183/5
f 132/184/1 134/185/1 131/186/1
f 135/187/3 132/188/3 131/189/3
f 137/190/2 134/185/2 133/191/2
f 139/192/4 136/193/4 135/187/4
f 142/194/4 137/190/4 141/195/4
f 139/192/2 141/195/2 140/196/2
f 142/197/5 135/198/5 131/199/5
f 134/200/5 142/197/5 131/199/5
f 108/201/6 116/202/6 105/203/6
f 56/204/6 49/205/6 52/206/6
f 129/207/6 125/208/6 124/209/6
f 8/210/6 1/211/6 4/212/6
f 15/213/6 12/214/6 14/215/6
f 2/1/1 3/7/1 4/2/1
f 2/1/2 1/3/2 6/4/2
f 7/6/3 8/216/3 4/2/3
f 6/8/4 8/216/4 7/6/4
f 2/10/5 5/217/5 7/11/5
f 10/13/1 11/17/1 12/14/1
f 13/16/3 14/218/3 12/14/3
f 16/18/2 10/13/2 9/15/2
f 15/19/4 14/219/4 13/20/4
f 11/21/5 10/220/5 16/22/5
f 18/24/4 19/221/4 20/25/4
f 18/27/2 21/30/2 22/28/2
f 21/30/1 23/32/1 24/31/1
f 20/25/3 24/31/3 23/32/3
f 26/33/3 27/53/3 28/34/3
f 30/36/3 31/46/3 32/37/3
f 34/39/3 35/47/3 36/40/3
f 37/42/1 38/222/1 39/43/1
f 41/45/1 42/64/1 31/46/1
f 29/38/1 32/37/1 36/40/1
f 43/48/1 44/223/1 34/39/1
f 46/49/2 44/223/2 43/48/2
f 47/51/3 48/52/3 40/44/3
f 47/51/4 25/35/4 28/34/4
f 46/49/4 45/50/4 27/53/4
f 26/54/5 41/59/5 30/55/5
f 35/57/5 34/224/5 44/58/5
f 30/55/5 29/225/5 35/57/5
f 41/59/5 26/54/5 25/60/5
f 25/60/5 47/226/5 39/62/5
f 38/63/2 37/227/2 42/64/2
f 50/65/1 51/72/1 52/66/1
f 53/68/4 54/228/4 55/69/4
f 49/67/2 55/229/2 54/71/2
f 53/68/3 56/70/3 52/66/3
f 50/73/5 54/230/5 53/74/5
f 58/76/3 59/86/3 60/77/3
f 62/79/3 63/231/3 64/80/3
f 66/82/1 67/92/1 68/83/1
f 70/85/1 60/77/1 59/86/1
f 72/88/4 73/91/4 74/89/4
f 65/84/2 68/83/2 73/91/2
f 66/82/2 70/85/2 69/87/2
f 57/78/4 61/81/4 64/80/4
f 62/93/4 75/96/4 76/94/4
f 71/90/3 74/89/3 76/94/3
f 78/97/4 79/107/4 80/98/4
f 77/100/5 80/98/5 82/101/5
f 84/103/1 81/232/1 82/101/1
f 83/104/3 82/101/3 86/105/3
f 79/107/3 87/233/3 88/108/3
f 80/98/3 88/108/3 86/105/3
f 89/109/2 90/124/2 91/110/2
f 93/112/2 94/115/2 95/113/2
f 94/115/2 90/124/2 89/109/2
f 92/116/4 85/234/4 86/117/4
f 89/118/6 86/117/6 88/119/6
f 95/120/1 88/119/1 87/121/1
f 98/123/1 91/110/1 90/124/1
f 94/115/5 99/235/5 97/126/5
f 93/112/4 100/236/4 99/127/4
f 101/128/1 102/237/1 103/129/1
f 106/131/1 107/238/1 108/132/1
f 110/134/2 111/170/2 112/135/2
f 114/137/3 108/239/3 107/138/3
f 116/140/4 114/137/4 113/139/4
f 117/142/3 118/240/3 104/143/3
f 120/145/4 118/240/4 117/142/4
f 81/147/3 121/151/3 120/145/3
f 97/149/2 99/152/2 105/133/2
f 109/136/4 121/151/4 122/150/4
f 119/146/3 78/241/3 77/148/3
f 81/147/3 84/242/3 122/150/3
f 115/141/2 98/243/2 97/149/2
f 99/152/2 100/244/2 106/131/2
f 106/153/5 100/245/5 93/154/5
f 83/156/5 110/165/5 122/157/5
f 91/160/5 98/246/5 115/161/5
f 107/155/5 96/159/5 92/163/5
f 110/165/5 85/164/5 87/166/5
f 79/168/5 78/247/5 119/169/5
f 111/170/1 102/237/1 101/128/1
f 87/166/5 85/164/5 92/163/5
f 124/172/2 125/176/2 126/173/2
f 128/175/4 126/173/4 125/176/4
f 130/178/3 128/248/3 127/179/3
f 130/178/1 129/180/1 124/172/1
f 126/181/5 128/249/5 130/182/5
f 132/184/1 133/191/1 134/185/1
f 135/187/3 136/193/3 132/188/3
f 137/190/2 138/250/2 134/185/2
f 139/192/4 140/196/4 136/193/4
f 142/194/4 138/250/4 137/190/4
f 139/192/2 142/194/2 141/195/2
f 142/197/5 139/251/5 135/198/5
f 134/200/5 138/252/5 142/197/5
f 108/201/6 114/253/6 116/202/6
f 56/204/6 55/254/6 49/205/6
f 129/207/6 127/255/6 125/208/6
f 8/210/6 6/256/6 1/211/6
f 15/213/6 9/257/6 12/214/6
s 1
f 28/258/6 40/259/6 48/260/6
f 141/261/6 133/262/6 132/263/6
f 104/264/6 120/265/6 101/266/6
f 101/266/6 120/265/6 112/267/6
f 120/265/6 109/268/6 112/267/6
f 42/269/6 28/258/6 27/270/6
f 36/271/6 43/272/6 33/273/6
f 136/274/6 141/261/6 132/263/6
f 27/270/6 31/275/6 42/269/6
f 31/275/6 36/271/6 32/276/6
f 28/258/6 37/277/6 40/259/6
f 141/261/6 137/278/6 133/262/6
f 104/264/6 118/279/6 120/265/6
f 120/265/6 121/280/6 109/268/6
f 42/269/6 37/277/6 28/258/6
f 36/271/6 45/281/6 43/272/6
f 136/274/6 140/282/6 141/261/6
f 27/270/6 45/281/6 31/275/6
f 31/275/6 45/281/6 36/271/6
