# Blender v2.80 (sub 75) OBJ File: ''
# www.blender.org
o 3rdFloor_(1).001
v -19.275183 -183.859177 80.250000
v -19.275175 -183.859177 40.249886
v -19.275175 -152.862549 40.249893
v -19.275183 -152.862549 80.250000
v 32.999985 -183.859177 40.249893
v 32.999981 -183.859177 80.250008
v 32.999985 -152.862549 40.249901
v 32.999981 -152.862549 80.250008
v -30.267981 -183.859177 80.249992
v -30.267973 -183.859177 40.249886
v -30.267973 -152.862549 40.249893
v -30.267981 -152.862549 80.249992
v -21.275179 -152.862549 40.249893
v -21.275187 -152.862549 80.250000
v -21.275187 -183.859177 80.250000
v -21.275179 -183.859177 40.249886
v -31.982298 -185.859177 80.249992
v -31.982298 -150.862534 80.249992
v -31.982290 -150.862534 40.249992
v -31.982290 -185.859177 40.249992
v 34.999981 -150.862534 80.250008
v 34.999985 -150.862534 40.250000
v 34.999981 -185.859177 80.250008
v 34.999985 -185.859177 40.250000
v 25.016027 -11.710724 40.249893
v 71.813240 -11.710724 40.249901
v 71.813232 -11.710724 80.250015
v 25.016020 -11.710724 80.250008
v 55.085766 -46.380203 40.249912
v 64.244308 -46.380203 40.249916
v 64.244301 -46.380203 80.250008
v 55.085762 -46.380203 80.250008
v 27.016020 -78.985641 80.250008
v 27.016027 -78.985641 40.249901
v 55.085766 -78.985641 40.249905
v 55.085762 -78.985641 80.250008
v 17.634661 -20.994843 80.250000
v 17.634668 -20.994843 40.249901
v 17.634668 30.124863 40.249886
v 17.634661 30.124893 80.250000
v 64.244308 -20.994843 40.249908
v 64.244301 -20.994843 80.250008
v 27.016020 -90.600281 80.250008
v 27.016027 -90.600281 40.249886
v 71.813232 -90.600281 80.250015
v 71.813240 -90.600281 40.249893
v 25.016027 30.124863 40.249886
v 25.016020 30.124893 80.250008
v 27.016022 -9.710724 80.250008
v 27.016029 -9.710724 40.249901
v 27.016029 30.124863 40.249886
v 27.016022 30.124893 80.250008
v 71.813240 30.124863 40.249893
v 71.813240 -9.710724 40.249908
v 71.813232 -9.710724 80.250015
v 71.813232 30.124893 80.250015
v 71.813232 -100.061966 80.250015
v 71.813240 -100.061966 40.250008
v 104.022163 -100.061966 40.250011
v 104.022156 -100.061966 80.250015
v 71.813232 -92.600296 80.250015
v 25.016016 -92.600296 80.250008
v 25.016024 -92.600296 40.250000
v 71.813240 -92.600296 40.250008
v 73.813232 32.124863 80.250015
v 73.813232 -66.768875 80.250015
v 73.813240 -66.768860 40.250008
v 73.813240 32.124863 40.250008
v 104.022163 -66.768860 40.250011
v 104.022156 -66.768875 80.250015
v -41.559200 -22.994843 80.249992
v -41.559200 32.124863 80.249992
v -41.559196 32.124863 40.249989
v -41.559196 -22.994843 40.249989
v 25.016020 -22.994843 80.250008
v 25.016027 -22.994843 40.250000
v -11.465868 -11.710724 60.249897
v -11.465865 -11.710724 40.249897
v -11.465865 -12.710724 40.249897
v -11.465868 -12.710724 60.249897
v -1.465868 -11.710724 60.249897
v -1.465868 -12.710724 60.249897
v -1.465865 -12.710724 40.249897
v -1.465865 -11.710724 40.249897
v -2.132533 -12.710724 40.249897
v -2.132536 -12.710724 59.249897
v -10.799201 -12.710724 40.249897
v -10.799204 -12.710724 59.249897
v -2.132536 -8.710724 59.249897
v -1.465868 -8.710724 60.249897
v -1.465865 -8.710724 40.249897
v -2.132533 -8.710724 40.249897
v -11.465865 -8.710709 40.249897
v -11.465868 -8.710724 60.249897
v -10.799204 -8.710724 59.249897
v -10.799201 -8.710724 40.249897
v -1.465868 -9.710724 60.249897
v -1.465865 -9.710724 40.249897
v -11.465868 -9.710724 60.249897
v -11.465865 -9.710724 40.249897
v -39.559193 -11.710724 80.249992
v -39.559189 -11.710724 40.249882
v -39.559189 30.124863 40.249874
v -39.559193 30.124893 80.249992
v -26.161322 -9.710724 80.249992
v -26.161314 -9.710724 40.249893
v -26.161314 30.124863 40.249878
v -26.161322 30.124893 80.249992
v 15.634657 -20.994843 80.250000
v 15.634664 -20.994843 40.249901
v -39.559189 -20.994843 40.249889
v -39.559193 -20.994843 80.249992
v 15.634664 30.124863 40.249886
v 15.634657 30.124893 80.250000
v 15.634664 -9.710724 40.249901
v 15.634657 -9.710724 80.250000
v -28.161337 30.124863 40.249878
v -28.161345 30.124893 80.249992
v -28.161337 -11.710724 40.249886
v -28.161345 -11.710724 80.249992
v 15.634657 -11.710724 80.250000
v 15.634664 -11.710724 40.249893
v 73.813240 -98.061966 40.249901
v 73.813232 -98.061966 80.250015
v 102.022156 -98.061966 80.250015
v 102.022163 -98.061966 40.249905
v 102.022156 -68.768860 80.250015
v 102.022163 -68.768860 40.249912
v 73.813232 -68.768860 80.250015
v 73.813240 -68.768860 40.249908
v 27.016029 -22.994843 40.249893
v 27.016022 -22.994843 80.250008
v 27.016022 -76.985626 80.250008
v 27.016029 -76.985626 40.249908
v 62.244305 -22.994843 40.249901
v 62.244301 -22.994843 80.250008
v 53.085758 -76.985626 80.250008
v 53.085762 -76.985626 40.249912
v 62.244305 -44.380203 40.249924
v 62.244301 -44.380203 80.250008
v 53.085758 -44.380203 80.250008
v 53.085762 -44.380203 40.249920
vt 0.578586 0.013908
vt 0.617482 0.060734
vt 0.617481 0.013908
vt 0.578586 0.060734
vt 0.498033 0.013908
vt 0.498033 0.060734
vt 0.711699 0.060733
vt 0.764259 0.013908
vt 0.764259 0.060733
vt 0.500172 0.072906
vt 0.765959 0.230505
vt 0.500172 0.230505
vt 0.617481 0.013908
vt 0.711699 0.060733
vt 0.711699 0.013908
vt 0.764259 0.060733
vt 0.578586 0.060734
vt 0.578586 0.013908
vt 0.498033 0.060734
vt 0.776530 0.242457
vt 0.760091 0.299118
vt 0.760091 0.242457
vt 0.764259 0.013908
vt 0.711699 0.060734
vt 0.711699 0.013908
vt 0.498033 0.013908
vt 0.578586 0.060734
vt 0.498033 0.060734
vt 0.578586 0.013908
vt 0.617482 0.060734
vt 0.617481 0.013908
vt 0.229953 0.365719
vt 0.262389 0.392719
vt 0.229951 0.392717
vt 0.229953 0.122764
vt 0.262390 0.132536
vt 0.229953 0.132536
vt 0.229953 0.261024
vt 0.262390 0.167463
vt 0.262390 0.261024
vt 0.229947 0.462838
vt 0.262387 0.424890
vt 0.262385 0.462840
vt 0.262390 0.068775
vt 0.262390 0.122764
vt 0.229952 0.167463
vt 0.262391 0.273417
vt 0.229953 0.341222
vt 0.262390 0.341222
vt 0.229949 0.418837
vt 0.229949 0.424888
vt 0.262388 0.418839
vt 0.262390 0.365720
vt 0.978401 0.346345
vt 0.946886 0.201990
vt 0.978401 0.017869
vt 0.908752 0.066229
vt 0.791876 0.017869
vt 0.946886 0.307688
vt 0.783549 0.346345
vt 0.752815 0.307688
vt 0.752815 0.520538
vt 0.229952 0.012329
vt 0.229952 0.068775
vt 0.350666 0.156701
vt 0.464903 0.270468
vt 0.350666 0.270468
vt 0.464903 0.398405
vt 0.350666 0.512171
vt 0.350666 0.398404
vt 0.464902 0.028764
vt 0.464903 0.156701
vt 0.957613 0.364049
vt 0.807568 0.519861
vt 0.807568 0.364049
vt 0.229949 0.418837
vt 0.262389 0.392719
vt 0.262388 0.418839
vt 0.262385 0.462840
vt 0.229949 0.424888
vt 0.262387 0.424890
vt 0.262390 0.261024
vt 0.229953 0.341222
vt 0.229952 0.261024
vt 0.262390 0.365720
vt 0.229951 0.392717
vt 0.229953 0.365719
vt 0.262390 0.167463
vt 0.229953 0.122764
vt 0.262390 0.122764
vt 0.229952 0.167463
vt 0.262390 0.341222
vt 0.262390 0.012329
vt 0.229952 0.068775
vt 0.229952 0.012329
vt 0.262390 0.068775
vt 0.037009 0.015310
vt 0.060841 0.491940
vt 0.037009 0.491940
vt 0.060841 0.515770
vt 0.299155 0.491940
vt 0.299155 0.515771
vt 0.322987 0.015310
vt 0.299155 0.015310
vt 0.283268 0.468108
vt 0.283268 0.015310
vt 0.060841 0.015310
vt 0.076729 0.468108
vt 0.076729 0.468107
vt 0.060841 0.015309
vt 0.076729 0.015309
vt 0.299156 0.015309
vt 0.283268 0.468107
vt 0.283268 0.015309
vt 0.299155 0.491937
vt 0.098507 0.017024
vt 0.135885 0.194569
vt 0.098507 0.194569
vt 0.135885 0.275554
vt 0.098507 0.275554
vt 0.135885 0.453099
vt 0.098507 0.453099
vt 0.037009 0.015309
vt 0.060841 0.491940
vt 0.037009 0.491938
vt 0.060841 0.515772
vt 0.322987 0.491938
vt 0.209953 0.715561
vt 0.023149 0.536951
vt 0.023148 0.715560
vt 0.750319 0.972491
vt 0.976688 0.745187
vt 0.976688 0.972491
vt 0.497861 0.536953
vt 0.251408 0.715561
vt 0.497860 0.715562
vt 0.272775 0.972491
vt 0.021599 0.745188
vt 0.272775 0.745188
vt 0.499144 0.972491
vt 0.499143 0.745187
vt 0.932419 0.536953
vt 0.972573 0.715562
vt 0.972574 0.536953
vt 0.745613 0.715562
vt 0.745613 0.536953
vt 0.615674 0.626257
vt 0.660326 0.626257
vt 0.596319 0.858839
vt 0.539316 0.715562
vt 0.539316 0.536953
vt 0.653145 0.858839
vt 0.750319 0.745187
vt 0.687384 0.299326
vt 0.682386 0.384789
vt 0.488300 0.299326
vt 0.702377 0.434765
vt 0.697379 0.520228
vt 0.697379 0.434765
vt 0.682387 0.388120
vt 0.682387 0.434765
vt 0.687384 0.520228
vt 0.488300 0.520228
vt 0.682387 0.431433
vt 0.702377 0.431433
vt 0.743778 0.520228
vt 0.702377 0.388120
vt 0.743778 0.244388
vt 0.702377 0.384789
vt 0.697379 0.289331
vt 0.251409 0.536952
vt 0.697379 0.244388
vt 0.350666 0.270468
vt 0.464903 0.156701
vt 0.464903 0.270468
vt 0.464902 0.028764
vt 0.350666 0.156701
vt 0.350666 0.028764
vt 0.464903 0.398405
vt 0.350666 0.512171
vt 0.350666 0.398404
vt 0.957613 0.364049
vt 0.807568 0.519861
vt 0.807568 0.364049
vt 0.220689 0.025267
vt 0.144900 0.155645
vt 0.144900 0.025267
vt 0.144900 0.371093
vt 0.220689 0.456163
vt 0.144900 0.456163
vt 0.220689 0.218599
vt 0.220689 0.155645
vt 0.144900 0.319451
vt 0.220689 0.371093
vt 0.144900 0.297335
vt 0.220689 0.297335
vt 0.220689 0.319451
vt 0.898385 0.211408
vt 0.935432 0.297914
vt 0.792931 0.297914
vt 0.792931 0.079517
vt 0.488300 0.520228
vt 0.687384 0.299326
vt 0.687384 0.520228
vt 0.807568 0.364049
vt 0.957613 0.519861
vt 0.807568 0.519861
vt 0.957613 0.519861
vt 0.807568 0.364049
vt 0.957613 0.364049
vt 0.500172 0.230505
vt 0.765959 0.072906
vt 0.765959 0.230505
vt 0.760091 0.242457
vt 0.776530 0.299118
vt 0.760091 0.299118
vt 0.711699 0.013908
vt 0.765959 0.072906
vt 0.617482 0.060734
vt 0.764259 0.013908
vt 0.498033 0.013908
vt 0.776530 0.299118
vt 0.764259 0.060733
vt 0.229953 0.273417
vt 0.791876 0.066229
vt 0.908752 0.201990
vt 0.783549 0.520538
vt 0.262390 0.012329
vt 0.464902 0.512172
vt 0.350666 0.028764
vt 0.957613 0.519861
vt 0.229947 0.462838
vt 0.322987 0.491940
vt 0.076729 0.015310
vt 0.135885 0.017024
vt 0.299156 0.515768
vt 0.322987 0.015309
vt 0.209953 0.536952
vt 0.021599 0.972492
vt 0.932419 0.715562
vt 0.660326 0.536953
vt 0.615674 0.536953
vt 0.596319 0.745187
vt 0.653145 0.745187
vt 0.687384 0.384789
vt 0.687384 0.434765
vt 0.697379 0.384789
vt 0.464902 0.512172
vt 0.957613 0.519861
vt 0.144900 0.218599
vt 0.935432 0.211408
vt 0.898385 0.079517
vt 0.488300 0.299326
vt 0.957613 0.364049
vt 0.807568 0.519861
vt 0.500172 0.072906
vt 0.776530 0.242457
vt 0.783549 0.346345
vt 0.752815 0.520538
vt 0.783549 0.520538
vt 0.898385 0.211408
vt 0.792931 0.079517
vt 0.792931 0.297914
vt 0.487210 0.244486
vt 0.697379 0.289331
vt 0.697379 0.244388
vt 0.743778 0.244388
vt 0.743778 0.520228
vt 0.946886 0.307688
vt 0.978401 0.346345
vt 0.908752 0.066229
vt 0.791876 0.017869
vt 0.791876 0.066229
vt 0.935432 0.297914
vt 0.946886 0.201990
vt 0.908752 0.201990
vt 0.752815 0.307688
vt 0.898385 0.079517
vt 0.487210 0.289592
vt 0.697379 0.520228
vt 0.978401 0.017869
vt 0.935432 0.211408
vn 1.0000 0.0000 0.0000
vn 0.0000 1.0000 -0.0000
vn 0.0000 -1.0000 0.0000
vn -1.0000 0.0000 -0.0000
vn -0.0000 -0.0000 1.0000
vn 0.0000 0.0000 -1.0000
s off
f 1/1/1 3/2/1 4/3/1
f 2/4/2 6/5/2 5/6/2
f 7/7/3 4/3/3 3/2/3
f 6/8/4 7/7/4 5/9/4
f 2/10/5 7/11/5 3/12/5
f 9/13/1 11/14/1 12/15/1
f 13/16/3 12/15/3 11/14/3
f 16/17/2 9/13/2 15/18/2
f 15/18/4 13/19/4 16/17/4
f 11/20/5 16/21/5 13/22/5
f 18/23/4 20/24/4 17/25/4
f 18/26/2 22/27/2 19/28/2
f 21/29/1 24/30/1 22/27/1
f 20/24/3 23/31/3 17/25/3
f 26/32/3 28/33/3 25/34/3
f 30/35/3 32/36/3 29/37/3
f 34/38/3 36/39/3 33/40/3
f 38/41/1 40/42/1 37/43/1
f 30/35/1 42/44/1 31/45/1
f 35/46/1 32/36/1 36/39/1
f 43/47/1 34/38/1 33/40/1
f 46/48/2 43/47/2 45/49/2
f 47/50/3 40/42/3 39/51/3
f 47/50/4 28/33/4 48/52/4
f 46/48/4 27/53/4 26/32/4
f 26/54/5 30/55/5 46/56/5
f 35/57/5 44/58/5 46/56/5
f 30/55/5 35/57/5 46/56/5
f 41/59/5 25/60/5 38/61/5
f 25/60/5 39/62/5 38/61/5
f 38/63/2 42/44/2 41/64/2
f 49/65/1 51/66/1 52/67/1
f 53/68/4 55/69/4 56/70/4
f 49/65/2 54/71/2 50/72/2
f 53/68/3 52/67/3 51/66/3
f 50/73/5 53/74/5 51/75/5
f 58/76/3 60/77/3 57/78/3
f 62/79/3 64/80/3 61/81/3
f 65/82/1 67/83/1 68/84/1
f 70/85/1 59/86/1 69/87/1
f 72/88/4 74/89/4 71/90/4
f 65/82/2 73/91/2 72/88/2
f 66/92/2 69/87/2 67/83/2
f 57/78/4 64/80/4 58/76/4
f 62/93/4 76/94/4 63/95/4
f 71/90/3 76/94/3 75/96/3
f 78/97/4 80/98/4 77/99/4
f 77/100/5 82/101/5 81/102/5
f 84/103/1 82/101/1 83/104/1
f 83/104/3 86/105/3 85/106/3
f 79/107/3 88/108/3 80/98/3
f 80/98/3 86/105/3 82/101/3
f 89/109/2 91/110/2 92/111/2
f 93/112/2 95/113/2 96/114/2
f 94/115/2 89/109/2 95/113/2
f 92/116/4 86/117/4 89/118/4
f 89/118/6 88/119/6 95/120/6
f 95/120/1 87/121/1 96/122/1
f 98/123/1 90/124/1 97/125/1
f 94/115/5 97/126/5 90/124/5
f 93/112/4 99/127/4 94/115/4
f 101/128/1 103/129/1 104/130/1
f 105/131/1 107/132/1 108/133/1
f 110/134/2 112/135/2 109/136/2
f 114/137/3 107/138/3 113/139/3
f 116/140/4 113/139/4 115/141/4
f 117/142/3 104/143/3 103/144/3
f 120/145/4 117/142/4 119/146/4
f 81/147/3 120/145/3 77/148/3
f 97/149/2 105/131/2 116/140/2
f 110/134/4 121/150/4 122/151/4
f 119/146/3 77/148/3 120/145/3
f 81/147/3 122/151/3 121/150/3
f 115/141/2 97/149/2 116/140/2
f 99/152/2 106/153/2 105/131/2
f 106/154/5 93/155/5 107/156/5
f 83/157/5 122/158/5 84/159/5
f 107/156/5 93/155/5 96/160/5
f 91/161/5 115/162/5 113/163/5
f 113/163/5 92/164/5 91/161/5
f 107/156/5 92/164/5 113/163/5
f 85/165/5 110/166/5 83/157/5
f 110/166/5 87/167/5 111/168/5
f 79/169/5 119/170/5 111/168/5
f 111/168/5 87/167/5 79/169/5
f 111/171/1 101/128/1 112/135/1
f 119/170/5 102/172/5 111/168/5
f 87/167/5 92/164/5 96/160/5
f 124/173/2 126/174/2 123/175/2
f 128/176/4 125/177/4 127/178/4
f 130/179/3 127/180/3 129/181/3
f 130/179/1 124/173/1 123/175/1
f 126/182/5 130/183/5 123/184/5
f 132/185/1 134/186/1 131/187/1
f 135/188/3 132/189/3 131/190/3
f 137/191/2 134/186/2 133/192/2
f 139/193/4 136/194/4 135/188/4
f 142/195/4 137/191/4 141/196/4
f 139/193/2 141/196/2 140/197/2
f 142/198/5 135/199/5 131/200/5
f 134/201/5 142/198/5 131/200/5
f 108/202/6 116/203/6 105/204/6
f 56/205/6 49/206/6 52/207/6
f 129/208/6 125/209/6 124/210/6
f 8/211/6 1/212/6 4/213/6
f 15/214/6 12/215/6 14/216/6
f 1/1/1 2/4/1 3/2/1
f 2/4/2 1/1/2 6/5/2
f 7/7/3 8/217/3 4/3/3
f 6/8/4 8/217/4 7/7/4
f 2/10/5 5/218/5 7/11/5
f 9/13/1 10/219/1 11/14/1
f 13/16/3 14/220/3 12/15/3
f 16/17/2 10/219/2 9/13/2
f 15/18/4 14/221/4 13/19/4
f 11/20/5 10/222/5 16/21/5
f 18/23/4 19/223/4 20/24/4
f 18/26/2 21/29/2 22/27/2
f 21/29/1 23/31/1 24/30/1
f 20/24/3 24/30/3 23/31/3
f 26/32/3 27/53/3 28/33/3
f 30/35/3 31/45/3 32/36/3
f 34/38/3 35/46/3 36/39/3
f 38/41/1 39/51/1 40/42/1
f 30/35/1 41/64/1 42/44/1
f 35/46/1 29/37/1 32/36/1
f 43/47/1 44/224/1 34/38/1
f 46/48/2 44/224/2 43/47/2
f 47/50/3 48/52/3 40/42/3
f 47/50/4 25/34/4 28/33/4
f 46/48/4 45/49/4 27/53/4
f 26/54/5 41/59/5 30/55/5
f 35/57/5 34/225/5 44/58/5
f 30/55/5 29/226/5 35/57/5
f 41/59/5 26/54/5 25/60/5
f 25/60/5 47/227/5 39/62/5
f 38/63/2 37/228/2 42/44/2
f 49/65/1 50/72/1 51/66/1
f 53/68/4 54/229/4 55/69/4
f 49/65/2 55/230/2 54/71/2
f 53/68/3 56/70/3 52/67/3
f 50/73/5 54/231/5 53/74/5
f 58/76/3 59/86/3 60/77/3
f 62/79/3 63/232/3 64/80/3
f 65/82/1 66/92/1 67/83/1
f 70/85/1 60/77/1 59/86/1
f 72/88/4 73/91/4 74/89/4
f 65/82/2 68/84/2 73/91/2
f 66/92/2 70/85/2 69/87/2
f 57/78/4 61/81/4 64/80/4
f 62/93/4 75/96/4 76/94/4
f 71/90/3 74/89/3 76/94/3
f 78/97/4 79/107/4 80/98/4
f 77/100/5 80/98/5 82/101/5
f 84/103/1 81/233/1 82/101/1
f 83/104/3 82/101/3 86/105/3
f 79/107/3 87/234/3 88/108/3
f 80/98/3 88/108/3 86/105/3
f 89/109/2 90/124/2 91/110/2
f 93/112/2 94/115/2 95/113/2
f 94/115/2 90/124/2 89/109/2
f 92/116/4 85/235/4 86/117/4
f 89/118/6 86/117/6 88/119/6
f 95/120/1 88/119/1 87/121/1
f 98/123/1 91/110/1 90/124/1
f 94/115/5 99/236/5 97/126/5
f 93/112/4 100/237/4 99/127/4
f 101/128/1 102/238/1 103/129/1
f 105/131/1 106/153/1 107/132/1
f 110/134/2 111/171/2 112/135/2
f 114/137/3 108/239/3 107/138/3
f 116/140/4 114/137/4 113/139/4
f 117/142/3 118/240/3 104/143/3
f 120/145/4 118/240/4 117/142/4
f 81/147/3 121/150/3 120/145/3
f 97/149/2 99/152/2 105/131/2
f 110/134/4 109/136/4 121/150/4
f 119/146/3 78/241/3 77/148/3
f 81/147/3 84/242/3 122/151/3
f 115/141/2 98/243/2 97/149/2
f 99/152/2 100/244/2 106/153/2
f 106/154/5 100/245/5 93/155/5
f 83/157/5 110/166/5 122/158/5
f 91/161/5 98/246/5 115/162/5
f 107/156/5 96/160/5 92/164/5
f 110/166/5 85/165/5 87/167/5
f 79/169/5 78/247/5 119/170/5
f 111/171/1 102/238/1 101/128/1
f 87/167/5 85/165/5 92/164/5
f 124/173/2 125/177/2 126/174/2
f 128/176/4 126/174/4 125/177/4
f 130/179/3 128/248/3 127/180/3
f 130/179/1 129/181/1 124/173/1
f 126/182/5 128/249/5 130/183/5
f 132/185/1 133/192/1 134/186/1
f 135/188/3 136/194/3 132/189/3
f 137/191/2 138/250/2 134/186/2
f 139/193/4 140/197/4 136/194/4
f 142/195/4 138/250/4 137/191/4
f 139/193/2 142/195/2 141/196/2
f 142/198/5 139/251/5 135/199/5
f 134/201/5 138/252/5 142/198/5
f 108/202/6 114/253/6 116/203/6
f 56/205/6 55/254/6 49/206/6
f 129/208/6 127/255/6 125/209/6
f 8/211/6 6/256/6 1/212/6
f 15/214/6 9/257/6 12/215/6
s 1
f 28/258/6 40/259/6 48/260/6
f 141/261/6 133/262/6 132/263/6
f 104/264/6 120/265/6 101/266/6
f 101/266/6 120/265/6 112/267/6
f 120/265/6 109/268/6 112/267/6
f 42/269/6 28/258/6 27/270/6
f 36/271/6 43/272/6 33/273/6
f 136/274/6 141/261/6 132/263/6
f 27/270/6 31/275/6 42/269/6
f 31/275/6 36/271/6 32/276/6
f 28/258/6 37/277/6 40/259/6
f 141/261/6 137/278/6 133/262/6
f 104/264/6 118/279/6 120/265/6
f 120/265/6 121/280/6 109/268/6
f 42/269/6 37/277/6 28/258/6
f 36/271/6 45/281/6 43/272/6
f 136/274/6 140/282/6 141/261/6
f 27/270/6 45/281/6 31/275/6
f 31/275/6 45/281/6 36/271/6
