# Blender v2.80 (sub 75) OBJ File: 'F_FlatWall.blend'
# www.blender.org
o 2ndFloor_(1).002
v 22.522345 -0.536997 -17.999989
v -22.372519 -0.537026 21.999990
v 22.522341 -0.537001 22.000010
v -22.372515 -0.537023 -18.000004
v 22.522345 0.219768 -17.999989
v 22.522341 0.219764 22.000010
v -22.372519 0.219739 21.999990
v -22.372515 0.219742 -18.000004
vt 0.000061 0.999939
vt 0.374223 0.999939
vt 0.374223 0.000061
vt 0.000061 0.000061
vt 0.000061 0.999939
vt 0.374223 0.000061
vt 0.374223 0.999939
vt 0.000061 0.000061
vn 0.0000 -1.0000 -0.0000
vn -0.0000 1.0000 0.0000
vn -0.0000 0.0000 1.0000
vn 1.0000 0.0000 0.0000
vn 0.0000 0.0000 -1.0000
vn -1.0000 0.0000 -0.0000
s off
f 1/1/1 3/2/1 2/3/1
f 1/1/1 2/3/1 4/4/1
f 5/5/2 7/6/2 6/7/2
f 5/5/2 8/8/2 7/6/2
f 3/2/3 7/6/3 2/3/3
f 1/1/4 6/7/4 3/2/4
f 4/4/5 5/5/5 1/1/5
f 4/4/6 7/6/6 8/8/6
f 3/2/3 6/7/3 7/6/3
f 1/1/4 5/5/4 6/7/4
f 4/4/5 8/8/5 5/5/5
f 4/4/6 2/3/6 7/6/6
