# Blender v2.80 (sub 75) OBJ File: ''
# www.blender.org
o Floor1_Beeg_(2)
v 1.000004 96.024231 -0.000000
v 46.160965 96.024231 -0.000002
v 46.160965 96.024231 -40.000004
v 1.000003 96.024231 -40.000000
v -61.000000 59.124863 -39.999996
v -79.844543 59.124863 -39.999996
v -79.844543 59.124863 0.000003
v -60.999996 59.124863 0.000003
v -59.000000 37.819344 -39.999992
v -77.844536 37.819344 -39.999992
v -77.844536 37.819344 0.000003
v -59.000000 37.819344 0.000003
v -31.333342 16.513803 -40.000000
v -59.000000 16.513803 -39.999996
v -59.000000 16.513802 0.000003
v -31.333340 16.513802 0.000001
v 31.640757 -90.476196 -40.000000
v 31.640759 -90.476196 -0.000001
v 66.167816 -91.056877 -0.000003
v 66.167816 -91.056877 -40.000004
v 0.999999 16.513802 -40.000000
v 1.000001 16.513800 -0.000000
v 44.160965 16.513798 -0.000002
v 44.160965 16.513800 -40.000004
v 0.999995 -74.776054 -40.000000
v 0.999997 -74.776054 -0.000000
v 17.467455 -74.776054 -0.000001
v 17.467453 -74.776054 -39.999981
v 44.160961 -14.513800 -40.000004
v -1.000002 -14.513798 -40.000000
v -1.000001 -14.513800 0.000000
v 44.160965 -14.513802 -0.000002
v -1.000003 -33.473202 -40.000000
v -29.333345 -33.473202 -40.000000
v -29.333344 -33.473202 0.000001
v -1.000001 -33.473202 0.000000
v -1.000002 -54.795998 0.000000
v -1.000004 -54.795998 -40.000000
v -29.333345 -54.795998 -40.000000
v -29.333344 -54.795998 0.000001
v -60.821041 108.211365 0.000003
v 1.000005 108.211365 -0.000000
v 1.000003 108.211365 -40.000000
v -60.821041 108.211365 -39.999996
v -58.999996 59.124863 0.000003
v -0.999997 59.124859 0.000000
v -0.999999 59.124859 -40.000000
v -59.000000 59.124863 -39.999996
v -29.333347 -107.772720 -40.000000
v -29.333345 -107.772720 0.000001
v 17.467455 -107.772720 -0.000001
v 17.467453 -107.772720 -40.000000
v 46.160957 -49.750942 -0.000002
v 66.526962 -49.750942 -0.000003
v 66.526955 -49.750942 -40.000004
v 46.160957 -49.750942 -40.000004
v 1.000004 94.024239 -0.000000
v 1.000002 94.024239 -40.000000
v 44.160969 94.024239 -40.000004
v 44.160969 94.024239 -0.000002
v -61.000000 35.819344 -39.999996
v -61.000000 35.819344 0.000003
v -79.844543 35.819344 0.000003
v -79.844543 35.819344 -39.999996
v -31.333342 14.513801 -39.999996
v -31.333340 14.513801 0.000001
v -61.000000 14.513803 0.000003
v -61.000000 14.513803 -39.999992
v 31.640757 -92.476196 -40.000000
v 66.167816 -93.056885 -40.000004
v 66.167816 -93.056885 -0.000003
v 31.640759 -92.476196 -0.000001
v -1.000001 14.513800 -39.999996
v 44.160965 14.513798 -40.000000
v 44.160965 14.513798 -0.000002
v -0.999999 14.513800 0.000000
v -1.000005 -76.776070 -40.000000
v 17.467453 -76.776062 -39.999981
v 17.467455 -76.776062 -0.000001
v -1.000003 -76.776062 0.000000
v 44.160961 -16.513802 -40.000004
v 44.160965 -16.513802 -0.000002
v 0.999999 -16.513800 -0.000000
v 0.999998 -16.513800 -40.000000
v -1.000003 -35.473198 -39.999977
v -1.000002 -35.473198 0.000019
v -29.333344 -35.473198 0.000001
v -29.333345 -35.473198 -40.000000
v -1.000003 -56.795998 0.000000
v -29.333344 -56.795998 0.000001
v -29.333345 -56.795998 -40.000000
v -1.000004 -56.795998 -40.000000
v -58.821033 106.211342 0.000003
v -58.821033 106.211342 -39.999996
v -0.999997 106.211342 -40.000000
v -0.999995 106.211342 0.000000
v -0.999999 57.124859 -40.000004
v -0.999997 57.124859 0.000000
v -29.333340 57.124859 0.000001
v -29.333342 57.124859 -40.000004
v -77.844536 57.124863 -40.000000
v -31.333340 57.124859 -40.000004
v -31.333338 57.124859 0.000001
v -77.844536 57.124863 0.000003
v -31.333345 -109.772720 -40.000000
v 17.467453 -109.772720 -40.000000
v 17.467453 -109.772720 -0.000001
v -31.333345 -109.772720 0.000001
v 44.160961 -51.750946 -0.000002
v 44.160961 -51.750950 -40.000004
v 66.526955 -51.750950 -40.000004
v 66.526962 -51.750946 -0.000003
v 79.580658 -66.232635 -0.000003
v 79.580650 -66.232643 -40.000004
v 78.999992 -79.393707 -40.000004
v 79.000000 -79.393707 -0.000003
v 81.580658 -66.232635 -0.000004
v 81.000008 -79.393707 -0.000004
v 81.000000 -79.393707 -40.000004
v 81.580650 -66.232643 -40.000004
v 30.719234 -91.476196 -0.000001
v 30.719233 -91.476196 -40.000000
vt 0.375008 0.496100
vt 0.624996 0.672372
vt 0.375006 0.672370
vt 0.000298 -0.000006
vt -0.002147 0.000040
vt -0.001032 0.000019
vt -0.032705 -0.030860
vt 0.120893 0.114072
vt 0.022290 0.021033
vt 0.876683 0.505302
vt 0.583924 0.460363
vt 0.840673 0.481576
vt 0.553351 0.852634
vt 0.375000 1.000000
vt 0.397204 0.969691
vt 0.119121 0.106457
vt -0.035728 -0.031929
vt 0.029787 0.026620
vt 0.101551 0.107545
vt 0.375000 0.812295
vt -0.009294 0.058013
vt 0.000309 0.000581
vt 0.000563 0.001060
vt -0.000202 -0.000379
vt 0.000000 0.000000
vt 0.000000 0.000000
vt 0.000000 0.000000
vt 0.000090 0.000170
vt 0.000020 0.000038
vt 0.000265 0.000499
vt 0.375253 0.664713
vt 0.628729 0.666430
vt 0.380014 0.665760
vt 0.999950 0.000046
vt 0.999961 1.216165
vt 0.999964 0.000039
vt 0.125008 0.498898
vt 0.374997 0.580905
vt 0.374993 0.497058
vt 0.630165 0.475674
vt 0.475910 0.410197
vt 0.676871 0.597433
vt 0.624996 0.672372
vt 0.375008 0.491022
vt 0.375006 0.672370
vt 0.129655 0.122340
vt -0.036176 -0.034135
vt 0.031297 0.029531
vt 0.583924 0.460363
vt 0.876683 0.505302
vt 0.840673 0.481576
vt 0.375000 1.000000
vt 0.553351 0.852634
vt 0.397204 0.969691
vt -0.035728 -0.031929
vt 0.118288 0.105713
vt 0.028948 0.025871
vt 0.375000 0.812295
vt 0.124638 0.145669
vt 0.013463 0.094809
vt 0.000563 0.001060
vt 0.000309 0.000581
vt -0.000202 -0.000379
vt 0.000000 0.000000
vt 0.000000 0.000000
vt 0.000000 0.000000
vt 0.000020 0.000038
vt 0.000090 0.000170
vt 0.000265 0.000499
vt 0.628656 0.666411
vt 0.375145 0.664683
vt 0.379941 0.665741
vt 1.058001 0.000048
vt 0.500023 1.216162
vt 1.058021 1.216148
vt 0.000126 1.216174
vt 0.000013 -0.304023
vt -0.000010 0.228028
vt 0.374997 0.580905
vt 0.125008 0.498828
vt 0.374993 0.496988
vt 0.475911 0.410197
vt 0.630165 0.475674
vt 0.676872 0.597434
vt 0.000000 0.000000
vt 0.000000 0.000000
vt 0.000000 0.000000
vt 0.687476 0.664910
vt 0.000036 1.416167
vt 0.999960 1.416179
vt 0.698330 0.534411
vt 0.095242 0.030886
vt 0.854531 0.504008
vt 0.375000 0.312295
vt 0.625000 0.187705
vt 0.625000 0.312295
vt 0.000000 0.000000
vt 0.000000 0.000000
vt 0.000000 0.000000
vt 0.000366 0.000688
vt 0.000132 0.000248
vt -0.000076 -0.000144
vt 0.553468 0.321809
vt 0.652560 0.660750
vt 0.685178 0.699782
vt 0.000031 0.000058
vt 0.000080 0.000150
vt 0.000162 0.000306
vt 0.439271 0.246574
vt -0.052069 -0.003933
vt 0.080836 0.016050
vt 0.375663 0.747404
vt 0.628467 0.666703
vt 0.624658 0.748956
vt -0.000000 -0.000001
vt 0.000001 0.000001
vt 0.000000 0.000001
vt 0.500005 2.036385
vt 0.999994 0.000038
vt 0.500016 0.000030
vt 0.000000 0.000000
vt 0.000000 0.000000
vt 0.000000 0.000000
vt 0.624998 0.664900
vt 0.375005 0.664900
vt 0.375005 0.664899
vt 0.095237 0.030883
vt 0.752510 0.569267
vt 0.908298 0.538731
vt 0.625000 0.187705
vt 0.375000 0.312295
vt 0.625000 0.312295
vt 0.531927 0.394630
vt 0.039702 0.075834
vt 0.651648 0.623309
vt 0.001165 0.002190
vt -0.000121 -0.000228
vt 0.000455 0.000857
vt 0.042955 0.006060
vt -0.012105 -0.001843
vt 0.016141 0.002460
vt 0.628517 0.665725
vt 0.375406 0.752340
vt 0.624400 0.753892
vt -0.000002 -0.000004
vt -0.000001 -0.000001
vt 0.906235 -0.190882
vt 0.947259 1.928992
vt 0.624992 1.272741
vt 0.375000 0.437705
vt 0.375000 0.437705
vt 0.625000 1.000000
vt 0.375000 0.187705
vt 0.375000 0.187705
vt 0.625000 1.000000
vt 0.125005 0.583259
vt 0.125005 0.583259
vt 0.374998 0.696600
vt 0.260313 0.539949
vt 0.001204 0.002266
vt 0.000254 0.000479
vt 0.000094 0.000177
vt 0.000000 0.000000
vt 0.624996 0.374996
vt 0.375007 0.250008
vt 0.375004 0.374999
vt 0.001422 0.002675
vt 1.070305 0.143216
vt 0.016208 0.014485
vt 0.000746 0.001403
vt 0.395621 0.496639
vt 0.000001 0.000002
vt 0.395621 0.496639
vt 0.500009 0.000050
vt 0.001326 0.002493
vt 0.624994 0.496101
vt -0.000190 0.000004
vt 0.024538 0.023153
vt 0.623736 0.496022
vt 0.001326 0.002493
vt 0.000000 0.000000
vt -0.000060 -0.000112
vt 0.624685 0.665006
vt 0.999959 1.216152
vt 0.624994 0.491024
vt 0.021120 0.019929
vt 0.623736 0.496022
vt 0.016208 0.014485
vt 0.000000 0.000000
vt -0.000060 -0.000112
vt 0.624577 0.664977
vt 0.000179 0.000028
vt 0.000000 0.000000
vt 0.390643 0.664906
vt 0.059472 0.100334
vt 0.000000 0.000000
vt 0.505612 0.324753
vt -0.000013 -0.000024
vt 0.283079 0.223392
vt 0.380193 0.665353
vt -0.000001 -0.000002
vt 0.999982 2.036378
vt 0.000000 0.000000
vt 0.624996 0.664900
vt 0.059465 0.100330
vt -0.029775 -0.056874
vt 0.000224 0.000422
vt -0.021611 -0.003779
vt 0.380243 0.664376
vt 0.624997 0.250004
vn 0.0000 1.0000 -0.0000
vn 0.0168 0.9999 0.0000
vn 0.0000 -1.0000 0.0000
vn -0.0168 -0.9999 0.0000
vn -1.0000 0.0000 0.0000
vn -0.9990 0.0441 0.0000
vn -1.0000 0.0036 0.0000
vn 1.0000 -0.0000 0.0000
vn 0.9990 -0.0441 -0.0000
vn 1.0000 -0.0038 -0.0000
vn 0.7384 0.6744 -0.0000
vn -0.7428 -0.6695 0.0000
vn -0.6726 0.7400 0.0000
vn 0.6775 -0.7355 -0.0000
vn 0.7735 -0.6338 0.0000
vn 0.7423 0.6701 -0.0000
vn -0.7759 0.6309 0.0000
vn -0.7427 -0.6696 -0.0000
vn -0.0000 0.0000 -1.0000
s 1
f 2/1/1 4/2/1 1/3/1
f 6/4/1 8/5/1 5/6/1
f 10/7/1 12/8/1 9/9/1
f 14/10/1 16/11/1 13/12/1
f 18/13/2 20/14/2 17/15/2
f 22/16/1 24/17/1 21/18/1
f 26/19/1 28/20/1 25/21/1
f 30/22/1 32/23/1 29/24/1
f 34/25/1 36/26/1 33/27/1
f 38/28/1 40/29/1 37/30/1
f 42/31/1 44/32/1 41/33/1
f 46/34/1 48/35/1 45/36/1
f 50/37/1 52/38/1 49/39/1
f 54/40/1 56/41/1 53/42/1
f 58/43/3 60/44/3 57/45/3
f 62/46/3 64/47/3 61/48/3
f 66/49/3 68/50/3 65/51/3
f 70/52/4 72/53/4 69/54/4
f 74/55/3 76/56/3 73/57/3
f 78/58/3 80/59/3 77/60/3
f 82/61/3 84/62/3 81/63/3
f 85/64/3 87/65/3 88/66/3
f 90/67/3 92/68/3 89/69/3
f 94/70/3 96/71/3 93/72/3
f 98/73/3 100/74/3 97/75/3
f 102/76/3 104/77/3 101/78/3
f 106/79/3 108/80/3 105/81/3
f 110/82/3 112/83/3 109/84/3
f 64/85/5 7/86/5 6/87/5
f 96/88/5 47/89/5 46/90/5
f 67/91/5 61/92/5 68/93/5
f 114/94/6 116/95/6 113/96/6
f 24/97/5 60/98/5 59/99/5
f 37/100/5 85/101/5 38/102/5
f 81/103/5 109/104/5 82/105/5
f 92/106/5 80/107/5 89/108/5
f 13/109/5 103/110/5 102/111/5
f 8/112/7 44/113/7 5/114/7
f 65/115/5 108/116/5 66/117/5
f 97/118/5 76/119/5 98/120/5
f 104/121/8 10/122/8 101/123/8
f 4/124/8 42/125/8 1/126/8
f 9/127/8 15/128/8 14/129/8
f 118/130/9 120/131/9 117/132/9
f 56/133/8 2/134/8 53/135/8
f 83/136/8 25/137/8 84/138/8
f 100/139/8 35/140/8 34/141/8
f 94/142/10 45/143/10 48/144/10
f 90/67/8 49/145/8 91/146/8
f 57/147/8 21/148/8 58/149/8
f 117/132/11 55/150/11 54/40/11
f 111/151/12 113/96/12 112/83/12
f 19/152/13 115/153/13 20/14/13
f 119/154/14 71/155/14 70/52/14
f 107/156/15 69/54/15 72/53/15
f 28/20/16 18/13/16 17/15/16
f 51/157/17 122/158/17 52/38/17
f 121/159/18 78/58/18 122/158/18
f 36/160/5 30/161/5 33/162/5
f 87/65/8 39/163/8 88/66/8
f 74/164/5 32/165/5 75/166/5
f 93/72/19 46/34/19 45/143/19
f 12/8/19 16/11/19 15/128/19
f 12/8/19 104/77/19 103/110/19
f 76/56/19 32/23/19 31/167/19
f 22/168/19 60/98/19 23/169/19
f 40/29/19 86/170/19 37/30/19
f 51/157/19 79/171/19 121/159/19
f 90/67/19 80/59/19 50/172/19
f 80/59/19 51/157/19 50/172/19
f 19/152/19 113/96/19 116/95/19
f 19/152/19 109/84/19 112/83/19
f 109/84/19 27/173/19 82/105/19
f 76/56/19 99/174/19 98/120/19
f 31/167/19 36/26/19 35/140/19
f 35/140/19 76/56/19 31/167/19
f 27/173/19 83/175/19 82/105/19
f 2/1/1 3/176/1 4/2/1
f 6/4/1 7/177/1 8/5/1
f 10/7/1 11/178/1 12/8/1
f 14/10/1 15/179/1 16/11/1
f 18/13/2 19/152/2 20/14/2
f 22/16/1 23/169/1 24/17/1
f 26/19/1 27/173/1 28/20/1
f 30/22/1 31/180/1 32/23/1
f 34/25/1 35/181/1 36/26/1
f 38/28/1 39/182/1 40/29/1
f 42/31/1 43/183/1 44/32/1
f 46/34/1 47/184/1 48/35/1
f 50/37/1 51/157/1 52/38/1
f 54/40/1 55/150/1 56/41/1
f 58/43/3 59/185/3 60/44/3
f 62/46/3 63/186/3 64/47/3
f 66/49/3 67/187/3 68/50/3
f 70/52/4 71/155/4 72/53/4
f 74/55/3 75/188/3 76/56/3
f 78/58/3 79/171/3 80/59/3
f 82/61/3 83/175/3 84/62/3
f 85/64/3 86/189/3 87/65/3
f 90/67/3 91/190/3 92/68/3
f 94/70/3 95/191/3 96/71/3
f 98/73/3 99/174/3 100/74/3
f 102/76/3 103/192/3 104/77/3
f 106/79/3 107/156/3 108/80/3
f 110/82/3 111/151/3 112/83/3
f 64/85/5 63/193/5 7/86/5
f 96/88/5 95/194/5 47/89/5
f 67/91/5 62/195/5 61/92/5
f 114/94/6 115/153/6 116/95/6
f 24/97/5 23/196/5 60/98/5
f 37/100/5 86/170/5 85/101/5
f 81/103/5 110/197/5 109/104/5
f 92/106/5 77/198/5 80/107/5
f 13/109/5 16/199/5 103/110/5
f 8/112/7 41/200/7 44/113/7
f 65/115/5 105/201/5 108/116/5
f 97/118/5 73/202/5 76/119/5
f 104/121/8 11/203/8 10/122/8
f 4/124/8 43/204/8 42/125/8
f 9/127/8 12/205/8 15/128/8
f 118/130/9 119/154/9 120/131/9
f 56/133/8 3/206/8 2/134/8
f 83/136/8 26/207/8 25/137/8
f 100/139/8 99/208/8 35/140/8
f 94/142/10 93/209/10 45/143/10
f 90/67/8 50/172/8 49/145/8
f 57/147/8 22/168/8 21/148/8
f 117/132/11 120/131/11 55/150/11
f 111/151/12 114/94/12 113/96/12
f 19/152/13 116/95/13 115/153/13
f 119/154/14 118/130/14 71/155/14
f 107/156/15 106/79/15 69/54/15
f 28/20/16 27/173/16 18/13/16
f 51/157/17 121/159/17 122/158/17
f 121/159/18 79/171/18 78/58/18
f 36/160/5 31/167/5 30/161/5
f 87/65/8 40/29/8 39/163/8
f 74/164/5 29/210/5 32/165/5
f 93/72/19 96/88/19 46/34/19
f 12/8/19 103/110/19 16/11/19
f 12/8/19 11/203/19 104/77/19
f 76/56/19 75/166/19 32/23/19
f 22/168/19 57/45/19 60/98/19
f 40/29/19 87/65/19 86/170/19
f 90/67/19 89/108/19 80/59/19
f 80/59/19 79/171/19 51/157/19
f 19/152/19 112/83/19 113/96/19
f 19/152/19 18/13/19 109/84/19
f 109/84/19 18/13/19 27/173/19
f 35/140/19 99/174/19 76/56/19
f 27/173/19 26/207/19 83/175/19
