# Blender v2.80 (sub 75) OBJ File: ''
# www.blender.org
o Key2
v 0.000000 0.075000 0.823326
v 0.088258 0.053033 0.823326
v 0.086603 0.041687 0.735035
v 0.000000 0.083374 0.735035
v -0.088258 0.053033 0.823326
v -0.086603 0.041687 0.735035
v -0.088258 -0.053033 0.823326
v -0.086603 -0.041687 0.735035
v 0.000000 -0.075000 0.823326
v 0.000000 -0.083374 0.735035
v 0.088258 -0.053033 0.823326
v 0.086603 -0.041687 0.735035
v 0.000000 0.083374 0.000000
v 0.086603 0.041687 0.000000
v 0.000000 0.000000 0.000000
v -0.086603 0.041687 0.000000
v -0.086603 -0.041687 -0.000000
v 0.000000 -0.083374 -0.000000
v 0.086603 -0.041687 -0.000000
v 0.093302 0.020841 0.000000
v 0.086603 0.041687 0.242778
v 0.000000 0.083374 0.242778
v -0.086603 0.041687 0.242778
v -0.086603 -0.041687 0.242778
v 0.000000 -0.083374 0.242778
v 0.086603 -0.041687 0.242778
v 0.093302 -0.020841 -0.000000
v 0.093302 -0.020841 0.242778
v 0.093302 0.020841 0.242778
v 0.261688 -0.020841 -0.000000
v 0.261688 0.020841 0.000000
v 0.261688 0.020841 0.242778
v 0.261688 -0.020841 0.242778
v 0.086603 0.041687 0.638995
v 0.000000 0.083374 0.638995
v -0.086603 0.041687 0.638995
v -0.086603 -0.041687 0.638995
v 0.000000 -0.083374 0.638995
v 0.086603 -0.041687 0.638995
v 0.119130 0.056224 0.705467
v 0.002334 0.112524 0.705364
v -0.114640 0.056310 0.705234
v -0.114640 -0.056310 0.705234
v 0.002334 -0.112524 0.705364
v 0.119130 -0.056224 0.705467
v 0.112500 -0.000000 1.201943
v 0.194856 -0.000000 1.142464
v 0.213880 -0.053033 1.150397
v 0.123483 -0.053033 1.215683
v 0.000000 -0.000000 1.167742
v 0.000000 -0.053033 1.178142
v -0.112500 -0.000000 1.201943
v -0.123483 -0.053033 1.215683
v -0.194856 -0.000000 1.142464
v -0.213880 -0.053033 1.150397
v -0.225000 -0.000000 1.061214
v -0.246967 -0.053033 1.061214
v -0.194856 -0.000000 0.979964
v -0.213880 -0.053033 0.972032
v -0.112500 -0.000000 0.920485
v -0.123483 -0.053033 0.906746
v 0.000000 -0.053033 0.944286
v 0.000000 -0.000000 0.954686
v 0.123483 -0.053033 0.906746
v 0.112500 -0.000000 0.920485
v 0.194856 -0.000000 0.979964
v 0.213880 -0.053033 0.972032
v 0.225000 -0.000000 1.061214
v 0.246967 -0.053033 1.061214
v 0.259808 -0.075000 1.169548
v 0.150000 -0.075000 1.248853
v 0.000000 -0.075000 1.277881
v -0.150000 -0.075000 1.248853
v -0.259808 -0.075000 1.169548
v -0.300000 -0.075000 1.061214
v -0.259808 -0.075000 0.952881
v -0.150000 -0.075000 0.873575
v 0.150000 -0.075000 0.873575
v 0.259808 -0.075000 0.952881
v 0.300000 -0.075000 1.061214
v 0.305736 -0.053033 1.188699
v 0.176516 -0.053033 1.282023
v 0.000000 -0.053033 1.316182
v -0.176517 -0.053033 1.282023
v -0.305736 -0.053033 1.188699
v -0.353033 -0.053033 1.061214
v -0.305736 -0.053033 0.933730
v -0.176517 -0.053033 0.840405
v 0.176516 -0.053033 0.840405
v 0.305736 -0.053033 0.933730
v 0.353033 -0.053033 1.061214
v 0.305736 0.053033 1.188699
v 0.176516 0.053033 1.282023
v 0.000000 0.053033 1.316182
v -0.176517 0.053033 1.282023
v -0.305736 0.053033 1.188699
v -0.353033 0.053033 1.061214
v -0.305736 0.053033 0.933730
v -0.176517 0.053033 0.840405
v 0.176516 0.053033 0.840405
v 0.305736 0.053033 0.933730
v 0.353033 0.053033 1.061214
v 0.259808 0.075000 1.169548
v 0.150000 0.075000 1.248853
v 0.000000 0.075000 1.277881
v -0.150000 0.075000 1.248853
v -0.259808 0.075000 1.169548
v -0.300000 0.075000 1.061214
v -0.259808 0.075000 0.952881
v -0.150000 0.075000 0.873575
v 0.150000 0.075000 0.873575
v 0.259808 0.075000 0.952881
v 0.300000 0.075000 1.061214
v 0.213880 0.053033 1.150397
v 0.123483 0.053033 1.215683
v 0.000000 0.053033 1.178142
v -0.123483 0.053033 1.215683
v -0.213880 0.053033 1.150397
v -0.246967 0.053033 1.061214
v -0.213880 0.053033 0.972032
v -0.123483 0.053033 0.906746
v 0.123483 0.053033 0.906746
v 0.213880 0.053033 0.972032
v 0.246967 0.053033 1.061214
v 0.000000 0.053033 0.944286
v 0.129095 0.060673 0.668039
v 0.132354 0.062130 0.687960
v 0.132354 -0.062130 0.687960
v 0.129095 -0.060673 0.668039
v 0.003027 0.121045 0.667722
v 0.003302 0.124511 0.687625
v -0.122783 0.060563 0.667663
v -0.126064 0.062273 0.687564
v -0.122787 -0.060565 0.667662
v -0.126068 -0.062275 0.687564
v 0.003027 -0.121045 0.667722
v 0.003302 -0.124512 0.687625
vt 0.863678 0.191706
vt 0.780950 0.091152
vt 0.872593 0.182791
vt 0.791457 0.967457
vt 0.986418 0.729680
vt 0.791457 0.729680
vt 0.705809 0.016015
vt 0.772035 0.100067
vt 0.696894 0.024930
vt 0.791457 0.729680
vt 0.986418 0.967457
vt 0.791457 0.967457
vt 0.336204 0.927183
vt 0.263402 0.914368
vt 0.336204 0.914368
vt 0.390805 0.927232
vt 0.026797 0.927232
vt 0.081399 0.914234
vt 0.081399 0.927284
vt 0.136000 0.927284
vt 0.136000 0.914234
vt 0.208801 0.927232
vt 0.263402 0.927183
vt 0.390805 0.914309
vt 0.336204 0.880521
vt 0.390805 0.880521
vt 0.026797 0.914309
vt 0.081399 0.880521
vt 0.136000 0.880521
vt 0.208801 0.914309
vt 0.208801 0.880521
vt 0.263402 0.880521
vt 0.677037 0.043475
vt 0.661054 0.086679
vt 0.647444 0.073068
vt 0.917692 0.343338
vt 0.933677 0.300133
vt 0.947286 0.313745
vt 0.906762 0.359743
vt 0.894264 0.381390
vt 0.865163 0.348596
vt 0.740368 0.359743
vt 0.781967 0.348596
vt 0.752866 0.381390
vt 0.894264 0.381390
vt 0.906762 0.359743
vt 0.865163 0.348596
vt 0.752866 0.381390
vt 0.781967 0.348596
vt 0.740368 0.359743
vt 0.986418 0.967457
vt 0.986418 0.729680
vt 0.026797 0.880521
vt 0.690648 0.057086
vt 0.904084 0.329726
vt 0.390805 0.988218
vt 0.336204 0.948341
vt 0.390805 0.948341
vt 0.026797 0.988218
vt 0.081399 0.948340
vt 0.081399 0.988218
vt 0.136000 0.948341
vt 0.136000 0.988218
vt 0.208801 0.988218
vt 0.208801 0.948341
vt 0.263402 0.948341
vt 0.263402 0.988218
vt 0.945398 0.300176
vt 0.935791 0.272737
vt 0.963230 0.282344
vt 0.972837 0.309783
vt 0.990669 0.291951
vt 0.981063 0.264512
vt 0.953624 0.254905
vt 0.938817 0.266846
vt 0.336204 0.624211
vt 0.391352 0.729495
vt 0.336204 0.729495
vt 0.027344 0.624211
vt 0.081399 0.729495
vt 0.027344 0.729495
vt 0.081399 0.624211
vt 0.136000 0.729495
vt 0.136000 0.624211
vt 0.208801 0.729495
vt 0.208801 0.624211
vt 0.263402 0.729495
vt 0.281603 0.624211
vt 0.263402 0.624211
vt 0.318003 0.624211
vt 0.318003 0.729495
vt 0.947732 0.257930
vt 0.390805 0.937060
vt 0.336204 0.937060
vt 0.026797 0.937060
vt 0.026797 0.948341
vt 0.136000 0.937060
vt 0.081399 0.937060
vt 0.208801 0.937060
vt 0.263402 0.937060
vt 0.336204 0.988218
vt 0.281603 0.729495
vt 0.723000 0.119031
vt 0.680987 0.106603
vt 0.695778 0.091810
vt 0.661059 0.086675
vt 0.675851 0.071883
vt 0.662240 0.058271
vt 0.647444 0.073068
vt 0.918880 0.314929
vt 0.917697 0.343334
vt 0.904083 0.329726
vt 0.898955 0.295001
vt 0.884158 0.309797
vt 0.856938 0.282574
vt 0.871735 0.267777
vt 0.829723 0.255346
vt 0.844516 0.240553
vt 0.809798 0.235418
vt 0.797369 0.193403
vt 0.782577 0.208195
vt 0.770149 0.166180
vt 0.755352 0.180977
vt 0.750221 0.146253
vt 0.735429 0.161046
vt 0.708208 0.133824
vt 0.924372 0.562045
vt 0.894264 0.626298
vt 0.881766 0.604651
vt 0.823565 0.645242
vt 0.823565 0.620246
vt 0.765364 0.604651
vt 0.752866 0.626298
vt 0.722758 0.562045
vt 0.701111 0.574543
vt 0.707163 0.503844
vt 0.682167 0.503844
vt 0.701111 0.433145
vt 0.722758 0.445643
vt 0.765364 0.403037
vt 0.881766 0.403037
vt 0.924372 0.445643
vt 0.946019 0.433145
vt 0.939967 0.503844
vt 0.964963 0.503844
vt 0.946019 0.574543
vt 0.906762 0.647945
vt 0.823565 0.670238
vt 0.740368 0.647945
vt 0.679464 0.587041
vt 0.657171 0.503844
vt 0.679464 0.420647
vt 0.967667 0.420647
vt 0.989959 0.503844
vt 0.967666 0.587041
vt 0.859312 0.225757
vt 0.809793 0.235421
vt 0.839386 0.205828
vt 0.782573 0.208199
vt 0.812166 0.178606
vt 0.755352 0.180977
vt 0.784945 0.151384
vt 0.735425 0.161050
vt 0.765018 0.131456
vt 0.708203 0.133828
vt 0.737797 0.104235
vt 0.680982 0.106607
vt 0.710575 0.077014
vt 0.884158 0.309797
vt 0.913751 0.280204
vt 0.856938 0.282574
vt 0.886536 0.252976
vt 0.829719 0.255350
vt 0.906762 0.647945
vt 0.946019 0.574543
vt 0.894264 0.626298
vt 0.823565 0.670238
vt 0.823565 0.645242
vt 0.752866 0.626298
vt 0.740368 0.647945
vt 0.701111 0.574543
vt 0.679464 0.587041
vt 0.682167 0.503844
vt 0.657171 0.503844
vt 0.679464 0.420647
vt 0.701111 0.433145
vt 0.946019 0.433145
vt 0.967667 0.420647
vt 0.964963 0.503844
vt 0.989959 0.503844
vt 0.967666 0.587041
vt 0.924372 0.562045
vt 0.881766 0.604651
vt 0.823565 0.620246
vt 0.765364 0.604651
vt 0.722758 0.562045
vt 0.707163 0.503844
vt 0.722758 0.445643
vt 0.765364 0.403037
vt 0.924372 0.445643
vt 0.939967 0.503844
vt 0.710578 0.077008
vt 0.690651 0.057081
vt 0.677041 0.043470
vt 0.947291 0.313742
vt 0.933682 0.300129
vt 0.913756 0.280200
vt 0.886536 0.252976
vt 0.859317 0.225753
vt 0.839391 0.205824
vt 0.824590 0.220625
vt 0.812170 0.178601
vt 0.784949 0.151379
vt 0.765018 0.131456
vt 0.737800 0.104230
vt 0.881766 0.403037
vt 0.823565 0.387442
vt 0.823565 0.348596
vt 0.823565 0.348596
vt 0.823565 0.387442
vt 0.391352 0.624211
vt 0.932489 0.328541
vn 1.0000 0.0000 0.0000
vn 0.0000 1.0000 0.0000
vn 0.0000 0.0000 1.0000
vn 0.0000 -1.0000 -0.0000
vn 0.9869 0.0000 -0.1614
vn 0.4315 0.8919 -0.1358
vn -0.4288 0.8913 -0.1473
vn -0.9867 0.0000 -0.1627
vn -0.4287 -0.8913 -0.1473
vn 0.4315 -0.8918 -0.1358
vn 0.2740 0.5692 -0.7752
vn -0.2855 0.5945 -0.7517
vn -0.6210 0.0000 -0.7838
vn -0.2866 -0.5954 -0.7506
vn 0.2748 -0.5698 -0.7745
vn 0.5643 0.0000 -0.8256
vn -0.1900 0.0000 -0.9818
vn 0.1900 0.0000 -0.9818
vn 0.0958 -0.8635 -0.4952
vn -0.0958 -0.8635 -0.4952
vn 0.0958 0.8635 -0.4952
vn -0.0958 0.8635 -0.4952
vn 0.9869 0.0000 -0.1615
vn 0.4266 0.8900 -0.1609
vn -0.4284 0.8912 -0.1493
vn -0.4283 -0.8912 -0.1493
vn 0.4266 -0.8900 -0.1609
vn 0.2748 0.5698 -0.7745
vn -0.2866 0.5954 -0.7506
vn -0.2854 -0.5945 -0.7517
vn 0.2740 -0.5692 -0.7752
vn -0.0141 0.9977 0.0666
vn 0.7821 0.5259 0.3342
vn -0.0045 0.9380 0.3467
vn -0.7946 0.5292 0.2976
vn -0.4494 0.8933 -0.0027
vn -0.7935 -0.5284 0.3020
vn -0.4477 -0.8942 -0.0021
vn 0.0141 -0.9977 0.0666
vn -0.0045 -0.9380 0.3467
vn 0.7806 -0.5254 0.3386
vn 0.4477 -0.8942 -0.0021
vn -0.0000 0.0000 -1.0000
vn 0.5605 0.8282 0.0000
vn 0.5304 0.8478 0.0000
vn -0.8227 0.5685 0.0000
vn -0.8228 0.5684 0.0000
vn -0.8227 -0.5684 0.0000
vn -0.8227 -0.5685 -0.0000
vn 0.5291 -0.8486 -0.0000
vn 0.9520 -0.3059 -0.0000
vn 0.5568 -0.8307 -0.0000
vn 0.9520 0.3059 0.0000
vn 0.7634 0.6459 0.0076
vn -0.8229 0.5681 0.0000
vn -0.8230 -0.5681 0.0000
vn 0.7648 -0.6442 0.0076
vn 0.0025 0.7704 0.6375
vn 0.5889 0.4005 0.7019
vn -0.6197 -0.4249 0.6599
vn -0.6202 0.4246 0.6596
vn 0.0025 -0.7704 0.6376
vn 0.5891 -0.4005 0.7018
vn 0.4494 0.8933 -0.0027
vn 0.9989 -0.0444 0.0146
vn -0.7796 -0.0192 -0.6260
vn -0.1342 -0.7651 -0.6298
vn -0.0900 -0.0000 -0.9959
vn -0.0000 -0.7269 -0.6868
vn 0.0926 0.0113 -0.9956
vn 0.1342 -0.7651 -0.6298
vn 0.7729 0.0095 -0.6344
vn 0.5377 -0.7240 -0.4321
vn 0.6438 -0.7652 -0.0000
vn 0.5377 -0.7240 0.4321
vn 0.7715 0.0000 0.6363
vn 0.2327 -0.8137 0.5326
vn 0.0900 -0.0000 0.9959
vn -0.0000 -0.6905 0.7233
vn -0.0926 0.0113 0.9956
vn -0.2327 -0.8137 0.5326
vn -0.7729 0.0095 0.6344
vn -0.5377 -0.7240 0.4321
vn -1.0000 0.0000 0.0000
vn -0.6438 -0.7652 0.0000
vn -0.5450 -0.7268 -0.4180
vn 0.0230 -0.9975 0.0668
vn 0.0000 -0.9946 0.1033
vn -0.0230 -0.9975 0.0668
vn -0.0826 -0.9924 0.0916
vn -0.1195 -0.9928 -0.0000
vn -0.0826 -0.9924 -0.0916
vn 0.1597 -0.9856 0.0558
vn -0.1597 -0.9856 0.0558
vn 0.0826 -0.9924 -0.0916
vn 0.1195 -0.9928 0.0000
vn 0.0479 -0.9932 0.1061
vn 0.3766 -0.2576 0.8899
vn -0.0001 -0.2480 0.9688
vn -0.3766 -0.2575 0.8899
vn -0.7533 -0.2832 0.5936
vn -0.9539 -0.3002 -0.0000
vn -0.7533 -0.2834 -0.5935
vn -0.5569 -0.3085 -0.7711
vn 0.5568 -0.3090 -0.7710
vn 0.7533 -0.2832 -0.5936
vn 0.9539 -0.3002 0.0000
vn 0.5702 -0.4217 0.7050
vn 0.3766 0.2575 0.8899
vn 0.0000 0.2480 0.9688
vn -0.3766 0.2576 0.8899
vn -0.7532 0.2834 0.5935
vn -0.9539 0.3002 -0.0000
vn -0.7533 0.2832 -0.5936
vn -0.5568 0.3090 -0.7710
vn 0.7532 0.2834 -0.5935
vn 0.9539 0.3002 -0.0000
vn 0.8105 0.4967 0.3105
vn 0.0826 0.9924 0.0916
vn 0.0229 0.9975 0.0667
vn -0.0000 0.9946 0.1033
vn -0.0229 0.9975 0.0667
vn -0.0826 0.9924 0.0916
vn -0.1195 0.9928 -0.0000
vn -0.0826 0.9924 -0.0916
vn 0.1597 0.9856 0.0558
vn 0.5569 0.3085 -0.7711
vn 0.0826 0.9924 -0.0916
vn 0.1195 0.9928 -0.0000
vn -0.5377 0.7240 -0.4321
vn -0.1343 0.7651 -0.6297
vn -0.0000 0.7269 -0.6868
vn 0.1343 0.7651 -0.6297
vn 0.5377 0.7240 -0.4321
vn 0.6438 0.7652 0.0000
vn 0.5377 0.7240 0.4321
vn 0.2337 0.8138 0.5321
vn -0.1597 0.9856 0.0558
vn -0.5377 0.7240 0.4321
vn -0.6438 0.7652 0.0000
vn -0.0000 0.6905 0.7233
vn -0.2193 0.8105 0.5431
vn 0.9990 0.0432 0.0146
vn 0.3666 0.7615 0.5345
vn 0.3668 0.7617 0.5341
vn -0.3743 0.7777 0.5050
vn -0.8398 0.0000 0.5430
vn -0.3743 -0.7777 0.5051
vn -0.3744 -0.7778 0.5047
vn 0.3666 -0.7615 0.5345
vn 0.7979 0.0000 0.6027
vn -0.3745 0.7779 0.5046
vn -0.8397 0.0000 0.5431
vn 0.3668 -0.7617 0.5341
s off
f 31/1/1 33/2/1 30/3/1
f 29/4/2 31/5/2 20/6/2
f 28/7/3 32/8/3 29/9/3
f 27/10/4 33/11/4 28/12/4
f 127/13/5 129/14/5 126/15/5
f 126/15/6 131/16/6 127/13/6
f 131/17/7 132/18/7 133/19/7
f 132/18/8 135/20/8 133/19/8
f 134/21/9 137/22/9 135/20/9
f 137/22/10 129/14/10 128/23/10
f 130/24/11 34/25/11 35/26/11
f 130/27/12 36/28/12 132/18/12
f 132/18/13 37/29/13 134/21/13
f 136/30/14 37/29/14 38/31/14
f 136/30/15 39/32/15 129/14/15
f 39/32/16 126/15/16 129/14/16
f 7/33/17 99/34/17 5/35/17
f 2/36/18 89/37/18 11/38/18
f 89/39/19 78/40/19 11/41/19
f 88/42/20 7/43/20 77/44/20
f 111/45/21 100/46/21 2/47/21
f 110/48/22 5/49/22 99/50/22
f 31/1/1 32/8/1 33/2/1
f 29/4/2 32/51/2 31/5/2
f 28/7/3 33/2/3 32/8/3
f 27/10/4 30/52/4 33/11/4
f 127/13/23 128/23/23 129/14/23
f 126/15/24 130/24/24 131/16/24
f 131/17/25 130/27/25 132/18/25
f 132/18/8 134/21/8 135/20/8
f 134/21/26 136/30/26 137/22/26
f 137/22/27 136/30/27 129/14/27
f 130/24/28 126/15/28 34/25/28
f 130/27/29 35/53/29 36/28/29
f 132/18/13 36/28/13 37/29/13
f 136/30/30 134/21/30 37/29/30
f 136/30/31 38/31/31 39/32/31
f 39/32/16 34/25/16 126/15/16
f 7/33/17 88/54/17 99/34/17
f 2/36/18 100/55/18 89/37/18
s 1
f 1/56/32 3/57/33 4/58/34
f 1/59/32 6/60/35 5/61/36
f 5/61/36 8/62/37 7/63/38
f 9/64/39 8/62/37 10/65/40
f 9/64/39 12/66/41 11/67/42
f 13/68/43 14/69/43 15/70/43
f 16/71/43 13/68/43 15/70/43
f 17/72/43 16/71/43 15/70/43
f 18/73/43 17/72/43 15/70/43
f 19/74/43 18/73/43 15/70/43
f 14/69/43 20/75/43 15/70/43
f 14/76/44 22/77/2 21/78/45
f 13/79/2 23/80/46 22/81/2
f 16/82/47 24/83/48 23/80/46
f 17/84/49 25/85/4 24/83/48
f 18/86/4 26/87/50 25/85/4
f 27/88/51 26/87/50 19/89/52
f 20/90/53 21/78/45 29/91/53
f 15/70/43 27/92/43 19/74/43
f 15/70/43 20/75/43 27/92/43
f 20/75/43 30/3/43 27/92/43
f 21/78/45 35/26/2 34/25/54
f 22/81/2 36/28/55 35/53/2
f 23/80/46 37/29/56 36/28/55
f 24/83/48 38/31/4 37/29/56
f 25/85/4 39/32/57 38/31/4
f 41/93/58 3/57/33 40/94/59
f 41/95/58 6/60/35 4/96/34
f 43/97/60 6/60/35 42/98/61
f 44/99/62 8/62/37 43/97/60
f 44/99/62 12/66/41 10/65/40
f 45/100/63 3/57/33 12/66/41
f 2/101/64 12/66/41 3/57/33
f 39/32/57 26/87/50 28/102/65
f 47/103/66 49/104/67 46/105/68
f 46/105/68 51/106/69 50/107/43
f 52/108/70 51/106/69 53/109/71
f 54/110/72 53/111/71 55/112/73
f 56/113/1 55/112/73 57/114/74
f 56/113/1 59/115/75 58/116/76
f 58/116/76 61/117/77 60/118/78
f 62/119/79 60/118/78 61/117/77
f 65/120/80 62/119/79 64/121/81
f 66/122/82 64/121/81 67/123/83
f 68/124/84 67/123/83 69/125/85
f 68/124/84 48/126/86 47/103/66
f 48/127/86 71/128/87 49/129/67
f 49/129/67 72/130/88 51/131/69
f 53/132/71 72/130/88 73/133/89
f 55/134/73 73/133/89 74/135/90
f 57/136/74 74/135/90 75/137/91
f 57/136/74 76/138/92 59/139/75
f 59/139/75 77/44/93 61/140/77
f 7/43/38 61/140/77 77/44/93
f 64/141/81 11/41/42 78/40/94
f 67/142/83 78/40/94 79/143/95
f 69/144/85 79/143/95 80/145/96
f 69/144/85 70/146/97 48/127/86
f 70/146/97 82/147/98 71/128/87
f 71/128/87 83/148/99 72/130/88
f 73/133/89 83/148/99 84/149/100
f 74/135/90 84/149/100 85/150/101
f 75/137/91 85/150/101 86/151/102
f 75/137/91 87/152/103 76/138/92
f 76/138/92 88/42/104 77/44/93
f 79/143/95 89/39/105 90/153/106
f 80/145/96 90/153/106 91/154/107
f 80/145/96 81/155/108 70/146/97
f 81/156/108 93/157/109 82/158/98
f 82/158/98 94/159/110 83/160/99
f 83/160/99 95/161/111 84/162/100
f 84/162/100 96/163/112 85/164/101
f 85/164/101 97/165/113 86/166/102
f 86/166/102 98/167/114 87/168/103
f 87/168/103 99/34/115 88/54/104
f 89/37/105 101/169/116 90/170/106
f 90/170/106 102/171/117 91/172/107
f 91/172/107 92/173/118 81/156/108
f 93/174/109 103/175/119 104/176/120
f 94/177/110 104/176/120 105/178/121
f 94/177/110 106/179/122 95/180/111
f 95/180/111 107/181/123 96/182/112
f 96/182/112 108/183/124 97/184/113
f 98/185/114 108/183/124 109/186/125
f 99/50/115 109/186/125 110/48/126
f 100/46/127 112/187/128 101/188/116
f 101/188/116 113/189/129 102/190/117
f 92/191/118 113/189/129 103/175/119
f 104/176/120 114/192/130 115/193/131
f 105/178/121 115/193/131 116/194/132
f 105/178/121 117/195/133 106/179/122
f 106/179/122 118/196/134 107/181/123
f 107/181/123 119/197/135 108/183/124
f 109/186/125 119/197/135 120/198/136
f 110/48/126 120/198/136 121/199/137
f 111/45/138 123/200/139 112/187/128
f 112/187/128 124/201/140 113/189/129
f 103/175/119 124/201/140 114/192/130
f 115/202/131 47/103/66 46/105/68
f 116/203/132 46/105/68 50/107/43
f 116/203/132 52/108/70 117/204/133
f 117/205/133 54/110/72 118/206/134
f 118/206/134 56/113/1 119/207/135
f 120/208/136 56/113/1 58/116/76
f 121/209/137 58/116/76 60/118/78
f 60/118/78 125/210/141 121/209/137
f 65/120/80 125/210/141 63/211/3
f 122/212/142 66/122/82 123/213/139
f 123/213/139 68/124/84 124/214/140
f 114/215/130 68/124/84 47/103/66
f 28/102/65 34/25/54 39/32/57
f 34/25/54 29/91/143 21/78/45
f 2/47/64 122/216/142 111/45/138
f 5/49/36 121/199/137 125/217/141
f 131/16/144 40/94/59 127/13/145
f 131/17/146 42/98/61 41/95/58
f 133/19/147 43/97/60 42/98/61
f 137/22/148 43/97/60 135/20/149
f 137/22/150 45/100/63 44/99/62
f 128/23/151 40/94/59 45/100/63
f 125/217/141 2/47/64 1/218/32
f 1/218/32 5/49/36 125/217/141
f 9/219/39 62/220/79 7/43/38
f 11/41/42 62/220/79 9/219/39
f 1/56/32 2/101/64 3/57/33
f 1/59/32 4/96/34 6/60/35
f 5/61/36 6/60/35 8/62/37
f 9/64/39 7/63/38 8/62/37
f 9/64/39 10/65/40 12/66/41
f 14/76/44 13/221/2 22/77/2
f 13/79/2 16/82/47 23/80/46
f 16/82/47 17/84/49 24/83/48
f 17/84/49 18/86/4 25/85/4
f 18/86/4 19/89/52 26/87/50
f 27/88/51 28/102/51 26/87/50
f 20/90/53 14/76/44 21/78/45
f 20/75/43 31/1/43 30/3/43
f 21/78/45 22/77/2 35/26/2
f 22/81/2 23/80/46 36/28/55
f 23/80/46 24/83/48 37/29/56
f 24/83/48 25/85/4 38/31/4
f 25/85/4 26/87/50 39/32/57
f 41/93/58 4/58/34 3/57/33
f 41/95/58 42/98/61 6/60/35
f 43/97/60 8/62/37 6/60/35
f 44/99/62 10/65/40 8/62/37
f 44/99/62 45/100/63 12/66/41
f 45/100/63 40/94/59 3/57/33
f 2/101/64 11/67/42 12/66/41
f 47/103/66 48/126/86 49/104/67
f 46/105/68 49/104/67 51/106/69
f 52/108/70 50/107/43 51/106/69
f 54/110/72 52/222/70 53/111/71
f 56/113/1 54/110/72 55/112/73
f 56/113/1 57/114/74 59/115/75
f 58/116/76 59/115/75 61/117/77
f 62/119/79 63/211/3 60/118/78
f 65/120/80 63/211/3 62/119/79
f 66/122/82 65/120/80 64/121/81
f 68/124/84 66/122/82 67/123/83
f 68/124/84 69/125/85 48/126/86
f 48/127/86 70/146/97 71/128/87
f 49/129/67 71/128/87 72/130/88
f 53/132/71 51/131/69 72/130/88
f 55/134/73 53/132/71 73/133/89
f 57/136/74 55/134/73 74/135/90
f 57/136/74 75/137/91 76/138/92
f 59/139/75 76/138/92 77/44/93
f 7/43/38 62/220/79 61/140/77
f 64/141/81 62/220/79 11/41/42
f 67/142/83 64/141/81 78/40/94
f 69/144/85 67/142/83 79/143/95
f 69/144/85 80/145/96 70/146/97
f 70/146/97 81/155/108 82/147/98
f 71/128/87 82/147/98 83/148/99
f 73/133/89 72/130/88 83/148/99
f 74/135/90 73/133/89 84/149/100
f 75/137/91 74/135/90 85/150/101
f 75/137/91 86/151/102 87/152/103
f 76/138/92 87/152/103 88/42/104
f 79/143/95 78/40/94 89/39/105
f 80/145/96 79/143/95 90/153/106
f 80/145/96 91/154/107 81/155/108
f 81/156/108 92/173/118 93/157/109
f 82/158/98 93/157/109 94/159/110
f 83/160/99 94/159/110 95/161/111
f 84/162/100 95/161/111 96/163/112
f 85/164/101 96/163/112 97/165/113
f 86/166/102 97/165/113 98/167/114
f 87/168/103 98/167/114 99/34/115
f 89/37/105 100/55/127 101/169/116
f 90/170/106 101/169/116 102/171/117
f 91/172/107 102/171/117 92/173/118
f 93/174/109 92/191/118 103/175/119
f 94/177/110 93/174/109 104/176/120
f 94/177/110 105/178/121 106/179/122
f 95/180/111 106/179/122 107/181/123
f 96/182/112 107/181/123 108/183/124
f 98/185/114 97/184/113 108/183/124
f 99/50/115 98/185/114 109/186/125
f 100/46/127 111/45/138 112/187/128
f 101/188/116 112/187/128 113/189/129
f 92/191/118 102/190/117 113/189/129
f 104/176/120 103/175/119 114/192/130
f 105/178/121 104/176/120 115/193/131
f 105/178/121 116/194/132 117/195/133
f 106/179/122 117/195/133 118/196/134
f 107/181/123 118/196/134 119/197/135
f 109/186/125 108/183/124 119/197/135
f 110/48/126 109/186/125 120/198/136
f 111/45/138 122/216/142 123/200/139
f 112/187/128 123/200/139 124/201/140
f 103/175/119 113/189/129 124/201/140
f 115/202/131 114/215/130 47/103/66
f 116/203/132 115/202/131 46/105/68
f 116/203/132 50/107/43 52/108/70
f 117/205/133 52/222/70 54/110/72
f 118/206/134 54/110/72 56/113/1
f 120/208/136 119/207/135 56/113/1
f 121/209/137 120/208/136 58/116/76
f 60/118/78 63/211/3 125/210/141
f 65/120/80 122/212/142 125/210/141
f 122/212/142 65/120/80 66/122/82
f 123/213/139 66/122/82 68/124/84
f 114/215/130 124/214/140 68/124/84
f 28/102/65 29/91/143 34/25/54
f 2/47/64 125/217/141 122/216/142
f 5/49/36 110/48/126 121/199/137
f 131/16/144 41/93/58 40/94/59
f 131/17/146 133/19/152 42/98/61
f 133/19/147 135/20/153 43/97/60
f 137/22/148 44/99/62 43/97/60
f 137/22/150 128/23/154 45/100/63
f 128/23/151 127/13/151 40/94/59
