# Blender v2.80 (sub 75) OBJ File: ''
# www.blender.org
o Stairs
v 0.561614 10.999988 37.928490
v 7.306210 8.999989 37.928490
v 7.306209 10.999989 37.928490
v 0.561615 8.999988 37.928490
v 7.306209 8.999989 35.928490
v 0.561614 8.999988 35.928490
v 7.306211 6.999990 35.928490
v 0.561615 6.999989 35.928490
v 7.306209 6.999990 33.928490
v 0.561612 6.999989 33.928490
v 7.306211 4.999990 33.928490
v 0.561612 4.999989 33.928490
v 7.306210 4.999990 31.928488
v 0.561612 4.999989 31.928490
v 7.306211 3.000005 31.928488
v 0.561613 3.000004 31.928490
v 7.306211 3.000005 29.928488
v 0.561612 3.000004 29.928490
v 7.306211 1.000005 29.928488
v 0.561613 1.000004 29.928490
v 7.306211 1.000005 27.928486
v 0.561613 1.000004 27.928490
v 7.306211 -0.999995 27.928486
v 0.561614 -0.999996 27.928490
v 7.306211 -0.999995 25.928486
v 0.561613 -0.999996 25.928490
v 7.306212 -2.999994 25.928486
v 0.561614 -2.999996 25.928490
v 7.306211 -2.999994 23.928486
v 0.561614 -2.999996 23.928490
v 7.306212 -4.999995 23.928486
v 0.561614 -4.999996 23.928490
v 7.306211 -4.999995 21.928486
v 0.561614 -4.999996 21.928490
v 7.306212 -6.999995 21.928486
v 0.561615 -6.999996 21.928490
v 7.306212 -6.999995 19.928488
v 0.561614 -6.999996 19.928490
v 7.306214 -11.999994 19.928488
v -2.026442 -11.999996 19.928490
v 0.561616 -11.999995 19.928490
v -9.790599 -6.999998 19.928492
v -9.790596 -11.999997 19.928492
v -2.026444 -6.999996 19.928490
v -9.790599 -6.999998 17.928492
v -2.026445 -6.999996 17.928490
v -9.790599 -4.999998 17.928492
v -2.026446 -4.999996 17.928490
v -9.790602 -4.999998 15.928492
v -2.026446 -4.999996 15.928490
v -9.790603 -2.999998 15.928492
v -2.026447 -2.999996 15.928490
v -9.790604 -2.999998 13.928492
v -2.026450 -2.999996 13.928490
v -9.790604 -0.999998 13.928492
v -2.026451 -0.999996 13.928490
v -9.790605 -0.999998 11.928493
v -2.026452 -0.999996 11.928491
v -9.790606 1.000002 11.928493
v -2.026453 1.000004 11.928491
v -9.790607 1.000002 9.928493
v -2.026453 1.000004 9.928491
v -9.790607 3.000002 9.928493
v -2.026454 3.000003 9.928491
v -9.790608 3.000002 7.928493
v -2.026454 3.000003 7.928491
v -9.790609 5.000001 7.928493
v -2.026455 5.000003 7.928491
v -9.790609 5.000001 5.928493
v -2.026456 5.000003 5.928491
v -9.790610 7.000001 5.928493
v -2.026456 7.000003 5.928491
v -9.790612 7.000001 3.928492
v -2.026457 7.000003 3.928490
v -9.790613 9.000001 3.928492
v -2.026458 9.000002 3.928490
v -9.790614 9.000001 1.928491
v -2.026461 9.000002 1.928490
v -9.790615 11.000001 1.928491
v -2.026462 11.000002 1.928490
v -9.790615 11.000001 -0.071507
v -2.026460 11.000002 -0.071510
v 0.561604 -6.999996 -0.071510
v -2.026452 -6.999996 -0.071510
v 7.306214 -11.999994 17.928488
v 0.561616 -11.999995 17.928490
v -2.026443 -11.999996 17.928490
v 7.306211 -7.000026 17.928488
v 0.561614 -7.000027 17.928490
v 7.306200 22.284107 17.928488
v 0.561606 -11.999995 -0.071510
v -9.790596 -11.999997 17.928492
v -2.026450 -11.999996 -0.071510
v 0.561614 10.999988 39.928490
v 0.561601 22.284105 17.928490
v 7.306205 22.284107 39.928490
v 0.561610 22.284105 39.928490
v -9.790606 -11.999997 -0.071507
v 7.306209 10.999989 39.928490
vt 0.947289 0.982538
vt 0.909595 0.897794
vt 0.947289 0.897794
vt 0.909595 0.982538
vt 0.871901 0.897794
vt 0.871900 0.982538
vt 0.834207 0.897794
vt 0.834206 0.982537
vt 0.796513 0.897793
vt 0.796512 0.982537
vt 0.758819 0.897792
vt 0.758818 0.982536
vt 0.721125 0.897792
vt 0.721124 0.982535
vt 0.683432 0.897791
vt 0.683430 0.982535
vt 0.645737 0.897790
vt 0.645735 0.982534
vt 0.608043 0.897790
vt 0.608042 0.982533
vt 0.570349 0.897789
vt 0.570348 0.982533
vt 0.532654 0.897789
vt 0.532654 0.982533
vt 0.494960 0.897789
vt 0.494960 0.982533
vt 0.457266 0.897789
vt 0.457266 0.982533
vt 0.419572 0.897789
vt 0.419572 0.982533
vt 0.381878 0.897789
vt 0.381878 0.982533
vt 0.344185 0.897789
vt 0.344183 0.982533
vt 0.306492 0.897787
vt 0.306488 0.982531
vt 0.268797 0.897786
vt 0.158380 0.978741
vt 0.250641 0.876146
vt 0.250642 0.978741
vt 0.122976 0.876146
vt 0.158380 0.876146
vt 0.016768 0.978742
vt 0.016768 0.876146
vt 0.158379 0.876146
vt 0.250641 0.835108
vt 0.250641 0.876146
vt 0.947289 0.982538
vt 0.909595 0.897794
vt 0.947289 0.897794
vt 0.909595 0.982538
vt 0.871900 0.897794
vt 0.871900 0.982538
vt 0.834207 0.897794
vt 0.834206 0.982537
vt 0.796513 0.897793
vt 0.796511 0.982537
vt 0.758819 0.897792
vt 0.758818 0.982536
vt 0.721125 0.897792
vt 0.721124 0.982535
vt 0.683431 0.897791
vt 0.683430 0.982535
vt 0.645737 0.897790
vt 0.645736 0.982534
vt 0.608043 0.897790
vt 0.608042 0.982533
vt 0.570349 0.897789
vt 0.570348 0.982533
vt 0.532654 0.897789
vt 0.532654 0.982533
vt 0.494960 0.897789
vt 0.494960 0.982533
vt 0.457266 0.897789
vt 0.457266 0.982533
vt 0.419572 0.897789
vt 0.419572 0.982533
vt 0.381878 0.897789
vt 0.381878 0.982533
vt 0.344185 0.897789
vt 0.344183 0.982533
vt 0.306491 0.897788
vt 0.306488 0.982531
vt 0.268798 0.897786
vt 0.360442 0.364735
vt 0.360442 0.403590
vt 0.321587 0.403590
vt 0.399297 0.325881
vt 0.399297 0.364735
vt 0.438151 0.287026
vt 0.438151 0.325881
vt 0.477006 0.248171
vt 0.477006 0.287026
vt 0.515860 0.209317
vt 0.515860 0.248171
vt 0.554715 0.170462
vt 0.554715 0.209317
vt 0.593570 0.131608
vt 0.593570 0.170462
vt 0.632424 0.092753
vt 0.632424 0.131608
vt 0.671278 0.053899
vt 0.671278 0.092753
vt 0.122976 0.876146
vt 0.158379 0.835108
vt 0.122976 0.465764
vt 0.158379 0.465764
vt 0.250641 0.835108
vt 0.158379 0.835108
vt 0.122976 0.835108
vt 0.122977 0.978741
vt 0.016768 0.876146
vt 0.016768 0.978742
vt 0.122976 0.876146
vt 0.016768 0.465764
vt 0.321587 0.053899
vt 0.158379 0.465764
vt 0.016768 0.835108
vt 0.122976 0.465764
vt 0.250642 0.978741
vt 0.250642 0.876146
vt 0.984983 0.982538
vt 0.102368 0.015044
vt 0.015016 0.442443
vt 0.015016 0.015044
vt 0.671278 0.053899
vt 0.671279 0.015044
vt 0.360443 0.403589
vt 0.321587 0.403589
vt 0.360443 0.364735
vt 0.102368 0.442443
vt 0.321587 0.442443
vt 0.399297 0.325881
vt 0.399297 0.364735
vt 0.438151 0.287026
vt 0.438151 0.325881
vt 0.477006 0.248171
vt 0.477006 0.287026
vt 0.515861 0.209317
vt 0.515861 0.248171
vt 0.554715 0.170462
vt 0.554715 0.209317
vt 0.593570 0.131607
vt 0.593570 0.170462
vt 0.632424 0.092753
vt 0.632424 0.131607
vt 0.671278 0.092753
vt 0.268794 0.982530
vt 0.122977 0.978741
vt 0.268794 0.982530
vt 0.122976 0.835108
vt 0.122976 0.465764
vt 0.016768 0.465764
vt 0.984983 0.897794
vn 0.0000 0.0000 1.0000
vn 0.0000 -1.0000 -0.0000
vn -0.0000 1.0000 -0.0000
vn 1.0000 0.0000 -0.0000
vn -0.0000 -0.0000 -1.0000
vn -1.0000 -0.0000 0.0000
s 1
f 1/1/1 2/2/1 3/3/1
f 4/4/2 5/5/2 2/2/2
f 6/6/1 7/7/1 5/5/1
f 8/8/2 9/9/2 7/7/2
f 10/10/1 11/11/1 9/9/1
f 12/12/2 13/13/2 11/11/2
f 14/14/1 15/15/1 13/13/1
f 16/16/2 17/17/2 15/15/2
f 18/18/1 19/19/1 17/17/1
f 20/20/2 21/21/2 19/19/2
f 22/22/1 23/23/1 21/21/1
f 24/24/2 25/25/2 23/23/2
f 26/26/1 27/27/1 25/25/1
f 28/28/2 29/29/2 27/27/2
f 30/30/1 31/31/1 29/29/1
f 32/32/2 33/33/2 31/31/2
f 34/34/1 35/35/1 33/33/1
f 36/36/2 37/37/2 35/35/2
f 38/38/1 39/39/1 37/40/1
f 38/38/1 40/41/1 41/42/1
f 40/41/1 42/43/1 43/44/1
f 44/45/3 45/46/3 42/47/3
f 46/48/1 47/49/1 45/50/1
f 48/51/3 49/52/3 47/49/3
f 50/53/1 51/54/1 49/52/1
f 52/55/3 53/56/3 51/54/3
f 54/57/1 55/58/1 53/56/1
f 56/59/3 57/60/3 55/58/3
f 58/61/1 59/62/1 57/60/1
f 60/63/3 61/64/3 59/62/3
f 62/65/1 63/66/1 61/64/1
f 64/67/3 65/68/3 63/66/3
f 66/69/1 67/70/1 65/68/1
f 68/71/3 69/72/3 67/70/3
f 70/73/1 71/74/1 69/72/1
f 72/75/3 73/76/3 71/74/3
f 74/77/1 75/78/1 73/76/1
f 76/79/3 77/80/3 75/78/3
f 78/81/1 79/82/1 77/80/1
f 80/83/3 81/84/3 79/82/3
f 50/85/4 48/86/4 46/87/4
f 54/88/4 52/89/4 50/85/4
f 58/90/4 56/91/4 54/88/4
f 62/92/4 60/93/4 58/90/4
f 66/94/4 64/95/4 62/92/4
f 70/96/4 68/97/4 66/94/4
f 74/98/4 72/99/4 70/96/4
f 78/100/4 76/101/4 74/98/4
f 82/102/4 80/103/4 78/100/4
f 38/104/3 46/105/3 44/45/3
f 46/105/3 83/106/3 84/107/3
f 41/42/2 85/108/2 39/39/2
f 40/41/2 86/109/2 41/42/2
f 43/44/2 87/110/2 40/41/2
f 86/111/5 88/112/5 85/113/5
f 89/114/5 90/115/5 88/112/5
f 50/85/4 46/87/4 84/116/4
f 54/88/4 50/85/4 84/116/4
f 58/90/4 54/88/4 84/116/4
f 62/92/4 58/90/4 84/116/4
f 66/94/4 62/92/4 84/116/4
f 70/96/4 66/94/4 84/116/4
f 74/98/4 70/96/4 84/116/4
f 78/100/4 74/98/4 84/116/4
f 82/102/4 78/100/4 84/116/4
f 87/110/2 91/117/2 86/109/2
f 92/118/2 93/119/2 87/110/2
f 89/114/4 91/120/4 83/121/4
f 3/3/2 94/122/2 1/1/2
f 95/123/3 96/124/3 90/125/3
f 38/126/6 95/123/6 89/127/6
f 4/128/6 1/129/6 6/130/6
f 97/131/6 1/129/6 94/132/6
f 6/130/6 10/133/6 8/134/6
f 10/133/6 14/135/6 12/136/6
f 14/135/6 18/137/6 16/138/6
f 18/137/6 22/139/6 20/140/6
f 22/139/6 26/141/6 24/142/6
f 26/141/6 30/143/6 28/144/6
f 30/143/6 34/145/6 32/146/6
f 34/145/6 38/126/6 36/147/6
f 34/145/6 95/123/6 38/126/6
f 6/130/6 1/129/6 95/123/6
f 6/130/6 95/123/6 10/133/6
f 10/133/6 95/123/6 14/135/6
f 14/135/6 95/123/6 18/137/6
f 18/137/6 95/123/6 22/139/6
f 22/139/6 95/123/6 26/141/6
f 26/141/6 95/123/6 30/143/6
f 30/143/6 95/123/6 34/145/6
f 1/1/1 4/4/1 2/2/1
f 4/4/2 6/6/2 5/5/2
f 6/6/1 8/8/1 7/7/1
f 8/8/2 10/10/2 9/9/2
f 10/10/1 12/12/1 11/11/1
f 12/12/2 14/14/2 13/13/2
f 14/14/1 16/16/1 15/15/1
f 16/16/2 18/18/2 17/17/2
f 18/18/1 20/20/1 19/19/1
f 20/20/2 22/22/2 21/21/2
f 22/22/1 24/24/1 23/23/1
f 24/24/2 26/26/2 25/25/2
f 26/26/1 28/28/1 27/27/1
f 28/28/2 30/30/2 29/29/2
f 30/30/1 32/32/1 31/31/1
f 32/32/2 34/34/2 33/33/2
f 34/34/1 36/36/1 35/35/1
f 36/36/2 38/148/2 37/37/2
f 38/38/1 41/42/1 39/39/1
f 38/38/1 44/149/1 40/41/1
f 40/41/1 44/149/1 42/43/1
f 44/45/3 46/105/3 45/46/3
f 46/48/1 48/51/1 47/49/1
f 48/51/3 50/53/3 49/52/3
f 50/53/1 52/55/1 51/54/1
f 52/55/3 54/57/3 53/56/3
f 54/57/1 56/59/1 55/58/1
f 56/59/3 58/61/3 57/60/3
f 58/61/1 60/63/1 59/62/1
f 60/63/3 62/65/3 61/64/3
f 62/65/1 64/67/1 63/66/1
f 64/67/3 66/69/3 65/68/3
f 66/69/1 68/71/1 67/70/1
f 68/71/3 70/73/3 69/72/3
f 70/73/1 72/75/1 71/74/1
f 72/75/3 74/77/3 73/76/3
f 74/77/1 76/79/1 75/78/1
f 76/79/3 78/81/3 77/80/3
f 78/81/1 80/83/1 79/82/1
f 80/83/3 82/150/3 81/84/3
f 38/104/3 89/151/3 46/105/3
f 46/105/3 89/151/3 83/106/3
f 41/42/2 86/109/2 85/108/2
f 40/41/2 87/110/2 86/109/2
f 43/44/2 92/118/2 87/110/2
f 86/111/5 89/114/5 88/112/5
f 89/114/5 95/152/5 90/115/5
f 87/110/2 93/119/2 91/117/2
f 92/118/2 98/153/2 93/119/2
f 89/114/4 86/111/4 91/120/4
f 3/3/2 99/154/2 94/122/2
f 95/123/3 97/131/3 96/124/3
f 97/131/6 95/123/6 1/129/6
