# Blender v2.80 (sub 75) OBJ File: ''
# www.blender.org
o Cube.023_Cube.026
v 122.454407 -22.366508 -0.592325
v 122.454407 -22.366508 40.548485
v 127.006233 -22.366508 -0.592325
v 127.006233 -22.366508 40.548485
v 122.454407 27.858620 -0.592325
v 122.454407 27.858620 40.548485
v 127.006233 27.858620 -0.592325
v 127.006233 27.858620 40.548485
vt 0.375000 0.500000
vt 0.125000 0.750000
vt 0.125000 0.500000
vt 0.875000 0.500000
vt 0.625000 0.750000
vt 0.625000 0.500000
vt 0.375000 0.750000
vt 0.875000 0.750000
vn 0.0000 0.0000 1.0000
vn 0.0000 0.0000 -1.0000
s off
f 7/1/1 1/2/1 3/3/1
f 4/4/2 6/5/2 8/6/2
f 7/1/1 5/7/1 1/2/1
f 4/4/2 2/8/2 6/5/2
