# Blender v2.80 (sub 75) OBJ File: ''
# www.blender.org
o Cube.028_Cube.031
v 21.630867 -19.434473 -0.592323
v 21.630867 -19.434473 40.548485
v 21.630867 -23.986296 -0.592323
v 21.630867 -23.986296 40.548485
v 62.371380 -19.434477 -0.592323
v 62.371380 -19.434477 40.548485
v 62.371380 -23.986300 -0.592323
v 62.371380 -23.986300 40.548485
vt 0.375000 0.500000
vt 0.125000 0.750000
vt 0.125000 0.500000
vt 0.875000 0.500000
vt 0.625000 0.750000
vt 0.625000 0.500000
vt 0.375000 0.750000
vt 0.875000 0.750000
vn 0.0000 0.0000 1.0000
vn 0.0000 0.0000 -1.0000
s off
f 7/1/1 1/2/1 3/3/1
f 4/4/2 6/5/2 8/6/2
f 7/1/1 5/7/1 1/2/1
f 4/4/2 2/8/2 6/5/2
