# Blender v2.80 (sub 75) OBJ File: ''
# www.blender.org
o DoorOpen.003
v 0.726325 -8.289810 10.449997
v -0.795505 -8.289807 8.550003
v 0.726325 -8.289808 8.550003
v -0.795506 -7.424809 10.449997
v 0.726325 -7.424810 10.449997
v 0.726325 -7.424810 8.550003
v -0.795506 -7.424810 8.550003
v -0.726317 -8.675003 19.000002
v 0.657148 -8.675001 -0.000000
v 0.657148 -8.675003 19.000002
v 0.657146 -0.025000 19.000000
v -0.726319 -0.025001 19.000000
v -0.726319 -0.024999 0.000002
v 0.657146 -0.024999 0.000002
v -0.726317 -8.675001 -0.000000
v -0.795505 -8.289810 10.449997
v 0.964372 -7.656424 10.302261
v 0.910942 -7.614676 10.065827
v 0.910942 -7.721442 10.212770
v 0.964372 -7.509474 10.100006
v 0.910942 -7.614677 9.884187
v 0.964372 -7.656424 9.647751
v 0.910942 -7.721442 9.737244
v 0.910943 -7.894187 9.681122
v 0.964373 -7.894187 9.570496
v 0.910943 -8.066934 9.737244
v 0.964373 -8.131950 9.647751
v 0.910943 -8.173698 9.884187
v 0.964373 -8.278900 9.850006
v 0.910943 -8.173698 10.065827
v 0.964373 -8.131950 10.302261
v 0.910943 -8.066934 10.212770
v 0.964373 -7.894186 10.379517
v 0.910943 -7.894186 10.268890
v 1.106347 -7.418658 10.129517
v 1.106347 -7.418659 9.820496
v 0.964372 -7.509475 9.850006
v 1.106347 -7.600295 9.570496
v 1.106348 -7.894187 9.475006
v 1.106348 -8.188079 9.570496
v 1.106348 -8.369715 9.820496
v 1.106348 -8.369715 10.129517
v 0.964373 -8.278900 10.100006
v 1.106348 -8.188079 10.379517
v 1.106348 -7.894186 10.475006
v 1.106347 -7.600295 10.379517
v 1.248323 -7.656424 10.302261
v 1.248323 -7.509474 10.100006
v 1.248323 -7.509475 9.850006
v 1.248323 -7.656424 9.647751
v 1.248323 -7.894187 9.570496
v 1.248323 -8.131949 9.647751
v 1.248323 -8.278899 9.850006
v 1.248323 -8.278899 10.100006
v 1.248323 -8.131949 10.302261
v 1.248323 -7.894186 10.379517
v 1.336056 -7.803367 10.100006
v 1.336056 -7.747241 10.022751
v 1.336056 -7.747242 9.927261
v 1.336056 -7.803367 9.850006
v 1.336056 -7.894187 9.820496
v 1.336056 -7.985007 9.850006
v 1.336056 -8.041133 9.927261
v 1.336056 -8.041133 10.022751
v 1.336056 -7.985007 10.100006
v 1.336056 -7.894186 10.129517
v 1.347888 -7.894187 9.975006
v 0.612923 -7.614676 10.065827
v 0.612923 -7.614676 9.884187
v 0.612923 -7.721442 9.737244
v 0.612923 -7.894187 9.681122
v 0.612923 -8.066934 9.737244
v 0.612923 -8.173698 9.884187
v 0.612923 -8.173698 10.065827
v 0.612923 -8.066934 10.212770
v 0.612923 -7.894186 10.268890
v 0.612923 -7.721442 10.212770
v -0.980113 -7.614676 10.065827
v -1.033542 -7.656425 10.302261
v -0.980113 -7.721442 10.212770
v -0.980113 -7.614677 9.884187
v -1.033542 -7.509475 10.100006
v -1.033542 -7.656425 9.647751
v -1.033542 -7.509476 9.850006
v -0.980112 -7.894187 9.681122
v -0.980113 -7.721443 9.737244
v -0.980112 -8.066934 9.737244
v -1.033542 -7.894187 9.570496
v -0.980112 -8.173698 9.884187
v -1.033542 -8.131951 9.647751
v -0.980112 -8.173698 10.065827
v -1.033542 -8.278901 9.850006
v -1.033542 -8.131951 10.302261
v -1.033542 -8.278901 10.100006
v -0.980112 -8.066934 10.212770
v -1.033542 -7.894186 10.379517
v -0.980112 -7.894186 10.268890
v -1.175518 -7.418658 10.129517
v -1.175518 -7.418658 9.820496
v -1.175517 -7.894187 9.475006
v -1.175517 -8.369717 9.820496
v -1.175517 -8.369717 10.129517
v -1.175517 -7.894186 10.475006
v -1.317492 -7.656425 10.302261
v -1.175517 -7.600296 10.379517
v -1.317492 -7.509476 9.850006
v -1.317492 -7.656425 9.647751
v -1.175517 -7.600296 9.570496
v -1.317492 -8.131951 9.647751
v -1.175517 -8.188081 9.570496
v -1.317492 -8.278901 9.850006
v -1.317492 -8.131951 10.302261
v -1.175517 -8.188081 10.379517
v -1.317492 -7.509475 10.100006
v -1.405225 -7.803368 10.100006
v -1.405225 -7.747242 9.927261
v -1.405225 -7.803368 9.850006
v -1.405225 -7.894187 9.820496
v -1.317492 -7.894187 9.570496
v -1.405225 -7.985007 9.850006
v -1.405225 -8.041135 10.022751
v -1.317492 -8.278901 10.100006
v -1.405225 -7.985006 10.100006
v -1.405225 -7.894186 10.129517
v -1.317492 -7.894186 10.379517
v -1.405225 -7.747241 10.022751
v -1.417058 -7.894187 9.975006
v -1.405225 -8.041135 9.927261
v -0.682092 -7.614676 10.065827
v -0.682092 -7.614677 9.884187
v -0.682092 -7.721443 9.737244
v -0.682092 -7.894187 9.681122
v -0.682092 -8.066934 9.737244
v -0.682092 -8.173698 9.884187
v -0.682092 -8.173698 10.065827
v -0.682092 -8.066934 10.212770
v -0.682092 -7.894186 10.268890
v -0.682092 -7.721442 10.212770
vt 0.890667 0.450944
vt 0.810429 0.543852
vt 0.810429 0.450944
vt 0.889686 0.566980
vt 0.796778 0.603509
vt 0.796778 0.566980
vt 0.814979 0.673916
vt 0.895217 0.766824
vt 0.895217 0.673916
vt 0.853784 0.821805
vt 0.817255 0.902043
vt 0.853784 0.902043
vt 0.885637 0.005000
vt 0.849108 0.085238
vt 0.849108 0.005000
vt 0.910163 0.812830
vt 0.817255 0.776301
vt 0.817255 0.812830
vt 0.807381 0.901716
vt 0.005000 0.817255
vt 0.807381 0.817255
vt 0.840285 0.370295
vt 0.755824 0.005000
vt 0.840285 0.005000
vt 0.005000 0.995000
vt 0.807381 0.910539
vt 0.005000 0.910539
vt 0.005000 0.005000
vt 0.370295 0.807381
vt 0.370295 0.005000
vt 0.745706 0.005000
vt 0.380412 0.807381
vt 0.380412 0.005000
vt 0.890667 0.543852
vt 0.889686 0.603509
vt 0.814979 0.766824
vt 0.817255 0.821805
vt 0.885637 0.085238
vt 0.910163 0.776301
vt 0.005000 0.901716
vt 0.755824 0.370295
vt 0.807381 0.995000
vt 0.005000 0.807381
vt 0.745707 0.807381
vt 0.802984 0.438617
vt 0.801220 0.428633
vt 0.805729 0.434838
vt 0.796778 0.430076
vt 0.801220 0.420962
vt 0.802984 0.410977
vt 0.805729 0.414756
vt 0.813024 0.412386
vt 0.813024 0.407714
vt 0.820319 0.414756
vt 0.823065 0.410977
vt 0.824828 0.420962
vt 0.829271 0.419518
vt 0.824828 0.428633
vt 0.823065 0.438617
vt 0.820319 0.434838
vt 0.813024 0.441880
vt 0.813024 0.437208
vt 0.759086 0.698943
vt 0.766381 0.707611
vt 0.767627 0.698943
vt 0.779432 0.707611
vt 0.778185 0.698943
vt 0.786727 0.698943
vt 0.789989 0.707611
vt 0.755824 0.748698
vt 0.764491 0.738657
vt 0.755824 0.738657
vt 0.755824 0.728616
vt 0.764491 0.726246
vt 0.759086 0.777709
vt 0.766381 0.769042
vt 0.767627 0.777709
vt 0.779432 0.769042
vt 0.778185 0.777709
vt 0.786727 0.777709
vt 0.789989 0.769042
vt 0.800462 0.500699
vt 0.791794 0.490658
vt 0.800462 0.490658
vt 0.800462 0.480617
vt 0.791794 0.478246
vt 0.759086 0.716278
vt 0.767627 0.716278
vt 0.778185 0.716278
vt 0.786727 0.716278
vt 0.773159 0.748698
vt 0.773159 0.738657
vt 0.773159 0.728616
vt 0.759086 0.760374
vt 0.767627 0.760374
vt 0.778185 0.760374
vt 0.786727 0.760374
vt 0.783126 0.500699
vt 0.783126 0.490658
vt 0.783126 0.480617
vt 0.817895 0.644765
vt 0.805483 0.644765
vt 0.807854 0.648028
vt 0.807854 0.652061
vt 0.817895 0.655323
vt 0.805483 0.655323
vt 0.811689 0.663864
vt 0.801648 0.656569
vt 0.801648 0.667127
vt 0.791607 0.663864
vt 0.797813 0.655323
vt 0.785402 0.655323
vt 0.795443 0.652061
vt 0.795443 0.648028
vt 0.785402 0.644765
vt 0.797813 0.644765
vt 0.791607 0.636224
vt 0.801648 0.643519
vt 0.801648 0.632962
vt 0.811689 0.636224
vt 0.801648 0.650044
vt 0.789332 0.380412
vt 0.783126 0.398606
vt 0.789332 0.398606
vt 0.797003 0.380412
vt 0.797003 0.398606
vt 0.803208 0.380412
vt 0.803208 0.398606
vt 0.783126 0.551481
vt 0.801320 0.558776
vt 0.801320 0.551481
vt 0.783126 0.544186
vt 0.801320 0.544186
vt 0.789332 0.744440
vt 0.783126 0.726246
vt 0.789332 0.726246
vt 0.797003 0.744440
vt 0.797003 0.726246
vt 0.803208 0.744440
vt 0.803208 0.726246
vt 0.774018 0.392216
vt 0.755824 0.399511
vt 0.755824 0.392216
vt 0.774018 0.384921
vt 0.755824 0.384921
vt 0.783874 0.420962
vt 0.782111 0.410977
vt 0.779366 0.414756
vt 0.783874 0.428633
vt 0.788317 0.419518
vt 0.782111 0.438617
vt 0.788317 0.430076
vt 0.772071 0.437208
vt 0.779366 0.434838
vt 0.764776 0.434838
vt 0.772071 0.441880
vt 0.760266 0.428633
vt 0.762029 0.438617
vt 0.760266 0.420962
vt 0.755824 0.430076
vt 0.762029 0.410977
vt 0.755824 0.419518
vt 0.764776 0.414756
vt 0.772071 0.407714
vt 0.772071 0.412386
vt 0.766382 0.459611
vt 0.759087 0.468279
vt 0.767627 0.468279
vt 0.779431 0.459611
vt 0.778185 0.468279
vt 0.786726 0.468279
vt 0.764491 0.490658
vt 0.773159 0.500699
vt 0.773159 0.490658
vt 0.773159 0.480617
vt 0.766382 0.521042
vt 0.759087 0.512375
vt 0.767627 0.512375
vt 0.778185 0.512375
vt 0.786726 0.512375
vt 0.779431 0.521042
vt 0.764491 0.552089
vt 0.755824 0.562130
vt 0.755824 0.552089
vt 0.755824 0.542048
vt 0.759087 0.450944
vt 0.755824 0.459611
vt 0.778185 0.450944
vt 0.786726 0.450944
vt 0.789989 0.459611
vt 0.755824 0.500699
vt 0.764491 0.503069
vt 0.755824 0.480617
vt 0.764491 0.478246
vt 0.759087 0.529710
vt 0.755824 0.521042
vt 0.767627 0.529710
vt 0.786726 0.529710
vt 0.789989 0.521042
vt 0.773159 0.562130
vt 0.764491 0.564500
vt 0.773159 0.542048
vt 0.764491 0.539677
vt 0.755824 0.596167
vt 0.768235 0.596167
vt 0.762029 0.604709
vt 0.765864 0.588872
vt 0.755824 0.585610
vt 0.768235 0.585610
vt 0.762029 0.577068
vt 0.772071 0.584363
vt 0.772071 0.573806
vt 0.782111 0.577068
vt 0.788317 0.585610
vt 0.775906 0.585610
vt 0.778276 0.592905
vt 0.788317 0.596167
vt 0.775906 0.596167
vt 0.782111 0.604709
vt 0.772071 0.597414
vt 0.772071 0.607971
vt 0.765864 0.592905
vt 0.772071 0.590889
vt 0.778276 0.588872
vt 0.755824 0.617035
vt 0.762029 0.635229
vt 0.762029 0.617035
vt 0.769700 0.635229
vt 0.769700 0.617035
vt 0.775905 0.635229
vt 0.775905 0.617035
vt 0.755824 0.663437
vt 0.774018 0.656142
vt 0.755824 0.656142
vt 0.774018 0.648846
vt 0.755824 0.648846
vt 0.755824 0.689835
vt 0.762029 0.671640
vt 0.762029 0.689835
vt 0.769700 0.671640
vt 0.769700 0.689835
vt 0.775905 0.671640
vt 0.775905 0.689835
vt 0.805871 0.695290
vt 0.787677 0.687995
vt 0.805871 0.687995
vt 0.787677 0.680700
vt 0.805871 0.680700
vt 0.796778 0.419518
vt 0.829271 0.430076
vt 0.755824 0.707611
vt 0.764491 0.751068
vt 0.755824 0.769042
vt 0.791794 0.503069
vt 0.774018 0.380412
vt 0.805578 0.380412
vt 0.783126 0.539677
vt 0.805578 0.744440
vt 0.767627 0.450944
vt 0.755824 0.490658
vt 0.778185 0.529710
vt 0.773159 0.552089
vt 0.787677 0.676191
vt 0.778276 0.635229
vt 0.774018 0.644338
vt 0.778276 0.671640
vn -0.0000 -1.0000 -0.0000
vn 0.0000 0.0000 1.0000
vn 0.0000 1.0000 0.0000
vn 1.0000 0.0000 0.0000
vn -1.0000 -0.0000 -0.0000
vn -0.0000 0.0000 -1.0000
vn -0.7273 0.4253 0.5386
vn -0.8994 0.3930 0.1915
vn -0.8993 0.2054 0.3860
vn -0.7500 0.6495 0.1248
vn -0.9005 0.4137 -0.1344
vn -0.7535 0.3865 -0.5319
vn -0.9005 0.2556 -0.3519
vn -0.8993 0.0607 -0.4330
vn -0.7863 -0.0399 -0.6165
vn -0.8993 -0.2054 -0.3860
vn -0.7273 -0.4253 -0.5386
vn -0.8994 -0.3930 -0.1915
vn -0.7500 -0.6495 -0.1248
vn -0.9005 -0.4137 0.1344
vn -0.7277 -0.4251 0.5383
vn -0.8994 -0.2054 0.3860
vn -0.8085 0.0000 0.5885
vn -0.9005 0.0000 0.4349
vn -0.0184 0.9383 0.3455
vn 0.0170 0.9472 -0.3203
vn -0.7535 0.6249 -0.2043
vn -0.0000 0.5878 -0.8090
vn 0.0000 -0.5878 -0.8090
vn 0.0355 -0.9425 -0.3323
vn -0.0355 -0.9425 0.3323
vn -0.7535 -0.6249 0.2043
vn 0.0000 -0.5878 0.8090
vn -0.0000 0.5878 0.8090
vn 0.7597 0.3641 0.5388
vn 0.8192 0.5572 0.1358
vn 0.8305 0.5193 -0.2013
vn 0.7601 0.3637 -0.5384
vn 0.7912 0.0000 -0.6116
vn 0.7601 -0.3637 -0.5384
vn 0.8550 -0.4932 -0.1602
vn 0.7909 -0.5891 0.1657
vn 0.7601 -0.3637 0.5384
vn 0.7912 0.0000 0.6116
vn 0.9724 0.1596 0.1703
vn 0.9804 0.1875 0.0610
vn 0.9723 0.2293 -0.0441
vn 0.9723 0.1597 -0.1704
vn 0.9670 0.0000 -0.2548
vn 0.9723 -0.1597 -0.1704
vn 0.9804 -0.1875 -0.0610
vn 0.9723 -0.2293 0.0441
vn 0.9723 -0.1597 0.1705
vn 0.9670 0.0000 0.2548
vn -0.0179 0.9386 0.3444
vn 0.0166 0.9473 -0.3201
vn 0.0166 0.9473 -0.3200
vn 0.0345 -0.9428 -0.3316
vn 0.0345 -0.9428 -0.3317
vn -0.0345 -0.9428 0.3317
vn -0.0345 -0.9428 0.3316
vn 0.8994 0.3930 0.1915
vn 0.7277 0.4251 0.5383
vn 0.8993 0.2054 0.3860
vn 0.9005 0.4136 -0.1344
vn 0.7510 0.6484 0.1250
vn 0.7534 0.3855 -0.5326
vn 0.7536 0.6252 -0.2031
vn 0.8993 0.0607 -0.4330
vn 0.9005 0.2556 -0.3519
vn 0.8994 -0.2054 -0.3860
vn 0.7868 -0.0384 -0.6160
vn 0.8994 -0.3930 -0.1915
vn 0.7277 -0.4251 -0.5383
vn 0.9005 -0.4136 0.1344
vn 0.7868 -0.5977 -0.1538
vn 0.7283 -0.4248 0.5377
vn 0.7161 -0.6798 0.1582
vn 0.8993 -0.2054 0.3860
vn 0.8084 0.0042 0.5886
vn 0.9005 0.0000 0.4349
vn -0.0248 0.9394 0.3418
vn 0.0188 0.9481 -0.3173
vn 0.0306 -0.9407 -0.3377
vn -0.7601 0.3637 0.5384
vn -0.7932 0.5838 -0.1731
vn -0.7576 0.3660 -0.5404
vn -0.7627 -0.3619 -0.5360
vn -0.8192 -0.5572 -0.1358
vn -0.7576 -0.3660 0.5404
vn -0.8550 0.4926 0.1620
vn -0.9723 0.1597 0.1704
vn -0.9726 0.2283 -0.0437
vn -0.9726 0.1590 -0.1694
vn -0.9670 0.0010 -0.2547
vn -0.7912 0.0000 -0.6116
vn -0.9723 -0.1597 -0.1705
vn -0.9726 -0.2283 0.0437
vn -0.8305 -0.5193 0.2013
vn -0.9726 -0.1591 0.1695
vn -0.9670 -0.0010 0.2547
vn -0.7912 0.0000 0.6116
vn -0.9804 0.1875 0.0609
vn -0.9804 -0.1875 -0.0609
s 1
f 1/1/1 2/2/1 3/3/1
f 4/4/2 1/5/2 5/6/2
f 4/7/3 6/8/3 7/9/3
f 5/10/4 3/11/4 6/12/4
f 2/13/5 4/14/5 7/15/5
f 6/16/6 2/17/6 7/18/6
f 8/19/1 9/20/1 10/21/1
f 8/22/2 11/23/2 12/24/2
f 11/25/3 13/26/3 12/27/3
f 10/28/4 14/29/4 11/30/4
f 15/31/5 12/32/5 13/33/5
f 1/1/1 16/34/1 2/2/1
f 4/4/2 16/35/2 1/5/2
f 4/7/3 5/36/3 6/8/3
f 5/10/4 1/37/4 3/11/4
f 2/13/5 16/38/5 4/14/5
f 6/16/6 3/39/6 2/17/6
f 8/19/1 15/40/1 9/20/1
f 8/22/2 10/41/2 11/23/2
f 11/25/3 14/42/3 13/26/3
f 10/28/4 9/43/4 14/29/4
f 15/31/5 8/44/5 12/32/5
f 17/45/7 18/46/8 19/47/9
f 20/48/10 21/49/11 18/46/8
f 21/49/11 22/50/12 23/51/13
f 22/50/12 24/52/14 23/51/13
f 25/53/15 26/54/16 24/52/14
f 27/55/17 28/56/18 26/54/16
f 29/57/19 30/58/20 28/56/18
f 30/58/20 31/59/21 32/60/22
f 32/60/22 33/61/23 34/62/24
f 33/61/23 19/47/9 34/62/24
f 17/63/7 35/64/25 20/65/10
f 20/65/10 36/66/26 37/67/27
f 22/68/12 36/66/26 38/69/28
f 22/70/12 39/71/6 25/72/15
f 27/73/17 39/71/6 40/74/29
f 27/75/17 41/76/30 29/77/19
f 29/77/19 42/78/31 43/79/32
f 31/80/21 42/78/31 44/81/33
f 31/82/21 45/83/2 33/84/23
f 17/85/7 45/83/2 46/86/34
f 35/64/25 47/87/35 48/88/36
f 36/66/26 48/88/36 49/89/37
f 36/66/26 50/90/38 38/69/28
f 39/71/6 50/91/38 51/92/39
f 39/71/6 52/93/40 40/74/29
f 41/76/30 52/94/40 53/95/41
f 41/76/30 54/96/42 42/78/31
f 42/78/31 55/97/43 44/81/33
f 45/83/2 55/98/43 56/99/44
f 45/83/2 47/100/35 46/86/34
f 48/101/36 57/102/45 58/103/46
f 48/101/36 59/104/47 49/105/37
f 49/105/37 60/106/48 50/107/38
f 50/107/38 61/108/49 51/109/39
f 52/110/40 61/108/49 62/111/50
f 53/112/41 62/111/50 63/113/51
f 53/112/41 64/114/52 54/115/42
f 54/115/42 65/116/53 55/117/43
f 55/117/43 66/118/54 56/119/44
f 47/120/35 66/118/54 57/102/45
f 57/102/45 67/121/4 58/103/46
f 58/103/46 67/121/4 59/104/47
f 59/104/47 67/121/4 60/106/48
f 60/106/48 67/121/4 61/108/49
f 61/108/49 67/121/4 62/111/50
f 62/111/50 67/121/4 63/113/51
f 63/113/51 67/121/4 64/114/52
f 64/114/52 67/121/4 65/116/53
f 65/116/53 67/121/4 66/118/54
f 66/118/54 67/121/4 57/102/45
f 68/122/55 19/123/34 18/124/55
f 69/125/56 18/124/55 21/126/57
f 70/127/28 21/126/57 23/128/28
f 71/129/6 23/130/28 24/131/6
f 72/132/29 24/131/6 26/133/29
f 73/134/58 26/135/29 28/136/59
f 74/137/60 28/136/59 30/138/61
f 75/139/33 30/138/61 32/140/33
f 76/141/2 32/142/33 34/143/2
f 77/144/34 34/143/2 19/145/34
f 78/146/62 79/147/63 80/148/64
f 81/149/65 82/150/66 78/146/62
f 81/149/65 83/151/67 84/152/68
f 85/153/69 83/151/67 86/154/70
f 87/155/71 88/156/72 85/153/69
f 89/157/73 90/158/74 87/155/71
f 91/159/75 92/160/76 89/157/73
f 91/159/75 93/161/77 94/162/78
f 95/163/79 96/164/80 93/161/77
f 80/148/64 96/164/80 97/165/81
f 98/166/82 79/167/63 82/168/66
f 99/169/83 82/168/66 84/170/68
f 83/171/67 99/169/83 84/170/68
f 100/172/6 83/173/67 88/174/72
f 90/175/74 100/172/6 88/174/72
f 101/176/84 90/177/74 92/178/76
f 94/179/78 101/176/84 92/178/76
f 93/180/77 102/181/31 94/179/78
f 103/182/2 93/183/77 96/184/80
f 79/185/63 103/182/2 96/184/80
f 98/166/82 104/186/85 105/187/34
f 106/188/86 98/166/82 99/169/83
f 107/189/87 99/169/83 108/190/28
f 100/172/6 107/191/87 108/192/28
f 109/193/88 100/172/6 110/194/29
f 101/176/84 109/195/88 110/196/29
f 102/181/31 111/197/89 101/176/84
f 112/198/90 102/181/31 113/199/33
f 103/182/2 112/200/90 113/201/33
f 104/202/85 103/182/2 105/203/34
f 114/204/91 115/205/92 104/206/85
f 116/207/93 114/204/91 106/208/86
f 117/209/94 106/208/86 107/210/87
f 118/211/95 107/210/87 119/212/96
f 109/213/88 118/211/95 119/212/96
f 111/214/89 120/215/97 109/213/88
f 121/216/98 111/214/89 122/217/99
f 123/218/100 122/217/99 112/219/90
f 124/220/101 112/219/90 125/221/102
f 104/206/85 124/220/101 125/221/102
f 115/205/92 126/222/103 127/223/5
f 126/222/103 116/207/93 127/223/5
f 116/207/93 117/209/94 127/223/5
f 117/209/94 118/211/95 127/223/5
f 118/211/95 120/215/97 127/223/5
f 120/215/97 128/224/104 127/223/5
f 128/224/104 121/216/98 127/223/5
f 121/216/98 123/218/100 127/223/5
f 123/218/100 124/220/101 127/223/5
f 124/220/101 115/205/92 127/223/5
f 80/225/34 129/226/55 78/227/55
f 78/227/55 130/228/57 81/229/56
f 81/229/56 131/230/28 86/231/28
f 86/232/28 132/233/6 85/234/6
f 85/234/6 133/235/29 87/236/29
f 87/237/29 134/238/58 89/239/59
f 89/239/59 135/240/60 91/241/61
f 91/241/61 136/242/33 95/243/33
f 95/244/33 137/245/2 97/246/2
f 97/246/2 138/247/34 80/248/34
f 17/45/7 20/48/10 18/46/8
f 20/48/10 37/249/27 21/49/11
f 21/49/11 37/249/27 22/50/12
f 22/50/12 25/53/15 24/52/14
f 25/53/15 27/55/17 26/54/16
f 27/55/17 29/57/19 28/56/18
f 29/57/19 43/250/32 30/58/20
f 30/58/20 43/250/32 31/59/21
f 32/60/22 31/59/21 33/61/23
f 33/61/23 17/45/7 19/47/9
f 17/63/7 46/251/34 35/64/25
f 20/65/10 35/64/25 36/66/26
f 22/68/12 37/67/27 36/66/26
f 22/70/12 38/252/28 39/71/6
f 27/73/17 25/72/15 39/71/6
f 27/75/17 40/253/29 41/76/30
f 29/77/19 41/76/30 42/78/31
f 31/80/21 43/79/32 42/78/31
f 31/82/21 44/254/33 45/83/2
f 17/85/7 33/84/23 45/83/2
f 35/64/25 46/251/34 47/87/35
f 36/66/26 35/64/25 48/88/36
f 36/66/26 49/89/37 50/90/38
f 39/71/6 38/252/28 50/91/38
f 39/71/6 51/92/39 52/93/40
f 41/76/30 40/253/29 52/94/40
f 41/76/30 53/95/41 54/96/42
f 42/78/31 54/96/42 55/97/43
f 45/83/2 44/254/33 55/98/43
f 45/83/2 56/99/44 47/100/35
f 48/101/36 47/120/35 57/102/45
f 48/101/36 58/103/46 59/104/47
f 49/105/37 59/104/47 60/106/48
f 50/107/38 60/106/48 61/108/49
f 52/110/40 51/109/39 61/108/49
f 53/112/41 52/110/40 62/111/50
f 53/112/41 63/113/51 64/114/52
f 54/115/42 64/114/52 65/116/53
f 55/117/43 65/116/53 66/118/54
f 47/120/35 56/119/44 66/118/54
f 68/255/55 77/144/34 19/145/34
f 69/125/56 68/122/55 18/124/55
f 70/127/28 69/125/56 21/126/57
f 71/256/6 70/127/28 23/128/28
f 72/132/29 71/129/6 24/131/6
f 73/257/58 72/132/29 26/133/29
f 74/137/60 73/134/58 28/136/59
f 75/139/33 74/137/60 30/138/61
f 76/258/2 75/139/33 32/140/33
f 77/144/34 76/141/2 34/143/2
f 78/146/62 82/150/66 79/147/63
f 81/149/65 84/152/68 82/150/66
f 81/149/65 86/154/70 83/151/67
f 85/153/69 88/156/72 83/151/67
f 87/155/71 90/158/74 88/156/72
f 89/157/73 92/160/76 90/158/74
f 91/159/75 94/162/78 92/160/76
f 91/159/75 95/163/79 93/161/77
f 95/163/79 97/165/81 96/164/80
f 80/148/64 79/147/63 96/164/80
f 98/166/82 105/187/34 79/167/63
f 99/169/83 98/166/82 82/168/66
f 83/171/67 108/190/28 99/169/83
f 100/172/6 108/192/28 83/173/67
f 90/175/74 110/194/29 100/172/6
f 101/176/84 110/196/29 90/177/74
f 94/179/78 102/181/31 101/176/84
f 93/180/77 113/199/33 102/181/31
f 103/182/2 113/201/33 93/183/77
f 79/185/63 105/203/34 103/182/2
f 98/166/82 114/259/91 104/186/85
f 106/188/86 114/259/91 98/166/82
f 107/189/87 106/188/86 99/169/83
f 100/172/6 119/260/96 107/191/87
f 109/193/88 119/260/96 100/172/6
f 101/176/84 111/197/89 109/195/88
f 102/181/31 122/261/99 111/197/89
f 112/198/90 122/261/99 102/181/31
f 103/182/2 125/262/102 112/200/90
f 104/202/85 125/262/102 103/182/2
f 114/204/91 126/222/103 115/205/92
f 116/207/93 126/222/103 114/204/91
f 117/209/94 116/207/93 106/208/86
f 118/211/95 117/209/94 107/210/87
f 109/213/88 120/215/97 118/211/95
f 111/214/89 128/224/104 120/215/97
f 121/216/98 128/224/104 111/214/89
f 123/218/100 121/216/98 122/217/99
f 124/220/101 123/218/100 112/219/90
f 104/206/85 115/205/92 124/220/101
f 80/248/34 138/247/34 129/263/55
f 78/227/55 129/226/55 130/228/57
f 81/229/56 130/228/57 131/230/28
f 86/231/28 131/230/28 132/264/6
f 85/234/6 132/233/6 133/235/29
f 87/236/29 133/235/29 134/265/58
f 89/239/59 134/238/58 135/240/60
f 91/241/61 135/240/60 136/242/33
f 95/243/33 136/242/33 137/266/2
f 97/246/2 137/245/2 138/247/34
