# Blender v2.80 (sub 75) OBJ File: ''
# www.blender.org
o Fireplace
v 57.500000 -10.799999 0.000001
v 57.500000 10.799999 3.375003
v 57.500000 -10.799999 3.375001
v 42.500000 10.799999 -0.000001
v 42.500000 -10.799999 -0.000003
v 42.500000 -10.799999 3.374997
v 57.500000 10.799999 0.000003
v 42.500000 10.799999 3.374999
v 42.723728 -7.120831 4.156739
v 42.276272 6.976325 9.973661
v 42.276272 -6.976327 9.973660
v 42.500000 10.799998 4.500000
v 51.937496 10.462499 11.812501
v 52.500000 10.799998 4.500001
v 51.937496 -10.462501 11.812499
v 42.500000 -10.800000 4.499997
v 52.500000 -10.800000 4.499999
v 51.749996 11.247347 14.365047
v 42.500000 11.359849 11.927545
v 42.500000 11.247347 14.365045
v 53.433079 -10.462501 11.927547
v 53.245579 10.349998 14.365047
v 53.245579 -10.350002 14.365045
v 42.500000 -11.359851 11.927543
v 51.749996 -11.247351 14.365045
v 42.500000 -11.247351 14.365043
v 50.249996 10.349998 14.250001
v 42.500000 10.349998 14.249999
v 51.937496 11.359849 11.927547
v 53.433079 10.462499 11.927548
v 50.249996 -10.350002 14.249999
v 51.937496 -11.359851 11.927545
v 52.052544 -6.976327 10.316917
v 52.052544 6.976325 10.316919
v 52.500000 7.120830 4.500001
v 52.500000 -7.120831 4.499999
v 42.723728 7.120830 4.156741
v 59.000000 11.700000 4.500003
v 42.500000 11.700001 3.375000
v 42.500000 11.700000 4.500000
v 59.000000 -11.700002 4.500000
v 59.000000 11.700001 3.375003
v 59.000000 -11.700001 3.375000
v 42.500000 -11.700002 4.499997
v 42.500000 -11.700001 3.374997
v 42.500000 10.462499 11.812500
v 42.500000 -10.462501 11.812498
v 42.500000 -10.350002 14.249997
v 48.749992 -9.450006 36.750000
v 48.749992 9.449996 36.750000
v 42.499992 -9.450006 36.750000
v 42.499992 9.449996 36.750000
v 48.362286 9.217040 48.389500
v 48.362286 -9.217052 48.389500
v 42.499992 -8.984097 48.397755
v 42.499992 8.984085 48.397755
vt 0.642447 0.433194
vt 0.949241 0.481130
vt 0.642447 0.481130
vt 0.855498 0.119314
vt 0.642447 0.426108
vt 0.855498 0.426108
vt 0.911261 0.218052
vt 0.863325 0.005000
vt 0.863325 0.218052
vt 0.851700 0.995000
vt 0.899636 0.781949
vt 0.899636 0.995000
vt 0.220066 0.816824
vt 0.420294 0.899444
vt 0.222118 0.899444
vt 0.776136 0.638572
vt 0.879999 0.772616
vt 0.776136 0.780606
vt 0.762573 0.497371
vt 0.866436 0.631416
vt 0.866436 0.489382
vt 0.254687 0.628514
vt 0.220066 0.497132
vt 0.254687 0.497132
vt 0.220066 0.774198
vt 0.515675 0.808819
vt 0.221664 0.808819
vt 0.835945 0.941111
vt 0.801324 0.809729
vt 0.801324 0.941111
vt 0.169327 0.831014
vt 0.059251 0.843759
vt 0.059251 0.831014
vt 0.026243 0.509877
vt 0.160287 0.497132
vt 0.026243 0.497132
vt 0.190633 0.843759
vt 0.211875 0.831014
vt 0.026243 0.807084
vt 0.005000 0.509877
vt 0.005000 0.807084
vt 0.211875 0.537003
vt 0.169327 0.537003
vt 0.160287 0.819830
vt 0.026243 0.819830
vt 0.059251 0.524257
vt 0.190633 0.524257
vt 0.801324 0.788487
vt 0.835945 0.807066
vt 0.835945 0.785824
vt 0.220066 0.631177
vt 0.254687 0.649756
vt 0.220066 0.652419
vt 0.274375 0.744442
vt 0.522066 0.765684
vt 0.224859 0.765684
vt 0.220066 0.661822
vt 0.526860 0.661822
vt 0.472551 0.744442
vt 0.474603 0.661822
vt 0.121559 0.684427
vt 0.034063 0.551926
vt 0.116683 0.545570
vt 0.542290 0.440885
vt 0.403434 0.238605
vt 0.542290 0.238605
vt 0.533945 0.668177
vt 0.621441 0.800678
vt 0.616565 0.661822
vt 0.628884 0.859997
vt 0.767741 0.661822
vt 0.628884 0.661822
vt 0.342609 0.471860
vt 0.326630 0.237503
vt 0.342609 0.237503
vt 0.301442 0.156606
vt 0.633802 0.140627
vt 0.633802 0.156606
vt 0.365859 0.237503
vt 0.349880 0.471860
vt 0.365859 0.471860
vt 0.312288 0.191003
vt 0.299504 0.206982
vt 0.312288 0.206982
vt 0.400256 0.505925
vt 0.542290 0.493142
vt 0.634612 0.505925
vt 0.531923 0.216191
vt 0.318872 0.228974
vt 0.531923 0.228974
vt 0.297567 0.548551
vt 0.297567 0.216191
vt 0.531923 0.548551
vt 0.318872 0.535768
vt 0.542290 0.186348
vt 0.400256 0.173565
vt 0.634612 0.173565
vt 0.299504 0.183731
vt 0.312288 0.167752
vt 0.299504 0.167752
vt 0.949241 0.433194
vt 0.642447 0.119314
vt 0.911261 0.005000
vt 0.851700 0.781949
vt 0.422346 0.816824
vt 0.879999 0.638572
vt 0.762573 0.631416
vt 0.517273 0.774198
vt 0.160287 0.509877
vt 0.160287 0.807084
vt 0.059251 0.537003
vt 0.272322 0.661822
vt 0.038939 0.690782
vt 0.403434 0.440885
vt 0.538820 0.807034
vt 0.767741 0.859997
vt 0.326630 0.471860
vt 0.301442 0.140627
vt 0.349880 0.237503
vt 0.299504 0.191003
vt 0.400256 0.493142
vt 0.531923 0.535768
vt 0.400256 0.186348
vt 0.312288 0.183731
vt 0.017784 0.324577
vt 0.299011 0.005000
vt 0.286229 0.324577
vt 0.305317 0.022438
vt 0.624894 0.111209
vt 0.305317 0.132514
vt 0.755457 0.653709
vt 0.435880 0.564938
vt 0.435880 0.653709
vt 0.624894 0.022438
vt 0.790215 0.105702
vt 0.270559 0.570445
vt 0.270441 0.653709
vt 0.021092 0.489898
vt 0.005000 0.005000
vt 0.755457 0.543633
vt 0.790332 0.022438
vt 0.282919 0.489898
vn 1.0000 -0.0000 0.0000
vn 0.0000 0.0000 -1.0000
vn 0.0000 -1.0000 0.0000
vn 0.0000 1.0000 0.0000
vn 0.9971 0.0000 0.0767
vn -0.0000 0.9989 0.0461
vn -0.0000 -0.9989 0.0461
vn -0.0000 -0.1272 0.9919
vn 0.0000 0.1272 -0.9919
vn -0.0383 -0.0638 0.9972
vn 0.0767 0.0000 -0.9971
vn -0.0384 -0.0000 0.9993
vn 0.0000 -0.1272 -0.9919
vn -0.0000 0.1272 0.9919
vn 0.5129 -0.8548 0.0789
vn -0.0383 0.0638 0.9972
vn 0.0761 -0.1268 -0.9890
vn 0.5129 0.8548 0.0789
vn 0.0761 0.1268 -0.9890
vn 0.0009 0.9997 -0.0248
vn -0.0351 -0.0000 0.9994
vn 0.0009 -0.9997 -0.0248
vn 0.0351 0.0000 -0.9994
vn -1.0000 -0.0000 0.0000
vn -0.0000 -0.0000 1.0000
vn 0.9987 -0.0000 0.0502
vn 0.9978 -0.0000 0.0665
vn 0.9988 -0.0000 0.0499
vn 0.0000 0.9992 0.0400
vn 0.0000 0.9994 0.0333
vn 0.0000 -0.9992 0.0400
vn 0.0000 -0.9994 0.0333
vn -0.0132 -0.9994 0.0333
vn -0.0132 0.9994 0.0333
vn -0.0198 0.9994 0.0300
vn -0.0198 -0.9994 0.0300
vn -0.0396 -0.9984 0.0399
vn 0.9994 0.0000 0.0333
vn -0.0000 -0.9994 0.0334
vn -0.0396 0.9984 0.0399
s 1
f 1/1/1 2/2/1 3/3/1
f 4/4/2 1/5/2 5/6/2
f 5/7/3 3/8/3 6/9/3
f 7/10/4 8/11/4 2/12/4
f 9/13/5 10/14/5 11/15/5
f 12/16/6 13/17/6 14/18/6
f 15/19/7 16/20/7 17/21/7
f 18/22/6 19/23/6 20/24/6
f 21/25/5 22/26/5 23/27/5
f 24/28/7 25/29/7 26/30/7
f 27/31/8 20/32/8 28/33/8
f 13/34/9 19/35/9 29/36/9
f 18/37/10 27/31/10 22/38/10
f 15/39/11 30/40/11 21/41/11
f 23/42/12 27/31/12 31/43/12
f 24/44/13 15/39/13 32/45/13
f 31/43/14 26/46/14 25/47/14
f 23/48/15 32/49/15 21/50/15
f 25/47/16 23/42/16 31/43/16
f 21/41/17 32/45/17 15/39/17
f 29/51/18 22/52/18 30/53/18
f 29/36/19 30/40/19 13/34/19
f 33/54/5 13/55/5 15/56/5
f 17/57/5 33/54/5 15/56/5
f 14/58/5 34/59/5 35/60/5
f 33/61/20 9/62/20 11/63/20
f 35/64/21 9/65/21 36/66/21
f 34/67/22 37/68/22 35/69/22
f 33/70/23 10/71/23 34/72/23
f 38/73/4 39/74/4 40/75/4
f 41/76/1 42/77/1 38/78/1
f 43/79/3 44/80/3 45/81/3
f 12/82/24 39/83/24 8/84/24
f 40/85/25 14/86/25 38/87/25
f 39/88/2 2/89/2 8/90/2
f 38/87/25 14/86/25 35/64/25
f 43/91/2 2/89/2 42/92/2
f 45/93/2 3/94/2 43/91/2
f 17/95/25 44/96/25 41/97/25
f 6/98/24 44/99/24 16/100/24
f 41/97/25 36/66/25 17/95/25
f 35/64/25 41/97/25 38/87/25
f 1/1/1 7/101/1 2/2/1
f 4/4/2 7/102/2 1/5/2
f 5/7/3 1/103/3 3/8/3
f 7/10/4 4/104/4 8/11/4
f 9/13/5 37/105/5 10/14/5
f 12/16/6 46/106/6 13/17/6
f 15/19/7 47/107/7 16/20/7
f 18/22/6 29/51/6 19/23/6
f 21/25/5 30/108/5 22/26/5
f 24/28/7 32/49/7 25/29/7
f 27/31/8 18/37/8 20/32/8
f 13/34/9 46/109/9 19/35/9
f 15/39/11 13/34/11 30/40/11
f 23/42/12 22/38/12 27/31/12
f 24/44/13 47/110/13 15/39/13
f 31/43/14 48/111/14 26/46/14
f 23/48/15 25/29/15 32/49/15
f 29/51/18 18/22/18 22/52/18
f 33/54/5 34/59/5 13/55/5
f 17/57/5 36/112/5 33/54/5
f 14/58/5 13/55/5 34/59/5
f 33/61/20 36/113/20 9/62/20
f 35/64/21 37/114/21 9/65/21
f 34/67/22 10/115/22 37/68/22
f 33/70/23 11/116/23 10/71/23
f 38/73/4 42/117/4 39/74/4
f 41/76/1 43/118/1 42/77/1
f 43/79/3 41/119/3 44/80/3
f 12/82/24 40/120/24 39/83/24
f 40/85/25 12/121/25 14/86/25
f 39/88/2 42/92/2 2/89/2
f 43/91/2 3/94/2 2/89/2
f 45/93/2 6/122/2 3/94/2
f 17/95/25 16/123/25 44/96/25
f 6/98/24 45/124/24 44/99/24
f 35/64/25 36/66/25 41/97/25
f 49/125/26 27/126/27 50/127/28
f 28/128/29 50/129/30 27/130/29
f 48/131/31 49/132/32 51/133/33
f 52/134/34 53/135/35 50/129/30
f 51/133/33 54/136/36 55/137/37
f 50/127/28 54/138/38 49/125/26
f 49/125/26 31/139/27 27/126/27
f 28/128/29 52/134/34 50/129/30
f 48/131/31 31/140/31 49/132/39
f 52/134/34 56/141/40 53/135/35
f 51/133/33 49/132/32 54/136/36
f 50/127/28 53/142/38 54/138/38
