# Blender v2.80 (sub 75) OBJ File: ''
# www.blender.org
o SmallVase
v 0.270741 0.468937 0.000000
v 0.500000 0.866025 0.591171
v 0.866025 0.500000 0.591171
v 0.468937 0.270741 0.000000
v 0.000000 0.541482 0.000000
v 0.000000 1.000000 0.591171
v -0.270741 0.468937 0.000000
v -0.500000 0.866025 0.591171
v -0.468937 0.270741 0.000000
v -0.866025 0.500000 0.591171
v -0.541482 0.000000 0.000000
v -1.000000 -0.000000 0.591171
v -0.468937 -0.270741 -0.000000
v -0.866025 -0.500000 0.591171
v -0.270741 -0.468937 -0.000000
v -0.500000 -0.866025 0.591171
v 0.000000 -0.541482 -0.000000
v 0.000000 -1.000000 0.591171
v 0.270741 -0.468937 -0.000000
v 0.500000 -0.866025 0.591171
v 0.468937 -0.270741 -0.000000
v 0.866025 -0.500000 0.591171
v 0.541482 0.000000 0.000000
v 1.000000 -0.000000 0.591171
v 0.641667 1.111399 1.341171
v 1.111399 0.641667 1.341171
v 0.000000 1.283333 1.341171
v -0.641667 1.111399 1.341171
v -1.111399 0.641667 1.341171
v -1.283333 -0.000000 1.341171
v -1.111399 -0.641667 1.341171
v -0.641667 -1.111399 1.341171
v 0.000000 -1.283333 1.341171
v 0.641667 -1.111399 1.341171
v 1.111399 -0.641667 1.341171
v 1.283333 -0.000000 1.341171
v 0.625000 1.082532 2.091171
v 1.082532 0.625000 2.091171
v 0.000000 1.250000 2.091171
v -0.625000 1.082532 2.091171
v -1.082532 0.625000 2.091171
v -1.250000 -0.000000 2.091171
v -1.082532 -0.625000 2.091171
v -0.625000 -1.082532 2.091171
v 0.000000 -1.250000 2.091171
v 0.625000 -1.082532 2.091171
v 1.082532 -0.625000 2.091171
v 1.250000 -0.000000 2.091171
v 0.483333 0.837158 2.841171
v 0.837158 0.483333 2.841171
v 0.000000 0.966667 2.841171
v -0.483333 0.837158 2.841171
v -0.837158 0.483333 2.841171
v -0.966667 -0.000000 2.841171
v -0.837158 -0.483333 2.841171
v -0.483333 -0.837159 2.841171
v 0.000000 -0.966667 2.841171
v 0.483333 -0.837159 2.841171
v 0.837158 -0.483333 2.841171
v 0.966667 -0.000000 2.841171
v 0.373333 0.646632 3.090194
v 0.646632 0.373333 3.090194
v 0.000000 0.746667 3.090194
v -0.373333 0.646632 3.090194
v -0.646632 0.373333 3.090194
v -0.746667 -0.000001 3.090194
v -0.646632 -0.373334 3.090194
v -0.373333 -0.646632 3.090194
v 0.000000 -0.746668 3.090194
v 0.373333 -0.646632 3.090194
v 0.646632 -0.373334 3.090194
v 0.746667 -0.000001 3.090194
v 0.391341 0.225940 3.966171
v 0.225941 0.391340 3.966171
v 0.225941 0.391341 1.814267
v 0.391341 0.225941 1.814267
v 0.000000 0.451880 3.966171
v 0.000000 0.451881 1.814267
v -0.225941 0.391340 3.966171
v -0.225941 0.391341 1.814267
v -0.391341 0.225940 3.966171
v -0.391341 0.225941 1.814267
v -0.451881 -0.000001 3.966171
v -0.451881 -0.000000 1.814267
v -0.391341 -0.225942 3.966171
v -0.391341 -0.225941 1.814267
v -0.225941 -0.391342 3.966171
v -0.225941 -0.391341 1.814267
v 0.000000 -0.451882 3.966171
v 0.000000 -0.451881 1.814267
v 0.225941 -0.391342 3.966171
v 0.225941 -0.391341 1.814267
v 0.391341 -0.225942 3.966171
v 0.391341 -0.225941 1.814267
v 0.451881 -0.000001 3.966171
v 0.451881 -0.000000 1.814267
v 0.590592 0.340977 4.105215
v 0.564848 0.326114 4.120338
v 0.652231 -0.000001 4.120339
v 0.681956 -0.000001 4.105216
v 0.340978 0.590591 4.105215
v 0.326115 0.564847 4.120338
v 0.000000 0.681955 4.105216
v 0.000000 0.652230 4.120339
v -0.340978 0.590591 4.105215
v -0.326115 0.564847 4.120338
v -0.590592 0.340977 4.105215
v -0.564848 0.326114 4.120338
v -0.681956 -0.000001 4.105216
v -0.652231 -0.000001 4.120339
v -0.590592 -0.340979 4.105215
v -0.564848 -0.326116 4.120338
v -0.340978 -0.590593 4.105215
v -0.326115 -0.564849 4.120338
v 0.000000 -0.681957 4.105216
v 0.000000 -0.652232 4.120339
v 0.340978 -0.590593 4.105215
v 0.326115 -0.564849 4.120338
v 0.590592 -0.340979 4.105215
v 0.564848 -0.326116 4.120338
v 0.484900 0.279956 3.910405
v 0.510594 0.294790 4.007880
v 0.589583 -0.000001 4.007880
v 0.559914 -0.000001 3.910405
v 0.279957 0.484899 3.910405
v 0.294791 0.510593 4.007880
v 0.000000 0.559913 3.910405
v 0.000000 0.589582 4.007880
v -0.279957 0.484899 3.910405
v -0.294791 0.510593 4.007880
v -0.484900 0.279956 3.910405
v -0.510594 0.294790 4.007880
v -0.559914 -0.000001 3.910405
v -0.589583 -0.000001 4.007880
v -0.484900 -0.279958 3.910405
v -0.510594 -0.294792 4.007880
v -0.279957 -0.484901 3.910405
v -0.294791 -0.510595 4.007880
v 0.000000 -0.559915 3.910405
v 0.000000 -0.589584 4.007880
v 0.279957 -0.484901 3.910405
v 0.294791 -0.510595 4.007880
v 0.484900 -0.279958 3.910405
v 0.510594 -0.294792 4.007880
vt 0.586672 0.503115
vt 0.535545 0.604318
vt 0.586672 0.604318
vt 0.637800 0.604318
vt 0.075400 0.503114
vt 0.024272 0.604318
vt 0.075400 0.604318
vt 0.126527 0.604318
vt 0.177654 0.503114
vt 0.177654 0.604318
vt 0.228782 0.503114
vt 0.228782 0.604318
vt 0.279909 0.503114
vt 0.279909 0.604318
vt 0.331036 0.604318
vt 0.382163 0.503114
vt 0.382163 0.604318
vt 0.433291 0.604318
vt 0.484418 0.503114
vt 0.484418 0.604318
vt 0.535545 0.503114
vt 0.535545 0.418941
vt 0.637800 0.418941
vt 0.637800 0.503115
vt 0.024272 0.418941
vt 0.024272 0.503114
vt 0.126527 0.418941
vt 0.126527 0.503114
vt 0.177654 0.418941
vt 0.228782 0.418941
vt 0.331036 0.418941
vt 0.331036 0.503114
vt 0.433291 0.418941
vt 0.433291 0.503114
vt 0.484418 0.418941
vt 0.586672 0.307264
vt 0.586672 0.418941
vt 0.637800 0.307264
vt 0.075400 0.307264
vt 0.075400 0.418941
vt 0.126527 0.307264
vt 0.228782 0.307264
vt 0.279909 0.307264
vt 0.279909 0.418941
vt 0.331036 0.307264
vt 0.382163 0.307264
vt 0.382163 0.418941
vt 0.433291 0.307264
vt 0.535545 0.307264
vt 0.535545 0.195588
vt 0.586672 0.195588
vt 0.075400 0.195588
vt 0.024272 0.307264
vt 0.126527 0.195588
vt 0.177654 0.307264
vt 0.228782 0.195588
vt 0.279909 0.195588
vt 0.382163 0.195588
vt 0.433291 0.195588
vt 0.484418 0.307264
vt 0.535545 0.152924
vt 0.637800 0.152924
vt 0.586672 0.152924
vt 0.024272 0.152924
vt 0.024272 0.195588
vt 0.126527 0.152924
vt 0.075400 0.152924
vt 0.177654 0.152924
vt 0.177654 0.195588
vt 0.228782 0.152924
vt 0.331036 0.152924
vt 0.279909 0.152924
vt 0.331036 0.195588
vt 0.433291 0.152924
vt 0.382163 0.152924
vt 0.484418 0.152924
vt 0.484418 0.195588
vt 0.653898 0.912679
vt 0.652825 0.841177
vt 0.698835 0.867741
vt 0.592511 0.929128
vt 0.627333 0.866669
vt 0.531125 0.912679
vt 0.592511 0.876000
vt 0.486186 0.867741
vt 0.557689 0.866669
vt 0.469738 0.806355
vt 0.532197 0.841177
vt 0.486186 0.744968
vt 0.522866 0.806355
vt 0.531125 0.700030
vt 0.532197 0.771533
vt 0.592511 0.683582
vt 0.557689 0.746041
vt 0.653898 0.700030
vt 0.592511 0.736710
vt 0.698835 0.744968
vt 0.627333 0.746041
vt 0.715284 0.806355
vt 0.652825 0.771533
vt 0.662156 0.806355
vt 0.752970 0.898996
vt 0.769717 0.806355
vt 0.777794 0.806355
vt 0.745976 0.894958
vt 0.685152 0.966815
vt 0.681114 0.959820
vt 0.592511 0.983561
vt 0.499870 0.966815
vt 0.503908 0.959820
vt 0.439046 0.894958
vt 0.432051 0.898996
vt 0.415305 0.806355
vt 0.432051 0.713714
vt 0.439046 0.717752
vt 0.499870 0.645895
vt 0.503908 0.652890
vt 0.592511 0.629148
vt 0.685152 0.645895
vt 0.681114 0.652890
vt 0.745976 0.717752
vt 0.752970 0.713714
vt 0.535545 0.067422
vt 0.484418 0.089279
vt 0.535545 0.089279
vt 0.586672 0.067422
vt 0.637800 0.089279
vt 0.637800 0.067422
vt 0.024272 0.089279
vt 0.075400 0.067422
vt 0.024272 0.067422
vt 0.075400 0.089279
vt 0.126527 0.067422
vt 0.177654 0.089279
vt 0.177654 0.067422
vt 0.228782 0.067422
vt 0.228782 0.089279
vt 0.279909 0.067422
vt 0.331036 0.089279
vt 0.331036 0.067422
vt 0.382163 0.067422
vt 0.382163 0.089279
vt 0.433291 0.067422
vt 0.484418 0.067422
vt 0.126527 0.089279
vt 0.433291 0.089279
vt 0.535545 0.050933
vt 0.586672 0.050933
vt 0.024272 0.050933
vt 0.126527 0.050933
vt 0.075400 0.050933
vt 0.177654 0.050933
vt 0.228782 0.050933
vt 0.279909 0.050933
vt 0.331036 0.050933
vt 0.433291 0.050933
vt 0.382163 0.050933
vt 0.484418 0.050933
vt 0.637800 0.195588
vt 0.592511 0.991638
vt 0.407228 0.806355
vt 0.592511 0.621072
vt 0.586672 0.089279
vt 0.279909 0.089279
vt 0.637800 0.050933
vn 0.4691 0.7511 -0.4646
vn 0.6843 0.3951 -0.6129
vn 0.3951 0.6843 -0.6129
vn 0.0000 0.7902 -0.6129
vn -0.4159 0.7818 -0.4646
vn -0.3951 0.6843 -0.6129
vn -0.6843 0.3951 -0.6129
vn -0.8850 0.0306 -0.4646
vn -0.7902 0.0000 -0.6129
vn -0.7816 -0.4161 -0.4647
vn -0.6843 -0.3951 -0.6129
vn -0.4691 -0.7511 -0.4646
vn -0.3951 -0.6843 -0.6129
vn 0.0000 -0.7902 -0.6129
vn 0.4159 -0.7818 -0.4646
vn 0.3951 -0.6843 -0.6129
vn 0.6843 -0.3951 -0.6129
vn 0.8850 -0.0306 -0.4646
vn 0.7902 0.0000 -0.6129
vn 0.7677 0.4562 -0.4499
vn 0.8564 0.4945 -0.1485
vn 0.0036 0.9886 -0.1504
vn -0.0336 0.8756 -0.4819
vn -0.8544 0.4974 -0.1504
vn -0.7752 0.4084 -0.4819
vn -0.9886 0.0036 -0.1504
vn -0.8580 -0.4912 -0.1504
vn -0.0036 -0.9886 -0.1504
vn 0.0336 -0.8756 -0.4819
vn 0.8544 -0.4974 -0.1504
vn 0.7752 -0.4084 -0.4819
vn 0.9886 -0.0036 -0.1504
vn 0.4867 0.8520 0.1929
vn 0.4903 0.8580 -0.1530
vn -0.0045 0.9812 0.1929
vn -0.4945 0.8475 0.1929
vn -0.4979 0.8536 -0.1530
vn -0.8520 0.4867 0.1929
vn -0.8475 -0.4945 0.1929
vn -0.4867 -0.8520 0.1929
vn -0.4903 -0.8580 -0.1530
vn 0.0045 -0.9812 0.1929
vn 0.4945 -0.8475 0.1929
vn 0.4979 -0.8536 -0.1530
vn 0.8520 -0.4867 0.1929
vn 0.8518 0.4873 0.1923
vn 0.7851 0.4533 0.4220
vn 0.3484 0.7852 0.5119
vn -0.5091 0.7293 0.4572
vn -0.8055 0.3770 0.4572
vn -0.9811 0.0048 0.1933
vn -0.7292 -0.5091 0.4572
vn -0.3484 -0.7852 0.5119
vn 0.5091 -0.7293 0.4572
vn 0.8055 -0.3770 0.4572
vn 0.9811 -0.0048 0.1933
vn 0.7942 0.4585 0.3987
vn 0.0000 0.9180 0.3967
vn 0.3669 0.7962 0.4811
vn 0.0239 0.8168 0.5765
vn -0.7942 0.4585 0.3987
vn -0.5061 0.7158 0.4811
vn -0.9180 0.0000 0.3967
vn -0.8168 0.0239 0.5765
vn -0.7145 -0.5078 0.4812
vn -0.0000 -0.9180 0.3967
vn -0.3669 -0.7962 0.4811
vn -0.0239 -0.8168 0.5765
vn 0.7942 -0.4585 0.3987
vn 0.5061 -0.7158 0.4811
vn 0.9180 -0.0000 0.3967
vn 0.8168 -0.0239 0.5765
vn -0.4584 -0.8822 0.1073
vn -0.8660 -0.5000 -0.0000
vn -0.8616 -0.4975 0.1008
vn 0.0438 -0.9929 0.1103
vn -0.5000 -0.8660 -0.0000
vn 0.5348 -0.8381 0.1073
vn 0.0000 -1.0000 -0.0000
vn 0.8828 -0.4582 0.1031
vn 0.5000 -0.8660 -0.0000
vn 0.9929 0.0438 0.1103
vn 0.8660 -0.5000 -0.0000
vn 0.8383 0.5354 0.1031
vn 1.0000 0.0000 0.0000
vn 0.4584 0.8822 0.1073
vn 0.8660 0.5000 0.0000
vn -0.0438 0.9929 0.1103
vn 0.5000 0.8660 0.0000
vn -0.5348 0.8381 0.1073
vn 0.0000 1.0000 0.0000
vn -0.8828 0.4582 0.1031
vn -0.5000 0.8660 0.0000
vn -0.9929 -0.0438 0.1103
vn -0.8660 0.5000 0.0000
vn -1.0000 -0.0000 0.0000
vn 0.3927 0.2267 0.8913
vn 0.4534 -0.0000 0.8913
vn 0.2267 0.3927 0.8913
vn 0.0000 0.4534 0.8913
vn -0.2267 0.3927 0.8913
vn -0.3927 0.2267 0.8913
vn -0.4534 -0.0000 0.8913
vn -0.3927 -0.2267 0.8913
vn -0.2267 -0.3927 0.8913
vn -0.0000 -0.4534 0.8913
vn 0.2267 -0.3927 0.8913
vn 0.3927 -0.2267 0.8913
vn -0.5281 -0.3049 0.7925
vn -0.3049 -0.5281 0.7925
vn 0.3049 -0.5281 0.7925
vn 0.0000 -0.6098 0.7925
vn 0.5281 -0.3049 0.7925
vn 0.5281 0.3049 0.7925
vn 0.6098 0.0000 0.7925
vn 0.3049 0.5281 0.7925
vn -0.3049 0.5281 0.7925
vn 0.0000 0.6098 0.7925
vn -0.5281 0.3049 0.7925
vn -0.6098 0.0000 0.7925
vn 0.7139 0.4276 -0.5546
vn 0.9845 0.0000 0.1753
vn 0.8527 0.4923 0.1749
vn 0.4154 0.7194 -0.5566
vn -0.0000 0.9845 0.1753
vn -0.0000 0.8312 -0.5560
vn -0.4154 0.7194 -0.5567
vn -0.6665 0.7449 0.0298
vn -0.7195 0.4154 -0.5566
vn -0.9845 0.0000 0.1753
vn -0.8316 0.0000 -0.5554
vn -0.7196 -0.4155 -0.5564
vn -0.7473 -0.6639 0.0287
vn -0.4154 -0.7194 -0.5566
vn 0.0000 -0.9845 0.1753
vn 0.0000 -0.8312 -0.5560
vn 0.4154 -0.7194 -0.5567
vn 0.6665 -0.7449 0.0298
vn 0.7195 -0.4154 -0.5566
vn 0.8502 -0.0410 -0.5249
vn -0.7974 0.5599 -0.2250
vn 0.7974 -0.5599 -0.2250
vn 0.6282 0.3627 -0.6884
vn 0.3627 0.6282 -0.6884
vn -0.0000 0.7254 -0.6884
vn -0.6282 0.3627 -0.6884
vn -0.3627 0.6282 -0.6884
vn -0.7254 0.0000 -0.6884
vn -0.6282 -0.3627 -0.6884
vn -0.3627 -0.6282 -0.6884
vn 0.0000 -0.7254 -0.6884
vn 0.6282 -0.3627 -0.6884
vn 0.3627 -0.6282 -0.6884
vn 0.7254 0.0000 -0.6884
vn 0.4924 0.8528 0.1741
vn -0.4924 -0.8528 0.1741
s 1
f 2/1/1 4/2/2 1/3/3
f 5/4/4 2/1/1 1/3/3
f 8/5/5 5/6/4 7/7/6
f 9/8/7 8/5/5 7/7/6
f 12/9/8 9/8/7 11/10/9
f 14/11/10 11/10/9 13/12/11
f 16/13/12 13/12/11 15/14/13
f 17/15/14 16/13/12 15/14/13
f 20/16/15 17/15/14 19/17/16
f 21/18/17 20/16/15 19/17/16
f 24/19/18 21/18/17 23/20/19
f 3/21/20 23/20/19 4/2/2
f 2/1/1 26/22/21 3/21/20
f 27/23/22 2/1/1 6/24/23
f 8/5/5 27/25/22 6/26/23
f 29/27/24 8/5/5 10/28/25
f 30/29/26 10/28/25 12/9/8
f 31/30/27 12/9/8 14/11/10
f 16/13/12 31/30/27 14/11/10
f 33/31/28 16/13/12 18/32/29
f 20/16/15 33/31/28 18/32/29
f 35/33/30 20/16/15 22/34/31
f 36/35/32 22/34/31 24/19/18
f 26/22/21 24/19/18 3/21/20
f 37/36/33 26/22/21 25/37/34
f 39/38/35 25/37/34 27/23/22
f 40/39/36 27/25/22 28/40/37
f 41/41/38 28/40/37 29/27/24
f 30/29/26 41/41/38 29/27/24
f 43/42/39 30/29/26 31/30/27
f 44/43/40 31/30/27 32/44/41
f 45/45/42 32/44/41 33/31/28
f 46/46/43 33/31/28 34/47/44
f 47/48/45 34/47/44 35/33/30
f 36/35/32 47/48/45 35/33/30
f 38/49/46 36/35/32 26/22/21
f 37/36/33 50/50/47 38/49/46
f 39/38/35 49/51/48 37/36/33
f 52/52/49 39/53/35 40/39/36
f 53/54/50 40/39/36 41/41/38
f 42/55/51 53/54/50 41/41/38
f 55/56/52 42/55/51 43/42/39
f 44/43/40 55/56/52 43/42/39
f 45/45/42 56/57/53 44/43/40
f 58/58/54 45/45/42 46/46/43
f 59/59/55 46/46/43 47/48/45
f 48/60/56 59/59/55 47/48/45
f 50/50/47 48/60/56 38/49/46
f 49/51/48 62/61/57 50/50/47
f 49/51/48 63/62/58 61/63/59
f 52/52/49 63/64/58 51/65/60
f 52/52/49 65/66/61 64/67/62
f 53/54/50 66/68/63 65/66/61
f 55/56/52 66/68/63 54/69/64
f 56/57/53 67/70/65 55/56/52
f 56/57/53 69/71/66 68/72/67
f 58/58/54 69/71/66 57/73/68
f 58/58/54 71/74/69 70/75/70
f 59/59/55 72/76/71 71/74/69
f 50/50/47 72/76/71 60/77/72
f 74/78/73 76/79/74 73/80/75
f 77/81/76 75/82/77 74/78/73
f 79/83/78 78/84/79 77/81/76
f 81/85/80 80/86/81 79/83/78
f 83/87/82 82/88/83 81/85/80
f 85/89/84 84/90/85 83/87/82
f 87/91/86 86/92/87 85/89/84
f 89/93/88 88/94/89 87/91/86
f 91/95/90 90/96/91 89/93/88
f 93/97/92 92/98/93 91/95/90
f 95/99/94 94/100/95 93/97/92
f 73/80/75 96/101/96 95/99/94
f 97/102/97 99/103/98 100/104/98
f 98/105/97 101/106/99 102/107/99
f 101/106/99 104/108/100 102/107/99
f 104/108/100 105/109/101 106/110/101
f 105/109/101 108/111/102 106/110/101
f 107/112/102 110/113/103 108/111/102
f 110/113/103 111/114/104 112/115/104
f 112/115/104 113/116/105 114/117/105
f 113/116/105 116/118/106 114/117/105
f 116/118/106 117/119/107 118/120/107
f 117/119/107 120/121/108 118/120/107
f 119/122/108 99/103/98 120/121/108
f 98/105/109 74/78/73 73/80/75
f 102/107/110 77/81/76 74/78/73
f 106/110/111 77/81/76 104/108/112
f 108/111/113 79/83/78 106/110/111
f 108/111/113 83/87/82 81/85/80
f 112/115/114 83/87/82 110/113/115
f 112/115/114 87/91/86 85/89/84
f 114/117/116 89/93/88 87/91/86
f 118/120/117 89/93/88 116/118/118
f 120/121/119 91/95/90 118/120/117
f 120/121/119 95/99/94 93/97/92
f 98/105/109 95/99/94 99/103/120
f 122/123/121 124/124/122 121/125/123
f 121/125/123 126/126/124 122/123/121
f 126/126/124 127/127/125 128/128/126
f 127/129/125 130/130/127 128/131/126
f 129/132/128 132/133/129 130/130/127
f 132/133/129 133/134/130 134/135/131
f 133/134/130 136/136/132 134/135/131
f 135/137/133 138/138/134 136/136/132
f 138/138/134 139/139/135 140/140/136
f 139/139/135 142/141/137 140/140/136
f 141/142/138 144/143/139 142/141/137
f 144/143/139 124/124/122 123/144/140
f 61/63/59 121/125/123 62/61/57
f 127/127/125 61/63/59 63/62/58
f 64/67/62 127/129/125 63/64/58
f 131/145/141 64/67/62 65/66/61
f 133/134/130 65/66/61 66/68/63
f 67/70/65 133/134/130 66/68/63
f 68/72/67 135/137/133 67/70/65
f 139/139/135 68/72/67 69/71/66
f 70/75/70 139/139/135 69/71/66
f 143/146/142 70/75/70 71/74/69
f 124/124/122 71/74/69 72/76/71
f 62/61/57 124/124/122 72/76/71
f 126/126/124 97/147/143 122/123/121
f 128/128/126 101/148/144 126/126/124
f 130/130/127 103/149/145 128/131/126
f 130/130/127 107/150/146 105/151/147
f 132/133/129 109/152/148 107/150/146
f 136/136/132 109/152/148 134/135/131
f 138/138/134 111/153/149 136/136/132
f 140/140/136 113/154/150 138/138/134
f 142/141/137 115/155/151 140/140/136
f 142/141/137 119/156/152 117/157/153
f 144/143/139 100/158/154 119/156/152
f 122/123/121 100/158/154 123/144/140
f 2/1/1 3/21/20 4/2/2
f 5/4/4 6/24/23 2/1/1
f 8/5/5 6/26/23 5/6/4
f 9/8/7 10/28/25 8/5/5
f 12/9/8 10/28/25 9/8/7
f 14/11/10 12/9/8 11/10/9
f 16/13/12 14/11/10 13/12/11
f 17/15/14 18/32/29 16/13/12
f 20/16/15 18/32/29 17/15/14
f 21/18/17 22/34/31 20/16/15
f 24/19/18 22/34/31 21/18/17
f 3/21/20 24/19/18 23/20/19
f 2/1/1 25/37/34 26/22/21
f 27/23/22 25/37/34 2/1/1
f 8/5/5 28/40/37 27/25/22
f 29/27/24 28/40/37 8/5/5
f 30/29/26 29/27/24 10/28/25
f 31/30/27 30/29/26 12/9/8
f 16/13/12 32/44/41 31/30/27
f 33/31/28 32/44/41 16/13/12
f 20/16/15 34/47/44 33/31/28
f 35/33/30 34/47/44 20/16/15
f 36/35/32 35/33/30 22/34/31
f 26/22/21 36/35/32 24/19/18
f 37/36/33 38/49/46 26/22/21
f 39/38/35 37/36/33 25/37/34
f 40/39/36 39/53/35 27/25/22
f 41/41/38 40/39/36 28/40/37
f 30/29/26 42/55/51 41/41/38
f 43/42/39 42/55/51 30/29/26
f 44/43/40 43/42/39 31/30/27
f 45/45/42 44/43/40 32/44/41
f 46/46/43 45/45/42 33/31/28
f 47/48/45 46/46/43 34/47/44
f 36/35/32 48/60/56 47/48/45
f 38/49/46 48/60/56 36/35/32
f 37/36/33 49/51/48 50/50/47
f 39/38/35 51/159/60 49/51/48
f 52/52/49 51/65/60 39/53/35
f 53/54/50 52/52/49 40/39/36
f 42/55/51 54/69/64 53/54/50
f 55/56/52 54/69/64 42/55/51
f 44/43/40 56/57/53 55/56/52
f 45/45/42 57/73/68 56/57/53
f 58/58/54 57/73/68 45/45/42
f 59/59/55 58/58/54 46/46/43
f 48/60/56 60/77/72 59/59/55
f 50/50/47 60/77/72 48/60/56
f 49/51/48 61/63/59 62/61/57
f 49/51/48 51/159/60 63/62/58
f 52/52/49 64/67/62 63/64/58
f 52/52/49 53/54/50 65/66/61
f 53/54/50 54/69/64 66/68/63
f 55/56/52 67/70/65 66/68/63
f 56/57/53 68/72/67 67/70/65
f 56/57/53 57/73/68 69/71/66
f 58/58/54 70/75/70 69/71/66
f 58/58/54 59/59/55 71/74/69
f 59/59/55 60/77/72 72/76/71
f 50/50/47 62/61/57 72/76/71
f 74/78/73 75/82/77 76/79/74
f 77/81/76 78/84/79 75/82/77
f 79/83/78 80/86/81 78/84/79
f 81/85/80 82/88/83 80/86/81
f 83/87/82 84/90/85 82/88/83
f 85/89/84 86/92/87 84/90/85
f 87/91/86 88/94/89 86/92/87
f 89/93/88 90/96/91 88/94/89
f 91/95/90 92/98/93 90/96/91
f 93/97/92 94/100/95 92/98/93
f 95/99/94 96/101/96 94/100/95
f 73/80/75 76/79/74 96/101/96
f 97/102/97 98/105/97 99/103/98
f 98/105/97 97/102/97 101/106/99
f 101/106/99 103/160/100 104/108/100
f 104/108/100 103/160/100 105/109/101
f 105/109/101 107/112/102 108/111/102
f 107/112/102 109/161/103 110/113/103
f 110/113/103 109/161/103 111/114/104
f 112/115/104 111/114/104 113/116/105
f 113/116/105 115/162/106 116/118/106
f 116/118/106 115/162/106 117/119/107
f 117/119/107 119/122/108 120/121/108
f 119/122/108 100/104/98 99/103/98
f 98/105/109 102/107/110 74/78/73
f 102/107/110 104/108/112 77/81/76
f 106/110/111 79/83/78 77/81/76
f 108/111/113 81/85/80 79/83/78
f 108/111/113 110/113/115 83/87/82
f 112/115/114 85/89/84 83/87/82
f 112/115/114 114/117/116 87/91/86
f 114/117/116 116/118/118 89/93/88
f 118/120/117 91/95/90 89/93/88
f 120/121/119 93/97/92 91/95/90
f 120/121/119 99/103/120 95/99/94
f 98/105/109 73/80/75 95/99/94
f 122/123/121 123/144/140 124/124/122
f 121/125/123 125/163/155 126/126/124
f 126/126/124 125/163/155 127/127/125
f 127/129/125 129/132/128 130/130/127
f 129/132/128 131/145/141 132/133/129
f 132/133/129 131/145/141 133/134/130
f 133/134/130 135/137/133 136/136/132
f 135/137/133 137/164/156 138/138/134
f 138/138/134 137/164/156 139/139/135
f 139/139/135 141/142/138 142/141/137
f 141/142/138 143/146/142 144/143/139
f 144/143/139 143/146/142 124/124/122
f 61/63/59 125/163/155 121/125/123
f 127/127/125 125/163/155 61/63/59
f 64/67/62 129/132/128 127/129/125
f 131/145/141 129/132/128 64/67/62
f 133/134/130 131/145/141 65/66/61
f 67/70/65 135/137/133 133/134/130
f 68/72/67 137/164/156 135/137/133
f 139/139/135 137/164/156 68/72/67
f 70/75/70 141/142/138 139/139/135
f 143/146/142 141/142/138 70/75/70
f 124/124/122 143/146/142 71/74/69
f 62/61/57 121/125/123 124/124/122
f 126/126/124 101/148/144 97/147/143
f 128/128/126 103/165/145 101/148/144
f 130/130/127 105/151/147 103/149/145
f 130/130/127 132/133/129 107/150/146
f 132/133/129 134/135/131 109/152/148
f 136/136/132 111/153/149 109/152/148
f 138/138/134 113/154/150 111/153/149
f 140/140/136 115/155/151 113/154/150
f 142/141/137 117/157/153 115/155/151
f 142/141/137 144/143/139 119/156/152
f 144/143/139 123/144/140 100/158/154
f 122/123/121 97/147/143 100/158/154
