# Blender v2.80 (sub 75) OBJ File: ''
# www.blender.org
o Cube.011_Cube.012
v -81.377075 12.938824 -1.567970
v -81.377075 12.938824 40.807159
v -81.377075 19.094805 -1.567970
v -81.377075 19.094805 40.807159
v -9.411999 12.938824 -1.567970
v -9.411999 12.938824 40.807159
v -9.411999 19.094805 -1.567970
v -9.411999 19.094805 40.807159
vt 0.375000 0.500000
vt 0.125000 0.750000
vt 0.125000 0.500000
vt 0.875000 0.500000
vt 0.625000 0.750000
vt 0.625000 0.500000
vt 0.375000 0.750000
vt 0.875000 0.750000
vn 0.0000 0.0000 -1.0000
vn 0.0000 0.0000 1.0000
s off
f 7/1/1 1/2/1 3/3/1
f 4/4/2 6/5/2 8/6/2
f 7/1/1 5/7/1 1/2/1
f 4/4/2 2/8/2 6/5/2
