# Blender v2.80 (sub 75) OBJ File: ''
# www.blender.org
o Cube.002_Cube.003
v -56.855385 -61.989819 -0.592327
v -56.855385 -61.989819 40.548489
v -56.855385 -57.699348 -0.592327
v -56.855385 -57.699348 40.548489
v -44.487263 -61.989819 -0.592327
v -44.487263 -61.989819 40.548489
v -44.487263 -57.699348 -0.592327
v -44.487263 -57.699348 40.548489
vt 0.375000 0.500000
vt 0.125000 0.750000
vt 0.125000 0.500000
vt 0.875000 0.500000
vt 0.625000 0.750000
vt 0.625000 0.500000
vt 0.375000 0.750000
vt 0.875000 0.750000
vn 0.0000 0.0000 -1.0000
vn 0.0000 0.0000 1.0000
s off
f 7/1/1 1/2/1 3/3/1
f 4/4/2 6/5/2 8/6/2
f 7/1/1 5/7/1 1/2/1
f 4/4/2 2/8/2 6/5/2
