# Blender v2.80 (sub 75) OBJ File: ''
# www.blender.org
o Cube.015_Cube.018
v 149.621857 -20.520844 -1.567968
v 149.621857 -20.520844 40.807159
v 156.712692 -20.520844 -1.567968
v 156.712692 -20.520844 40.807159
v 149.621841 -169.700531 -1.567968
v 149.621841 -169.700531 40.807159
v 156.712662 -169.700531 -1.567968
v 156.712662 -169.700531 40.807159
vt 0.375000 0.500000
vt 0.125000 0.750000
vt 0.125000 0.500000
vt 0.875000 0.500000
vt 0.625000 0.750000
vt 0.625000 0.500000
vt 0.375000 0.750000
vt 0.875000 0.750000
vn 0.0000 0.0000 -1.0000
vn 0.0000 0.0000 1.0000
s off
f 7/1/1 1/2/1 3/3/1
f 4/4/2 6/5/2 8/6/2
f 7/1/1 5/7/1 1/2/1
f 4/4/2 2/8/2 6/5/2
