# Blender v2.80 (sub 75) OBJ File: ''
# www.blender.org
o Cube.013_Cube.016
v 153.457962 61.461906 -1.567968
v 153.457962 61.461906 40.807159
v 157.908798 61.461906 -1.567968
v 157.908798 61.461906 40.807159
v 153.457947 -87.717789 -1.567968
v 153.457947 -87.717789 40.807159
v 157.908783 -87.717789 -1.567968
v 157.908783 -87.717789 40.807159
vt 0.375000 0.500000
vt 0.125000 0.750000
vt 0.125000 0.500000
vt 0.875000 0.500000
vt 0.625000 0.750000
vt 0.625000 0.500000
vt 0.375000 0.750000
vt 0.875000 0.750000
vn 0.0000 0.0000 -1.0000
vn 0.0000 0.0000 1.0000
s off
f 7/1/1 1/2/1 3/3/1
f 4/4/2 6/5/2 8/6/2
f 7/1/1 5/7/1 1/2/1
f 4/4/2 2/8/2 6/5/2
