# Blender v2.80 (sub 75) OBJ File: ''
# www.blender.org
o Cube.001_Cube.002
v -56.501911 -15.671509 -10.954922
v -56.501911 -15.671509 40.703632
v -56.501911 -11.120226 -10.954922
v -56.501911 -11.120226 40.703632
v -35.521801 -15.671509 -10.954922
v -35.521801 -15.671509 40.703632
v -35.521801 -11.120226 -10.954922
v -35.521801 -11.120226 40.703632
v -56.501911 -15.671509 39.929874
v -56.501911 -11.120226 39.929874
v -35.521801 -11.120226 39.929874
v -35.521801 -15.671509 39.929874
v -56.501911 -11.120226 -8.214378
v -35.521801 -11.120226 -8.214378
v -35.521801 -15.671509 -8.214378
v -56.501911 -15.671509 -8.214378
vt 0.375000 0.500000
vt 0.125000 0.750000
vt 0.125000 0.500000
vt 0.875000 0.500000
vt 0.625000 0.750000
vt 0.625000 0.500000
vt 0.375000 0.750000
vt 0.875000 0.750000
vn 0.0000 0.0000 -1.0000
vn 0.0000 0.0000 1.0000
s off
f 7/1/1 1/2/1 3/3/1
f 4/4/2 6/5/2 8/6/2
f 7/1/1 5/7/1 1/2/1
f 4/4/2 2/8/2 6/5/2
l 9 2
l 13 3
l 14 7
l 15 5
l 4 10
l 8 11
l 6 12
l 1 16
